<?xml version="1.0" standalone="no"?>
<svg xmlns="http://www.w3.org/2000/svg" version="1.1" xmlns:xlink="http://www.w3.org/1999/xlink" width="512" height="512" x="0" y="0" viewBox="0 0 512 512" style="enable-background:new 0 0 512 512" xml:space="preserve" class=""><g><path d="M33.47 512c-8.544 0-15.471-6.927-15.471-15.471V224.13c0-31.128 6.493-62.236 19.104-90.703.048-.11.281-.6.358-.75 10.749-21.271 22.894-41.824 39.002-59.52 20.245-22.241 46.147-41.069 73.603-53.435 25.03-11.288 51.688-17.798 79.24-19.353l.63-.042C233.966.111 238.073 0 242.128 0c62.266 0 119.629 9.86 169.362 50.412 51.679 42.14 82.512 107.069 82.512 173.717v272.399c0 8.544-6.927 15.471-15.471 15.471H33.47z" style="" fill="#ffffff" data-original="#ffffff" class=""/><path d="M478.089 224.351V496.75h-55.524l-155.372-54.434L77.585 496.75H33.028V224.351c0-27.281 5.234-53.299 14.724-77.176a164.64 164.64 0 0 1 2.94-6.962 233.097 233.097 0 0 1 5.002-10.572A209.704 209.704 0 0 1 78.36 94.495a201.69 201.69 0 0 1 9.102-10.701c38.163-41.85 93.138-68.1 154.224-68.1h27.745c36.151 0 70.137 9.18 99.765 25.347 2.824 1.534 0 19.965 2.733 21.625 2.733 1.66 11.024-13.451 13.667-11.672 3.687 2.476 7.22 5.054 10.727 7.71l.026.026c3.872 2.968-7.647 10.604-4 13.83 4.051 3.584 23.242 2.789 27.001 6.67 25.27 26.095 43.784 58.766 52.732 95.226a209.371 209.371 0 0 1 6.007 49.895z" style="" fill="#a27cff" data-original="#a27cff" class=""/><path d="M421.592 225.717c4.1 19.288 14.878 36.642 18.927 55.903 6.859 32.774-8.329 69.054-36.538 87.13-24.677 15.807-55.516 17.508-84.809 18.72-38.524 1.599-77.022 3.172-115.546 4.77-21.402.902-43.629 1.65-63.329-6.73-15.91-6.73-28.803-18.824-41.36-30.685-17.302-16.374-35.662-34.785-38.395-58.43-4.022-35.12 28.132-66.965 23.749-102.06-2.553-20.577-17.921-37.802-36.538-47.162a207.08 207.08 0 0 1 3.055-7.26c.856-1.932 12.37-2.163 13.282-4.064.831-1.73-8.944-5.131-8.068-6.834A208.909 208.909 0 0 1 77.9 95.054c1.601-2.025 10.357 6.549 12.03 4.586 1.538-1.804-4.012-14.151-2.415-15.901 38.162-41.816 93.097-68.046 154.171-68.046h27.745c98.037 0 180.293 67.61 202.65 158.762-10.495-1.057-21.015-2.991-30.685.774-18.36 7.117-23.904 31.226-19.804 50.488z" style="opacity:0.37;" fill="#ffbeff" data-original="#ffbeff" class=""/><path d="m156.593 147.38-51.365-3.971-12.506 40.819-9.876-47.394-32.155 3.378a233.097 233.097 0 0 1 5.002-10.572l26.508-18.488-3.842-16.658a201.69 201.69 0 0 1 9.102-10.701l12.506 17.483 47.394-18.411-20.396 34.888 29.628 29.627zM419.349 79.229l-30.118 4.409-4.641 41.644-28.983-42.572-39.684 15.729 30.839-37.338-31.149-31.561 50.798 15.033 2.785-3.533a202.768 202.768 0 0 1 16.4 9.953l-.361 1.289 11.088 6.421.026.026a209.386 209.386 0 0 1 23 20.5zM402.475 228.737l19.331-49.028.911 50.963 49.503 11.668-36.587 17.188 7.626 41.197-40.076-32.35-33.434 26.546 18.72-44.654-38.957-21.195zM119.384 297.994l24.78 33.779-50.153-11.68-18.54 38.472-2.578-48.348-39.865-1.908v-2.398l43.088-21.17-3.945-52.578 23.001 45.487 49.663-11.037z" style="" fill="#ffbeff" data-original="#ffbeff" class=""/><path d="m285.187 230.317-2.522 30.376-1.025 12.429s-8.481 25.012-26.883 25.012-45.286-29.628-45.286-29.628l1.358-65.728 16.296 6.034 58.062 21.505z" style="" fill="#ff9393" data-original="#ff9393" class=""/><path d="m285.187 230.317-2.522 30.376c-6.18 1.263-13.026.696-19.206-.928-17.322-4.564-45.092-24.058-39.937-43.758.693-2.656 1.94-5.054 3.603-7.194l58.062 21.504z" style="" fill="#32254b" data-original="#2f2444" class="" opacity="1"/><path d="M253.681 287.821h130.918c.77 0 1.922-.48 2.553-.92a192.325 192.325 0 0 0 1.288-30.469c-.52-13.999-2.837-28.598-11.224-39.819-5.699-7.624-13.749-13.082-21.549-18.538-3.372-2.359-6.781-4.797-9.268-8.076-5.622-7.413-5.514-17.497-6.096-26.783a139.351 139.351 0 0 0-5.499-30.959c-9.385-6.256-23.04-7.863-33.927-4.919-10.888 2.944-20.483 9.684-28.189 17.92-15.992 17.093-24.087 40.14-28.731 63.082-4.927 24.339-6.28 50.405 3.34 73.299l6.384 6.182z" style="" fill="#050000" data-original="#f96756" class="" opacity="1"/><path d="M240.525 100.872c1.381 29.282-9.872 58.918-30.683 80.811 24.409 29.773 33.329 70.181 23.526 106.577l-116.5-.553c.046-19.695 1.079-38.611 6.088-57.74 4.578-17.484 11.687-35.21 25.832-47.401.302-36.074 15.595-73.575 45.572-96.232 5.327-4.027 11.225-7.646 17.891-9.105 6.667-1.459 14.245-.449 19.302 3.873 5.542 4.736 8.641 12.751 8.972 19.77z" style="" fill="#050000" data-original="#f96756" class="" opacity="1"/><path d="M330.019 186.095c-4.177 16.606-11.707 32.309-21.789 44.042a86.93 86.93 0 0 1-2.914 3.197c-7.349 7.633-16.606 13.28-26.637 16.606-3.172 1.057-9.644 3.79-13.099 2.888-.077-.026-46.878-12.532-54.846-50.05-3.636-17.147-5.673-29.447-6.807-37.802a69.705 69.705 0 0 1-1.47-14.208c0-37.26 29.241-67.481 65.341-67.481 3.275 0 6.575.258 9.824.748 24.548 3.842 44.841 22.227 52.293 45.744 2.321 7.323 3.558 15.317 3.816 23.62.336 10.701-.979 21.892-3.712 32.696z" style="" fill="#ff9393" data-original="#ff9393" class=""/><g style="opacity:0.44;"><circle cx="239.651" cy="206.295" r="24.579" style="" transform="rotate(-80.712 239.646 206.292)" fill="#050000" data-original="#f96756" class="" opacity="1"/></g><g style="opacity:0.44;"><path d="M330.019 186.095c-4.177 16.606-11.707 32.309-21.789 44.042-8.303-3.919-14.053-12.377-14.053-22.202 0-13.563 11.011-24.574 24.574-24.574a24.43 24.43 0 0 1 11.268 2.734z" style="" fill="#050000" data-original="#f96756" class="" opacity="1"/></g><path d="M282.117 196.83a1.29 1.29 0 0 1-.146-2.57 29.241 29.241 0 0 0 5.843-1.294 1573.23 1573.23 0 0 1-2.161-31.789 1.287 1.287 0 0 1 1.212-1.361c.706-.016 1.321.501 1.361 1.213.629 10.89 1.381 21.899 2.236 32.723a1.29 1.29 0 0 1-.839 1.311 31.71 31.71 0 0 1-7.359 1.759 1.417 1.417 0 0 1-.147.008zM254.315 183.142c-.761 0-1.533-.066-2.308-.201-3.8-.655-7.632-2.801-11.712-6.563-.548-.506-.698-1.534-.338-2.299.362-.765 1.099-.972 1.647-.471 3.769 3.474 7.266 5.45 10.694 6.042 4.033.689 7.879-.695 10.562-3.809.505-.585 1.253-.488 1.673.217.419.703.349 1.75-.155 2.336-2.658 3.083-6.235 4.748-10.063 4.748zM307.517 182.923c-3.577 0-7.125-1.955-9.832-5.452-.518-.669-.574-1.84-.125-2.614.45-.772 1.235-.857 1.754-.186 2.411 3.115 5.62 4.776 8.809 4.524 3.187-.241 6.27-2.364 8.459-5.825.47-.749 1.26-.78 1.756-.078.5.702.523 1.874.052 2.618-2.625 4.152-6.321 6.697-10.141 6.986a9.946 9.946 0 0 1-.732.027zM281.398 210.966a13.93 13.93 0 0 1-3.747-.509 14.186 14.186 0 0 1-8.021-5.939 1.292 1.292 0 0 1 .392-1.782 1.293 1.293 0 0 1 1.782.392 11.573 11.573 0 0 0 6.543 4.846 11.59 11.59 0 0 0 8.11-.739 1.289 1.289 0 1 1 1.133 2.317 14.16 14.16 0 0 1-6.192 1.414z" style="" fill="#32254b" data-original="#2f2444" class="" opacity="1"/><path d="M241.13 158.302c.264-2.89 2.474-5.198 5.012-6.337 1.273-.615 2.715-.849 4.127-.765 1.407.109 2.828.575 3.908 1.616a1.509 1.509 0 0 1-.353 2.427l-.186.095a39.943 39.943 0 0 1-2.785 1.292c-.819.324-1.57.666-2.364.92-1.592.596-3.042 1.223-5.182 2.132l-.181.077a1.44 1.44 0 0 1-1.996-1.457zM303.424 151.844c2.305-1.886 5.499-2.051 8.215-1.225 1.364.447 2.658 1.137 3.714 2.122 1.061.961 1.922 2.183 2.266 3.642a1.468 1.468 0 0 1-1.789 1.759l-.126-.033c-2.428-.628-4.073-1.217-5.885-1.798-1.799-.618-3.504-1.093-5.836-1.95l-.143-.053a1.44 1.44 0 0 1-.416-2.464zM305.445 141.434c-3.249-10.134-7.014-19.932-11.165-29.782a108.666 108.666 0 0 1 6.962 29.782h-27.049c-3.275-10.495-7.349-20.164-12.738-30.118 3.713 9.566 5.518 19.855 5.363 30.118h-29.37l-9.205-36.203-9.541-27.978s24.342-15.807 71.762-6.575c47.394 9.206 51.004 70.756 51.004 70.756h-36.023z" style="" fill="#050000" data-original="#f96756" class="" opacity="1"/><path d="M185.871 163.39c-3.216 2.738-5.301 6.648-6.313 10.749-2.938 11.908 3.486 25.083 14.029 31.349 4.731 2.812 10.71 4.364 15.738 2.127 10.683-4.753 8.385-17.932 6.404-26.97-1.679-7.657-5.555-13.141-11.961-17.797-5.567-4.047-12.557-4.006-17.897.542z" style="" fill="#ff9393" data-original="#ff9393" class=""/><path d="M195.732 157.096c1.065.684 1.969 1.589 2.838 2.509a69.586 69.586 0 0 1 13.822 21.49c3.863-7.763 7.871-15.73 9.013-24.326.626-4.711.416-9.604 2.046-14.068 3.468-9.499 14.502-15.093 16.703-24.962 1.513-6.786-1.619-13.657-4.727-19.877-2.478-4.96-5.435-10.31-10.624-12.261-6.211-2.336-13.079 1.163-18.204 5.379-9.157 7.533-16.114 17.916-18.742 29.479-2.627 11.562-2.1 30.226 7.875 36.637z" style="" fill="#050000" data-original="#f96756" class="" opacity="1"/><path d="M209.627 195.161a1.29 1.29 0 0 1-1.223-.88c-1.732-5.18-3.825-10.564-7.372-14.843-3.77-4.548-8.903-7.201-13.733-7.028-.618-.006-1.306-.538-1.328-1.25a1.29 1.29 0 0 1 1.25-1.328c5.585-.13 11.52 2.804 15.795 7.962 3.817 4.604 6.021 10.253 7.833 15.669a1.29 1.29 0 0 1-1.222 1.698z" style="" fill="#32254b" data-original="#2f2444" class="" opacity="1"/><path d="M191.659 188.096a1.29 1.29 0 0 1-.694-2.377c4.719-3.004 11.114-3.099 15.918-.234a1.29 1.29 0 0 1-1.322 2.214c-3.984-2.376-9.293-2.302-13.211.196a1.297 1.297 0 0 1-.691.201z" style="" fill="#32254b" data-original="#2f2444" class="" opacity="1"/><path d="M422.443 496.75H77.199c.851-56.703 5.931-159.742 30.891-182.82 8.148-7.529 17.715-13.847 27.642-19.082 4.848-2.578 9.773-4.899 14.646-6.988 27.797-11.861 53.84-16.064 53.84-16.064l3.945-16.451 1.573.077 27.513 1.109 3.662.155 9.67.387h.284l5.57.232 14.801.619 2.579.103 9.025.361 6.292.258 2.63 17.766s2.011.232 5.518.825c.516.077 1.057.155 1.65.258.309.052.645.103.98.18 3.945.67 9.102 1.676 15.007 3.069 1.057.258 2.166.516 3.275.799a229.88 229.88 0 0 1 15.11 4.255c2.011.619 4.048 1.315 6.111 2.011 16.812 5.905 34.372 14.517 45.847 26.791 6.601 7.039 12.3 22.743 17.147 42.675 10.109 41.386 16.632 101.054 20.036 139.475z" style="" fill="#ffc15c" data-original="#ffc15c" class=""/><path d="m153.297 399.276-.049-.001a1.288 1.288 0 0 1-1.24-1.336l1.317-35.552c.027-.711.637-1.296 1.336-1.24a1.289 1.289 0 0 1 1.24 1.336l-1.317 35.552a1.289 1.289 0 0 1-1.287 1.241zM370.992 428.243a1.29 1.29 0 0 1-1.287-1.235l-2.194-52.23a1.289 1.289 0 0 1 1.234-1.342 1.278 1.278 0 0 1 1.342 1.234l2.195 52.23a1.289 1.289 0 0 1-1.234 1.342l-.056.001z" style="" fill="#32254b" data-original="#2f2444" class="" opacity="1"/><path d="M370.888 418.531a1.291 1.291 0 0 1-1.13-1.91 98.36 98.36 0 0 1 13.14-18.498 1.29 1.29 0 1 1 1.917 1.725 95.71 95.71 0 0 0-12.795 18.015 1.293 1.293 0 0 1-1.132.668zM152.39 400.169c-.465 0-.912-.251-1.143-.69a45.488 45.488 0 0 0-11.057-13.678 1.291 1.291 0 0 1-.165-1.817 1.291 1.291 0 0 1 1.817-.165 48.126 48.126 0 0 1 11.689 14.462 1.29 1.29 0 0 1-1.141 1.888z" style="" fill="#32254b" data-original="#2f2444" class="" opacity="1"/><path d="m137.935 196.968 14.484-14.923s105.337-7.023 120.26 42.574c0 0 32.479-55.741 108.848-53.546l21.067 21.945-8.339 35.112-143.522 28.968-104.02-18.873-8.778-41.257z" style="" fill="#fbeee5" data-original="#fbeee5" class=""/><path d="M135.74 373.846V194.773s73.078-7.9 136.938 23.042c0 0 60.569-36.868 131.671-27.651v166.564l-132.33 37.526-136.279-20.408z" style="" fill="#6e6aeb" data-original="#6adeeb" class="" opacity="1"/><path d="M290.674 259.498a.644.644 0 0 1-.645-.628l-.878-33.356a.642.642 0 0 1 .401-.613c.506-.207 51.192-20.63 102.091-18.921a.645.645 0 0 1 .622.62l1.317 34.234a.643.643 0 0 1-.596.667c-.758.058-76.114 5.838-102.041 17.937a.64.64 0 0 1-.271.06zm-.222-33.569.84 31.935c25.605-11.34 93.739-17.023 100.978-17.601L391 207.249c-47.979-1.474-95.632 16.743-100.548 18.68zM272.02 395.545c-.766.003-1.29-.579-1.289-1.294l.659-176.44a1.29 1.29 0 0 1 1.289-1.284h.005a1.29 1.29 0 0 1 1.284 1.294l-.658 176.44a1.29 1.29 0 0 1-1.29 1.284z" style="" fill="#32254b" data-original="#2f2444" class="" opacity="1"/><path d="m150.224 422.565 28.309-46.085-7.9-44.11 40.818-67.152s7.242 11.192 4.608 18.434c-2.633 7.242-9.875 24.359-9.875 24.359l42.793-17.776s5.267 7.242-2.633 17.776l7.9-4.609s5.925 8.559-2.633 18.434c0 0 8.778 7.242.219 18.434-3.566 4.663-16.742 9.4-21.067 13.387-6.055 5.582-2.853 9.656-2.853 9.656s4.609 18.434 0 35.551-28.968 60.569-28.968 60.569l-48.718-36.868z" style="" fill="#ff9393" data-original="#ff9393" class=""/><path d="M188.079 326.746a1.288 1.288 0 0 1-.895-2.217l18.105-17.446c.116-.112.252-.201.4-.263l42.793-17.777c.32-.13.677-.13.995.003.319.134.569.389.697.71.202.505 4.859 12.453-2.989 19.231a1.289 1.289 0 1 1-1.685-1.951c5.136-4.436 3.564-12.09 2.689-15.079l-41.287 17.152-17.929 17.276a1.278 1.278 0 0 1-.894.361z" style="" fill="#32254b" data-original="#2f2444" class="" opacity="1"/><path d="M204.209 334.975a1.29 1.29 0 0 1-.86-2.25l15.801-14.154c.102-.091.218-.166.344-.22l33.905-14.813a1.289 1.289 0 0 1 1.662.589c.053.103 5.269 10.458-2.518 18.6a1.29 1.29 0 1 1-1.863-1.783c5.199-5.435 3.533-11.954 2.566-14.526l-32.529 14.211-15.648 14.017a1.28 1.28 0 0 1-.86.329z" style="" fill="#32254b" data-original="#2f2444" class="" opacity="1"/><path d="M227.91 400.154a1.288 1.288 0 0 1-1.205-1.746c6.963-18.356-1.858-38.647-1.948-38.851a1.288 1.288 0 0 1 .086-1.206c.07-.113 1.834-2.873 9.463-9.507 3.438-2.989 6.927-4.481 10.006-5.797 3.878-1.658 6.941-2.968 8.779-6.644 2.562-5.124-.306-10.993-1.615-13.221l-16.734 8.368-16.608 12.069a1.288 1.288 0 1 1-1.514-2.087l16.788-12.179 17.955-8.997a1.292 1.292 0 0 1 1.623.4c.261.361 6.336 8.952 2.411 16.801-2.261 4.523-6.056 6.144-10.072 7.862-3.046 1.302-6.195 2.648-9.327 5.372-5.437 4.728-7.763 7.384-8.589 8.422 1.575 3.87 8.389 22.493 1.706 40.11a1.292 1.292 0 0 1-1.205.831z" style="" fill="#32254b" data-original="#2f2444" class="" opacity="1"/><path d="M313.826 454.166s-7.242-36.868-10.534-41.806c-3.292-4.938-12.509-16.788-13.496-31.93-.988-15.142-6.584-45.098-6.584-45.098s-23.372-38.843-9.217-46.743c0 0-5.596-13.167 4.279-15.142l35.881 44.768 1.317-.329s-30.284-49.048-9.875-58.923l5.925 9.546s-2.963-12.509 6.913-14.155c0 0 30.614 63.202 30.943 69.786.329 6.583 2.304 69.128 4.938 75.711 2.633 6.584 15.801 46.085 15.801 46.085l-56.291 8.23z" style="" fill="#ff9393" data-original="#ff9393" class=""/><path d="M297.916 325.54c-.416 0-.824-.2-1.072-.572l-23.92-35.662c-.212-.378-3.663-6.867-1.463-12.004 1.073-2.504 3.25-4.22 6.474-5.099a1.295 1.295 0 0 1 1.342.434l37.417 46.414a1.29 1.29 0 0 1-2.007 1.619l-36.869-45.734c-2.003.697-3.31 1.807-3.984 3.374-1.712 3.986 1.264 9.609 1.294 9.666l23.855 35.556a1.288 1.288 0 0 1-1.067 2.008z" style="" fill="#32254b" data-original="#2f2444" class="" opacity="1"/><path d="M313.936 316.981c-.438 0-.865-.223-1.107-.626-.837-1.395-20.427-34.339-14.975-50.745 1.244-3.739 3.684-6.377 7.253-7.84a1.292 1.292 0 0 1 1.644.622s14.924 30.176 26.994 54.757a1.289 1.289 0 0 1-2.314 1.136 26158.152 26158.152 0 0 0-26.432-53.617c-2.28 1.225-3.823 3.119-4.699 5.755-5.082 15.286 14.54 48.275 14.739 48.606a1.29 1.29 0 0 1-1.103 1.952z" style="" fill="#32254b" data-original="#2f2444" class="" opacity="1"/><path d="M391.758 496.75h-83.081l-11.861-61.009s2.475-1.986 5.982-3.713a30.67 30.67 0 0 1 2.45-1.109c.696-.258 1.418-.49 2.14-.722.026 0 .077-.026.129-.026.335-.103.696-.181 1.057-.258 2.785-.645 5.724-.671 8.432.542 6.833 3.094 10.753 8.561 12.145 10.83.309.49.49.825.567.954a6.158 6.158 0 0 1-.103-.825c-.438-3.352-1.212-14.956 8.896-15.342 8.896-.335 15.085 7.272 17.586 11.062l.051.052c.696 1.057 1.109 1.805 1.212 2.011-.052-.18-.258-.799-.464-1.728-1.031-4.126-2.759-14.337 3.945-19.081 1.186-.851 2.656-1.521 4.435-1.96l.284.825 26.198 79.497zM219.562 433.988l-11.732 28.235-.026.077-10.933 26.327-3.378 8.122H94.888l44.712-74.701.155-.232 12.944-21.686h.026l.516-.851.387-.67s.026-.026 0-.026l1.006-1.625 1.728-2.914s4.744 2.011 7.762 5.879c1.676 2.14 2.811 4.874 2.346 8.148l-.232 1.547c-1.16 7.529-2.553 12.403-2.785 13.254.129-.232.464-.799.98-1.547.877-1.315 2.295-3.197 4.254-4.873 1.676-1.444 3.713-2.759 6.111-3.481.026 0 .026-.026.051-.026a.364.364 0 0 1 .155-.051c2.604-.748 5.621-.799 9.025.464 12.867 4.719 4.745 26.662 4.409 27.616.774-.619 13.615-10.727 23.981-9.953h.026c.49.026.98.103 1.47.181 2.062.388 3.971 1.264 5.647 2.786z" style="" fill="#ffc15c" data-original="#ffc15c" class=""/><path d="m216.416 434.813-8.587 27.41-.026.077-10.778 34.449h-2.708l2.553-8.122 16.812-53.763a17.145 17.145 0 0 0-1.186-.851c-2.372-1.521-4.899-2.115-7.504-1.753-8.251 1.109-15.007 11.114-15.085 11.217a1.256 1.256 0 0 1-1.599.438 1.253 1.253 0 0 1-.696-1.521c.052-.181 5.389-19.056-2.269-25.889-7.297-6.549-18.72 5.08-18.824 5.209a1.323 1.323 0 0 1-1.599.206 1.016 1.016 0 0 1-.49-.593 1.099 1.099 0 0 1-.077-.902c1.263-4.023 1.882-7.633 1.882-10.804-.026-3.301-.748-6.137-2.14-8.483a3.546 3.546 0 0 0-.387-.542c-2.192-3.301-5.312-4.616-6.782-5.08l-17.173 26.301-.155.232-40.097 61.344a1.291 1.291 0 0 1-1.779.387 1.285 1.285 0 0 1-.361-1.779l53.892-82.514.773-1.212v-.026l.825-1.186 1.882-2.862v-.026l.542-.851c.284-.438.799-.645 1.315-.567.232.052 5.08 1.006 8.587 5.467.387.49.774 1.006 1.109 1.599 2.656 4.409 3.197 10.16 1.65 17.199.232-.181.49-.387.748-.567 1.702-1.264 3.816-2.579 6.111-3.481.026 0 .026-.026.051-.026a.364.364 0 0 1 .155-.051c3.894-1.47 8.277-1.702 12.068 1.676 6.086 5.441 5.338 16.503 4.203 23.156 3.043-3.249 7.813-7.272 13.383-8.019 2.708-.361 5.286.077 7.762 1.315h.026c.413.206.825.413 1.212.67.799.49 1.599 1.083 2.372 1.753.389.333.543.875.389 1.365zM399.778 496.75h-2.785l-26.482-68.616-.851-2.166v-.026l-3.429-8.896a5.197 5.197 0 0 0-.67.206c-1.702.516-3.12 1.315-4.281 2.45a7.92 7.92 0 0 0-1.47 1.728c-3.662 5.673-1.624 14.337-1.599 14.44a1.318 1.318 0 0 1-.748 1.47 1.413 1.413 0 0 1-.567.129 1.12 1.12 0 0 1-.748-.284l-.051-.052a.603.603 0 0 1-.206-.232c-.077-.103-7.194-10.366-17.276-9.541-2.501.206-4.409 1.135-5.699 2.785-2.862 3.661-1.908 9.695-1.908 9.773.103.567-.232 1.16-.773 1.392a1.738 1.738 0 0 1-.619.103 1.582 1.582 0 0 1-.464-.129c-.181-.103-.335-.206-.438-.387-7.761-10.417-15.523-11.501-20.113-10.907a11.74 11.74 0 0 0-1.083.181c-.052 0-.103.026-.129.026-.903.181-1.624.413-2.14.619v.103l7.968 65.831h-2.63l-7.787-64.722-.232-1.857c-.077-.516.206-1.031.671-1.289.051-.026 1.831-.954 4.745-1.367h.026c4.796-.645 12.558.155 20.293 8.793.129-2.372.722-5.389 2.579-7.736 1.753-2.243 4.28-3.533 7.529-3.79 7.53-.567 13.383 3.842 16.683 7.194-.206-3.404.103-8.148 2.553-11.939a12.738 12.738 0 0 1 2.733-3.017c1.753-1.367 3.919-2.295 6.446-2.759a1.276 1.276 0 0 1 1.418.825l1.083 2.811v.026l2.914 7.452v.026l27.537 71.349z" style="" fill="#32254b" data-original="#2f2444" class="" opacity="1"/></g></svg>