<?xml version="1.0" standalone="no"?>
<svg xmlns="http://www.w3.org/2000/svg" version="1.1" xmlns:xlink="http://www.w3.org/1999/xlink" width="512" height="512" x="0" y="0" viewBox="0 0 512 512" style="enable-background:new 0 0 512 512" xml:space="preserve" class=""><g><path fill="#ffffff" d="m420.837 233.874-24.386-89.693a51.766 51.766 0 0 0-24.174-31.196L336.42 92.562a35.086 35.086 0 0 0-34.982-32.985H41.042A35.082 35.082 0 0 0 6 94.618v151.986a35.082 35.082 0 0 0 35.042 35.041H301.44a34.935 34.935 0 0 0 15.944-3.874 174.7 174.7 0 0 0 16.32 9.812l65.479 164.84c5.126-1.811 79.81 3.337 106.818-81.862z" opacity="1" data-original="#ffffff" class=""/><path fill="#ffad92" d="m304.86 94.71 58.763 33.468a33.943 33.943 0 0 1 15.955 20.59l25.06 92.172 82.312 132.112s-16.564 54.094-76.427 60.559L347.44 274.803s-25.962-10.607-56.306-42.001z" opacity="1" data-original="#ffad92" class=""/><rect width="295.509" height="187.097" x="23.486" y="77.063" fill="#bc93d3" rx="10.04" opacity="1" data-original="#00abfe" class=""/><path fill="#ff605b" d="m48.122 163.602.065 76.699 67.252 1.046-.424-77.837z" opacity="1" data-original="#ff605b" class=""/><path fill="#ffffff" d="m140.036 163.522-.145 12.666 95.58-.96-1.1-13.556z" opacity="1" data-original="#ffffff" class=""/><path fill="#6d7ed3" d="m48.742 96.349.406 24.875 31.467 1.019 1.471-26.566z" opacity="1" data-original="#7ad001" class=""/><path fill="#ffb020" d="m107.939 100.445.677 16.016 149.87.214.12-16.269z" opacity="1" data-original="#ffb020" class=""/><path fill="#0071ff" d="M43.402 144.403a2.5 2.5 0 0 1-.054-4.999l258.96-5.762.057-.001a2.5 2.5 0 0 1 .055 4.999l-258.961 5.762-.057.001z" opacity="1" data-original="#0071ff"/><path fill="#ffb020" d="M115.287 213.385s-3.278-10.092-26.903-10.9c4.146-2.96 6.952-8.608 6.952-15.099 0-9.552-6.068-17.295-13.555-17.295s-13.556 7.743-13.556 17.295c0 6.921 3.194 12.876 7.798 15.64-19.382 2.539-27.9 12.355-27.9 12.355l.064 24.92 67.252 1.046z" opacity="1" data-original="#ffb020" class=""/><path fill="#524ded" d="M186.501 196.528c-16.13 0-32.26-.383-48.276-1.15a2.5 2.5 0 0 1 .24-4.994 1008.35 1008.35 0 0 0 93.611.114 2.5 2.5 0 1 1 .227 4.994 1010.16 1010.16 0 0 1-45.802 1.036zM135.493 218.43a2.501 2.501 0 0 1 2.39-2.607l97.799-4.233a2.527 2.527 0 0 1 2.605 2.39 2.501 2.501 0 0 1-2.39 2.606l-97.799 4.233a2.5 2.5 0 0 1-2.605-2.39z" opacity="1" data-original="#a369f7" class=""/><path fill="#ffffff" d="M240.986 216.337c3.157-7.288 11.924-15.203 19.218-16.998 9.121-2.243 17.965 2.869 25.54 7.836 11.674 7.652 14.458 32.572-3.515 42.434-22.27 12.22-51.216-10.24-41.243-33.272zm20.413-12.143c-5.63 1.385-13.232 8.144-15.825 14.13-8.096 18.7 16.147 36.828 34.25 26.903 14.558-7.99 11.823-28.204 3.18-33.87h-.001c-6.443-4.225-14.207-8.981-21.604-7.163z" opacity="1" data-original="#ffffff" class=""/><path fill="#ffffff" d="M261.667 238.499a129.936 129.936 0 0 1-12.996-14.864 2.5 2.5 0 1 1 4.004-2.994 125.032 125.032 0 0 0 10.969 12.765l20.43-15.495a2.5 2.5 0 1 1 3.022 3.984l-22.167 16.812a2.5 2.5 0 0 1-3.262-.208z" opacity="1" data-original="#ffffff" class=""/><path fill="#ffad92" d="m340.437 143.47-29.428-14.258-16.056-5.639a8.178 8.178 0 0 0-10.603 5.628c-2.02 7.519-1.576 18.814 13.948 27.37l22.497 14.925s-4.425 46.16 23.717 71.478l25.024-51.926-10.554-33.15z" opacity="1" data-original="#ffad92" class=""/><path fill="#ed6c4d" d="M342.84 244.832c-26.192-23.563-25.177-63.654-24.649-72.063L297 158.71c-17.547-9.718-16.972-23.062-15.063-30.158a10.684 10.684 0 0 1 13.844-7.337c17.04 5.99 16.08 5.633 16.318 5.747 31.017 15.05 29.475 14.226 29.873 14.534l18.545 14.428a2.5 2.5 0 1 1-3.07 3.947l-18.338-14.266-29.062-14.082-15.922-5.591a5.675 5.675 0 0 0-7.36 3.918c-2.721 10.12 1.565 18.373 12.74 24.532.06.033.118.068.175.106l22.497 14.925a2.5 2.5 0 0 1 1.106 2.32c-.042.45-3.953 45.224 22.902 69.382a2.5 2.5 0 0 1-3.344 3.717z" opacity="1" data-original="#ed6c4d" class=""/></g></svg>