<?xml version="1.0" encoding="UTF-8"?>
<!-- Generator: Adobe Illustrator 25.3.1, SVG Export Plug-In . SVG Version: 6.00 Build 0)  -->
<svg xmlns="http://www.w3.org/2000/svg" xmlns:xlink="http://www.w3.org/1999/xlink" version="1.1" id="Capa_1" x="0px" y="0px" viewBox="0 0 512 512" style="enable-background:new 0 0 512 512;" xml:space="preserve" width="512" height="512">
<g>
	<g>
		<g>
			<path style="fill:#FD913E;" d="M152.987,306.13c-6.463,3.621-12.765,5.662-18.727,6.263c-0.38,0.04-0.78,0.08-1.181,0.1     c-1.481,0.12-2.961,0.12-4.402,0.06c-0.46-0.02-0.92-0.06-1.38-0.1c-0.92-0.08-1.841-0.2-2.721-0.36     c-0.46-0.08-0.9-0.16-1.341-0.26c-0.98-0.22-1.961-0.46-2.901-0.76c-0.02,0-0.02,0-0.02,0     c-14.326-4.402-24.41-18.367-25.23-37.815c-0.1-2.201-0.06-4.462,0.08-6.803c0.32-5.042,0.66-9.904,0.94-14.546     c1.26-20.528,1.461-37.075-5.122-47.899c-2.761-4.542-6.702-8.083-12.285-10.484c-1.461-0.62-2.861-1.261-4.222-1.921     c-6.042-2.881-11.145-6.022-15.006-9.223c-8.363-6.923-10.824-14.086-3.962-19.448c1.341-1.06,3.141-1.681,5.282-1.901     c0.34-0.04,0.7-0.06,1.06-0.08c0.02,0,0.02,0,0.02,0h0.02c0.76-0.04,1.581-0.04,2.441,0.02     c14.886,0.98,40.076,16.006,48.559,40.656c0.72,2.041,1.321,4.162,1.781,6.343c1.421,6.702,2.001,12.765,2.061,18.327     c0.32,23.449-8.584,38.055-3.422,54.622c1.481,4.742,4.262,7.603,7.663,9.164c1.521,0.72,3.161,1.18,4.882,1.421     c0.42,0.08,0.84,0.14,1.281,0.16c0.42,0.04,0.84,0.06,1.281,0.1c0.74,0.02,1.501,0.02,2.241,0c0.28,0,0.56-0.02,0.84-0.04     c0.3-0.02,0.6-0.04,0.9-0.06c0.44-0.04,0.9-0.1,1.36-0.14c0.44-0.06,0.881-0.12,1.321-0.2h0.02     c8.083-1.26,15.186-4.702,15.186-4.702v0.08L152.987,306.13z"/>
			<path style="opacity:0.2;fill:#A1312F;" d="M153.127,306.13c-6.502,3.661-12.865,5.682-18.867,6.263     c-0.38,0.04-0.78,0.08-1.181,0.1c-1.481,0.12-2.961,0.12-4.402,0.06c-0.46-0.02-0.92-0.06-1.38-0.1     c-0.92-0.08-1.841-0.2-2.721-0.36c-0.46-0.08-0.9-0.16-1.341-0.26c-0.98-0.22-1.961-0.46-2.901-0.76c-0.02,0-0.02,0-0.02,0     c-14.265-4.522-24.289-18.488-25.07-37.915c-0.1-2.161-0.06-4.402,0.08-6.703c0.32-5.022,0.66-9.844,0.94-14.465     c1.26-20.689,1.461-37.315-5.222-48.159c-2.761-4.462-6.683-7.943-12.185-10.304c-1.481-0.64-2.921-1.3-4.322-1.961     c-6.062-2.921-11.184-6.063-15.026-9.264c-8.283-6.903-10.684-14.026-3.841-19.368c1.301-1.021,3.041-1.641,5.122-1.901     c0.34-0.04,0.7-0.06,1.06-0.08c0.02,0,0.02,0,0.02,0h0.02c0.76-0.04,1.581-0.04,2.441,0.02     c14.846,0.86,40.096,15.866,48.659,40.516c0.74,2.081,1.341,4.262,1.821,6.483c1.421,6.702,2.021,12.785,2.081,18.347     c0.3,23.429-8.584,38.035-3.421,54.602c1.461,4.662,4.162,7.503,7.483,9.084c1.521,0.76,3.181,1.22,4.902,1.501     c0.42,0.06,0.84,0.12,1.281,0.16c0.42,0.04,0.84,0.06,1.281,0.1c0.74,0.02,1.501,0.02,2.241,0c0.28,0,0.56-0.02,0.84-0.04     c0.3-0.02,0.6-0.04,0.9-0.06c0.44-0.04,0.9-0.1,1.36-0.14c0.44-0.04,0.881-0.1,1.321-0.18c7.463-1.12,14.125-4.142,15.206-4.642     c0.1-0.06,0.16-0.08,0.16-0.08L153.127,306.13z"/>
		</g>
		<path style="fill:#A1312F;" d="M59.51,182.301c-0.02,0.04-0.02,0.06-0.04,0.08c-8.363-6.923-10.824-14.086-3.962-19.448    c1.341-1.06,3.141-1.681,5.282-1.901c0.34-0.04,0.7-0.06,1.06-0.08c0.02,0,0.02,0,0.02,0h0.02    C63.471,169.636,60.931,178.199,59.51,182.301z"/>
		<path style="fill:#A1312F;" d="M91.042,203.829c-0.02,0.06-0.04,0.12-0.06,0.18c-2.761-4.542-6.702-8.083-12.285-10.484    c-1.461-0.62-2.861-1.261-4.222-1.921c0.02-0.02,0.04-0.02,0.06-0.04c4.182-2.781,9.824-4.922,14.306-0.6    C92.863,194.846,92.543,199.828,91.042,203.829z"/>
		<path style="fill:#A1312F;" d="M116.892,226.318c-0.06,0-0.12,0-0.16-0.02c-3.581-0.2-7.223-1.801-8.603-6.803    c-2.041-7.483,1.92-14.226,4.762-17.867c0.02-0.06,0.06-0.1,0.1-0.14c0.74,2.081,1.341,4.262,1.821,6.483    C116.232,214.674,116.833,220.756,116.892,226.318z"/>
		<path style="fill:#A1312F;" d="M95.244,273.157c-0.06,0.04-0.1,0.08-0.16,0.1c-0.1-2.201-0.06-4.462,0.08-6.803    c0.32-5.042,0.66-9.904,0.94-14.546c0.06,0.02,0.1,0.04,0.16,0.08c3.261,1.44,7.423,4.141,8.243,8.623    C105.348,265.154,99.786,270.016,95.244,273.157z"/>
		<path style="fill:#A1312F;" d="M135.08,291.324c0,0,0,0,0,0.02c-2.081,3.641-5.482,7.743-9.584,5.902    c-3.001-1.341-4.161-4.262-4.522-7.163c-0.02-0.02-0.02-0.06-0.02-0.08c1.521,0.76,3.181,1.22,4.902,1.501    c0.42,0.06,0.84,0.12,1.281,0.16c0.42,0.04,0.84,0.06,1.281,0.1c0.74,0.02,1.501,0.02,2.241,0c0.28,0,0.56-0.02,0.84-0.04    c0.3-0.02,0.6-0.04,0.9-0.06c0.44-0.04,0.9-0.1,1.36-0.14C134.199,291.464,134.64,291.404,135.08,291.324z"/>
	</g>
	<path style="fill:#FB5555;" d="M454.805,413.903c-3.987,3.47-7.973,6.939-12.003,10.365c-1.896,1.616-3.792,3.232-5.689,4.849   c0,0-0.022,0-0.022,0.022c-0.388,0.302-0.776,0.625-1.142,0.97c-0.108,0.086-0.194,0.151-0.302,0.258c0,0-0.022,0-0.022,0.022   c-2.672,2.22-5.344,4.461-8.016,6.702c-12.326,10.322-54.11,40.922-81.606,59.669c-1.164,0.776-2.306,1.552-3.405,2.306   c-11.658,7.866-20.127,13.124-21.549,12.93c-25.751-3.405-101.41-33.466-125.178-41.999c-18.489-6.637-37.237-13.08-55.122-21.29   c-2.349-1.077-7.671-2.672-8.943-5.237c-4.094-8.167,52.062-40.297,52.062-40.297l236.178-38.336c0,0,27.604-1.035,36.806,14.826   C466.054,395.5,454.805,413.903,454.805,413.903z"/>
	<path style="fill:#FD913E;" d="M448.836,402.245c0.129,8.512-2.974,16.485-6.034,22.023c-1.896,1.616-3.792,3.232-5.689,4.849   c2.974-3.599,11.012-16.593,9.352-30.147c-1.573-12.821-11.227-22.669-28.703-29.22l0.754-2.004   C443.319,377.033,448.706,391.643,448.836,402.245z"/>
	<path style="fill:#FD913E;" d="M346.004,496.76c-1.164,0.776-2.306,1.552-3.405,2.306c3.125-6.249,4.267-12.412,3.448-18.489   c-2.866-20.946-28.488-33.832-28.746-33.961l0.97-1.939c1.099,0.539,26.893,13.533,29.91,35.599   C348.934,485.726,348.202,491.221,346.004,496.76z"/>
	<path style="fill:#FFFFFF;" d="M319.326,503.871c-1.53,0.108-4.482-0.474-8.598-1.573c-31.742-8.598-131.751-49.563-160.777-61.544   c-5.086-2.112-7.995-3.318-7.995-3.318l-3.081-35.276l4.03-0.345l13.856-1.207c0,0,72.771,30.234,121.343,50.252   c18.575,7.65,33.616,13.792,39.693,16.205C339.776,475.771,334.669,502.858,319.326,503.871z"/>
	<path style="opacity:0.62;fill:#91E6DD;" d="M164.949,421.467l-18.123-5.021l10.042,4.806l-9.611-2.414l1.53,10.925l13.317,4.784   l-12.886-2.392l0.733,8.598c-5.086-2.112-7.995-3.318-7.995-3.318l-3.081-35.276l4.03-0.345l30.556,13.964l-26.85-3.254   L164.949,421.467z"/>
	<path style="opacity:0.62;fill:#91E6DD;" d="M319.326,503.871c-1.53,0.108-4.482-0.474-8.598-1.573l0.302-10.968l-9.417-4.116   l9.654,0.97l-15.925-6.271l16.162,3.383l-0.237-5.797l-18.338-7.477l18.575,4.332l-34.5-10.861l-15.925-13.511l17.024-1.121   c18.575,7.65,33.616,13.792,39.693,16.205C339.776,475.771,334.669,502.858,319.326,503.871z"/>
	<path style="fill:#5ED6B6;" d="M455.473,315.241c1.534-3.578-167.675-88.439-167.675-88.439s-113.314,88.039-146.07,116.133   c-2.215,1.669-4.37,3.347-6.422,5.027c-13.59,11.12-20.287,20.72-19.926,29.714c0.369,9.192,4.068,16.603,10.719,21.776   c12.851,9.995,165.633,69.93,172.773,69.93c7.139,0,152.507-107.891,152.507-107.891l-14.212-5.818l-47.081,4.5   C424.363,337.364,454.809,316.792,455.473,315.241z"/>
	<path style="fill:#FFFFFF;" d="M441.962,325.272v0.086l-3.362,36.914c0,0-1.616,1.163-4.525,3.232   c-18.705,13.339-90.528,64.475-123.196,85.657c-8.49,5.495-14.33,8.986-15.925,9.266c-1.293,0.237-5.409-0.883-11.55-2.952   c-30.686-10.343-111.818-44.822-140.478-58.01c-4.331-2.004-7.456-3.513-9.051-4.375c-5.28-2.887-9.611-8.081-10.02-14.265   c-0.388-5.84,2.801-11.55,7.779-14.589c4.935-3.017,11.227-3.34,16.679-1.702c3.771,1.121,9.891,3.276,17.498,6.099   c27.496,10.192,74.56,29.113,101.496,40.038c12.369,5.021,20.493,8.34,20.493,8.34l10.904-6.939l100.44-60.854l41.805-25.32   L441.962,325.272z"/>
	<path style="fill:#FD913E;" d="M452.086,286.642c-0.12-0.6-0.34-1.18-0.66-1.701c-3.622-6.342-19.688-7.863-33.553-4.522   c0,0,10.884-21.248-32.653-39.396c-43.537-18.127-6.743-82.933-6.743-82.933s-5.247-11.508-14.412-24.346   c0.922-1.13,1.656-2.024,2.034-2.483c4.212-4.904,11.066-14.706,13.882-28.66c0.168-0.839,0.313-1.695,0.459-2.552   c0.309-1.904,0.527-3.86,0.673-5.89c-0.01-0.083,0.003-0.147,0.013-0.232c0.092-1.625,0.157-3.29,0.112-5.003   c-0.005-0.377-0.007-0.733-0.012-1.11c-0.023-0.353-0.025-0.709-0.027-1.065c-0.15-3.231-0.449-6.485-0.978-9.731   c-0.079-0.64-0.2-1.275-0.321-1.91c-0.257-1.393-0.552-2.761-0.913-4.142c-0.016-0.124-0.054-0.266-0.09-0.387   c-0.712-2.699-1.592-5.399-2.695-8.029c-0.291-0.656-0.561-1.314-0.871-1.946c-4.361-9.29-11.646-17.819-23.566-24.346   c0.091-0.116,0.179-0.253,0.245-0.387c3.45-6.319,5.312-17.325,4.109-23.632c-0.324-1.763-0.893-3.138-1.728-3.957   c-0.314-0.338-0.678-0.566-1.094-0.703c-6.552-2.289-12.881,0.593-17.431,5.141c-3.132,3.135-5.607,7.173-9.052,9.991   c-0.266,0.221-2.489,2.07-4.219,3.333l-0.405,0.281c-2.533-0.482-5.186-0.907-7.936-1.279c-1.024-0.145-2.046-0.27-3.109-0.39   c-0.297-0.026-0.596-0.073-0.893-0.099c-9.438-1.05-18.316-1.646-26.578-1.836c-1.933-0.032-3.821-0.05-5.666-0.051l-0.021,0.003   c-4.528-0.004-8.868,0.158-13.025,0.443c-0.439,0.013-0.875,0.046-1.311,0.079c-2.867,0.209-5.599,0.486-8.283,0.819   c-0.015-0.795-0.094-1.603-0.191-2.387c-1.369-11.024-9.615-21.215-14.171-21.613c-5.364-0.487-9.277,10.543-13.99,18.842   c-2.32,4.103-6.836,10.282-10.819,15.514c-3.985,5.211-7.459,9.479-7.658,9.734c-3.038,3.396-5.44,7.174-7.17,11.309   c-0.181,0.4-0.323,0.774-0.483,1.171c-0.253,0.66-0.486,1.318-0.722,1.955c-0.142,0.374-0.263,0.745-0.403,1.14   c-1.761,5.061-3.024,10.081-3.759,14.973l-0.008,0.106c-0.13,0.813-0.239,1.623-0.325,2.451c-0.187,1.7-0.294,3.37-0.358,5.054   c-0.178,5.829,0.504,11.488,2.141,16.903c0.179,0.602,0.423,1.187,0.626,1.782c-1.809,1.492-4.027,3.646-6.418,6.561   c-1.221,1.461-2.461,3.121-3.701,4.962c-3.441,5.062-6.923,11.584-9.704,19.608c-0.28,0.82-0.56,1.641-0.82,2.501   c-1.561,4.882-2.841,10.324-3.701,16.266c0,0-5.162,5.262-11.785,14.606c-4.002,5.642-8.523,12.765-12.745,21.129   c-3.901,7.703-7.563,16.466-10.304,26.07c-2.201,7.663-3.821,15.846-4.522,24.47c-0.86,10.424-0.38,21.469,2.021,32.933   c0.38,1.861,0.84,3.721,1.3,5.542c0,0.06,0.02,0.12,0.04,0.18c1.621,6.263,3.721,12.325,6.242,18.087   c0.46,1.06,0.92,2.121,1.421,3.161c3.021,6.483,6.583,12.585,10.604,18.247c3.641,5.162,7.683,9.944,12.025,14.246   c28.391,28.291,70.308,37.395,109.363,8.443l37.835-75.67l42.317,36.054l3.301,2.821c0,0,0,9.324,31.092,7.243   C423.054,306.35,453.626,294.425,452.086,286.642z"/>
	<path style="opacity:0.62;fill:#91E6DD;" d="M441.962,325.359l-3.362,36.914c0,0-1.616,1.163-4.525,3.232l0.388-11.852   l-9.805,5.236l9.805-6.917v-5.926l-20.429,12.499l19.588-13.339l-34.479,6.012l41.805-25.32L441.962,325.359z"/>
	<path style="opacity:0.2;fill:#A1312F;" d="M391.942,308.411c-31.092,2.081-31.092-7.243-31.092-7.243l-3.301-2.821   c4.042-6.022,14.766,0.12,47.599-9.264c30.552-8.743,42.217-6.162,46.278-4.142c0.32,0.52,0.54,1.1,0.66,1.701   C453.626,294.425,423.054,306.35,391.942,308.411z"/>
	<path style="fill:#FFFFFF;" d="M412.763,151.91l-3.491,8.038l-23.316,53.808l-62.686,22.691l-68.849-54.433   c-0.84,0.409,3.706-10.322,3.706-10.322s12.779-3.297,47.408,6.184c0,0-9.072-9.891-25.557-10.71c0,0,36.288-6.185,61.027,26.807   c0,0-3.362-26.182,37.237-50.748c2.047-1.228,4.202-2.456,6.465-3.685l6.615,2.887l8.232-4.137L412.763,151.91z"/>
	<path style="fill:#A1312F;" d="M239.563,26.441c5.086-3.208,2.471,0.076,7.128-1.007c4.892-1.13,8.493-1.395,8.682-1.42   c-0.343-11.875-9.497-23.571-14.359-24.005L241,0.006c-1.161,2.564-2.527,5.637-1.727,12.825c0.084,0.707,0.115,1.392,0.121,2.059   C239.534,24.777,240.799,25.72,239.563,26.441z"/>
	<path style="fill:#A1312F;" d="M339.214,28.663c0,0,2.232,2.978,8.042,5.281c1.784,0.697,3.458,1.377,4.746,1.927   c3.459-6.323,5.32-17.323,4.118-23.631c-0.331-1.759-0.901-3.139-1.727-3.963c0,0-2.654,0.816-5.424,6.388   c-1.007,2.033-1.915,3.985-2.919,5.769C343.667,24.652,345.618,27.55,339.214,28.663z"/>
	<path style="opacity:0.48;fill:#FB5555;" d="M255.469,110.154c2.881,2.37,2.881,6.716-0.92,8.57   c-5.089,2.482-14.041,1.154-17.877-2.91c-3.239-3.431-0.414-8.904,3.598-9.572c3.391-0.564,6.857,0.037,9.989,1.204   C251.714,107.99,253.854,108.827,255.469,110.154z"/>
	<path style="opacity:0.48;fill:#FB5555;" d="M343.278,112.254c-3.138,2.142-3.633,6.47-0.06,8.602   c4.785,2.855,13.85,2.207,18.132-1.549c3.616-3.171,1.426-8.835-2.493-9.802c-3.313-0.818-6.833-0.481-10.084,0.445   C347.264,110.381,345.037,111.054,343.278,112.254z"/>
	<path style="fill:#A1312F;" d="M283.666,22.728c5.129,5.263,8.585,12.952,11.364,18.76c1.53,3.183,2.889,6.449,4.128,9.752   c0.936,2.478,2.823,5.023,5.642,5.634c3.541,0.766,6.977-1.231,9.075-3.966c2.632-3.415,3.142-7.691,2.914-11.806   c-0.327-5.823-2.421-11.509-5.642-16.443c-0.291-0.032-0.597-0.066-0.902-0.101C300.809,23.516,291.944,22.909,283.666,22.728z"/>
	<path style="fill:#A1312F;" d="M369.612,90.538c3.783,0.915,7.905-0.031,11.635-1.621c-0.005-0.361-0.01-0.723-0.026-1.1   c-0.008-0.348-0.013-0.71-0.031-1.073c-0.148-3.229-0.448-6.481-0.961-9.725C372.161,82.99,362.522,88.81,369.612,90.538z"/>
	<path style="fill:#A1312F;" d="M370.066,100.405c2.386,1.666,6.229,2.175,9.908,2.186c0.166-0.834,0.32-1.684,0.464-2.549   c0.303-1.895,0.533-3.857,0.662-5.89c0.001-0.083,0.013-0.151,0.014-0.234C373.404,95.368,365.859,97.467,370.066,100.405z"/>
	<path style="fill:#A1312F;" d="M372.209,73.633c2.162-0.131,4.525-1.215,6.771-2.665c-0.019-0.128-0.052-0.258-0.085-0.388   c-0.711-2.707-1.594-5.398-2.701-8.029C371.278,68.172,367.198,73.938,372.209,73.633z"/>
	<path style="fill:#A1312F;" d="M264.966,23.111c1.329,1.639,2.822,3.469,3.888,4.845c3.368,4.36,6.766,10.348,9.603,11.17   c5.929,1.725,8.89-3.885,5.484-10.055c-1.555-2.812-3.874-4.926-5.941-6.403l-0.014-0.002   C273.455,22.673,269.124,22.823,264.966,23.111z"/>
	<path style="fill:#A1312F;" d="M314.247,25.051c2.783,4.157,5.57,11.006,8.667,12.272c4.665,1.901,8.726-1.51,6.893-4.269   c-1.777-2.68-3.921-4.822-5.815-6.396C320.904,26.045,317.661,25.506,314.247,25.051z"/>
	<g>
		<g>
			<path style="fill:#FFFFFF;" d="M244.485,105.439c5.944,4.753,15.781,6.941,23.273,4.75c1.601-0.469,3.114-1.161,4.503-2.107     c6.021-4.143,9.959-11.93,10.678-18.99c0.03-0.162,0.045-0.326,0.061-0.49c0.591-7.135-2.947-13.909-8.96-17.812     c-7.04-4.564-17.978-6.774-25.419-1.593c-2.935,2.049-5.388,5.02-7.171,8.444l-0.014-0.002     C236.647,86.75,236.528,99.065,244.485,105.439z"/>
			<path style="fill:#A1312F;" d="M239.873,99.53c-1.05-2.295-1.65-4.79-1.831-7.314c-0.176-2.526,0.023-5.076,0.517-7.569     c0.505-2.492,1.33-4.927,2.463-7.225l0.143-0.289l0.343,0.045l0.014,0.001l-0.486,0.246c1.115-2.26,2.524-4.398,4.272-6.262     c1.728-1.859,3.837-3.484,6.266-4.468c4.855-2.025,10.316-1.802,15.238-0.431c2.475,0.71,4.852,1.744,7.077,3.062     c2.256,1.295,4.272,3.07,5.898,5.125c3.276,4.141,4.842,9.489,4.141,14.822l0.011-0.079c-0.609,4.468-2.235,8.723-4.702,12.415     c-1.234,1.844-2.681,3.549-4.341,5.02c-1.65,1.468-3.563,2.707-5.659,3.436c-2.092,0.735-4.284,1.066-6.464,1.127     c-2.181,0.071-4.363-0.12-6.494-0.544c-4.241-0.873-8.39-2.499-11.791-5.209C242.503,103.879,240.926,101.823,239.873,99.53z      M256.31,110.462c4.239,0.716,8.717,0.539,12.667-1.063c1.97-0.798,3.701-2.048,5.213-3.532c1.512-1.481,2.808-3.173,3.894-4.985     c2.174-3.622,3.502-7.751,3.855-11.891l0.001-0.005l0.011-0.074c0.068-0.462,0.054-1.126,0.079-1.684     c-0.032-0.585-0.023-1.172-0.108-1.752c-0.106-1.165-0.367-2.311-0.709-3.425c-0.696-2.228-1.804-4.321-3.259-6.148     c-2.917-3.651-7.237-6.046-11.785-7.474c-4.537-1.393-9.52-1.74-13.984-0.169c-2.225,0.771-4.216,2.141-5.947,3.821     c-1.734,1.672-3.19,3.648-4.376,5.777l-0.169,0.304l-0.317-0.058l-0.014-0.002l0.486-0.244c-2.381,4.33-3.775,9.328-3.552,14.344     c0.11,2.497,0.602,5.006,1.646,7.297c1.026,2.292,2.576,4.36,4.542,5.941C247.918,108.089,252.059,109.749,256.31,110.462z"/>
		</g>
		<path style="fill:#A1312F;" d="M259.602,105.055c-5.835-0.08-11.799-3.209-14.371-8.411c-4.097-8.289,0.337-19.53,9.18-22.914    c4.748-1.816,10.714-1.43,15.008,1.181c11.477,6.979,7.126,25.347-5.085,29.439C262.831,104.854,261.225,105.078,259.602,105.055z    "/>
		<path style="opacity:0.21;fill:#A1312F;" d="M241.449,77.642c27.15-7.68,39.965,9.254,41.49,11.451    c0.03-0.162,0.045-0.326,0.061-0.49c0.591-7.135-2.947-13.909-8.96-17.812c-7.04-4.564-17.978-6.774-25.419-1.593    C245.685,71.247,243.233,74.218,241.449,77.642z"/>
	</g>
	<g>
		<g>
			<path style="fill:#FFFFFF;" d="M326.155,95.105c2.311,6.658,9.718,10.217,16.433,11.037c0.927,0.101,1.853,0.127,2.765,0.062     c11.029-0.758,19.816-13.829,17.68-24.301c-0.2-1.078-0.542-2.134-0.998-3.147c-4.031-8.858-17.523-14.094-26.735-9.745     c-2.223,1.069-3.898,3.063-5.195,5.071c-0.89,1.369-1.708,2.93-2.408,4.599C325.465,83.903,324.433,90.154,326.155,95.105z"/>
			<path style="fill:#A1312F;" d="M325.335,87.641c0.189-2.517,0.732-5.007,1.556-7.401c0.821-2.391,1.835-4.742,3.22-6.898     c1.355-2.125,3.179-4.248,5.704-5.23c4.849-2.122,10.459-1.862,15.393-0.13c4.921,1.762,9.521,5.139,11.937,10.134     c0.571,1.234,0.994,2.586,1.176,3.921c0.077,0.671,0.205,1.337,0.234,2.011c0.004,0.674,0.025,1.35,0.008,2.022     c-0.149,2.69-0.906,5.281-1.984,7.68c-2.232,4.746-5.889,8.882-10.612,11.161c-2.345,1.152-4.947,1.722-7.532,1.727     c-1.298-0.021-2.569-0.247-3.805-0.533c-1.243-0.274-2.457-0.661-3.646-1.1c-2.379-0.875-4.615-2.143-6.542-3.776     c-0.965-0.816-1.814-1.76-2.561-2.775c-0.728-1.033-1.291-2.169-1.725-3.351C325.316,92.721,325.138,90.149,325.335,87.641z      M327.919,98.428c0.758,1.002,1.615,1.929,2.585,2.728c1.947,1.592,4.227,2.731,6.598,3.515c1.184,0.402,2.405,0.686,3.636,0.883     c1.231,0.204,2.466,0.343,3.691,0.285c2.446-0.164,4.833-0.849,6.947-2.057c4.265-2.382,7.385-6.481,9.181-10.901     c1.836-4.4,2.184-9.52,0.263-13.69c-0.958-2.079-2.478-3.934-4.286-5.458c-1.806-1.531-3.881-2.795-6.116-3.684     c-4.42-1.808-9.554-2.419-14.113-0.744c-2.288,0.713-4.067,2.51-5.524,4.495c-1.461,2.004-2.641,4.231-3.552,6.565     c-1.786,4.629-2.65,9.902-1.073,14.742C326.604,96.281,327.181,97.407,327.919,98.428z"/>
		</g>
		<path style="fill:#A1312F;" d="M350.154,98.065c-0.489,0.297-5.295,4.613-13.787,0.739c-8.492-3.873-5.749-14.989-3.818-18.488    c1.93-3.498,7.796-10.46,17.545-6.389C359.844,77.999,358.557,92.956,350.154,98.065z"/>
		<path style="opacity:0.21;fill:#A1312F;" d="M327.697,78.679c13.069-5.175,27.863-0.138,35.336,3.223    c-0.2-1.078-0.542-2.134-0.998-3.147c-4.031-8.858-17.523-14.094-26.735-9.745c-2.223,1.069-3.898,3.063-5.195,5.071    C329.215,75.45,328.397,77.01,327.697,78.679z"/>
	</g>
	<path style="fill:#A1312F;" d="M201.365,55.417c21.219,16.498,31.375,2.24,22.266-1.693c-6.103-2.64-11.425-6.92-14.92-9.802   C205.577,47.368,203.124,51.199,201.365,55.417z"/>
	<path style="fill:#A1312F;" d="M196.007,74.662l-0.017,0.094c-0.027,0.454-0.077,0.89-0.114,1.328   c8.015,4.496,18.17,7.817,26.954,5.525c3.314-0.865,6.458-3.436,5.891-6.619c-0.235-1.272-1.067-2.458-2.157-3.392   c-3.217-2.783-8.093-3.912-12.322-5.022c-4.809-1.271-10.273-4.228-14.486-6.903C197.997,64.737,196.73,69.754,196.007,74.662z"/>
	<path style="fill:#A1312F;" d="M195.318,82.254c-0.186,5.84,0.497,11.497,2.13,16.915c5.693,1.855,12.228,1.498,17.802-0.662   c2.484-0.968,4.851-2.773,4.775-5.616c-0.094-3.761-4.993-4.921-8.02-5.329C203.796,86.463,198.217,83.905,195.318,82.254z"/>
	<path style="fill:#FFFFFF;" d="M243.962,21.839c0,0,2.702,0.246,3.528-0.248c0.84-0.492-3.258-1.235-3.258-1.235   c2.208-0.54,4.317-2.635,3.622-2.787c-0.706-0.167-3.419,1.209-3.419,1.209c3.142-3.182,2.348-8.856-0.482-8.941   c-1.211-0.039-2.96,2.336-4.559,5.053c0.14,9.887-7.021,16.015-8.257,16.735c5.086-3.208,10.897-5.109,15.553-6.192   C246.356,23.382,243.962,21.839,243.962,21.839z"/>
	<path style="fill:#FFFFFF;" d="M347.256,33.945c0.01-2.232-1.768-5.606-1.928-5.895c0.166,0.096,1.921,1.191,2.89,0.844   c1.016-0.367-1.926-2.093-1.926-2.093s2.401,0.573,2.724-0.111c0.334-0.669-2.177-0.871-2.177-0.871   c1.937-0.763,5.95-4.917,3.999-6.487c-1.272-1.019-3.426,0.154-4.788,1.105c-2.382,4.217-5.338,7.47-11.742,8.583   C334.307,29.018,341.447,31.642,347.256,33.945z"/>
	<g>
		<path style="fill:#A1312F;" d="M306.534,87.762c0,0,4.089-4.1,5.874-3.141c1.784,0.959-4.37,7.169-6.527,7.62    c-2.157,0.451-6.033-7.002-4.765-8.27C302.384,82.703,306.534,87.762,306.534,87.762z"/>
		<path style="opacity:0.48;fill:#A1312F;" d="M315.101,93.637c3.417,1.075,6.558,3.463,8.228,6.925    c2.421,5.019,2.368,11.068-1.795,15.114c-2.584,2.512-5.984,3.718-9.342,4.347c-6.434,1.204-12.905,1.957-19.143-0.302    c-2.262-0.82-4.457-1.986-6.184-3.784c-2.648-2.754-4.009-6.958-3.57-11.019c0.439-4.061,2.67-7.886,5.847-10.025    c3.908-2.632,9.399-3.128,13.81-2.725C306.882,92.528,311.345,92.455,315.101,93.637z"/>
		<path style="fill:#A1312F;" d="M296.787,116.186c0.913-1.994,1.744-4.019,2.609-6.032l2.443-6.099    c0.814-2.034,1.56-4.093,2.315-6.152c0.723-2.075,1.454-4.13,2.034-6.298l-1.161-0.044c0.68,4.135,1.253,8.302,1.794,12.465    c0.262,2.083,0.502,4.17,0.676,6.263c0.21,2.091,0.336,4.187,0.403,6.294c0.197-2.101,0.186-4.216,0.169-6.327    c-0.051-2.111-0.198-4.217-0.351-6.322c-0.325-4.211-0.866-8.392-1.522-12.568l-0.437-2.784l-0.724,2.74    c-0.545,2.063-1.257,4.146-1.952,6.209l-2.112,6.207l-2.129,6.209C298.168,112.028,297.445,114.094,296.787,116.186z"/>
	</g>
	<g>
		<path style="fill:#A1312F;" d="M373.16,122.66c-3.422-1.847-6.974-3.359-10.56-4.788c-3.599-1.396-7.231-2.709-10.995-3.682    c3.421,1.849,6.974,3.361,10.56,4.789C365.764,120.372,369.396,121.683,373.16,122.66z"/>
		<path style="fill:#A1312F;" d="M376.991,113.265c-3.653-0.969-7.356-1.581-11.07-2.106c-3.719-0.489-7.45-0.888-11.23-0.928    c3.653,0.972,7.355,1.584,11.069,2.106C369.48,112.824,373.211,113.223,376.991,113.265z"/>
		<path style="fill:#A1312F;" d="M376.125,101.521c-3.736,0.701-7.362,1.746-10.961,2.875c-3.588,1.163-7.149,2.412-10.599,4.007    c3.736-0.699,7.363-1.743,10.961-2.874C369.112,104.363,372.673,103.114,376.125,101.521z"/>
		<path style="fill:#A1312F;" d="M243.535,112.34c-3.92-0.235-7.818-0.11-11.711,0.103c-3.891,0.248-7.776,0.587-11.64,1.29    c3.92,0.238,7.818,0.113,11.711-0.102C235.785,113.378,239.671,113.039,243.535,112.34z"/>
		<path style="fill:#A1312F;" d="M220.041,104.24c3.606,1.122,7.275,1.89,10.959,2.57c3.691,0.645,7.398,1.201,11.169,1.399    c-3.605-1.124-7.274-1.892-10.959-2.57C227.519,104.997,223.812,104.441,220.041,104.24z"/>
		<path style="fill:#A1312F;" d="M225.016,93.417c2.711,2.562,5.635,4.833,8.61,7.032c2.997,2.171,6.047,4.269,9.312,6.073    c-2.709-2.564-5.632-4.834-8.61-7.032C231.33,97.321,228.279,95.224,225.016,93.417z"/>
	</g>
	<path style="fill:#C75325;" d="M369.099,127.136c-1.244,1.613-2.486,3.222-3.8,4.763c-0.645,0.779-1.311,1.539-2.003,2.264   c-0.69,0.715-1.433,1.423-2.211,1.886l-0.217,0.128l-0.022,0.277c-0.066,0.836-0.186,1.711-0.419,2.505   c-0.212,0.777-0.656,1.584-1.103,1.628c-0.22,0.023-0.294,0.007-0.46-0.279c-0.141-0.28-0.221-0.68-0.267-1.079   c-0.086-0.81-0.038-1.692,0.047-2.521l0.247-2.422l-1.331,2.025c-0.511,0.777-1.088,1.552-1.697,2.266   c-0.611,0.711-1.268,1.4-1.989,1.892c-0.355,0.253-0.744,0.427-1.061,0.442c-0.144,0.028-0.356-0.017-0.458-0.07   c-0.136-0.042-0.173-0.126-0.24-0.235c-0.21-0.569,0.133-1.62,0.518-2.388l0.591-1.181l-1.145,0.596   c-1.434,0.747-2.948,1.389-4.466,1.987c-1.523,0.597-3.088,1.079-4.711,1.379c1.653-0.062,3.282-0.441,4.878-0.882   c1.596-0.464,3.139-1.054,4.672-1.727l-0.554-0.585c-0.264,0.46-0.473,0.913-0.64,1.419c-0.145,0.504-0.298,1.064-0.088,1.741   c0.125,0.325,0.396,0.666,0.723,0.8c0.162,0.094,0.317,0.13,0.472,0.16c0.154,0.045,0.315,0.049,0.479,0.04   c0.655-0.022,1.182-0.289,1.625-0.573c0.907-0.576,1.609-1.307,2.267-2.059c0.657-0.758,1.252-1.538,1.816-2.378l-1.084-0.398   c-0.111,0.938-0.137,1.844-0.035,2.805c0.065,0.48,0.145,0.97,0.407,1.487c0.14,0.254,0.344,0.533,0.67,0.715   c0.332,0.188,0.72,0.216,1.039,0.142c0.674-0.136,1.109-0.647,1.367-1.084c0.262-0.455,0.411-0.918,0.539-1.377   c0.23-0.924,0.345-1.824,0.363-2.763l-0.238,0.405c0.937-0.638,1.624-1.408,2.303-2.189c0.667-0.787,1.296-1.596,1.901-2.42   C366.964,130.608,368.09,128.907,369.099,127.136z"/>
	<path style="fill:#C75325;" d="M238.729,133.135c-1.649-0.961-3.306-1.899-4.926-2.899c-1.624-0.987-3.249-1.976-4.773-3.08   l-0.927-0.671l0.267,1.145c0.117,0.504,0.197,1.057,0.195,1.564c0.011,0.501-0.12,1.024-0.319,1.152   c-0.077,0.065-0.258,0.101-0.405,0.072c-0.093-0.013-0.257-0.115-0.407-0.282c-0.306-0.334-0.565-0.809-0.787-1.291   c-0.438-0.979-0.788-2.034-1.072-3.101c-0.277-1.059-0.53-2.18-0.631-3.208l-0.192-1.949l-0.926,1.717   c-0.399,0.738-0.886,1.488-1.429,2.116c-0.535,0.623-1.233,1.163-1.696,0.988c-0.537-0.122-1.012-0.896-1.29-1.665   c-0.285-0.786-0.477-1.659-0.595-2.498l-0.05-0.362l-0.333-0.056c-1.998-0.334-4.012-0.934-5.916-1.719   c-0.966-0.373-1.903-0.818-2.814-1.316c-0.916-0.492-1.776-1.078-2.63-1.686c1.518,1.446,3.314,2.599,5.203,3.541   c1.913,0.911,3.898,1.622,6.003,2.091l-0.383-0.417c0.069,0.949,0.225,1.856,0.532,2.77c0.155,0.455,0.346,0.91,0.638,1.344   c0.282,0.426,0.712,0.869,1.326,1.054c0.291,0.091,0.638,0.113,0.948,0.036c0.306-0.07,0.565-0.198,0.794-0.34   c0.458-0.288,0.807-0.639,1.133-0.997c0.64-0.73,1.146-1.496,1.61-2.334l-1.117-0.232c0.121,1.22,0.396,2.305,0.694,3.427   c0.314,1.108,0.663,2.21,1.185,3.277c0.268,0.532,0.556,1.062,1.025,1.554c0.236,0.236,0.547,0.497,1.018,0.573   c0.408,0.054,0.826-0.018,1.198-0.304c0.69-0.636,0.641-1.389,0.637-1.979c-0.035-0.621-0.149-1.189-0.318-1.776l-0.66,0.474   c1.626,1.041,3.297,1.972,4.999,2.841C235.254,131.557,236.968,132.395,238.729,133.135z"/>
	<path style="fill:#A1312F;" d="M429.561,279.088c0,0,4.699,1.446,4.518,4.518"/>
	<path style="fill:#A1312F;" d="M207.008,145.166c-1.201,1.641-3.441,2.121-5.462,2.181c-9.324,0.2-17.487-6.082-24.05-12.705   l-0.06-0.06c0.26-0.86,0.54-1.681,0.82-2.501c2.781-8.023,6.263-14.546,9.704-19.608c5.522,8.683,13.885,15.906,18.547,25.23   C207.668,140.064,208.549,143.045,207.008,145.166z"/>
	<path style="fill:#A1312F;" d="M195.664,194.226c-1.221,1.341-3.041,1.901-4.802,2.281c-10.124,2.161-20.668-0.6-30.252-4.482   c-3.922-1.581-7.763-3.341-11.405-5.442c4.222-8.363,8.744-15.486,12.745-21.128c9.784,6.302,22.309,9.003,30.893,17.067   c1.62,1.521,3.121,3.281,3.821,5.402C197.385,190.044,197.164,192.565,195.664,194.226z"/>
	<path style="fill:#A1312F;" d="M178.757,233.421c0.04,1.301-0.6,2.541-1.38,3.581c-2.141,2.801-5.462,4.502-8.904,5.222   c-3.441,0.72-7.003,0.54-10.504,0.2c-8.023-0.84-15.946-2.641-23.589-5.302c0.7-8.623,2.321-16.807,4.522-24.47   c8.083,3.561,16.967,5.402,25.31,8.483c5.182,1.901,10.444,4.522,13.425,9.184C178.217,231.26,178.737,232.301,178.757,233.421z"/>
	<path style="fill:#A1312F;" d="M168.853,280.78c-1.421,1.761-3.381,3.001-5.342,4.142c-6.202,3.601-12.745,6.623-19.528,8.943   c-2.521-5.762-4.622-11.825-6.242-18.087c-0.02-0.06-0.04-0.12-0.04-0.18c6.422-2.041,12.985-3.742,19.588-5.102   c2.461-0.5,5.002-0.96,7.463-0.48c2.461,0.46,4.882,2.021,5.642,4.422C171.054,276.598,170.274,279.019,168.853,280.78z"/>
	<path style="fill:#A1312F;" d="M180.398,317.495c-1,2.041-2.641,3.681-4.302,5.222c-2.581,2.381-5.262,4.662-8.063,6.803   c-4.342-4.302-8.384-9.084-12.025-14.246c3.561-1.861,7.203-3.641,10.864-5.282c2.301-1.02,4.662-2.021,7.183-2.101   c2.501-0.1,5.202,0.92,6.463,3.081C181.638,312.933,181.398,315.474,180.398,317.495z"/>
	<path style="opacity:0.62;fill:#91E6DD;" d="M338.353,201.815c0,0-11.192-14.636-25.254-19.515c0,0,22.142,15.894,17.506,14.349   c-0.861-0.287-24.967-15.497-47.639-7.748c-22.671,7.748,50.222,20.376,50.222,20.376l30.133,3.444L338.353,201.815z"/>
	<path style="opacity:0.62;fill:#91E6DD;" d="M151.997,393.302l-17.412-7.176l0.345,7.693l7.995,5.646   c-4.331-2.004-7.456-3.513-9.051-4.375c-5.28-2.887-9.611-8.081-10.02-14.265c-0.388-5.84,2.801-11.55,7.779-14.589   c4.935-3.017,11.227-3.34,16.679-1.702c3.771,1.121,9.891,3.276,17.498,6.099c-11.507-2.155-27.497-5.151-27.82-5.151   c0,0.215,28.833,13.512,31.548,14.761l-35.297-13.231l0.517,11.443l4.956,3.404l-4.784-1.53l-0.172,3.232L151.997,393.302z"/>
	<polygon style="opacity:0.62;fill:#91E6DD;" points="264.459,428.296 293.257,442.814 323.721,422.109 292.543,437.102  "/>
	<path style="fill:#FD913E;" d="M435.777,430.022l0.173,0.086c-0.108,0.086-0.194,0.151-0.302,0.258   C435.691,430.216,435.734,430.108,435.777,430.022z"/>
	<path style="opacity:0.62;fill:#91E6DD;" d="M412.763,151.91l-3.491,8.038c-0.452-0.453-0.84-0.991-1.207-1.594   c-7.004-11.744-21.247-9.029-21.247-9.029c-8.749,4.827-19.61,17.045-20.278,17.8c6.077-9.697,16.679-19.825,16.679-19.825   s-2.844-2.349-4.978-4.073c2.047-1.228,4.202-2.456,6.465-3.685l6.615,2.887l8.232-4.137L412.763,151.91z"/>
	<path style="fill:#FB5555;" d="M404.507,268.655l-55.902,42.897c0,0-12.305,1.761-13.345,1.761c-0.02,0-0.08-0.02-0.2-0.04   c-4.422-0.94-80.692-22.109-81.732-21.769c-1.06,0.36-9.144-113.905-9.144-113.905l91.877,24.009l0.94,0.24l13.025-2.101   c0,0,0.06-0.06,0.16-0.14c3.381-3.181,60.198-50.28,66.627-56.122C418.763,158.371,404.507,268.655,404.507,268.655z"/>
	<g>
		<path style="fill:#FD913E;" d="M244.92,201.259c0,0-22.719-16.812-37.941-6.815c-15.222,9.996-4.089,42.03,3.408,50.209    c7.497,8.179,17.907,21.505,46.987,16.28c29.08-5.225,39.169-21.038,34.801-30.138c0,0,4.091-12.767-7.812-13.736    c0,0-3.689-10.788-16.609-7.889c-11.411,2.561-15.501,4.291-15.501,4.291L244.92,201.259z"/>
		<path style="fill:#C75325;" d="M245.282,216.373c3.272-1.566,6.641-2.93,10.074-4.127c3.435-1.187,6.933-2.225,10.528-2.923    c3.588-0.651,7.313-1.053,11.044-0.306c1.837,0.405,3.727,1.171,5.136,2.622c1.425,1.431,2.182,3.396,2.437,5.308l-0.749-0.721    c1.657,0.172,3.152,0.627,4.613,1.353c1.441,0.725,2.766,1.821,3.666,3.235c0.886,1.405,1.434,3.043,1.501,4.663    c0.104,0.812-0.023,1.604-0.03,2.407l-0.398,2.333l-0.09-0.683c2.282,5.024,0.531,10.542-2.419,14.46    c-2.971,4.031-7.012,6.967-11.149,9.429c-8.364,4.854-17.664,8.066-27.289,9.179c-9.62,0.949-19.625-0.812-28.04-5.605    c-8.408-4.854-14.876-12.352-19.696-20.528l4.246,5.735c1.429,1.892,3.195,3.506,4.769,5.266c0.763,0.91,1.712,1.624,2.627,2.371    l2.739,2.239c0.868,0.804,1.945,1.32,2.923,1.969l2.993,1.86c8.315,4.488,17.96,5.725,27.239,4.821    c9.296-1.159,18.338-4.368,26.399-9.146c4.002-2.403,7.87-5.142,10.596-8.805c1.356-1.809,2.415-3.837,2.875-5.997    c0.477-2.108,0.343-4.514-0.495-6.329l-0.154-0.333l0.063-0.351l0.375-2.088c0.003-0.69,0.132-1.398,0.043-2.073    c-0.04-1.38-0.487-2.669-1.169-3.793c-0.705-1.117-1.741-2.022-2.947-2.681c-1.195-0.646-2.604-1.103-3.92-1.275l-0.68-0.089    l-0.07-0.633c-0.185-1.672-0.766-3.27-1.883-4.461c-1.102-1.208-2.699-1.932-4.366-2.347c-3.39-0.786-7.036-0.503-10.566,0.02    c-3.552,0.528-7.066,1.403-10.53,2.433C252.073,213.839,248.645,215.016,245.282,216.373z"/>
		<path style="fill:#C75325;" d="M252.428,213.916c-2.224-2.142-3.877-4.614-5.397-7.163c-1.461-2.584-2.784-5.247-3.534-8.243    c2.228,2.139,3.881,4.611,5.397,7.163C250.351,208.259,251.674,210.922,252.428,213.916z"/>
		<path style="fill:#A1312F;" d="M271.407,221.062c2.178-0.755,4.006-1.506,5.997-2.256c0.994-0.338,1.978-0.732,3.02-1.025    c1.033-0.318,2.091-0.608,3.264-0.739c-1.49,1.806-3.437,2.969-5.537,3.784c-1.065,0.369-2.168,0.672-3.323,0.746    C273.688,221.661,272.475,221.567,271.407,221.062z"/>
		<path style="fill:#A1312F;" d="M277.213,235.129c1.418-0.518,2.787-0.95,4.142-1.373c1.345-0.449,2.689-0.832,3.971-1.342    c1.293-0.473,2.553-1.002,3.769-1.627c1.202-0.655,2.34-1.397,3.526-2.356c-0.429,1.456-1.407,2.741-2.576,3.744    c-1.177,1.014-2.564,1.705-3.973,2.26c-1.427,0.518-2.902,0.838-4.392,0.965C280.192,235.526,278.687,235.501,277.213,235.129z"/>
	</g>
	<g>
		<path style="fill:#FD913E;" d="M413.173,193.193c0,0-10.915,12.692-21.576,20.561c-10.661,7.869-10.407,30.461,3.046,33.507    c13.453,3.046,25.638-6.346,30.207-22.084C429.419,209.438,413.173,193.193,413.173,193.193z"/>
		<path style="fill:#A1312F;" d="M387.725,240.394c4.052-0.31,7.891-0.801,11.604-1.849c1.866-0.473,3.671-1.142,5.445-1.915    c1.808-0.735,3.471-1.742,5.298-2.695c-1.225,1.621-2.728,3.104-4.5,4.176c-1.734,1.142-3.673,1.964-5.673,2.512    c-2.006,0.528-4.07,0.831-6.131,0.8C391.713,241.396,389.646,241.124,387.725,240.394z"/>
		<path style="fill:#A1312F;" d="M384.932,228.008c3.356-0.365,6.526-0.55,9.642-1.059c1.555-0.245,3.068-0.601,4.582-1.025    c1.492-0.487,2.93-1.093,4.459-1.862c-0.916,1.433-2.287,2.579-3.806,3.412c-1.535,0.806-3.207,1.299-4.891,1.602    c-1.693,0.249-3.399,0.309-5.081,0.137C388.159,229.043,386.491,228.705,384.932,228.008z"/>
	</g>
	<path style="fill:#FD913E;" d="M305.647,313.493c-0.66,12.585,0.292,32.232-7.636,38.135c-1.946,1.449-4.807,1.986-7.968,1.866   c-3.922-0.16-8.205-3.587-8.365-6.168c-15.786,5.522-43.977,13.485-70.268,6.503c-41.276-10.965-11.925-50.78-12.905-50.94   c-0.42-0.08,2.521-6.723,5.942-14.206l-1.201-26.25c0,0,57.103-12.245,84.754,44.938c0,0,11.885-33.573,25.57-30.752   c2.421,0.5,3.762,1.501,4.322,2.901C320.493,285.962,306.308,300.828,305.647,313.493z"/>
	<path style="fill:#C75325;" d="M192.278,265.317c8.863-3.632,18.515-5.242,28.12-5.3c4.809,0.001,9.63,0.409,14.371,1.293   c1.194,0.174,2.355,0.51,3.536,0.757c1.176,0.267,2.359,0.506,3.503,0.935l3.463,1.151c1.124,0.457,2.208,1.006,3.314,1.506   c8.838,4.135,16.173,10.711,22.837,17.62c6.55,7.084,12.433,14.709,17.481,22.978l-1.89,0.165c1.981-5.239,4.3-10.284,7.041-15.157   c2.793-4.814,5.842-9.623,10.308-13.335c2.213-1.786,5.09-3.319,8.274-3.025c1.59,0.179,2.922,0.61,4.34,1.471   c0.652,0.498,1.335,1.097,1.674,1.947c0.35,0.811,0.464,1.703,0.375,2.482c-0.376,3.146-1.855,5.541-3.06,8.043   c-1.273,2.463-2.581,4.878-3.781,7.337c-2.402,4.908-4.362,10.039-5.328,15.398c-0.511,2.663-0.647,5.399-0.878,8.157l-0.606,8.258   c-0.484,5.495-0.878,11.065-2.434,16.434c-0.793,2.636-1.992,5.353-4.248,7.106c-2.254,1.769-5.209,2.121-7.929,1.895   c2.735,0.115,5.625-0.38,7.71-2.163c2.109-1.746,3.189-4.398,3.884-7.007c1.367-5.3,1.565-10.85,1.911-16.338l0.448-8.268   c0.177-2.743,0.262-5.539,0.737-8.315c0.889-5.543,2.81-10.865,5.159-15.906c1.162-2.531,2.458-4.986,3.712-7.43   c1.184-2.423,2.572-4.948,2.809-7.336c0.114-1.196-0.307-2.062-1.229-2.697c-0.929-0.579-2.297-1.032-3.449-1.125   c-2.411-0.22-4.819,0.991-6.833,2.642c-4.053,3.397-7.048,8.096-9.727,12.808c-2.621,4.777-4.946,9.779-6.913,14.849l-0.78,2.011   l-1.111-1.846c-4.869-8.093-10.675-15.729-17.068-22.724c-3.285-3.415-6.629-6.798-10.348-9.725   c-1.785-1.558-3.772-2.843-5.663-4.26c-2.038-1.175-3.95-2.605-6.116-3.536c-1.062-0.504-2.105-1.06-3.185-1.523l-3.323-1.173   c-1.091-0.437-2.252-0.694-3.403-0.978c-1.154-0.265-2.291-0.618-3.461-0.811c-4.646-0.975-9.388-1.414-14.136-1.581   C210.89,260.735,201.286,262.111,192.278,265.317z"/>
	<path style="opacity:0.2;fill:#A1312F;" d="M305.647,313.493c-0.66,12.585,0.795,31.6-7.636,38.135   c-18.287-16.347,0.513-57.883,9.897-67.046c3.621-3.542,7.063-4.842,9.984-5.062C320.493,285.962,306.308,300.828,305.647,313.493z   "/>
	<path style="fill:#C75325;" d="M299.513,285.349c0,0,3.352-2.117,7.056,0.882"/>
	<path style="fill:#A1312F;" d="M350.185,199.608l-1.58,111.944c0,0-12.305,1.761-13.345,1.761c-0.02,0-0.08-0.02-0.2-0.04   l1-111.664l0.94,0.24l13.025-2.101C350.025,199.748,350.085,199.688,350.185,199.608z"/>
	<path style="fill:#A1312F;" d="M336.06,202.686c-0.09,0-0.183-0.01-0.271-0.036l-91.878-24.009c-0.576-0.15-0.922-0.739-0.77-1.313   c0.15-0.579,0.739-0.928,1.313-0.77l91.327,23.864c1.686-1.399,7.618-5.61,14.137-1.991l66.198-55.771   c0.455-0.377,1.134-0.324,1.519,0.131c0.383,0.454,0.324,1.134-0.13,1.519l-66.785,56.263c-0.36,0.301-0.878,0.335-1.273,0.084   c-6.534-4.163-12.572,1.658-12.631,1.719C336.612,202.577,336.34,202.686,336.06,202.686z"/>
	<path style="fill:#A1312F;" d="M336.185,202.597l14.008-1.957C350.194,200.641,342.456,194.771,336.185,202.597z"/>
	
		<rect x="335.8" y="215.325" transform="matrix(0.9986 -0.0527 0.0527 0.9986 -10.921 18.3562)" style="fill:#FD913E;" width="14.087" height="2.154"/>
	
		<rect x="335.024" y="283.733" transform="matrix(0.9986 -0.0529 0.0529 0.9986 -14.5815 18.4861)" style="fill:#FD913E;" width="14.088" height="2.154"/>
</g>















</svg>
