<svg height="512" viewBox="0 0 512 512" width="512" xmlns="http://www.w3.org/2000/svg"><g id="Stickers"><path d="m472.65956 206.12881-36.64752.39428-14.24558-23.596h-8.97941c-.07478-1.494 1.79782-8.55332-3.01269-16.034 9.18849-29.69158 22.6202-42.0857 28.95014-64.389 5.563-19.611 1.93254-38.93206-9.71447-51.68251l-.157.11561c-14.31633-21.43567-38.26085-36.751-65.95139-42.1242-24.98574-4.84912-51.12772-1.536-75.7159 7.10812-23.34476 8.2026-44.34343 20.60054-64.678 20.60054-1.49537-.211-4.75135 1.17546-28.907-5.374-16.07822-4.35727-31.445-8.07353-56.06092-8.07353-27.81249 0-66.26983 5.25665-91.02783 19.2443-43.31424 24.469-50.9604 71.67631-27.64223 97.49925 4.82445 9.92325 13.27587 18.22972 23.82029 23.80993l-4.87449 1.97913 128.65025 339.82 55.22061-27.85791c54.50555 28.56438 97.17714-17.50071 117.25171-17.50071 9.55054 0 16.81137 6.53354 17.66894 7.33934l33.75733 37.30666-3.35778-49.61453 29.56269-13.41217c-19.14514-12.28376-34.31037-30.32408-60.84224-31.729l57.80366-29.15462 47.49736 1.33725c.31576.00863.94729.01294.94729.01294a33.22476 33.22476 0 0 0 33.1793-30.101l10.68764-109.33347a33.36423 33.36423 0 0 0 -33.18276-36.5907z" fill="#fff"/><path d="m230.63887 439.24662s13.5758 25.06878 51.99423 14.48488 61.658-42.66108 98.97322-15.58422l-13.05443 5.9226.74587 11.038s-19.03892-19.90572-45.14667-9.89285-63.41729 44.53851-109.13423 6.67664z" fill="#ff605b"/><path d="m428.704 353.361-193.581 97.639-59.085 29.807-115.59-305.319 59.191-24.03 201.673-81.86z" fill="#a369f7"/><path d="m235.123 451-59.085 29.807-115.59-305.319 59.191-24.03z" fill="#8b57dd"/><path d="m177.61073 207.4601 24.14233 55.01156s41.51406-68.74361 128.18815-68.74361l-24.14233-55.01155s-94.61931-2.73899-128.18815 68.7436z" fill="#bd3234"/><path d="m217.308 308.006 17.309 39.499 95.396-45.993-10.208-44.416z" fill="#bd3234"/><path d="m135.184 333.863 30.673-12.46 30.604 88.304-28.09 14.082z" fill="#fff"/><path d="m116.799 290.56 32.684-11.875-34.701-98.22-29.4 11.084z" fill="#fff"/><path d="m173.028 442.446 8.62 21.29 30.566-15.675-10.049-21.344z" fill="#0071ff"/><path d="m472.4872 223.799-46.38042.50061-14.31223-23.70411h-55.00342l-15.4448 24.61907-57.89457.62495a15.67612 15.67612 0 0 0 -15.48793 14.90494l-5.02417 102.12936a15.67612 15.67612 0 0 0 15.21584 16.44007l183.37058 5.16511a15.676 15.676 0 0 0 16.0431-14.14465l10.68893-109.33485a15.67618 15.67618 0 0 0 -15.77091-17.2005zm-105.20072-15.92391h33.23527l10.01783 16.59257-54.04222.58342z" fill="#00abfe"/><path d="m290.52057 253.27419-3.35857 84.18357a6.39247 6.39247 0 0 0 6.22546 6.64524l157.27936 3.98534a6.39245 6.39245 0 0 0 6.52894-5.82054l7.9562-88.89322a6.39246 6.39246 0 0 0 -6.39561-6.96227l-161.877.72431a6.39245 6.39245 0 0 0 -6.35878 6.13757z" fill="#7ad001"/><path d="m32.13684 123.18651c5.10014 8.84972 14.70406 14.47783 24.70443 16.55662 36.17643 7.52 81.30434-25.98676 124.09226-20.92059 29.46747 3.489 61.1541 26.8468 80.39364 23.85471 14.2906-2.22242 31.17106-21.01934 53.7656-30.37373 42.99958-17.80229 69.73627 15.1561 66.14981 58.75171-5.07635-35.41479-34.24856-55.12524-60.22-48.11185-17.51748 4.73047-29.80775 20.81144-46.70113 27.43361-35.908 14.07583-71.38095-16.15128-108.02007-16.59756-33.83324-.41212-64.76743 23.70293-98.70274 19.43241-16.75939-2.10905-33.53232-13.22084-35.4618-30.02533z" fill="#ffb020"/><path d="m380.89267 176.71027c.48088-44.70647 24.92507-63.948 34.17856-82.39554 4.77933-9.528 6.99535-21.16218.89181-31.57675 8.31962 9.1071 9.13028 23.07772 5.76281 34.94428-6.51656 22.96361-25.46912 39.18039-33.45689 82.70544-2.31864-1.8447-4.89266-3.36793-7.37629-3.67743z" fill="#ffb020"/><path d="m414.82658 61.76842c-12.18244-18.95365-33.17333-31.31779-55.29177-35.61052-60.56517-11.75442-94.57215 28.6041-137.9313 28.02664-17.30506-.23045-104.52995-31.43813-166.4009 3.5169-38.6877 21.85727-38.69369 62.97822-16.53092 75.68875-9.71234-14.17477-6.64776-34.435 3.81019-48.06893 45.89412-59.83188 167.00745-14.3158 173.33271-13.60753 43.27626 4.84586 65.20045-20.98362 96.65069-31.25135 35.36517-11.54588 75.07561.36306 102.3613 21.30604z" fill="#ff605b"/><path d="m375.98019 175.2c3.85629-.58914 10.7576-1.30253 16.85811-.146a3.22206 3.22206 0 0 1 2.575 3.43145l-2.48887 31.6442a3.23309 3.23309 0 0 1 -3.22314 2.97959h-9.84945a3.23309 3.23309 0 0 1 -3.21483-2.88994l-3.36056-31.48311a3.22208 3.22208 0 0 1 2.70374-3.53619z" fill="#b2aca3"/><path d="m300.217 262.472h50.068l-4.094 71.515h-47.879z" fill="#ff605b"/><path d="m362.46 262.472v14.834h85.651l1.05-14.834z" fill="#fff"/><g fill="#65a500"><path d="m446.22168 297.23h-83.76168a2.5 2.5 0 0 1 0-5h83.76172a2.5 2.5 0 0 1 0 5z"/><path d="m446.22168 312.97461h-83.76168a2.5 2.5 0 0 1 0-5h83.76172a2.5 2.5 0 0 1 0 5z"/><path d="m397.09863 330.39844h-34.63863a2.5 2.5 0 0 1 0-5h34.63867a2.5 2.5 0 0 1 0 5z"/></g><path d="m298.31159 333.98659.582-21.84819s7.30609-14.39884 23.68047-13.90928 24.85433 14.13963 24.85433 14.13963l-1.23739 21.61784z" fill="#ffb020"/><ellipse cx="323.729" cy="283.551" fill="#ffb020" rx="9.762" ry="11.179"/></g></svg>