<svg height="512" viewBox="0 0 512 512" width="512" xmlns="http://www.w3.org/2000/svg"><g id="Stickers"><path d="m506 179.18185-108.59546-159.18326-21.66613 27.79776a63.75735 63.75735 0 0 1 -8.42412 1.42543l-13.67593-19.16306-25.60736 36.67495-12.24174 5.996-21.73472-.532c-38.65931 7.4433-91.09045 25.92946-118.88771 54.65348-66.86338-37.712-131.29255-8.26594-134.02257-7.91281l-15.87671 24.54808-19.26755 12.18909 51.71091 223.84183h19.07609l29.17134 59.66521 151.008 52.81886 48.10627-44.59416-18.33506-6.68125-.59346-1.95189 86.11252-19.853a19.881 19.881 0 0 0 13.9296-26.906l-3.23772-7.904a22.44637 22.44637 0 0 0 4.356-5.76153l8.594 56.18421a22.024 22.024 0 0 0 26.24312 18.33588c65.33586-13.2921 72.4869-59.19341 73.64425-60.35837l-39.50267-114.7957zm-124.09645 165.14815c.0694.02393.13959.04866.209.07338l.1029.67483z" fill="#fff"/><path d="m273.484 453.292-20.632 19.963-135.165-47.277-43.945-89.881 157.808-20.633 23.442 77.025z" fill="#ffb020"/><path d="m120.714 422.5 16.576-19.087 136.2 49.872-18.924 18.313z" fill="#eae5db"/><path d="m123.143 373.343 14.147 30.075-16.581 19.081-3.022 3.479-43.945-89.881 157.808-20.633 23.442 77.025z" fill="#f28916"/><path d="m371.06985 398.208-14.80224-36.13026-117.14544 18.14434 12.29832 44.88092a4.98979 4.98979 0 0 0 5.93334 3.54355l111.23417-25.64421a3.542 3.542 0 0 0 2.48185-4.79434z" fill="#0071ff"/><path d="m367.366 369.3-1.762 26.776-109.571 26.424-10.921-38.05z" fill="#eae5db"/><path d="m314.77143 225.57259 58.322 140.09953a5.92259 5.92259 0 0 1 -4.622 8.13806l-126.27498 18.21882-52.60021-140.48922z" fill="#00abfe"/><path d="m396.527 47.699 90.546 132.727-69.229 137.208-106.803-160.266z" fill="#bd3234"/><path d="m354.86186 66.01494s25.71569 1.15566 38.0108-8.05289l83.71289 125.44839-57.38507 132.41875s-18.9547 28.49811-43.73373 5.48134l-79.64162-165.41881z" fill="#eae5db"/><path d="m353.784 58.385-66.364 95.046 88.047 167.88 75.05-127.387z" fill="#ff605b"/><path d="m238.96868 363.18089s16.18936 13.49716 30.68-6.00949l123.036-92.6724-65.78785-179.01906-138.8505 68.00194-17.39584 2.84657s-72.36669-28.21293-130.627-2.84662l-15.49809 9.80492 46.17805 199.89408z" fill="#a369f7"/><path d="m386.20378 262.07778-137.41961 91.97246-70.22906-205.49224c28.31056-43.38879 116.81977-59.98636 116.81977-59.98636l28.73531.70254z" fill="#fff"/><path d="m386.20378 262.07778-117.13753 89.07585c-5.88439 7.789-12.58334 11.89129-20.61805 9.9483-3.2182-54.39933 109.70646-97.43949 109.70646-97.43949l-62.77978-175.09085 28.73531.70254z" fill="#eae5db"/><path d="m51.8009 132.54149-21.15848 32.71467 46.34607 189.54268 158.44423 3.433s10.40731 3.23072 13.01548 2.87013l.43572-6.26835-13.56255-31.62179z" fill="#eae5db"/><path d="m51.8009 132.54149 57.27723 192.79913s93.22209-17.47113 139.80579 29.11258l-70.32881-205.8952s-50.94111-42.186-126.75421-16.01651z" fill="#fff"/><g fill="#b2aca3"><path d="m176.36377 179.87061a185.61011 185.61011 0 0 0 -96.42188-5.75977 2.50005 2.50005 0 1 1 -1.01269-4.89648 190.61047 190.61047 0 0 1 99.02246 5.915 2.5 2.5 0 0 1 -1.58789 4.74122z"/><path d="m182.82471 204.40137a155.39042 155.39042 0 0 0 -91.12207-1.00391 2.50008 2.50008 0 1 1 -1.42774-4.792 160.43192 160.43192 0 0 1 94.083 1.03711 2.49984 2.49984 0 0 1 -1.5332 4.75879z"/><path d="m193.01465 232.5957c-29.00293-5.45654-61.875-11.6416-92.28662-3.5459a2.50013 2.50013 0 0 1 -1.28614-4.832c31.50684-8.3872 64.97217-2.09082 94.49756 3.46387a2.50016 2.50016 0 0 1 -.9248 4.91406z"/><path d="m198.77441 261.71826c-28.34423-8.51416-59.28906-9.68847-91.97607-3.49267a2.49984 2.49984 0 1 1 -.93164-4.91211c33.4834-6.34864 65.22559-5.13135 94.34619 3.61572a2.50022 2.50022 0 0 1 -1.43848 4.78906z"/><path d="m210.26514 290.56836c-30.71252-6.48412-63.14383-14.95667-93.83741-8.7666a2.5 2.5 0 0 1 -.98828-4.90137c31.69468-6.39244 64.29384 2.11738 95.85791 8.77539a2.50014 2.50014 0 0 1 -1.03222 4.89258z"/><path d="m224.63477 318.32178a233.25288 233.25288 0 0 0 -101.22608-11.90088 2.5 2.5 0 0 1 -.52246-4.97266 238.23116 238.23116 0 0 1 103.40967 12.15776 2.49992 2.49992 0 0 1 -1.66113 4.71582z"/><path d="m201.31592 170.67725a2.49994 2.49994 0 0 1 -.11377-3.5337c27.86279-29.72121 52.39231-34.6985 92.28662-46.84179a2.5 2.5 0 1 1 1.45605 4.7832c-38.77944 11.805-63.14092 16.72684-90.09521 45.47852a2.5 2.5 0 0 1 -3.53369.11377z"/><path d="m203.49561 199.51758a2.49989 2.49989 0 0 1 .2246-3.52832c29.80469-26.24268 59.083-41.01807 97.89942-49.40528a2.49972 2.49972 0 1 1 1.05566 4.88672c-37.9248 8.19532-66.53076 22.63135-95.65136 48.27149a2.4999 2.4999 0 0 1 -3.52832-.22461z"/><path d="m214.95557 224.63721a2.49947 2.49947 0 0 1 .50927-3.49854 272.52221 272.52221 0 0 1 99.25293-46.33594 2.5 2.5 0 1 1 1.15332 4.86524 267.47865 267.47865 0 0 0 -97.417 45.47851 2.5 2.5 0 0 1 -3.49852-.50927z"/><path d="m222.51221 258.81836a2.49991 2.49991 0 0 1 .07275-3.53467 221.97246 221.97246 0 0 1 99.6792-55.08935 2.5 2.5 0 1 1 1.21289 4.85058 216.96582 216.96582 0 0 0 -97.43017 53.84619 2.49974 2.49974 0 0 1 -3.53467-.07275z"/><path d="m235.07227 285.57324a2.49983 2.49983 0 0 1 .36523-3.5166 325.69677 325.69677 0 0 1 97.40771-54.51664 2.49975 2.49975 0 1 1 1.66016 4.71582 320.7087 320.7087 0 0 0 -95.9165 53.68262 2.50017 2.50017 0 0 1 -3.5166-.3652z"/><path d="m244.99268 323.39307a2.50012 2.50012 0 0 1 -.15235-3.53223 221.85743 221.85743 0 0 1 101.15235-62.93652 2.5 2.5 0 1 1 1.40429 4.79882 216.85816 216.85816 0 0 0 -98.87207 61.51758 2.5 2.5 0 0 1 -3.53222.15235z"/></g><path d="m181.314 147.46861s21.62842-24.75078 40.24239-11.86023 19.57 46.14651 45.90151 56.61618 60.5369 17.57982 76.1786 35.17926l-14.82862 6.61539s-10.23859-15.25485-33.57217-20.10351-47.23521-12.80673-55.04494-31.83417-13.73978-34.42235-27.10838-43.45766-31.76839 8.84474-31.76839 8.84474z" fill="#ffb020"/><path d="m418.88467 436.861c14.05974-2.86033 48.954-12.993 59.63365-44.32386l-41.45032-120.45629-25.56663-65.04163a18.82914 18.82914 0 0 0 -10.16772-10.44439l-37.55827-15.94013a25.27759 25.27759 0 0 0 -17.98609-.67239l-42.68729 14.46131a5.78108 5.78108 0 0 0 -3.90526 5.96649 5.78108 5.78108 0 0 0 6.26415 5.268l37.59674-3.29 18.56522 8.98227a10.63863 10.63863 0 0 1 5.964 8.64062l1.18516 13.41829-24.09662-9.77287-14.79715-1.36379a5.17292 5.17292 0 0 0 -5.67169 5.44005c.27535 3.964 2.36191 8.78535 10.28888 10.6024 14.38907 3.29832 19.68516 8.36572 19.68516 8.36572s14.9 32.06121 35.33043 38.03685l22.53646 147.32645a5.77084 5.77084 0 0 0 6.83719 4.7969z" fill="#ffad92"/></g></svg>