<?xml version="1.0" encoding="UTF-8"?>
<!-- Generator: Adobe Illustrator 26.5.1, SVG Export Plug-In . SVG Version: 6.00 Build 0)  -->
<svg xmlns="http://www.w3.org/2000/svg" xmlns:xlink="http://www.w3.org/1999/xlink" version="1.1" id="Capa_1" x="0px" y="0px" viewBox="0 0 512 512" style="enable-background:new 0 0 512 512;" xml:space="preserve" width="512" height="512">
<g>
	<path style="fill:#FFFFFF;" d="M288.298,512c-0.18,0-0.359-0.002-0.537-0.01c-0.177,0.007-0.356,0.01-0.534,0.01H17.017   c-8.193,0-14.836-6.643-14.836-14.836V242.102c0-2.642,0.052-5.286,0.129-7.928l0.08-2.074c0.727-18.132,3.493-36.132,8.224-53.533   l0.705-2.555c1.821-6.404,3.88-12.663,6.132-18.637c18.841-50.485,54.64-93.827,100.785-121.994   c9.443-5.772,19.29-10.899,29.26-15.236c0.162-0.07,0.324-0.136,0.488-0.2C178.452,6.711,210.851,0,244.285,0   c32.772,0,64.531,6.428,94.395,19.107c0.197,0.082,0.395,0.167,0.593,0.252c11.644-2.077,23.743-3.218,36.079-3.404   c0.396-0.182,0.802-0.35,1.217-0.501c1.636-0.616,3.492-0.953,5.382-0.953c0.155,0,0.31,0.002,0.465,0.007   c0.112-0.045,0.226-0.088,0.339-0.129c1.897-0.665,3.643-0.961,5.413-0.961c2.211,0,4.349,0.47,6.299,1.328   c0.004,0,0.007,0,0.011,0c1.026,0,2.038,0.101,3.023,0.296c1.319-0.371,2.763-0.573,4.229-0.573c4.169,0,8.082,1.674,10.959,4.476   c3.925,1.579,7.066,4.781,8.495,8.854l32.67,93.044c15.299,26.367,25.337,54.957,29.856,85.028l6.731,19.168l18.403,49.816   c2.994,8.087-1.149,17.133-9.243,20.151c-1.215,0.449-2.453,0.744-3.71,0.889c-1.067,0.739-2.242,1.355-3.516,1.823   c-1.713,0.635-3.547,0.964-5.414,0.964c-0.184,0-0.368-0.003-0.551-0.01v198.491c0,8.193-6.643,14.836-14.836,14.836H288.298z"/>
	<g>
		<path style="fill:#A27CFF;" d="M331.957,30.923l-114.65,98.79L30.41,160.765c17.902-47.971,51.531-88.251,94.631-114.561    c8.778-5.366,17.952-10.163,27.447-14.292h0.025c27.843-12.166,58.529-18.916,90.848-18.916    C274.813,12.995,304.757,19.375,331.957,30.923z"/>
		<g>
			<path style="fill:#2F2444;" d="M470.652,240.262v123.12l-30.935,97.225l-153.413,34.715H16.093v-255.06     c0-2.497,0.05-4.995,0.124-7.492c0.025-0.643,0.05-1.311,0.074-1.953c0.692-17.284,3.338-34.099,7.715-50.196     c0.223-0.816,0.445-1.632,0.668-2.423c1.681-5.91,3.585-11.721,5.737-17.433l102.667-44.212l2.028-0.866l92.801-39.959     l2.67-1.162l101.381-43.643c2.473,1.038,4.921,2.126,7.344,3.264c0.569,0.247,1.162,0.519,1.731,0.816     c7.171,3.388,14.119,7.171,20.845,11.3c0.717,0.421,1.434,0.866,2.126,1.311c12.314,7.715,23.837,16.592,34.396,26.483     c0.47,0.396,0.939,0.841,1.409,1.311c1.434,1.36,2.868,2.745,4.278,4.154c9.025,9.026,17.284,18.793,24.678,29.203     c0.346,0.494,0.692,0.964,1.014,1.459c21.488,30.736,35.582,67.035,39.662,106.277c0.099,1.063,0.198,2.151,0.272,3.215     c0.272,2.868,0.47,5.761,0.593,8.654c0.074,0.618,0.099,1.212,0.099,1.83C470.577,233.537,470.652,236.9,470.652,240.262z"/>
			<g>
				<g>
					<g>
						<path style="fill:#FFBEFF;" d="M34.787,237.666c-6.355-0.297-12.66-2.003-18.57-4.896c0.025-0.643,0.05-1.311,0.074-1.953        c5.885,3.017,12.215,4.772,18.57,5.069c12.784,0.618,25.271-4.748,33.53-8.803c17.062-8.407,29.598-18.125,38.327-29.747        c13.427-17.853,18.001-40.627,22.452-62.658c0.816-4.031,1.632-8.061,2.497-12.042c0.421-1.953,0.89-4.006,1.41-6.083        l2.028-0.866c-0.643,2.522-1.212,4.97-1.706,7.319c-0.841,3.981-1.657,7.987-2.473,12.017        c-4.476,22.23-9.124,45.201-22.774,63.376c-8.902,11.869-21.661,21.76-38.97,30.291        C60.75,232.844,47.991,238.26,34.787,237.666z"/>
					</g>
					<g>
						<path style="fill:#FFBEFF;" d="M227.905,75.728l2.67-1.162c12.784,3.14,26.755,3.313,40.651,0.321        c22.205-4.797,44.509-17.606,64.464-37.091c1.212-1.187,2.423-2.398,3.61-3.61c0.569,0.247,1.162,0.519,1.731,0.816        c-1.36,1.385-2.72,2.745-4.08,4.08c-20.202,19.708-42.803,32.689-65.354,37.56C256.638,79.857,241.555,79.462,227.905,75.728z        "/>
					</g>
					<g>
						<path style="fill:#FFBEFF;" d="M399.808,75.407c-5.069,2.275-10.237,4.327-15.38,6.355l-4.476,1.78        c-50.888,20.449-99.378,48.119-146.286,74.874c-38.253,21.834-77.816,44.385-118.517,62.955        c-12.141,5.539-24.727,10.905-36.893,16.073c-20.82,8.852-41.962,17.853-62.164,28.337v-2.028        c20.029-10.286,40.923-19.188,61.472-27.942c12.166-5.168,24.727-10.534,36.843-16.048        c40.627-18.545,80.141-41.096,118.369-62.906c46.957-26.78,95.521-54.499,146.508-74.973l4.5-1.78        c4.871-1.929,9.792-3.882,14.614-6.009C398.869,74.492,399.338,74.937,399.808,75.407z"/>
					</g>
					<g>
						<path style="fill:#FFBEFF;" d="M78.875,307.94c-21.537,11.053-42.506,19.213-62.782,24.43v-1.83        c20.004-5.193,40.726-13.278,61.966-24.183c29.747-15.281,57.886-34.519,85.111-53.139        c6.849-4.673,13.674-9.322,20.548-13.946c19.238-12.957,39.934-26.26,62.683-34.198c7.196-2.497,14.639-4.5,21.859-6.404        c5.539-1.483,11.275-3.017,16.839-4.772c38.871-12.264,73.415-36.547,106.846-60.013        c12.092-8.481,24.307-17.062,36.819-25.123c0.346,0.494,0.692,0.964,1.014,1.459c-12.487,8.061-24.727,16.641-36.819,25.123        c-33.53,23.54-68.198,47.896-107.341,60.26c-5.588,1.756-11.35,3.289-16.913,4.772c-7.171,1.929-14.589,3.907-21.711,6.404        c-22.551,7.863-43.124,21.092-62.288,33.975c-6.874,4.599-13.699,9.273-20.523,13.946        C136.91,273.347,108.721,292.61,78.875,307.94z"/>
					</g>
					<g>
						<path style="fill:#FFBEFF;" d="M470.404,230.198c-12.141,3.783-24.752,6.083-37.536,6.775        c-14.243,0.742-29.104-0.322-43.495-1.335c-30.662-2.201-62.362-4.476-88.301,11.325        c-12.141,7.418-21.908,18.298-31.354,28.832c-3.215,3.585-6.528,7.27-9.891,10.781        c-43.347,45.251-103.409,69.261-161.493,92.455c-9.767,3.907-19.881,7.962-29.697,12.017        c-16.765,6.948-35.187,14.935-52.545,25.494v-2.077c17.185-10.361,35.335-18.224,51.878-25.073        c9.817-4.055,19.93-8.11,29.722-12.017c57.886-23.145,117.775-47.08,160.85-92.034c3.338-3.487,6.652-7.171,9.842-10.732        c9.545-10.633,19.386-21.611,31.774-29.153c26.409-16.122,58.405-13.823,89.339-11.597        c14.342,1.014,29.129,2.077,43.272,1.335c12.784-0.692,25.395-3.017,37.536-6.825        C470.38,228.987,470.404,229.58,470.404,230.198z"/>
					</g>
					<g>
						<path style="fill:#FFBEFF;" d="M250.432,385.856c-25.667,14.985-49.899,32.64-72.03,52.471        c-6.8,6.083-13.526,12.487-20.029,18.669c-12.735,12.141-25.914,24.678-40.231,35.409c-1.335,1.014-2.671,1.978-4.006,2.918        h-3.091c2.003-1.409,4.031-2.844,6.033-4.352c14.243-10.657,27.373-23.169,40.058-35.261        c6.528-6.207,13.254-12.635,20.078-18.718c22.23-19.905,46.561-37.635,72.327-52.669c13.6-7.937,28.411-15.578,44.657-17.754        c9.767-1.311,19.707-0.569,29.326,0.148c7.418,0.544,15.083,1.113,22.576,0.742c36.027-1.805,67.678-24.999,93.889-47.451        c3.239-2.769,6.454-5.588,9.693-8.407c6.874-5.984,13.822-12.017,20.969-17.828v2.349        c-6.726,5.489-13.278,11.177-19.782,16.839c-3.239,2.819-6.478,5.613-9.718,8.407c-26.433,22.65-58.406,46.042-94.977,47.872        c-7.591,0.371-15.306-0.198-22.774-0.742c-9.545-0.717-19.386-1.459-28.956-0.173        C278.497,370.475,263.883,378.017,250.432,385.856z"/>
					</g>
					<g>
						<path style="fill:#FFBEFF;" d="M470.652,411.3v1.83c-9.322,1.632-18.768,2.819-28.214,3.709        c-1.434,0.148-2.893,0.297-4.352,0.396c-5.663,0.519-11.325,0.94-16.963,1.286c-5.588,0.346-11.226,0.668-16.839,0.989        c-22.848,1.286-46.215,2.596-68.939,6.676c-1.385,0.272-2.77,0.519-4.154,0.791c-9.347,1.83-18.595,4.179-27.62,7.22        c-0.668,0.223-1.31,0.445-1.978,0.668c-0.322,0.124-0.643,0.223-0.989,0.371c-3.19,1.137-7.171,2.695-11.523,4.747        c-17.087,8.012-40.107,23.342-45.152,49.133c-0.395,2.028-0.643,4.105-0.742,6.206h-1.78c0.099-2.201,0.346-4.401,0.766-6.553        c5.341-27.224,29.969-43.05,47.501-51.037c4.352-1.978,8.259-3.487,11.325-4.55c0.124-0.049,0.222-0.074,0.346-0.124        c1.014-0.346,2.003-0.693,3.017-0.989c8.63-2.844,17.433-5.044,26.334-6.8c1.409-0.297,2.844-0.544,4.253-0.791        c22.823-4.154,46.289-5.465,69.236-6.75c5.613-0.322,11.226-0.643,16.814-1.014c5.539-0.346,11.103-0.767,16.666-1.261        c1.434-0.124,2.868-0.247,4.303-0.396C451.562,414.144,461.156,412.957,470.652,411.3z"/>
					</g>
					<g>
						<path style="fill:#FFBEFF;" d="M470.652,443.767v1.805c-3.462,0.445-7.097,1.113-10.979,2.003        c-15.034,3.388-29.771,8.926-43.569,16.221c-2.769,1.484-5.49,3.017-8.185,4.624c-1.879,1.113-3.734,2.25-5.564,3.462        c-0.717,0.445-1.409,0.915-2.126,1.409c-9.1,6.058-17.63,12.957-25.37,20.573c-0.495,0.47-0.964,0.964-1.459,1.459h-2.497        c0.866-0.915,1.78-1.83,2.695-2.72c7.294-7.171,15.133-13.649,23.466-19.411c0.025-0.025,0.025-0.025,0.049-0.025        c4.624-3.215,9.396-6.182,14.292-8.902c6.206-3.511,12.636-6.627,19.238-9.347c9.223-3.808,18.817-6.849,28.634-9.1        C463.283,444.904,467.066,444.237,470.652,443.767z"/>
					</g>
				</g>
				<g>
					<path style="fill:#FFBEFF;" d="M339.598,388.081c-0.173,0.915-0.247,1.83-0.198,2.72c0.074,2.275,0.866,4.476,2.127,6.479       c2.695,4.303,7.641,7.764,12.833,9.347c9.421,2.893,19.782,1.855,29.574,0.519c16.048-2.151,31.972-4.97,47.773-8.457       c1.434-0.297,2.868-0.618,4.302-0.94c11.622-2.646,23.194-5.663,34.643-9.025v1.286c-11.399,3.338-22.897,6.33-34.494,8.976       c-1.459,0.322-2.943,0.668-4.401,0.964c-15.43,3.388-30.983,6.157-46.66,8.284c-0.322,0.049-0.668,0.099-0.989,0.148       c-0.618,0.074-1.212,0.148-1.83,0.223c-4.649,0.618-9.421,1.113-14.169,1.113c-4.772,0-9.545-0.519-14.094-1.904       c-4.97-1.533-9.718-4.673-12.71-8.704c-1.434-1.929-2.473-4.055-2.893-6.306c-0.346-1.607-0.371-3.264-0.025-4.97       c0.321-1.558,0.89-3.017,1.755-4.377c2.448-4.055,7.196-7.22,14.193-9.471c1.212-0.396,2.497-0.742,3.857-1.088       c1.459-0.346,2.918-0.692,4.401-1.014c2.225-0.495,4.451-0.94,6.701-1.335c3.017-0.544,6.033-1.038,9.075-1.459       c0.865-0.148,1.756-0.272,2.621-0.371c9.025-1.212,18.076-2.003,26.953-2.794c9.1-0.791,18.471-1.607,27.67-2.893       c0.915-0.099,1.805-0.247,2.72-0.371c1.138-0.173,2.25-0.346,3.338-0.519c6.305-1.014,12.215-2.25,17.803-3.709       c3.907-1.014,7.616-2.151,11.177-3.388v1.286c-3.017,1.063-6.182,2.028-9.446,2.893c-5.316,1.484-10.954,2.72-16.913,3.734       c-1.805,0.321-3.635,0.618-5.514,0.89c-0.099,0.025-0.173,0.025-0.272,0.049c-10.089,1.459-20.449,2.374-30.439,3.264       c-4.97,0.445-9.99,0.866-15.009,1.41c-2.918,0.297-5.836,0.618-8.753,0.989c-1.113,0.124-2.226,0.247-3.314,0.396       c-4.921,0.668-9.792,1.434-14.639,2.423c-2.003,0.371-4.006,0.816-5.984,1.286c-0.618,0.148-1.261,0.297-1.879,0.445       c-5.59,1.379-9.969,3.238-13.122,5.558c-0.023,0.016-0.045,0.034-0.068,0.05C342.161,382.047,340.251,384.84,339.598,388.081z"/>
				</g>
				<g>
					<path style="fill:#FFBEFF;" d="M118.587,453.608c-11.622,15.776-27.991,27.373-43.792,38.549       c-1.484,1.039-2.967,2.102-4.451,3.165h-2.127c1.953-1.385,3.907-2.769,5.86-4.154c15.726-11.152,31.997-22.675,43.52-38.302       c8.382-11.375,12.957-27.225,4.278-37.066c-4.748-5.366-13.056-7.789-21.686-6.33c-8.011,1.36-15.183,5.49-21.834,9.594       c-22.155,13.699-42.432,29.623-62.263,46.536v-1.607c19.609-16.715,39.687-32.417,61.62-45.968       c6.454-4.006,14.02-8.383,22.279-9.767c9.025-1.558,17.779,1.039,22.823,6.726C131.939,425.32,127.266,441.838,118.587,453.608       z"/>
				</g>
			</g>
		</g>
		<g>
			<g>
				<g>
					<path style="fill:#FBEEE5;" d="M58.262,147.016l98.895,262.881c0,0,95.361-52.643,179.051-72.588       c0,0,112.867-51.357,156.987-58.854L406.262,30.874c0,0-109.446-19.028-162.383,61.713       C243.879,92.587,163.1,58.817,58.262,147.016z"/>
					<g>
						<path style="fill:#2F2444;" d="M190.556,402.005c-0.347,0-0.673-0.211-0.805-0.554L84.613,126.472        c-0.17-0.444,0.053-0.942,0.497-1.112c0.445-0.168,0.941,0.053,1.112,0.497L191.36,400.836        c0.17,0.444-0.053,0.942-0.497,1.112C190.762,401.986,190.658,402.005,190.556,402.005z"/>
						<path style="fill:#2F2444;" d="M338.12,338.572c-0.049,0-0.098-0.004-0.147-0.013c-0.298-0.052-0.548-0.257-0.656-0.54        L243.075,92.896c-0.171-0.443,0.051-0.941,0.495-1.112c0.443-0.172,0.94,0.05,1.112,0.495l93.735,243.807        c3.846-4.234,19.07-20.307,40.631-34.231c22.744-14.689,57.334-29.896,93.73-19.712L380.216,28.657        c-0.163-0.447,0.066-0.941,0.514-1.104c0.44-0.165,0.94,0.065,1.104,0.514l93.146,255.08c0.112,0.306,0.042,0.648-0.182,0.886        c-0.225,0.237-0.562,0.328-0.875,0.234c-36.353-10.922-71.13,4.311-93.903,19.011c-24.754,15.979-41.085,34.807-41.247,34.995        C338.607,338.465,338.368,338.572,338.12,338.572z"/>
						<path style="fill:#2F2444;" d="M187.896,395.653c-0.164,0-0.33-0.047-0.478-0.146c-0.396-0.264-0.502-0.799-0.237-1.194        c0,0,0.505-0.758,1.5-2.108c10.142-13.775,65.004-81.27,149.234-57.013c0.306,0.088,0.527,0.331,0.599,0.623        c0.361,0.073,0.647,0.376,0.685,0.763c0.045,0.474-0.303,0.894-0.776,0.938c-0.323,0.03-32.696,3.149-62.89,10.395        c-30.091,7.219-83.742,45.499-84.28,45.885c-0.378,0.268-0.895,0.192-1.18-0.169c-0.057-0.071-0.1-0.149-0.13-0.23        c-0.875,1.194-1.323,1.864-1.33,1.874C188.447,395.519,188.175,395.653,187.896,395.653z M302.065,331.708        c-60.067,0-99.639,45.378-110.592,59.65c8.109-6.797,52.662-43.421,79.774-51.018c20.882-5.852,45.061-6.056,57.728-5.646        C319.607,332.631,310.625,331.708,302.065,331.708z M320.669,336.283c-13.255,0-32.188,1.018-48.956,5.716        c-19.106,5.354-47.126,25.425-64.541,38.94c18.521-12.066,48.2-29.963,67.959-34.704c22.151-5.314,45.466-8.417,56.541-9.714        C328.815,336.395,325.053,336.283,320.669,336.283z"/>
						<path style="fill:#2F2444;" d="M181.737,398.353c-0.345,0-0.67-0.208-0.803-0.549L77.096,130.887        c-0.172-0.443,0.047-0.942,0.49-1.115c0.44-0.173,0.942,0.046,1.115,0.49L182.54,397.179c0.172,0.443-0.047,0.942-0.49,1.115        C181.947,398.334,181.842,398.353,181.737,398.353z"/>
						<path style="fill:#2F2444;" d="M175.486,402.43c-0.345,0-0.67-0.208-0.803-0.548L70.725,135.54        c-0.173-0.443,0.047-0.942,0.489-1.116c0.443-0.174,0.942,0.046,1.116,0.489l103.959,266.342        c0.173,0.443-0.047,0.942-0.489,1.116C175.696,402.411,175.591,402.43,175.486,402.43z"/>
						<path style="fill:#2F2444;" d="M169.478,405.36c-0.343,0-0.668-0.207-0.801-0.546L64.355,140.193        c-0.175-0.442,0.042-0.942,0.485-1.116c0.438-0.176,0.942,0.042,1.116,0.485l104.321,264.621        c0.175,0.442-0.042,0.942-0.485,1.116C169.689,405.341,169.583,405.36,169.478,405.36z"/>
						<path style="fill:#2F2444;" d="M161.385,409.65c-0.349,0-0.676-0.213-0.806-0.558L60.637,143.595        c-0.168-0.445,0.057-0.942,0.502-1.109c0.447-0.171,0.941,0.058,1.109,0.502l99.942,265.498        c0.168,0.445-0.057,0.942-0.502,1.109C161.588,409.633,161.485,409.65,161.385,409.65z"/>
						<path style="fill:#2F2444;" d="M480.512,282.641c-0.351,0-0.681-0.216-0.809-0.565L386.437,27.568        c-0.164-0.446,0.065-0.94,0.513-1.104c0.445-0.165,0.941,0.064,1.104,0.513l93.267,254.507        c0.164,0.446-0.065,0.94-0.513,1.104C480.71,282.624,480.61,282.641,480.512,282.641z"/>
						<path style="fill:#2F2444;" d="M486.038,282.005c-0.352,0-0.681-0.216-0.809-0.565l-92.48-252.543        c-0.164-0.446,0.065-0.941,0.513-1.104c0.445-0.166,0.94,0.064,1.104,0.513l92.48,252.543        c0.164,0.446-0.065,0.941-0.513,1.104C486.236,281.988,486.137,282.005,486.038,282.005z"/>
						<path style="fill:#2F2444;" d="M493.195,279.316c-0.351,0-0.68-0.215-0.808-0.562L399.997,28.627        c-0.165-0.446,0.063-0.941,0.509-1.106c0.444-0.165,0.942,0.062,1.106,0.509l92.391,250.127        c0.165,0.446-0.063,0.941-0.509,1.106C493.396,279.299,493.295,279.316,493.195,279.316z"/>
						<path style="fill:#2F2444;" d="M339.958,336.962c-0.267,0-0.529-0.124-0.697-0.354c-0.269-0.369-0.203-0.884,0.151-1.174        c0.449-0.368,45.386-36.924,78.444-46.934c33.096-10.021,56.241-5.948,56.471-5.905c0.413,0.076,0.711,0.439,0.705,0.859        c-0.007,0.42-0.315,0.774-0.73,0.839c-0.287,0.044-29.08,4.529-58.834,13.931c-29.711,9.389-74.593,38.309-75.043,38.6        C340.28,336.917,340.118,336.962,339.958,336.962z M461.271,283.458c-9.873,0-24.885,1.231-42.914,6.69        c-21.716,6.575-48.688,24.784-64.515,36.403c15.842-9.424,41.668-23.828,61.106-29.971        c21.648-6.84,42.789-11.089,52.907-12.928C466.028,283.541,463.82,283.458,461.271,283.458z"/>
					</g>
				</g>
				<g>
					<g>
						<path style="fill:#2F2444;" d="M114.282,146.968c-0.261,0-0.518-0.117-0.688-0.341c-0.287-0.379-0.213-0.919,0.166-1.207        c34.656-26.281,79.272-38.154,122.406-32.572c0.472,0.062,0.805,0.493,0.744,0.965c-0.062,0.473-0.501,0.8-0.965,0.744        c-42.686-5.525-86.846,6.226-121.145,32.236C114.646,146.911,114.463,146.968,114.282,146.968z"/>
						<path style="fill:#2F2444;" d="M123.169,168.601c-0.255,0-0.507-0.112-0.677-0.327c-0.295-0.373-0.231-0.914,0.142-1.21        c33.883-26.801,78.165-38.8,121.508-32.92c0.471,0.064,0.801,0.498,0.737,0.97c-0.063,0.471-0.479,0.792-0.97,0.737        c-42.869-5.816-86.688,6.051-120.207,32.564C123.544,168.54,123.355,168.601,123.169,168.601z"/>
						<path style="fill:#2F2444;" d="M132.055,190.234c-0.248,0-0.494-0.106-0.664-0.313c-0.303-0.366-0.251-0.909,0.116-1.212        c33.115-27.323,77.078-39.446,120.608-33.269c0.471,0.066,0.799,0.503,0.731,0.974c-0.066,0.471-0.504,0.803-0.974,0.731        c-43.059-6.112-86.527,5.878-119.271,32.892C132.442,190.17,132.248,190.234,132.055,190.234z"/>
						<path style="fill:#2F2444;" d="M140.941,211.867c-0.242,0-0.482-0.102-0.652-0.3c-0.311-0.36-0.27-0.904,0.091-1.214        c32.353-27.84,75.986-40.096,119.709-33.616c0.471,0.069,0.796,0.507,0.726,0.978c-0.07,0.47-0.505,0.797-0.978,0.726        c-43.232-6.403-86.36,5.705-118.334,33.218C141.341,211.799,141.141,211.867,140.941,211.867z"/>
						<path style="fill:#2F2444;" d="M149.827,233.5c-0.235,0-0.471-0.097-0.641-0.286c-0.318-0.354-0.289-0.898,0.065-1.216        c31.596-28.358,74.903-40.737,118.811-33.965c0.471,0.073,0.793,0.513,0.721,0.982c-0.073,0.471-0.516,0.797-0.982,0.721        c-43.398-6.696-86.188,5.531-117.398,33.543C150.238,233.427,150.032,233.5,149.827,233.5z"/>
						<path style="fill:#2F2444;" d="M158.714,255.134c-0.229,0-0.459-0.092-0.629-0.272c-0.325-0.348-0.307-0.893,0.04-1.218        c30.841-28.873,73.815-41.38,117.912-34.314c0.469,0.075,0.789,0.518,0.714,0.987c-0.075,0.469-0.503,0.782-0.987,0.714        c-43.564-6.982-86.013,5.364-116.461,33.871C159.137,255.057,158.925,255.134,158.714,255.134z"/>
						<path style="fill:#2F2444;" d="M167.601,276.767c-0.224,0-0.447-0.087-0.616-0.26c-0.332-0.34-0.326-0.886,0.015-1.218        c15.114-14.762,33.022-25.273,53.228-31.244c20.15-5.955,41.612-7.104,63.784-3.419c0.469,0.078,0.786,0.521,0.708,0.991        c-0.078,0.469-0.518,0.784-0.991,0.708c-44.36-7.373-85.394,4.769-115.525,34.196        C168.035,276.685,167.817,276.767,167.601,276.767z"/>
						<path style="fill:#2F2444;" d="M176.487,298.399c-0.218,0-0.436-0.082-0.604-0.247c-0.339-0.333-0.345-0.878-0.011-1.218        c29.776-30.341,71.013-42.774,116.111-35.012c0.469,0.081,0.783,0.526,0.702,0.995s-0.524,0.784-0.995,0.702        c-44.522-7.661-85.221,4.596-114.59,34.521C176.934,298.313,176.71,298.399,176.487,298.399z"/>
						<path style="fill:#2F2444;" d="M185.374,320.033c-0.212,0-0.424-0.077-0.59-0.234c-0.347-0.325-0.363-0.87-0.037-1.217        c29.022-30.861,69.939-43.423,115.211-35.363c0.468,0.083,0.78,0.53,0.696,0.999c-0.083,0.468-0.521,0.784-0.999,0.696        c-44.676-7.95-85.042,4.426-113.654,34.848C185.832,319.942,185.604,320.033,185.374,320.033z"/>
						<path style="fill:#2F2444;" d="M194.261,341.666c-0.206,0-0.412-0.073-0.576-0.222c-0.354-0.318-0.382-0.862-0.063-1.216        c28.273-31.379,68.868-44.064,114.31-35.713c0.468,0.086,0.777,0.534,0.691,1.002c-0.086,0.469-0.534,0.78-1.002,0.691        c-44.834-8.233-84.862,4.255-112.72,35.172C194.73,341.57,194.496,341.666,194.261,341.666z"/>
					</g>
					<g>
						<path style="fill:#2F2444;" d="M262.081,102.257c-0.247,0-0.491-0.109-0.655-0.319c-0.282-0.361-0.218-0.883,0.144-1.165        c33.113-25.868,75.62-37.718,116.619-32.509c0.455,0.058,0.776,0.473,0.719,0.928c-0.057,0.455-0.476,0.781-0.928,0.719        c-40.566-5.15-82.622,6.572-115.389,32.171C262.439,102.199,262.26,102.257,262.081,102.257z"/>
						<path style="fill:#2F2444;" d="M270.411,123.337c-0.241,0-0.48-0.104-0.645-0.306c-0.29-0.355-0.236-0.879,0.119-1.168        c32.38-26.373,74.573-38.342,115.768-32.844c0.454,0.062,0.773,0.479,0.713,0.934c-0.062,0.454-0.462,0.772-0.934,0.713        c-40.733-5.443-82.471,6.4-114.498,32.484C270.78,123.275,270.595,123.337,270.411,123.337z"/>
						<path style="fill:#2F2444;" d="M278.74,144.417c-0.234,0-0.469-0.1-0.633-0.293c-0.297-0.35-0.254-0.873,0.096-1.17        c31.653-26.876,73.535-38.967,114.914-33.178c0.454,0.063,0.771,0.483,0.707,0.938c-0.064,0.454-0.475,0.765-0.938,0.707        c-40.908-5.728-82.316,6.229-113.609,32.799C279.121,144.353,278.931,144.417,278.74,144.417z"/>
						<path style="fill:#2F2444;" d="M287.07,165.497c-0.229,0-0.457-0.095-0.621-0.28c-0.305-0.343-0.272-0.867,0.071-1.171        c30.93-27.379,72.505-39.593,114.06-33.513c0.454,0.066,0.768,0.488,0.701,0.941c-0.067,0.453-0.483,0.766-0.941,0.701        c-41.071-6.008-82.156,6.06-112.72,33.112C287.463,165.429,287.267,165.497,287.07,165.497z"/>
						<path style="fill:#2F2444;" d="M295.4,186.577c-0.224,0-0.446-0.09-0.61-0.268c-0.311-0.337-0.289-0.861,0.048-1.173        c30.21-27.88,71.476-40.217,113.206-33.847c0.453,0.069,0.765,0.492,0.695,0.945c-0.068,0.454-0.5,0.773-0.945,0.695        c-41.233-6.29-81.992,5.891-111.831,33.427C295.804,186.504,295.602,186.577,295.4,186.577z"/>
						<path style="fill:#2F2444;" d="M303.729,207.657c-0.218,0-0.436-0.085-0.599-0.255c-0.317-0.33-0.308-0.855,0.023-1.174        c29.497-28.378,70.452-40.841,112.354-34.183c0.453,0.071,0.762,0.497,0.689,0.949c-0.072,0.453-0.5,0.765-0.949,0.689        c-41.383-6.569-81.823,5.725-110.943,33.741C304.144,207.58,303.937,207.657,303.729,207.657z"/>
						<path style="fill:#2F2444;" d="M312.06,228.737c-0.212,0-0.424-0.081-0.586-0.242c-0.325-0.323-0.325-0.85-0.002-1.174        c29.211-29.302,68.811-41.561,111.5-34.52c0.453,0.075,0.759,0.502,0.685,0.954c-0.075,0.454-0.503,0.749-0.954,0.685        c-42.147-6.951-81.232,5.142-110.055,34.053C312.485,228.656,312.272,228.737,312.06,228.737z"/>
						<path style="fill:#2F2444;" d="M320.39,249.817c-0.206,0-0.413-0.076-0.573-0.23c-0.332-0.316-0.344-0.842-0.026-1.173        c28.492-29.806,67.786-42.186,110.645-34.855c0.452,0.077,0.756,0.507,0.679,0.958c-0.078,0.453-0.518,0.749-0.958,0.679        c-42.295-7.233-81.065,4.971-109.166,34.365C320.826,249.731,320.608,249.817,320.39,249.817z"/>
						<path style="fill:#2F2444;" d="M328.72,270.897c-0.2,0-0.401-0.072-0.561-0.218c-0.338-0.311-0.361-0.835-0.052-1.173        c27.78-30.31,66.776-42.807,109.791-35.191c0.451,0.08,0.753,0.511,0.673,0.962s-0.511,0.755-0.962,0.673        c-42.445-7.513-80.896,4.802-108.277,34.678C329.168,270.807,328.944,270.897,328.72,270.897z"/>
						<path style="fill:#2F2444;" d="M337.05,291.978c-0.195,0-0.391-0.068-0.548-0.206c-0.345-0.303-0.378-0.827-0.076-1.172        c27.069-30.81,65.76-43.426,108.937-35.528c0.451,0.082,0.75,0.515,0.667,0.966c-0.082,0.451-0.512,0.757-0.966,0.667        c-42.586-7.785-80.723,4.638-107.39,34.991C337.51,291.882,337.28,291.978,337.05,291.978z"/>
					</g>
				</g>
			</g>
			<g>
				<g>
					<path style="fill:#FFBEFF;" d="M387.724,206.657c-18.55,2.542-36.971,6.083-55.024,11.012       c-9.055,2.358-17.969,5.209-26.848,8.135c-8.826,3.088-17.62,6.272-26.232,9.908c-17.292,7.101-34.035,15.487-50.235,24.761       c-16.11,9.313-31.622,19.805-43.535,33.562c-1.427,1.649-3.921,1.829-5.57,0.401c-1.649-1.427-1.829-3.921-0.401-5.57       c0.009-0.01,0.032-0.037,0.041-0.047c13.066-14.624,29.453-25.249,45.969-34.493c16.61-9.189,33.734-17.452,51.382-24.401       c8.79-3.56,17.755-6.66,26.744-9.657c9.043-2.834,18.113-5.589,27.317-7.843c18.35-4.722,37.04-8.033,55.825-10.326       c1.259-0.154,2.404,0.742,2.558,2.001c0.152,1.247-0.726,2.383-1.966,2.553L387.724,206.657z"/>
					<path style="fill:#FFBEFF;" d="M189.847,230.976c8.84-1.089,17.718-2.224,26.685-2.937c8.982-0.788,18.029-0.783,26.923-0.814       c17.875-0.04,35.81,0.409,53.709,2.072c17.889,1.663,35.752,4.585,53.191,9.415c17.421,4.837,34.423,11.614,50.176,20.825       c1.918,1.122,2.564,3.586,1.442,5.504c-1.122,1.918-3.586,2.564-5.504,1.442c-0.013-0.007-0.05-0.03-0.062-0.037       c-14.908-9.043-31.183-15.857-48.027-20.828c-16.863-4.964-34.276-8.113-51.852-10.033       c-17.585-1.921-35.329-2.656-53.104-2.903c-8.93-0.112-17.732-0.261-26.532,0.369c-8.818,0.558-17.649,1.541-26.519,2.488       c-1.261,0.135-2.393-0.778-2.528-2.039C187.71,232.251,188.606,231.129,189.847,230.976z"/>
				</g>
				<g>
					<path style="fill:#2F2444;" d="M240.559,288.218c-1.419,0-2.78-0.049-4.068-0.14c-22.507-1.594-39.092-19.983-48.035-53.215       l-2.272,0.128c-2.117,0.127-4.159-0.817-5.462-2.508c-1.312-1.702-1.7-3.936-1.038-5.975l0,0       c0.75-2.307,2.697-3.973,5.083-4.35c22.489-3.549,75.925-11.213,86.335-5.721c12.135,6.399,14.592,28.506,14.131,40.56       c-0.295,7.708-3.437,14.3-9.34,19.593C266.233,285.25,251.662,288.218,240.559,288.218z M191.955,230.065l0.469,1.829       c8.402,32.749,23.338,50.111,44.391,51.602c11.299,0.797,26.816-2.083,36.011-10.325c4.941-4.431,7.571-9.931,7.816-16.349       c0.455-11.884-2.281-31.362-11.684-36.321c-7.519-3.961-49.667,0.86-83.476,6.195c-0.67,0.105-1.219,0.578-1.431,1.232       c-0.196,0.604-0.085,1.242,0.307,1.751c0.181,0.234,0.687,0.771,1.565,0.726L191.955,230.065z"/>
					<path style="fill:#2F2444;" d="M336.315,272.75c-6.414,0-12.947-1.068-18.731-3.804c-7.167-3.39-12.059-8.812-14.539-16.117       c-3.878-11.422-7.824-33.312,1.98-42.904c8.418-8.236,61.816-16.122,84.384-19.13c2.396-0.318,4.735,0.723,6.111,2.72       c1.216,1.765,1.481,4.015,0.71,6.02c-0.767,1.992-2.456,3.474-4.521,3.964l-2.214,0.524       c0.902,34.402-9.752,56.757-30.87,64.701C352.623,270.981,344.568,272.75,336.315,272.75z M390.255,195.332       c-0.079,0-0.158,0.005-0.237,0.016c-33.927,4.522-75.701,11.913-81.779,17.86c-7.598,7.433-4.667,26.884-0.844,38.145       c2.064,6.081,6.154,10.604,12.153,13.441c11.163,5.28,26.858,3.618,37.46-0.369c19.754-7.432,29.12-28.33,27.837-62.117       l-0.071-1.887l5.876-1.392c0.849-0.202,1.188-0.867,1.294-1.144c0.23-0.599,0.155-1.241-0.205-1.765l-0.001-0.001       C391.394,195.621,390.841,195.332,390.255,195.332z"/>
					<path style="fill:#2F2444;" d="M276.632,227.824l-1.922-4.172c4.124-1.899,8.485-3.24,12.965-3.987       c5.733-0.956,10.269-0.482,13.863,1.447l1.919,1.029l-0.927,1.971c-0.455,0.969-1.454,1.566-2.55,1.497       c-0.817-0.044-1.545-0.443-2.005-1.065c-2.482-0.89-5.623-1.003-9.545-0.348C284.354,224.875,280.384,226.096,276.632,227.824z        M300.132,221.021c-0.735,0-1.434,0.448-1.758,1.139l1.751,0.822l1.829-0.627c-0.259-0.754-0.951-1.289-1.724-1.331       C300.198,221.021,300.165,221.021,300.132,221.021z"/>
				</g>
				<g>
					<g>
						<path style="fill:#FFFFFF;" d="M272.754,233.021c-1.455-3.178-3.92-6.021-7.182-7.279c-3.262-1.257-7.339-0.64-9.647,1.985        c-2.306,2.622-2.436,6.459-2.314,9.949c0.135,3.87,0.44,7.779,1.645,11.459c1.205,3.68,3.394,7.149,6.641,9.257        c1.179,0.766,2.53,1.352,3.936,1.338c2.753-0.029,4.972-2.317,6.274-4.743C275.434,248.783,275.662,239.374,272.754,233.021z"/>
						<path style="fill:#FFFFFF;" d="M263.941,275.102c-2.718,1.052-5.774-0.299-6.826-3.017c-1.052-2.718,0.299-5.774,3.017-6.826        c2.718-1.052,5.774,0.299,6.826,3.017C268.009,270.994,266.659,274.05,263.941,275.102z"/>
					</g>
					<g>
						<path style="fill:#FFFFFF;" d="M378.958,207.426c-1.455-3.178-3.921-6.021-7.182-7.279c-3.262-1.257-7.339-0.64-9.647,1.985        c-2.306,2.622-2.436,6.459-2.314,9.948c0.135,3.87,0.44,7.779,1.645,11.459c1.205,3.68,3.394,7.149,6.641,9.257        c1.179,0.766,2.53,1.353,3.936,1.338c2.753-0.029,4.973-2.316,6.274-4.743C381.637,223.188,381.865,213.778,378.958,207.426z"/>
						<path style="fill:#FFFFFF;" d="M370.144,249.507c-2.718,1.052-5.774-0.299-6.826-3.017c-1.052-2.718,0.299-5.774,3.017-6.826        c2.718-1.052,5.774,0.299,6.826,3.017C374.213,245.399,372.862,248.455,370.144,249.507z"/>
					</g>
				</g>
			</g>
		</g>
		<g>
			<g>
				<g>
					<g>
						<g>
							<path style="fill:#FFBEFF;" d="M103.246,454.409l-4.165,8.946l-0.608,1.285l-8.945,19.153         c-2.863,6.123-9.197,9.452-14.224,7.451c-2.574-1.036-4.335-3.257-5.065-6.031c-0.705-2.678-0.444-5.866,0.927-8.912         l6.94-15.404l3.21-7.135l4.139-9.144L103.246,454.409z"/>
						</g>
					</g>
				</g>
				<polygon style="opacity:0.4;fill:#2F2444;" points="99.081,463.355 98.473,464.641 78.106,460.898 81.317,453.763     "/>
			</g>
			<g>
				<g>
					<g>
						<g>
							
								<ellipse transform="matrix(0.7071 -0.7071 0.7071 0.7071 -239.4617 193.9769)" style="fill:#FFBEFF;" cx="114.42" cy="386.044" rx="80.762" ry="80.762"/>
						</g>
					</g>
					<g>
						<g>
							<path style="fill:#2F2444;" d="M130.346,355.745c38.479,12.12,34.824,6.967,22.704,45.446         c-5.635,17.89,13.539,38.844-1.376,47.679c-17.224,10.24-38.569,13.35-59.188,6.855         c-38.509-12.129-59.852-53.149-47.733-91.628c6.495-20.619,21.275-36.328,39.538-44.575         C100.098,312.301,112.486,350.119,130.346,355.745z"/>
						</g>
					</g>
					<g>
						<g>
							<g>
								<path style="fill:#A27CFF;" d="M136.382,316.363c14.797,4.661,27.051,13.587,35.848,25.023          c14.108,18.276,19.314,42.913,11.855,66.595c-5.635,17.89-17.495,32.053-32.41,40.887          c-15.817,7.15-34.221,8.753-52.08,3.128c-32.02-10.085-52.177-40.165-51.069-72.147c0.204-6.469,1.302-13.022,3.336-19.481          c5.616-17.829,17.456-32.032,32.431-40.847C100.098,312.301,118.522,310.738,136.382,316.363z"/>
							</g>
						</g>
						<g style="opacity:0.13;">
							<g>
								<path style="fill:#2F2444;" d="M172.244,341.385c-0.423,0.229-0.83,0.553-1.198,0.821          c-5.211,4.025-7.818,10.642-8.773,17.15c-1.036,7.306-0.191,14.858,2.448,21.745c0.444,1.197,0.957,2.459,1.228,3.716          c0.378,1.643,0.405,3.272-0.518,4.663c-1.207,1.75-3.387,2.213-5.523,2.756c-0.882,0.205-1.749,0.435-2.533,0.758          c-0.757,0.308-1.457,0.722-2.061,1.187c-2.899,2.291-4.22,6.294-4.153,10.331c0.008,1.845,0.311,3.665,0.852,5.358          l0.014,0.026c0.014,0.026,0.002,0.067,0.031,0.12c0.765,2.358,1.932,4.635,2.284,7.114c0.213,1.528,0.074,3.041-0.308,4.48          l-0.027,0.014c-1.54,5.491-7.009,9.861-12.856,10.191c-1.559,0.092-3.112-0.058-4.634-0.465          c-5.578-1.322-10.472-5.548-13.176-10.723c-3.438-6.591-3.765-14.389-2.662-21.697c1.02-6.955,3.267-14.301,0.719-20.827          c-2.979-7.764-13.092-11.83-20.622-8.294c-11.124,5.178-13.35,22.029-24.899,26.171c-6.958,2.508-14.811-0.799-20.125-5.927          c-3.072-2.887-5.492-6.401-7.221-10.221c-0.026,0.836-0.04,1.63-0.066,2.466c0.001,1.643,0.069,3.283,0.164,4.909          c0.079,1.155,0.184,2.296,0.316,3.423c0.019,0.161,0.023,0.296,0.054,0.416c0.146,1.153,0.292,2.306,0.491,3.431          c0.282,1.593,0.59,3.171,0.952,4.721c0.737,3.126,1.688,6.205,2.865,9.195c0.282,0.772,0.575,1.502,0.91,2.245          c0.482,1.142,0.991,2.269,1.541,3.409c0.492,1.034,1.025,2.08,1.571,3.085l0.115,0.212c0.416,0.767,0.858,1.52,1.301,2.273          c0.242,0.382,0.483,0.765,0.739,1.174l0.043,0.079c0.244,0.45,0.514,0.885,0.838,1.292l0.043,0.079          c0.043,0.079,0.112,0.144,0.156,0.224l0.057,0.106c0.129,0.238,0.299,0.488,0.455,0.712          c0.411,0.633,0.864,1.277,1.328,1.881c0.268,0.368,0.536,0.736,0.804,1.104c0.451,0.578,0.874,1.169,1.365,1.759          c0.45,0.577,0.927,1.141,1.403,1.703c0.953,1.126,1.959,2.224,2.977,3.28c0.252,0.274,0.489,0.522,0.767,0.782          c0.628,0.652,1.267,1.264,1.948,1.887c0.486,0.455,0.973,0.91,1.486,1.351c0.501,0.482,1.028,0.949,1.582,1.401          c0.817,0.686,1.647,1.332,2.491,2.004c0.055,0.038,0.11,0.077,0.165,0.116c0.925,0.696,1.877,1.378,2.855,2.046          c0.964,0.641,1.942,1.309,2.959,1.921c0.729,0.46,1.47,0.88,2.252,1.312c0.151,0.089,0.316,0.205,0.494,0.28          c0.247,0.14,0.508,0.306,0.796,0.458c0.878,0.482,1.782,0.951,2.699,1.378c0.93,0.454,1.861,0.908,2.831,1.306          c0.259,0.099,0.506,0.239,0.765,0.338c0.751,0.311,1.502,0.623,2.279,0.92c0.381,0.135,0.722,0.259,1.104,0.394          c1.037,0.396,2.085,0.752,3.16,1.093c2.232,0.707,4.474,1.305,6.711,1.769c1.126,0.245,2.263,0.45,3.387,0.628          c0.542,0.117,1.097,0.192,1.664,0.227c0.975,0.156,1.962,0.271,2.934,0.36c1.095,0.125,2.202,0.209,3.268,0.281          c1.093,0.058,2.171,0.089,3.276,0.106c0.997,0.007,2.02,0,3.028-0.034c0.135-0.004,0.243,0.005,0.377,0.001l0.027-0.014          c0.026-0.014,0.067-0.002,0.134-0.004c0.027-0.014,0.067-0.002,0.094-0.017c1.102-0.05,2.191-0.127,3.305-0.218          c0.886-0.07,1.758-0.166,2.657-0.277c0.389-0.04,0.778-0.08,1.153-0.146c0.026-0.014,0.067-0.002,0.094-0.017          c0.644-0.075,1.3-0.191,1.929-0.293c0.067-0.002,0.094-0.017,0.161-0.019c1.888-0.305,3.76-0.704,5.589-1.182          c0.642-0.143,1.269-0.312,1.908-0.522c0.574-0.14,1.161-0.321,1.721-0.488c0.68-0.198,1.346-0.422,2.012-0.646          c0.466-0.15,0.933-0.3,1.411-0.491c0.173-0.06,0.373-0.133,0.546-0.193c0.599-0.222,1.223-0.458,1.808-0.706          c0.983-0.396,1.926-0.805,2.894-1.228c14.92-8.846,26.782-23.016,32.42-40.896c0.779-2.477,1.397-4.934,1.908-7.402          c0.233-1.085,0.425-2.182,0.603-3.306c0.022-0.149,0.058-0.271,0.054-0.406c0.176-1.191,0.337-2.408,0.446-3.596          c-0.002-0.067,0.022-0.149,0.02-0.216c0.115-0.987,0.175-2.012,0.223-2.997c0.055-0.783,0.083-1.551,0.085-2.305          c0.036-0.944,0.045-1.873,0.014-2.815c0.012-0.041,0.01-0.108-0.005-0.134c0.023-0.526,0.005-1.064-0.039-1.588          c-0.023-0.672-0.059-1.371-0.096-2.07c-0.002-0.067-0.019-0.161-0.021-0.228c-0.017-0.094-0.019-0.161-0.009-0.269          c-0.021-0.228-0.042-0.456-0.063-0.684c-0.11-1.276-0.248-2.604-0.44-3.904c-0.123-0.858-0.246-1.715-0.409-2.585          c-0.313-1.713-0.652-3.412-1.085-5.094c-0.217-0.841-0.433-1.682-0.676-2.509c-0.274-0.947-0.531-1.8-0.817-2.706          c-0.014-0.026-0.017-0.094-0.031-0.12c-0.046-0.146-0.105-0.319-0.15-0.466c-0.029-0.053-0.045-0.147-0.074-0.2          c-0.074-0.2-0.148-0.399-0.222-0.598c-0.21-0.639-0.417-1.211-0.666-1.796c-0.002-0.067-0.017-0.094-0.045-0.147          l-0.014-0.027c-0.029-0.053-0.045-0.147-0.074-0.199c-0.236-0.625-0.458-1.224-0.747-1.82          c-0.439-1.063-0.891-2.084-1.369-3.092c-0.146-0.332-0.303-0.623-0.449-0.955c-0.433-0.861-0.851-1.695-1.31-2.541          C176.766,347.765,174.636,344.469,172.244,341.385z M99.112,385.671c-0.834-2.8-0.106-6.002,1.856-8.127          c2.208-2.43,5.424-2.497,8.252-1.258c2.91,1.263,5.652,3.541,6.334,6.629c0.575,2.701-0.58,5.621-2.731,7.335          c-2.166,1.688-5.166,2.151-7.792,1.35C102.256,390.71,99.958,388.43,99.112,385.671z M105.875,401.106          c-0.089-1.047,0.574-2.16,1.591-2.369l0.745-0.267c1.249-0.096,2.567,0.251,3.523,1.067          c0.956,0.816,1.525,2.117,1.296,3.336c-0.214,1.246-1.242,2.317-2.503,2.453c-1.235,0.122-2.39-0.621-3.255-1.521          C106.559,403.062,105.922,402.141,105.875,401.106z M93.663,435.08c-1.204,0.242-2.419,0.148-3.6-0.136          c-5.064-1.258-8.869-5.939-9.808-11.078c-0.182-1.031-0.271-2.078,0.046-3.071c1.038-3.199,7.89-3.629,10.591-3.006          c2.768,0.621,5.263,2.383,6.771,4.783c1.378,2.162,1.941,4.904,1.27,7.39C98.221,432.438,96.191,434.565,93.663,435.08z           M111.715,442.611c-0.366,1.534-2.131,2.32-3.706,2.318c-2.923-0.024-8.169-4.71-4.447-7.379          C106.073,435.744,112.469,439.395,111.715,442.611z M89.889,399.403c-1.193-1.064-2.052-2.584-2.053-4.227          c0.01-4.148,4.978-4.959,7.718-2.748c1.412,1.151,2.215,3.009,2.059,4.805c-0.045,0.675-0.212,1.313-0.557,1.877          c-0.702,1.168-2.094,1.82-3.453,1.839C92.256,400.927,90.929,400.311,89.889,399.403z M111.976,427.818          c-1.026,0.317-2.203,0.168-3.121-0.327c-1.465-0.746-2.49-2.381-2.382-4.014c0.251-5.785,7.422-4.368,7.909,0.571          c0.059,0.55,0.024,1.117-0.16,1.661C113.878,426.718,112.976,427.516,111.976,427.818z"/>
							</g>
						</g>
					</g>
					<g>
						<g>
							<path style="fill:#FFFFFF;" d="M107.67,335.174c2.843,1.08,5.973,1.075,8.932,1.773c4.196,0.99,7.938,3.362,12.059,4.629         c4.12,1.267,9.199,1.138,12.034-2.109c2.786-3.191,2.231-8.356-0.323-11.736c-2.554-3.379-6.622-5.268-10.683-6.473         c-5.501-1.632-31.903-5.623-29.369,5.921C101.121,330.825,104.255,333.876,107.67,335.174z"/>
						</g>
						<g>
							<path style="fill:#FFFFFF;" d="M147.924,346.264c0.632,3.028,3.044,5.525,5.932,6.635c1.836,0.705,3.944,0.888,5.756,0.123         c2.343-0.988,3.867-3.516,3.908-6.059c0.041-2.542-1.284-5.01-3.264-6.605c-2.065-1.664-6.172-3.274-8.805-2.174         C148.603,339.373,147.349,343.51,147.924,346.264z"/>
						</g>
					</g>
				</g>
				<g>
					<path style="fill:#FBEEE5;" d="M246.454,463.442c-0.169,0-0.338-0.004-0.507-0.01c-3.348-0.134-6.824-1.513-10.628-4.216       c-4.599-3.268-8.56-7.554-11.455-12.394c-1.916-3.202-3.396-6.68-4.829-10.043c-1.446-3.396-2.941-6.906-4.872-10.091       c-5.892-9.714-16.109-16.559-27.334-18.308c-11.23-1.745-23.042,1.66-31.609,9.12c-0.256,0.225-0.646,0.198-0.872-0.06       c-0.225-0.258-0.197-0.648,0.06-0.872c8.84-7.698,21.031-11.218,32.612-9.409c11.58,1.804,22.123,8.865,28.2,18.888       c1.978,3.26,3.49,6.812,4.953,10.247c1.416,3.325,2.88,6.764,4.752,9.893c2.809,4.694,6.651,8.852,11.111,12.021       c3.602,2.56,6.86,3.864,9.96,3.987c6.002,0.248,11.031-3.96,13.777-7.968c3.223-4.703,4.743-10.326,6.214-15.765       c0.089-0.328,0.429-0.523,0.758-0.436c0.33,0.089,0.524,0.429,0.436,0.758c-1.498,5.538-3.046,11.265-6.388,16.142       C257.168,460.218,251.715,463.441,246.454,463.442z"/>
					<polygon style="fill:#FBEEE5;" points="256.798,445.952 270.273,454.156 287.132,438.839 260.846,426.607      "/>
				</g>
			</g>
		</g>
		<g>
			<g>
				<path style="fill:#FBEEE5;" d="M470.652,364.145v131.177H287.374c-1.533-7.764-2.324-15.776-2.324-23.985      c0-10.831,1.385-21.34,4.031-31.354c0.173-0.742,0.371-1.508,0.593-2.25c7.913-28.164,25.543-52.248,49.059-68.42      c0.865-0.594,1.731-1.162,2.621-1.731c17.878-11.671,38.995-18.817,61.669-19.831c1.187-0.074,2.374-0.099,3.561-0.124      c0.717-0.025,1.459-0.025,2.201-0.025c18.076,0,35.236,3.882,50.691,10.831c0.594,0.247,1.162,0.519,1.731,0.791      C464.445,360.733,467.585,362.365,470.652,364.145z"/>
			</g>
			<g>
				<path style="fill:#FFC15C;" d="M444.293,362.958c-0.865-0.297-1.731-0.569-2.621-0.816c-10.41-3.165-21.463-4.847-32.887-4.847      c-8.803,0-17.358,0.989-25.568,2.893c-6.998,1.607-13.724,3.857-20.153,6.676c-0.025,0-0.049,0.025-0.074,0.025      c-28.585,12.586-51.062,36.571-61.645,66.17c-0.247,0.717-0.495,1.459-0.742,2.176c-3.808,11.35-5.86,23.491-5.86,36.102      c0,8.234,0.866,16.246,2.547,23.985h2.547c-1.731-7.715-2.621-15.751-2.621-23.985c0-13.007,2.25-25.518,6.355-37.14      c0.247-0.717,0.519-1.409,0.791-2.126c7.27-19.312,19.782-36.102,35.78-48.613c4.476-3.511,9.199-6.676,14.193-9.471      c16.097-9.05,34.692-14.218,54.449-14.218c9.248,0,18.224,1.138,26.829,3.264c1.063,0.272,2.126,0.544,3.165,0.816      c11.473,3.215,22.205,8.209,31.873,14.688v-2.967C462.516,370.302,453.664,366.025,444.293,362.958z"/>
			</g>
			<g>
				<g>
					<path style="fill:#2F2444;" d="M437.832,433.876l-2.088,2.285l0.345,3.065c1.116,9.907-5.515,19.027-15.283,21.021       l-3.028,0.618l-1.508,2.664c-4.917,8.686-15.657,12.175-24.74,8.037l-2.791-1.272l-2.792,1.272       c-9.083,4.138-19.823,0.649-24.74-8.037l-1.509-2.665l-3.027-0.618c-9.768-1.995-16.398-11.115-15.282-21.022l0.345-3.065       l-2.088-2.285c-6.721-7.355-6.721-18.624,0-25.979l2.088-2.285l-0.345-3.065c-1.116-9.907,5.515-19.027,15.283-21.021       l3.028-0.618l1.508-2.664c4.917-8.686,15.657-12.175,24.74-8.037l2.791,1.272l2.792-1.272       c9.083-4.138,19.823-0.649,24.74,8.037l1.508,2.665l3.028,0.618c9.768,1.995,16.398,11.115,15.282,21.022l-0.345,3.065       l2.088,2.285C444.553,415.252,444.553,426.52,437.832,433.876z"/>
				</g>
				<g>
					<path style="fill:#F96756;" d="M433.407,433.876l-2.088,2.285l0.345,3.065c1.116,9.907-5.515,19.027-15.283,21.021       l-3.028,0.618l-1.508,2.664c-4.917,8.686-15.657,12.175-24.74,8.037l-2.792-1.272l-2.792,1.272       c-9.083,4.138-19.823,0.649-24.74-8.037l-1.508-2.665l-3.027-0.618c-9.768-1.995-16.398-11.115-15.282-21.022l0.345-3.065       l-2.088-2.285c-6.721-7.355-6.721-18.624,0-25.979l2.088-2.285l-0.345-3.065c-1.116-9.907,5.515-19.027,15.283-21.021       l3.028-0.618l1.508-2.664c4.917-8.686,15.657-12.175,24.74-8.037l2.791,1.272l2.792-1.272       c9.083-4.138,19.823-0.649,24.74,8.037l1.509,2.665l3.027,0.618c9.768,1.995,16.398,11.115,15.282,21.022l-0.345,3.065       l2.088,2.285C440.129,415.252,440.129,426.52,433.407,433.876z"/>
				</g>
				<g style="opacity:0.72;">
					<path style="fill:#FFC15C;" d="M433.407,433.876l-2.088,2.285l0.345,3.065c1.116,9.907-5.515,19.027-15.283,21.021       l-3.028,0.618l-1.508,2.664c-4.917,8.686-15.657,12.175-24.74,8.037l-2.792-1.272l-2.792,1.272       c-9.083,4.138-19.823,0.649-24.74-8.037l-1.508-2.665l-3.027-0.618c-9.768-1.995-16.398-11.115-15.282-21.022l0.345-3.065       l-2.088-2.285c-6.721-7.355-6.721-18.624,0-25.979l2.088-2.285l-0.345-3.065c-1.116-9.907,5.515-19.027,15.283-21.021       l3.028-0.618l1.508-2.664c4.917-8.686,15.657-12.175,24.74-8.037l2.791,1.272l2.792-1.272       c9.083-4.138,19.823-0.649,24.74,8.037l1.509,2.665l3.027,0.618c9.768,1.995,16.398,11.115,15.282,21.022l-0.345,3.065       l2.088,2.285C440.129,415.252,440.129,426.52,433.407,433.876z"/>
				</g>
				<g>
					<path style="fill:#2F2444;" d="M365.018,444.485c0,1.697-2.531,3.073-5.654,3.073c-3.122,0-5.654-1.376-5.654-3.073       c0-1.697,2.531-3.073,5.654-3.073C362.486,441.412,365.018,442.788,365.018,444.485z"/>
				</g>
				<g>
					<g>
						<path style="fill:#2F2444;" d="M371.901,390.897c0,1.697-2.531,3.073-5.654,3.073c-3.123,0-5.654-1.376-5.654-3.073        c0-1.697,2.531-3.073,5.654-3.073C369.369,387.824,371.901,389.199,371.901,390.897z"/>
					</g>
					<g>
						<path style="fill:#2F2444;" d="M390.583,411.299c0,1.697-2.531,3.073-5.654,3.073s-5.654-1.376-5.654-3.073        c0-1.697,2.531-3.073,5.654-3.073S390.583,409.602,390.583,411.299z"/>
					</g>
					<g>
						<ellipse style="fill:#2F2444;" cx="398.695" cy="390.405" rx="5.654" ry="3.073"/>
					</g>
					<g>
						<ellipse style="fill:#2F2444;" cx="415.042" cy="406.752" rx="5.654" ry="3.073"/>
					</g>
					<g>
						<path style="fill:#2F2444;" d="M399.063,426.909c0,1.697-2.531,3.073-5.654,3.073c-3.122,0-5.654-1.376-5.654-3.073        c0-1.697,2.531-3.073,5.654-3.073C396.532,423.836,399.063,425.212,399.063,426.909z"/>
					</g>
					<g>
						<ellipse style="fill:#2F2444;" cx="412.706" cy="439.445" rx="5.654" ry="3.073"/>
					</g>
					<g>
						<path style="fill:#2F2444;" d="M390.275,450.692c0,1.697-2.531,3.073-5.654,3.073s-5.654-1.376-5.654-3.073        c0-1.697,2.531-3.073,5.654-3.073S390.275,448.995,390.275,450.692z"/>
					</g>
					<g>
						<path style="fill:#2F2444;" d="M371.102,427.585c0,1.697-2.531,3.073-5.654,3.073s-5.654-1.376-5.654-3.073        c0-1.697,2.531-3.073,5.654-3.073S371.102,425.888,371.102,427.585z"/>
					</g>
					<g>
						<path style="fill:#2F2444;" d="M358.811,411.852c0,1.697-2.531,3.073-5.654,3.073c-3.122,0-5.654-1.376-5.654-3.073        c0-1.697,2.531-3.073,5.654-3.073C356.28,408.78,358.811,410.155,358.811,411.852z"/>
					</g>
				</g>
			</g>
		</g>
	</g>
</g>















</svg>
