<?xml version="1.0" encoding="UTF-8"?>
<!-- Generator: Adobe Illustrator 26.5.1, SVG Export Plug-In . SVG Version: 6.00 Build 0)  -->
<svg xmlns="http://www.w3.org/2000/svg" xmlns:xlink="http://www.w3.org/1999/xlink" version="1.1" id="Capa_1" x="0px" y="0px" viewBox="0 0 512 512" style="enable-background:new 0 0 512 512;" xml:space="preserve" width="512" height="512">
<g>
	<path style="fill:#FFFFFF;" d="M49.397,512c-7.997,0-14.479-6.483-14.479-14.479v-281.18c0-2.357,0.027-4.69,0.105-7.018   c0.154-4.737,0.468-9.509,0.931-14.177c0.082-0.903,0.167-1.803,0.276-2.703c0.64-5.955,1.6-12.196,2.831-18.351   c1.465-7.427,3.349-14.85,5.592-22.019c1.073-3.511,2.321-7.185,3.686-10.851c0.009-0.026,0.018-0.052,0.027-0.078   c0.279-0.819,0.584-1.61,0.893-2.399l0.282-0.729c10.368-26.637,26.622-51.805,47.065-72.919c0.252-0.286,0.501-0.555,0.773-0.829   l1.723-1.724c3.685-3.63,7.398-7.049,11.117-10.237c0.179-0.159,0.389-0.341,0.613-0.528c0.726-0.654,1.476-1.286,2.249-1.894   c1.791-1.49,3.583-2.933,5.424-4.376c1.605-1.249,3.187-2.447,4.789-3.623c0.014-0.01,0.027-0.02,0.041-0.03   c1.63-1.197,3.279-2.371,4.948-3.518c14.577-10.102,30.32-18.363,46.749-24.528c2.05-0.769,4.124-1.512,6.199-2.229   c0.087-0.029,1.142-0.378,1.142-0.378c0.715-0.238,1.43-0.475,2.146-0.693c15.504-5.033,31.626-8.291,47.914-9.683l2.914-0.227   c0.887-0.066,1.726-0.11,2.565-0.151l2.101-0.118c0.85-0.052,1.697-0.104,2.552-0.138C245.702,0.062,248.549,0,251.258,0h6.806   c0.457,0,0.91,0.021,1.355,0.062C259.864,0.021,260.314,0,260.766,0c12.405,0,24.913,1.078,37.177,3.206   c5.275,0.904,10.736,2.063,16.205,3.443c0.146,0.033,0.291,0.067,0.435,0.105c0.811,0.207,1.599,0.418,2.404,0.649   c0.02,0.005,0.04,0.011,0.059,0.015c2.49,0.667,4.954,1.386,7.417,2.129c7.423,2.283,14.719,4.965,21.756,7.992   c0.798,0.337,1.675,0.734,2.552,1.132c9.629,4.297,18.955,9.305,27.734,14.89c19.57,12.392,36.964,27.803,51.673,45.785   c0.577,0.698,1.212,1.489,1.845,2.282c2.709,3.39,5.447,7.062,8.141,10.91c0.586,0.795,1.144,1.594,1.678,2.414   c7.706,11.313,14.354,23.449,19.76,36.078c10.117,23.558,15.906,48.519,17.196,74.178c0.046,0.733,0.077,1.64,0.104,2.526   c0.026,0.549,0.049,1.119,0.058,1.692c0.097,2.295,0.122,4.591,0.122,6.912v281.18c0,7.996-6.482,14.479-14.479,14.479H49.397z"/>
	<g>
		<path style="fill:#A27CFF;" d="M460.128,217.564v230.668l-31.613,36.351l-345.031,1.232l-36.562-37.584V217.564    c0-2.196,0.024-4.368,0.096-6.54c0.145-4.44,0.434-8.856,0.869-13.224c0.073-0.796,0.145-1.593,0.242-2.389    c0.627-5.84,1.52-11.583,2.654-17.254c1.375-6.974,34.298-8.175,36.398-14.883c10.955-35.006,60.944-35.431,88.414-59.764    c31.879-28.239,22.647-59.743,65.001-63.769c6.336-0.602,5.646-16.019,12.014-16.019l2.977-8.018c0.526,0,3.754,0.002,4.28,0.006    c11.28,0.088,22.356,1.119,33.124,2.986c5.212,0.893,10.353,2.003,15.396,3.282c0.048,0,0.073,0.024,0.121,0.024    c0.748,0.193,1.472,0.386,2.22,0.603c0.024,0,0.072,0.024,0.096,0.024c2.341,0.627,4.657,1.303,6.974,2.003    c6.902,2.124,13.658,4.609,20.222,7.433c0.796,0.338,1.593,0.7,2.389,1.062c8.977,4.006,17.616,8.639,25.845,13.876    c18.292,11.583,34.581,26.038,48.239,42.737c0.579,0.7,1.158,1.424,1.737,2.148c2.679,3.354,5.237,6.805,7.698,10.328    c0.483,0.652,0.941,1.303,1.376,1.979c7.215,10.569,13.417,21.863,18.509,33.76c9.194,21.405,14.817,44.74,16.048,69.209    c0.048,0.796,0.072,1.617,0.096,2.413c0.024,0.483,0.048,0.965,0.048,1.448C460.104,213.196,460.128,215.368,460.128,217.564z"/>
		<g>
			<g>
				<g>
					<path style="fill:#FBEEE5;" d="M255.589,15.703v162.454H50.784c1.375-6.974,3.113-13.827,5.212-20.536       c1.086-3.547,54.876-14.095,55.214-14.988c10.087-25.917-25.243-47.513-6.034-66.939l1.689-1.689       c3.33-3.282,11.785-1.24,15.332-4.28c0.217-0.193-4.594-5.59-4.376-5.759c0.603-0.555,1.231-1.086,1.882-1.593       c1.738-1.448,3.475-2.847,5.261-4.247c1.456-1.133,2.929-2.249,4.42-3.345c1.525-1.12,3.068-2.218,4.629-3.292       c13.441-9.315,33.411,5.488,48.975-0.352c1.93-0.724,10.06,0.984,12.014,0.308c0.965-0.314,19.675-10.801,20.64-11.09       c14.31-4.657,0.031-22.554,15.548-23.881c0.917-0.072,1.858-0.145,2.799-0.217c4.875-0.362,9.822-0.555,14.793-0.555H255.589z"/>
					<path style="fill:#6ADEEB;" d="M233.991,16.258v141.363H55.996c1.086-3.547,2.292-7.071,3.596-10.546v-0.024       c0.314-0.917,0.676-1.786,1.013-2.679c10.087-25.917,26.217-50.107,45.425-69.533l13.728-1.367       c3.33-3.282-6.136-5.911-2.589-8.952c0.217-0.193,0.434-0.386,0.652-0.555c0.603-0.555,1.231-1.086,1.882-1.593       c1.738-1.448,3.475-2.847,5.261-4.247c1.472-1.146,3.222,1.436,4.73,0.329c1.508-1.107,2.775-5.903,4.319-6.965       c13.441-9.315,28.065-17.061,43.63-22.901c1.93-0.724,3.885-1.424,5.84-2.099c0.965-0.314,1.931-0.652,2.896-0.941       c14.31-4.657,29.296-7.746,44.812-9.073C232.109,16.403,233.05,16.33,233.991,16.258z"/>
				</g>
				<path style="fill:#FBEEE5;" d="M124.965,58.126c2.944-2.292,5.961-4.513,9.049-6.636v119.283h-9.049V58.126z"/>
				<path style="fill:#FBEEE5;" d="M238.745,63.966v11.101H105.804l1.062-1.062c3.33-3.282,6.757-6.443,10.304-9.484      c0.217-0.193,0.434-0.386,0.652-0.555H238.745z"/>
			</g>
			<g>
				<path style="opacity:0.39;fill:#2F2444;" d="M460.128,217.564v281.181H46.923V217.564c0-2.196,0.024-4.368,0.096-6.54h412.988      C460.104,213.196,460.128,215.368,460.128,217.564z"/>
				<g style="opacity:0.38;">
					<g>
						<path style="fill:#FFBEFF;" d="M460.128,224.007v1.255c-11.583,3.016-22.78,8.036-33.76,12.934        c-16.868,7.553-34.291,15.348-52.848,15.927c-15.01,0.483-29.682-3.861-43.895-8.036c-9.701-2.872-19.74-5.816-29.827-7.239        c-22.828-3.21-46.116,1.399-68.655,5.84c-3.33,0.652-6.66,1.303-9.966,1.955c-68.437,12.983-125.75,11.848-174.254-3.571        v-1.255c48.384,15.468,105.6,16.603,174.013,3.62c3.33-0.627,6.66-1.279,9.991-1.93c22.611-4.464,45.995-9.074,69.04-5.84        c10.16,1.424,20.247,4.392,30.02,7.263c14.093,4.151,28.668,8.446,43.485,7.988c18.316-0.555,35.642-8.301,52.414-15.806        C436.986,232.139,448.352,227.048,460.128,224.007z"/>
						<path style="fill:#FFBEFF;" d="M412.806,314.018c14.262-0.724,30.768-2.172,47.322-6.226v1.255        c-16.554,4.006-33.036,5.454-47.274,6.178c-58.761,2.944-118.366-4.971-175.992-12.597        c-62.284-8.277-126.594-16.796-189.94-11.559v-1.207c63.442-5.212,127.777,3.282,190.085,11.559        C294.586,309.071,354.142,316.962,412.806,314.018z"/>
						<path style="fill:#FFBEFF;" d="M460.128,322.657v1.207c-50.918,1.786-102.511-0.796-152.512-3.33        c-51.979-2.63-105.745-5.357-158.593-3.137c-18.702,0.796-37.694,2.22-56.058,3.62c-15.106,1.134-30.575,2.292-46.043,3.089        v-1.207c15.444-0.796,30.864-1.955,45.946-3.089c18.364-1.4,37.38-2.823,56.106-3.62c52.896-2.22,106.686,0.507,158.714,3.137        C357.665,321.861,409.235,324.467,460.128,322.657z"/>
						<path style="fill:#FFBEFF;" d="M460.128,407.6v1.231c-15.155,3.113-31.54,4.875-47.708,2.365        c-20.608-3.234-39.431-13.2-57.626-22.804c-12.693-6.708-25.821-13.658-39.504-18.316        c-34.846-11.825-72.298-8.591-101.063-4.465c-10.811,1.569-21.767,3.475-32.361,5.309c-22.515,3.909-45.802,7.963-69.04,8.88        c-10.715,0.434-21.815,0.241-32.553,0.048c-11.076-0.193-22.274-0.386-33.35,0.096v-1.207        c11.076-0.483,22.297-0.289,33.374-0.096c10.714,0.193,21.791,0.386,32.481-0.048c23.142-0.917,46.405-4.947,68.896-8.856        c10.594-1.858,21.574-3.764,32.385-5.309c28.885-4.151,66.531-7.408,101.618,4.513c13.755,4.682,26.931,11.632,39.672,18.364        c18.123,9.58,36.849,19.498,57.264,22.684C428.685,412.499,445.022,410.713,460.128,407.6z"/>
						<path style="fill:#FFBEFF;" d="M460.128,421.235v1.231c-10.859,0.845-21.694,1.979-32.433,3.089        c-18.509,1.906-37.669,3.885-56.347,4.392c-25.772,0.676-51.907-1.496-77.197-3.596c-17.713-1.472-36.029-2.992-54.079-3.523        c-39.238-1.158-79.055,2.365-117.545,5.767c-24.783,2.172-50.242,4.44-75.604,5.43v-1.207        c25.314-1.014,50.749-3.258,75.508-5.43c38.514-3.403,78.355-6.902,117.666-5.768c18.099,0.531,36.439,2.051,54.176,3.523        c25.217,2.099,51.328,4.271,77.052,3.596c18.63-0.507,37.742-2.486,56.251-4.392        C438.362,423.237,449.221,422.103,460.128,421.235z"/>
					</g>
					<g>
						<path style="fill:#FFBEFF;" d="M363.192,275.89c18.268-6.564,37.283-11.535,56.492-14.769        c1.786-0.314,3.813-0.676,6.009-1.062c9.532-1.713,22.346-4.054,34.436-4.585v-1.182c-12.186,0.531-25.049,2.848-34.629,4.585        c-2.22,0.386-4.223,0.748-6.009,1.062c-19.281,3.258-38.369,8.229-56.709,14.817c-3.861,1.376-10.232,4.513-9.484,9.99        c0.435,3.137,3.185,5.574,8.205,7.288c9.629,3.258,19.595,4.513,29.609,4.513c16.723,0,33.543-3.523,48.891-7.167        c0.603-0.145,1.641-0.362,2.992-0.652c3.861-0.82,10.208-2.172,17.133-4.006v-1.279c-5.188,1.351-10.98,2.727-17.375,4.102        c-1.376,0.29-2.413,0.507-3.041,0.652c-24.349,5.792-52.462,11.269-77.8,2.703c-4.561-1.544-7.046-3.668-7.432-6.323        C353.829,279.775,360.344,276.904,363.192,275.89z"/>
					</g>
					<g>
						<path style="fill:#FFBEFF;" d="M163.768,244.036c-8.253,1.4-16.578,1.979-24.904,1.979c-19.715,0-39.503-3.21-58.833-6.371        c-10.883-1.762-21.984-3.572-33.109-4.802v-1.207c11.197,1.231,22.346,3.041,33.302,4.826        c27.389,4.464,55.72,9.073,83.35,4.392c5.092-0.869,13.562-4.006,12.838-10.304c-0.748-6.66-10.715-7.626-13.731-7.77        c-16.265-0.772-32.771,0.7-48.746,2.099c-7.095,0.627-14.431,1.279-21.67,1.738c-13.321,0.82-29.272,1.183-45.343-1.496        v-1.255c16.023,2.703,31.974,2.365,45.271,1.544c7.215-0.458,14.551-1.11,21.646-1.738c15.999-1.4,32.554-2.872,48.891-2.099        c3.282,0.145,14.021,1.231,14.865,8.832C178.32,238.703,171.177,242.805,163.768,244.036z"/>
					</g>
				</g>
				<rect x="46.923" y="447.611" style="fill:#2F2444;" width="413.205" height="51.135"/>
			</g>
			<g>
				<g>
					<g>
						<path style="fill:#FFBEFF;" d="M311.178,288.98c-1.707,0-3.426-0.269-5.141-0.91c-5.583-2.09-9.509-7.668-11.355-16.138        c-0.537-2.46-0.936-5.349,0.17-8.123c2.379-5.976,9.637-7.063,12.023-7.421c5.097-0.766,10.274-1.138,15.28-1.496        c8.094-0.58,15.739-1.129,23.142-3.203c11.761-3.292,22.985-10.746,31.605-20.993c7.955-9.45,13.827-21.103,17.458-34.633        c2.655-9.9,3.301-18.275,1.973-25.609c-1.573-8.684-6.3-16.192-12.644-20.088c-5.922-3.636-13.813-4.614-21.65-2.689        c-6.769,1.668-13.658,5.46-20.476,11.272c-8.609,7.339-15.714,16.624-20.548,26.846c-0.853,1.81-3.012,2.58-4.819,1.727        c-1.807-0.855-2.579-3.014-1.725-4.819c5.268-11.147,13.013-21.266,22.396-29.264c7.684-6.547,15.57-10.85,23.441-12.789        c9.706-2.397,19.609-1.098,27.172,3.547c8.19,5.031,14.015,14.13,15.979,24.966c1.522,8.408,0.834,17.821-2.104,28.776        c-3.906,14.561-10.269,27.15-18.911,37.418c-9.548,11.347-22.046,19.624-35.192,23.302        c-8.108,2.272-16.481,2.873-24.577,3.452c-4.868,0.349-9.901,0.709-14.723,1.435c-3.62,0.542-5.822,1.558-6.372,2.939        c-0.383,0.961-0.141,2.444,0.178,3.905c0.904,4.145,2.821,9.403,6.819,10.897c3.539,1.322,7.974-0.526,12.212-2.531        c1.804-0.86,3.965-0.087,4.82,1.72c0.857,1.808,0.085,3.966-1.721,4.822C319.988,287.147,315.631,288.98,311.178,288.98z"/>
					</g>
					<polygon style="fill:#FFBEFF;" points="357.038,111.987 347.578,143.889 346.902,146.229 317.172,246.617 316.497,248.934        314.059,257.138 314.059,257.163 313.335,259.552 299.749,305.45 211.017,305.45 194.729,253.808 193.908,251.154        189.395,236.82 188.647,234.527 160.51,145.24 159.786,142.923 150.037,111.987      "/>
					<g>
						<path style="fill:#2F2444;" d="M353.973,116.099c0,0-33.277,23.408-96.937,26.279c-4.633,0.217-9.122,0.241-13.49,0.145        c-12.669-0.314-24.18-1.834-34.436-4.03c-34.943-7.433-55.189-22.394-55.189-22.394H353.973z"/>
						<g>
							<g>
								<path style="fill:#2F2444;" d="M347.578,143.889l-0.676,2.341c-5.309-0.724-11.776,0.507-19.329,3.692          c-3.789,1.568-8.084,3.596-11.414,6.684c-3.451,3.185-5.405,7.24-5.357,11.101c0.024,1.882,0.507,3.74,0.99,5.719          c0.676,2.654,1.351,5.381,0.893,8.229c-0.628,3.861-3.234,6.974-5.526,9.701c-5.912,7.046-11.776,14.696-12.983,23.746          c-1.617,12.162,6.564,25.145,19.016,30.189c1.303,0.531,2.63,0.965,3.982,1.327l-0.676,2.316          c-1.448-0.386-2.848-0.844-4.223-1.4c-13.441-5.454-22.249-19.547-20.488-32.747c1.279-9.701,7.384-17.664,13.514-24.976          c2.22-2.63,4.488-5.333,4.995-8.543c0.386-2.341-0.217-4.73-0.845-7.264c-0.507-2.027-1.038-4.102-1.062-6.274          c-0.048-4.537,2.196-9.242,6.129-12.91c3.596-3.33,8.156-5.478,12.114-7.143C334.74,144.275,341.738,143.02,347.578,143.889          z"/>
							</g>
							<g>
								<path style="fill:#2F2444;" d="M227.982,199.777c-0.941,6.202-4.247,12.428-10.087,18.968          c-7.867,8.808-17.085,14.913-26.617,17.592c-0.627,0.169-1.255,0.338-1.882,0.483l-0.748-2.293          c0.652-0.145,1.303-0.314,1.955-0.507c9.122-2.582,17.93-8.398,25.483-16.868c5.526-6.202,8.639-11.993,9.508-17.737          c1.062-7.047-1.858-14.093-7.07-17.134c-2.292-1.327-5.092-2.027-7.819-2.678c-4.295-1.062-8.736-2.148-11.559-5.816          c-2.606-3.354-2.775-7.553-2.92-11.631c-0.121-2.703-0.217-5.478-1.062-7.915c-1.52-4.368-5.719-8.036-11.511-10.063          c-7.481-2.63-15.927-2.148-23.142,1.062l-0.724-2.317c7.722-3.354,16.723-3.837,24.687-1.038          c6.467,2.293,11.197,6.492,12.959,11.559c0.965,2.775,1.086,5.743,1.207,8.639c0.145,3.837,0.265,7.481,2.413,10.232          c2.293,2.992,6.154,3.933,10.232,4.923c2.872,0.724,5.864,1.448,8.47,2.968C225.786,183.73,229.189,191.766,227.982,199.777          z"/>
							</g>
							<g>
								<path style="fill:#2F2444;" d="M291.883,183.104c-0.869-9.653-6.395-20.753-13.707-27.606          c-3.451-3.234-8.518-4.295-13.707-4.295c-6.926,0-14.093,1.906-18.002,3.137c-2.823,0.893-6.395,2.244-9.218,4.851          c-2.944,2.727-4.488,6.54-4.006,9.942c0.41,2.823,2.003,5.092,3.523,7.288c0.893,1.255,1.738,2.461,2.341,3.74          c1.93,4.03,1.593,8.591,1.231,13.417c-0.265,3.33-0.507,6.757,0,10.111c1.52,9.701,10.401,17.737,20.198,18.292          c0.386,0.024,0.772,0.024,1.183,0.024c7.07,0,14.527-3.547,20.198-9.701C289.108,204.557,292.824,193.649,291.883,183.104z           M280.155,210.662c-5.502,5.961-12.814,9.267-19.498,8.905c-8.712-0.507-16.578-7.626-17.93-16.241          c-0.483-3.089-0.217-6.371,0.024-9.58c0.362-4.923,0.748-10.015-1.472-14.648c-0.7-1.448-1.617-2.775-2.534-4.078          c-1.424-2.051-2.775-3.982-3.113-6.226c-0.362-2.63,0.869-5.623,3.258-7.819c2.462-2.292,5.719-3.499,8.301-4.319          c5.019-1.593,21.984-6.226,29.32,0.603c6.926,6.467,12.138,16.94,12.959,26.062          C290.363,193.191,286.863,203.399,280.155,210.662z"/>
							</g>
							<g>
								<path style="fill:#2F2444;" d="M314.059,257.138v0.024l-0.724,2.389c-2.679-1.713-5.55-3.089-8.543-4.054          c-5.309-1.689-12.114-1.424-14.527,3.137c-1.641,3.113-0.603,7.167,0.314,10.739c0.386,1.472,1.544,5.961-1.351,8.301          c-1.472,1.158-3.33,1.231-4.947,1.279l-0.82,0.024c-6.998,0.362-13.441,6.25-14.696,13.393          c-0.772,4.44,0.483,9.242,3.161,13.079h-2.92c-2.389-4.054-3.403-8.88-2.606-13.514c1.424-8.181,8.856-14.937,16.94-15.372          l0.869-0.024c1.376-0.048,2.654-0.072,3.499-0.748c1.134-0.917,1.303-2.823,0.531-5.816          c-1.038-4.006-2.196-8.543-0.121-12.476c3.065-5.792,11.173-6.274,17.399-4.296          C308.509,254.146,311.381,255.497,314.059,257.138z"/>
							</g>
							<g>
								<path style="fill:#2F2444;" d="M260.222,271.255c-0.314,5.599-2.92,11.463-7.698,17.423          c-5.333,6.66-12.042,12.066-19.016,16.771h-4.368c7.891-5.068,15.613-10.932,21.501-18.268          c4.464-5.574,6.877-10.98,7.167-16.072c0.241-3.982-0.82-8.036-2.992-11.39c-2.51-3.909-7.36-7.433-12.524-6.467          c-1.713,0.314-3.523,1.134-5.261,1.906c-3.403,1.545-6.926,3.137-10.473,1.448c-2.968-1.424-4.199-4.368-5.381-7.215          c-0.893-2.172-1.738-4.199-3.258-5.526c-3.716-3.234-9.749-1.062-14.165,2.051c-3.282,2.317-6.322,4.947-9.025,7.891          l-0.82-2.654c2.582-2.655,5.381-5.092,8.446-7.215c5.164-3.62,12.379-6.033,17.133-1.882          c1.955,1.689,2.944,4.078,3.909,6.395c1.062,2.558,2.075,4.947,4.199,5.96c2.534,1.231,5.406-0.072,8.446-1.448          c1.882-0.845,3.813-1.713,5.816-2.075c6.25-1.158,12.042,2.944,14.986,7.529          C259.28,262.206,260.487,266.767,260.222,271.255z"/>
							</g>
						</g>
					</g>
				</g>
				<g>
					<path style="fill:#FFFFFF;" d="M184.574,147.357L184.574,147.357c3.58,0,6.685,2.473,7.486,5.962l9.26,40.327       c1.087,4.734-2.438,9.276-7.294,9.397l-0.658,0.016c-3.696,0.092-6.933-2.461-7.704-6.077l-8.603-40.343       C176.042,151.86,179.687,147.357,184.574,147.357z"/>
					<circle style="fill:#FFFFFF;" cx="200.138" cy="217.595" r="6.572"/>
				</g>
				<path style="opacity:0.26;fill:#FFFFFF;" d="M370.262,71.158c-1.086,11.824-6.902,23.215-16.12,30.695      c-6.54,5.309-14.286,8.398-22.515,10.135c-9.315,1.955-19.257,2.148-28.765,1.737c-17.568-0.724-35.667-2.944-52.39,2.365      c-0.338,0.097-0.7,0.217-1.038,0.338c-5.768,1.931-11.897,5.647-12.814,11.68c-0.845,5.502,2.992,10.304,6.926,14.407      c-12.669-0.314-24.18-1.834-34.436-4.03c-0.169-8.374,1.858-17.592,8.398-22.394c0.434-0.338,0.893-0.628,1.376-0.917      c3.765-2.196,8.181-2.679,12.524-3.185c0.434-0.048,0.893-0.097,1.327-0.145c9.242-1.11,18.799-3.427,25.676-9.653      c6.902-6.226,10.111-17.326,5.019-25.097c-6.902-10.473-23.07-9.049-33.012-16.723c-6.588-5.116-9.628-13.996-8.88-22.322      c0.724-7.963,4.537-15.396,9.653-21.574c5.792-0.507,11.68-0.772,17.592-0.772h4.633c-0.386,0.507-0.724,1.038-1.062,1.569      c-2.775,4.657-3.475,10.883-0.531,15.444c4.489,6.998,14.624,7.143,22.732,5.406c14.793-3.161,28.62-9.797,43.244-13.49      c6.902,2.124,13.658,4.609,20.222,7.433c0.796,0.338,1.593,0.7,2.389,1.062c8.977,4.006,17.616,8.639,25.845,13.876      C369.562,54.579,371.034,62.953,370.262,71.158z"/>
			</g>
			<g>
				<path style="fill:#FBEEE5;" d="M442.07,409.711l-6.669,11.101c-63.781-36.062-181.372-23.853-181.372-23.853l-8.89-10.44      l-9.966,10.44c-106.49-17.184-145.876,34.954-145.876,34.954l-16.076-6.669l22.739-88.555l-21.631,3.605l-15.808,6.378      l29.124-94.481c82.637-21.072,150.307,44.925,150.307,44.925s23.853-44.36,98.17-39.928      c74.317,4.432,85.983,46.033,85.983,46.033L442.07,409.711z"/>
				<g>
					<path style="fill:#2F2444;" d="M244.052,383.257c-0.564,0-1.041-0.437-1.082-1.009l-6.1-85.054       c-0.043-0.598,0.407-1.118,1.005-1.161c0.581-0.044,1.118,0.407,1.161,1.006l6.1,85.054c0.043,0.598-0.407,1.118-1.005,1.161       C244.104,383.256,244.078,383.257,244.052,383.257z"/>
					<path style="fill:#2F2444;" d="M254.029,396.959h-18.856c0,0,1.673-23.853,9.428-22.745       C252.378,375.322,254.029,396.959,254.029,396.959z"/>
					<path style="fill:#2F2444;" d="M73.318,425.782c-0.072,0-0.146-0.013-0.217-0.041c-0.311-0.12-0.466-0.469-0.347-0.78       c0.055-0.141,5.572-14.259,18.571-29.194c12.001-13.789,33.021-31.134,65.011-35.457c57.223-7.733,83.814,13.98,87.213,17.019       c4.043-2.759,37.397-23.785,94.382-9.796c60.405,14.827,104.021,41.397,104.455,41.665c0.283,0.174,0.372,0.546,0.197,0.83       c-0.173,0.284-0.545,0.375-0.83,0.198c-0.432-0.266-43.897-26.741-104.109-41.52c-59.998-14.728-93.453,9.633-93.785,9.881       c-0.239,0.178-0.576,0.156-0.788-0.056c-0.253-0.252-26.064-25.199-86.572-17.023c-60.513,8.178-82.403,63.333-82.617,63.889       C73.789,425.635,73.561,425.782,73.318,425.782z"/>
					<path style="fill:#2F2444;" d="M76.398,426.86c-0.104,0-0.209-0.027-0.305-0.083c-0.287-0.169-0.383-0.539-0.214-0.826       c0.291-0.495,29.694-49.612,78.936-59.901c46.985-9.817,85.187,10.764,88.885,12.847c3.58-1.775,38.543-18.146,88.48-7.67       c52.356,10.984,107.702,40.597,108.255,40.895c0.293,0.158,0.403,0.524,0.245,0.817c-0.158,0.292-0.523,0.403-0.817,0.245       c-0.552-0.297-55.748-29.829-107.931-40.776c-52.062-10.923-87.614,7.52-87.967,7.708c-0.186,0.099-0.408,0.094-0.592-0.014       c-0.389-0.231-39.576-23.054-88.312-12.87c-48.71,10.178-77.854,58.842-78.143,59.333       C76.807,426.754,76.605,426.86,76.398,426.86z"/>
					<path style="fill:#2F2444;" d="M80.245,428.625c-0.09,0-0.18-0.02-0.266-0.062c-0.299-0.146-0.423-0.508-0.276-0.807       c0.175-0.357,18.026-35.887,63.613-48.387c43.968-12.054,93.604,5.228,97.393,6.59c2.652-1.096,28.206-11.119,67.36-8.089       c61.523,4.761,129.33,37.813,130.008,38.146c0.299,0.147,0.422,0.509,0.274,0.808c-0.147,0.3-0.509,0.42-0.808,0.275       c-0.676-0.333-68.279-33.283-129.568-38.026c-40.882-3.162-66.751,7.973-67.008,8.086c-0.143,0.063-0.308,0.068-0.454,0.013       c-0.512-0.191-51.746-19.015-96.879-6.639c-45.067,12.357-62.675,47.4-62.848,47.753       C80.683,428.5,80.468,428.625,80.245,428.625z"/>
					<path style="fill:#2F2444;" d="M84.871,430.402c-0.089,0-0.179-0.019-0.263-0.06c-0.3-0.146-0.426-0.506-0.28-0.806       c0.158-0.328,16.442-32.858,68.274-43.151c49.785-9.886,89.329,3.266,92.557,4.388c2.831-0.999,33.521-11.161,84.41-2.542       c57.728,9.777,105.609,31.812,106.086,32.033c0.303,0.141,0.434,0.499,0.293,0.801c-0.14,0.302-0.5,0.433-0.801,0.293       c-0.476-0.221-48.218-22.189-105.779-31.938c-52.837-8.949-83.688,2.442-83.992,2.558c-0.137,0.052-0.286,0.053-0.423,0.002       c-0.401-0.147-40.76-14.613-92.116-4.412c-51.207,10.169-67.267,42.171-67.423,42.493       C85.31,430.277,85.095,430.402,84.871,430.402z"/>
					<path style="fill:#2F2444;" d="M242.214,376.319c-0.32-0.29-32.705-29.081-95.917-37.073       c-63.042-7.971-87.021,7.793-87.255,7.954l-1.229-1.791c0.98-0.673,24.746-16.411,88.757-8.318       c63.939,8.085,96.779,37.326,97.104,37.62L242.214,376.319z"/>
					<g>
						<path style="fill:#2F2444;" d="M404.842,363.268c-0.146-0.167-15.108-16.852-57.374-25.169        c-44.034-8.668-81.833,11.156-82.209,11.357l-0.998-1.868c0.383-0.205,38.853-20.377,83.615-11.567        c43.075,8.478,57.952,25.153,58.564,25.859L404.842,363.268z"/>
						<path style="fill:#2F2444;" d="M404.842,344.41c-0.146-0.167-15.108-16.852-57.374-25.17        c-44.034-8.668-81.833,11.156-82.209,11.358l-0.998-1.868c0.384-0.205,38.854-20.376,83.615-11.568        c43.075,8.478,57.952,25.154,58.564,25.859L404.842,344.41z"/>
						<path style="fill:#2F2444;" d="M404.842,325.551c-0.146-0.167-15.108-16.852-57.374-25.169        c-44.034-8.667-81.833,11.156-82.209,11.357l-0.998-1.868c0.383-0.205,38.853-20.377,83.615-11.567        c43.075,8.478,57.952,25.153,58.564,25.859L404.842,325.551z"/>
						<path style="fill:#2F2444;" d="M404.842,306.693c-0.146-0.167-15.108-16.852-57.374-25.17        c-44.034-8.667-81.833,11.156-82.209,11.358l-0.998-1.868c0.384-0.205,38.854-20.378,83.615-11.568        c43.075,8.478,57.952,25.154,58.564,25.859L404.842,306.693z"/>
					</g>
					<path style="fill:#2F2444;" d="M220.556,345.716c-36.435-23.341-70.742-29.204-93.106-30.013       c-24.252-0.88-40.083,3.833-40.24,3.88l-0.615-2.026c0.16-0.048,16.27-4.843,40.835-3.974       c22.651,0.806,57.394,6.726,94.27,30.349L220.556,345.716z"/>
					<path style="fill:#2F2444;" d="M220.556,328.707c-36.435-23.341-70.742-29.204-93.106-30.013       c-24.252-0.878-40.083,3.833-40.24,3.88l-0.615-2.026c0.16-0.048,16.27-4.843,40.835-3.974       c22.651,0.806,57.394,6.726,94.27,30.349L220.556,328.707z"/>
					<path style="fill:#2F2444;" d="M220.556,311.697c-36.435-23.341-70.742-29.204-93.106-30.012       c-24.252-0.881-40.083,3.833-40.24,3.88l-0.615-2.026c0.16-0.049,16.251-4.846,40.835-3.974       c22.651,0.806,57.394,6.726,94.27,30.349L220.556,311.697z"/>
					<path style="fill:#2F2444;" d="M220.556,294.688c-36.435-23.341-70.742-29.204-93.106-30.012       c-24.252-0.878-40.083,3.833-40.24,3.88l-0.615-2.026c0.16-0.048,16.251-4.842,40.835-3.974       c22.651,0.806,57.394,6.726,94.27,30.349L220.556,294.688z"/>
				</g>
			</g>
		</g>
	</g>
</g>















</svg>
