<?xml version="1.0" standalone="no"?>
<svg xmlns="http://www.w3.org/2000/svg" version="1.1" xmlns:xlink="http://www.w3.org/1999/xlink" width="512" height="512" x="0" y="0" viewBox="0 0 20 20" style="enable-background:new 0 0 512 512" xml:space="preserve" class=""><g><linearGradient id="a" x1="10" x2="10" y1="0" y2="20" gradientUnits="userSpaceOnUse"><stop stop-opacity="1" stop-color="#ee9ae5" offset="0"/><stop stop-opacity="1" stop-color="#fe8205" offset="1"/></linearGradient><path fill="url(#a)" fill-rule="evenodd" d="M0 10C0 4.486 4.486 0 10 0s10 4.486 10 10-4.486 10-10 10S0 15.514 0 10zm8.414-1 1.293-1.293a1 1 0 0 0-1.414-1.414l-3 3a.997.997 0 0 0 0 1.414l3 3a1 1 0 0 0 1.414-1.414L8.414 11H14a1 1 0 0 0 0-2z" clip-rule="evenodd" opacity="1" data-original="url(#a)" class=""/></g></svg>