<?xml version="1.0" encoding="UTF-8"?>
<!-- Generator: Adobe Illustrator 25.3.1, SVG Export Plug-In . SVG Version: 6.00 Build 0)  -->
<svg xmlns="http://www.w3.org/2000/svg" xmlns:xlink="http://www.w3.org/1999/xlink" version="1.1" id="Capa_1" x="0px" y="0px" viewBox="0 0 512 512" style="enable-background:new 0 0 512 512;" xml:space="preserve" width="512" height="512">
<g>
	<g>
		<g>
			<g>
				<path style="fill:#FD913E;" d="M507.023,262.717c-8.44,4.902-13.32-1.802-20.09-7.627c-4.682-4.066-10.287-7.715-18.595-6.77      c-4.111,0.461-7.649,2.088-10.924,4.418c-6.089,4.308-11.232,11.1-17.343,17.65c-6.792,7.297-14.793,14.309-26.596,17.211      c-24.244,5.957-47.126-13.43-52.973-18.881c-0.923-0.879-1.429-1.385-1.429-1.385l5.077-22.134c0,0,6.99,17.298,29.519,22.947      c2.682,0.681,5.583,1.209,8.726,1.495c3.297,0.308,6.111,0.11,8.55-0.505c19.409-4.858,15.892-35.52,52.335-42.07      c1.912-0.352,3.781-0.593,5.605-0.769c7.21-0.659,13.584,0.022,19.057,1.626c12.199,3.517,20.002,11.562,22.837,19.189      C513.199,253.596,512.056,259.794,507.023,262.717z"/>
				<path style="opacity:0.2;fill:#A1312F;" d="M507.023,262.717c-8.44,4.902-13.32-1.802-20.09-7.627      c-4.682-4.066-10.287-7.715-18.595-6.77c-4.111,0.461-7.649,2.088-10.924,4.418c-6.089,4.308-11.232,11.1-17.343,17.65      c-6.792,7.297-14.793,14.309-26.596,17.211c-24.244,5.957-47.126-13.43-52.973-18.881c-0.923-0.879-1.429-1.385-1.429-1.385      l5.077-22.134c0,0,6.99,17.298,29.519,22.947c2.682,0.681,5.583,1.209,8.726,1.495c3.297,0.308,6.111,0.11,8.55-0.505      c19.409-4.858,15.892-35.52,52.335-42.07c1.912-0.352,3.781-0.593,5.605-0.769c7.21-0.659,13.584,0.022,19.057,1.626      c12.199,3.517,20.002,11.562,22.837,19.189C513.199,253.596,512.056,259.794,507.023,262.717z"/>
			</g>
			<path style="fill:#A1312F;" d="M507.023,262.717c-8.44,4.902-13.32-1.802-20.09-7.627c5.913-3.868,14.683-8.243,23.848-7.979     C513.199,253.596,512.056,259.794,507.023,262.717z"/>
			<path style="fill:#A1312F;" d="M487.944,227.922c-0.945,4.265-3.297,9.1-9.144,7.913c-6.089-1.209-8.748-5.957-9.913-9.539     C476.096,225.637,482.471,226.318,487.944,227.922z"/>
			<path style="fill:#A1312F;" d="M457.413,252.738c-6.089,4.308-11.232,11.1-17.343,17.65c-1.934-4.462-3.627-11.012,0.264-15.32     C444.313,250.65,452.116,251.485,457.413,252.738z"/>
			<path style="fill:#A1312F;" d="M410.947,269.136c-1.714,3.934-4.44,7.715-8.396,6.858c-3.824-0.813-6.814-4.418-8.88-7.847     c2.682,0.681,5.583,1.209,8.726,1.495C405.694,269.949,408.507,269.751,410.947,269.136z"/>
		</g>
		<path style="fill:#91E6DD;" d="M272.729,429.599c0,0,50.276-25.563,67.054-30.708c0,0-11.639-39.813-29.109-52.538l-66.279,29.676    L272.729,429.599z"/>
		<path style="fill:#5ED6B6;" d="M291.62,405.224c0,0,34.735-39.702,72.583-57.463c0,0-31.013-49.557-51.596-62.225    c0,0-51.138,45.227-66.492,66.591L291.62,405.224z"/>
		<g>
			<path style="fill:#FB5555;" d="M319.39,357.465l-0.481,0.285l-11.441,6.706l4.176-12.149c0,0,30.901-38.259,39.238-47.305     c0.609-0.656,1.087-1.156,1.436-1.473c5.169-4.807,9.468,0.331,6.759,5.066c-0.214,0.378-0.651,1.019-1.275,1.849     C350.667,320.112,319.39,357.465,319.39,357.465z"/>
			<path style="fill:#FDBD87;" d="M318.909,357.75l-7.645,4.492l-3.796,2.215l1.433-4.139l2.743-8.009c0,0,6.949,0.539,7.251,5.271     C318.899,357.635,318.904,357.693,318.909,357.75z"/>
			<path style="fill:#A1312F;" d="M357.8,310.445c-2.694-2.791-5.065-4.456-6.919-5.442c0.609-0.656,1.087-1.156,1.436-1.473     c5.169-4.807,9.468,0.331,6.759,5.066C358.861,308.973,358.424,309.615,357.8,310.445z"/>
			<path style="fill:#A1312F;" d="M311.264,362.241l-3.796,2.215l1.433-4.139C309.589,360.635,310.414,361.202,311.264,362.241z"/>
		</g>
		<path style="fill:#FD913E;" d="M429.158,190.631c-8.397-4.946-21.738,10.859-33.608,7.891    c-11.847-2.946-19.255,2.484-22.222,8.396l-19.76,1.978c0,0-19.76-50.379-77.063-57.303c0,0,0.022,0,0.044-0.022    c1.121-0.593,24.64-0.506,14.617-21.475c-5.737-12.001-7.253-22.464-6.748-34.311c0.484-11.869-9.891-16.793-12.858-10.88    c-2.967,5.935-6.902,28.662,0.505,41.499c0,0-60.775,10.375-75.59,54.841c-14.815,44.466-76.558,51.368-76.558,51.368    s-12.974,7.112-18.608,24.987c-8.681-0.432-15.401-0.857-25.514,6.605c-6.62,4.899-18.822,22.886-18.306,28.754    c-1.014,2.627-1.83,5.382-2.322,8.263c-1.032-0.103-2.032-0.184-3.05-0.178c-13.226,0.075-25.106,10.032-24.121,14.103    c0.119,0.487,0.289,0.939,0.502,1.4c2.154,4.478,8.943,7.591,17.147,9.126c6.377,1.214,11.424,5.848,13.842,8.479    c0.899,2.422,1.902,4.901,2.994,7.424c1.313,3.039,2.777,6.169,4.354,9.312c0.624,1.272,1.304,2.538,1.971,3.818    c3.041,5.73,6.485,11.45,10.218,16.924c0.959,1.383,1.934,2.777,2.918,4.128c2.562,3.532,5.255,6.895,8.045,10.036    c2.547,2.879,5.167,5.567,7.838,7.998c2.221,2.726,4.514,6.446,5.25,10.745c1.535,8.868,4.958,16.152,9.996,17.692    c0.089,0.044,0.191,0.073,0.277,0.09c3.189,0.829,10.83-5.457,14.284-14.354c3.61,1.277,8.506,2.584,14.27,3.695    c0,0,0,0,0.015,0.012c0.027-0.004,0.027-0.004,0.071,0.005c1.593,0.24,27.32,3.977,44.087-10.906    c2.046-1.819,3.347-4.356,4.764-6.996c8.579,0.877,22.251,1.688,35.619-0.903c5.473-1.077,10.968-2.66,16.177-4.968    c7.847-3.451,15.034-8.55,20.485-15.936c2.726-3.671,4.99-7.891,6.726-12.749c1.033-2.857,1.846-5.957,2.462-9.276    c5.539-0.571,14.353-2.396,22.53-8.067c5.957-4.089,11.584-10.221,15.43-19.343c1.605-3.758,2.901-8.023,3.781-12.858    c0,0,10.067-1.517,22.134-8.418c5.187-2.989,10.748-6.946,16.001-12.221c5.539-5.495,10.748-12.441,14.881-21.145    c2.286-4.726,4.242-10.001,5.759-15.826c1.363-5.187,2.374-10.836,2.967-16.969c0,0,2.484-16.309,22.244-19.76    C417.795,211.864,437.555,195.577,429.158,190.631z"/>
		<path style="fill:#91E6DD;" d="M144.709,265.154l-88.904-40.592c0,0,15.339-28.016,35.351-46.788    c0.061-0.061,0.122-0.122,0.183-0.183c5.567-2.905,20.763-6.501,24.237-7.294c0.284,0.102,0.569,0.224,0.853,0.345    c17.066,7.009,50.344,21.373,62.493,31.693C195.581,216.456,144.709,265.154,144.709,265.154z"/>
		<path style="fill:#FDBD87;" d="M274.527,301.28c0,0-96.823-32.597-76.557-88.91c20.244-56.314,78.535-60.775,78.535-60.775    c57.303,6.924,77.063,57.303,77.063,57.303C360.975,286.949,274.527,301.28,274.527,301.28z"/>
		<path style="fill:#FFFFFF;" d="M282.131,297.778l-82.063,56.035c0,0-5.053-18.719-11.177-28.518s-24.284-20.929-18.213-38.983    c0,0-16.057,6.054-33.994-18.849c-10.377-14.407-27.865-21.741-27.865-21.741l57.873-37.969l77.164,22.659L282.131,297.778z"/>
		<path style="fill:#A1312F;" d="M52.107,301.049c0,0,0.009-0.002,0.02,0.005c0.2-0.028,1.857-0.17,3.8,0.267    c0.009-0.002,0.02,0.005,0.029,0.004c1.088,0.243,2.412,0.908,3.655,1.885c2.201,1.719,0.799,2.401,0.753,5.434    c-0.13,7.468-12.208,2.272-23.19,3.357c-3.599,0.357-6.716,1.6-8.669,4.543c-0.215-0.453-0.376-0.916-0.502-1.395    C27.01,311.091,38.889,301.119,52.107,301.049z"/>
		<path style="fill:#A1312F;" d="M127.325,389.878c7.798,16.723-8.839,33.791-13.978,32.435c-0.088-0.021-0.186-0.049-0.275-0.078    c0.963-1.12,2.148-2.942,2.915-5.71c0.762-2.794,3.818-7.801,3.052-12.748c-1.422-9.095,0.638-12.06,4.844-13.404    C125.145,389.96,126.356,389.817,127.325,389.878z"/>
		<path style="fill:#FFFFFF;" d="M52.989,307.36c0,0,2.576-3.543,6.621-4.15c2.201,1.719,4.144,4.398,4.097,7.431    c-0.13,7.468-15.553,0.275-26.535,1.36c2.394-1.629,6.24-3.502,10.986-3.199c0,0-3.332-2.392-3.018-3.306    c0.319-0.879,4.798,1.578,5.048,1.718c-0.147-0.14-1.854-1.756-1.196-2.568C49.681,303.8,52.989,307.36,52.989,307.36z"/>
		<path style="fill:#FFFFFF;" d="M123.883,390.373c6.87,8.774-1.973,14.68-1.973,14.68s2.479,0.067,2.335,1.592    c-0.145,1.46-2.576,0.603-2.785,0.53c0.074,0.098,1.653,2.073,1.411,3.021c-0.246,0.976-2.286-0.828-2.286-0.828    c-0.265,3.958-3.088,6.225-4.598,7.158c0.762-2.794,1.094-6.541,0.327-11.487C114.893,395.943,119.677,391.717,123.883,390.373z"/>
		<path style="fill:#A1312F;" d="M88.12,342.775c1.881-0.044,3.895,0.779,4.791,2.436c1.219,2.238,0.077,4.991-1.268,7.15    c-2.349,3.761-5.32,7.08-7.916,10.664c-1.803,2.496-3.453,5.168-4.502,8.071c-0.061,0.169-0.13,0.35-0.198,0.53    c-3.736-5.452-7.171-11.184-10.217-16.923c4.006-4.201,8.739-7.701,13.94-10.292C84.436,343.575,86.229,342.812,88.12,342.775z"/>
		<path style="fill:#A1312F;" d="M71.323,339.578c1.351,0.408,2.541,1.647,2.48,3.063c-0.059,1.425-1.275,2.49-2.344,3.434    c-1.551,1.36-2.997,2.831-4.323,4.4c-0.107,0.122-0.202,0.261-0.306,0.401c-1.582-3.138-3.039-6.252-4.355-9.309    c1.487-0.752,3.048-1.361,4.661-1.793C68.5,339.409,69.962,339.163,71.323,339.578z"/>
		<path style="fill:#A1312F;" d="M90.851,370.467c1.253-0.066,2.635,0.606,2.99,1.805c0.175,0.591,0.09,1.23-0.02,1.837    c-0.593,3.497-1.68,8.335-3.834,11.697c-2.784-3.145-5.481-6.522-8.048-10.052c1.724-1.43,3.543-2.747,5.445-3.922    C88.453,371.176,89.599,370.543,90.851,370.467z"/>
		<path style="opacity:0.48;fill:#FB5555;" d="M108.918,297.857c2.868,1.142,6.071-0.534,5.958-3.962    c-0.151-4.59-4.614-10.466-9.102-11.636c-3.789-0.988-6.724,3.138-5.654,6.259c0.904,2.638,2.696,4.88,4.775,6.665    C105.861,296.012,107.311,297.217,108.918,297.857z"/>
		<path style="opacity:0.48;fill:#FB5555;" d="M154.527,364.495c2.209,2.034,5.702,1.624,6.79-1.529    c1.458-4.222-0.554-11.112-4.225-13.736c-3.098-2.215-7.199,0.515-7.313,3.722c-0.095,2.71,0.753,5.371,2.022,7.715    C152.391,361.757,153.29,363.355,154.527,364.495z"/>
		<path style="fill:#C75325;" d="M140.532,281.9c-0.969-0.973-1.936-1.946-2.924-2.895c-0.991-0.945-1.996-1.882-3.044-2.738    l-0.461-0.377l0.608-0.068c0.756-0.085,1.575-0.288,2.136-0.728c0.276-0.221,0.448-0.504,0.469-0.82    c0.027-0.181-0.004-0.264-0.06-0.336c-0.063-0.07-0.193-0.137-0.355-0.173c-0.677-0.133-1.505,0.008-2.275,0.149    c-0.78,0.155-1.567,0.367-2.322,0.611l-0.986,0.318l0.531-0.897c0.348-0.586,0.663-1.226,0.904-1.863    c0.228-0.623,0.424-1.339,0.285-1.835c-0.039-0.125-0.052-0.093-0.038-0.1c-0.01,0.004-0.122-0.005-0.251,0.062    c-0.255,0.107-0.54,0.296-0.802,0.507c-0.528,0.421-1.042,0.917-1.516,1.412l-0.313,0.328l-0.316-0.319    c-1.479-1.492-3.145-2.857-4.905-4.028c-1.775-1.147-3.682-2.122-5.728-2.574l-0.979-0.217l0.922-0.376    c0.813-0.331,1.684-0.77,2.207-1.415c0.059-0.082,0.114-0.165,0.15-0.251c0.035-0.063,0.012-0.046,0.025-0.04    c-0.006,0.003,0.004-0.005-0.022-0.031c-0.078-0.103-0.299-0.215-0.495-0.296c-0.41-0.168-0.859-0.295-1.306-0.411    c-1.802-0.451-3.661-0.712-5.513-0.981c1.872,0.096,3.737,0.272,5.597,0.606c0.465,0.091,0.929,0.186,1.39,0.36    c0.231,0.097,0.464,0.165,0.7,0.414c0.059,0.058,0.111,0.158,0.136,0.276c0.011,0.122-0.027,0.257-0.052,0.296    c-0.05,0.133-0.12,0.247-0.195,0.358c-0.645,0.838-1.513,1.281-2.397,1.692l-0.057-0.592c1.09,0.198,2.145,0.535,3.159,0.96    c0.999,0.455,1.958,0.986,2.882,1.568c1.834,1.19,3.532,2.543,5.101,4.086l-0.629,0.009c0.506-0.549,1.023-1.056,1.625-1.516    c0.3-0.23,0.614-0.45,1.022-0.616c0.196-0.079,0.454-0.16,0.794-0.081c0.36,0.102,0.567,0.462,0.611,0.683    c0.204,0.92-0.091,1.649-0.335,2.352c-0.276,0.699-0.605,1.347-0.995,1.988l-0.455-0.579c0.803-0.248,1.6-0.451,2.425-0.606    c0.827-0.137,1.656-0.288,2.589-0.075c0.229,0.065,0.493,0.172,0.697,0.418c0.206,0.25,0.23,0.609,0.184,0.827    c-0.051,0.503-0.371,0.955-0.744,1.222c-0.766,0.537-1.617,0.687-2.472,0.758l0.146-0.445c1.052,0.911,1.998,1.912,2.93,2.922    C138.747,279.813,139.656,280.842,140.532,281.9z"/>
		<path style="fill:#C75325;" d="M191.372,381.555c0.817-0.475,1.606-0.995,2.36-1.554c0.738-0.567,1.472-1.191,1.948-1.946    c0.242-0.38,0.35-0.785,0.228-1.156c-0.104-0.372-0.452-0.612-0.856-0.742c-0.819-0.255-1.784-0.202-2.66-0.068l-1.128,0.173    l0.871-0.75c0.76-0.654,1.476-1.391,2.133-2.15c0.636-0.769,1.245-1.596,1.544-2.492c0.173-0.446,0.192-0.892,0.121-1.309    c-0.081-0.437-0.299-0.781-0.643-0.977c-0.699-0.404-1.781-0.28-2.654-0.012l-0.622,0.191l0.045-0.644    c0.132-1.896,0.082-3.852-0.083-5.773c-0.164-1.928-0.496-3.837-0.902-5.727c-0.4-1.894-1-3.743-1.727-5.539    c-0.674-1.826-1.66-3.508-2.663-5.184c1.166,1.563,2.239,3.222,3.055,5.013c0.819,1.785,1.5,3.643,1.987,5.551    c0.516,1.902,0.837,3.853,1.043,5.812c0.193,1.965,0.275,3.924,0.162,5.924l-0.577-0.452c0.554-0.168,1.08-0.261,1.652-0.274    c0.561-0.007,1.169,0.069,1.718,0.4c0.561,0.323,0.916,0.949,1.007,1.526c0.103,0.593,0.039,1.215-0.168,1.732    c-0.378,1.065-1.044,1.919-1.725,2.726c-0.696,0.801-1.467,1.505-2.296,2.169l-0.257-0.577c0.983-0.105,1.965-0.135,2.949,0.206    c0.473,0.167,0.994,0.54,1.133,1.109c0.158,0.545-0.042,1.137-0.342,1.519c-0.594,0.809-1.379,1.375-2.166,1.905    C193.065,380.705,192.231,381.159,191.372,381.555z"/>
		<g>
			<path style="fill:#A1312F;" d="M104.639,289.711c-1.138-2.695-2.022-5.463-2.843-8.25c-0.795-2.794-1.527-5.607-2.001-8.494     c1.14,2.694,2.024,5.463,2.843,8.251C103.432,284.012,104.163,286.824,104.639,289.711z"/>
			<path style="fill:#A1312F;" d="M92.895,275.183c1.701,2.257,3.172,4.647,4.587,7.07c1.392,2.435,2.726,4.905,3.828,7.508     c-1.703-2.256-3.174-4.646-4.587-7.07C95.333,280.254,93.999,277.784,92.895,275.183z"/>
			<path style="fill:#A1312F;" d="M86.314,281.319c2.52,1.279,4.892,2.779,7.229,4.333c2.321,1.575,4.604,3.206,6.739,5.059     c-2.521-1.277-4.894-2.778-7.228-4.332C90.733,284.802,88.45,283.171,86.314,281.319z"/>
		</g>
		<g>
			<path style="fill:#A1312F;" d="M159.417,360.941c2.18,1.952,4.16,4.079,6.092,6.249c1.912,2.188,3.773,4.419,5.435,6.828     c-2.181-1.95-4.162-4.077-6.092-6.248C162.941,365.58,161.079,363.348,159.417,360.941z"/>
			<path style="fill:#A1312F;" d="M165.369,378.649c-1.603-2.328-2.969-4.779-4.279-7.26c-1.286-2.493-2.514-5.017-3.502-7.665     c1.604,2.327,2.971,4.778,4.279,7.26C163.151,373.478,164.378,376.002,165.369,378.649z"/>
			<path style="fill:#A1312F;" d="M156.658,380.906c-0.415-2.796-0.565-5.598-0.65-8.402c-0.058-2.805-0.051-5.611,0.226-8.424     c0.417,2.796,0.567,5.598,0.65,8.402C156.94,375.287,156.932,378.093,156.658,380.906z"/>
		</g>
		<path style="fill:#A1312F;" d="M154.546,396.129c1.318-0.812,3.064-0.354,4.348,0.513c3.401,2.253,4.673,6.594,5.561,10.565    c0.222,0.961,0.622,2.332,0.954,3.824c-4.71,0.789-9.544,0.939-14.131,0.736c0.077-1.349,0.494-2.658,0.797-3.98    c0.489-2.043,0.748-4.141,0.769-6.25C152.868,399.553,152.88,397.167,154.546,396.129z"/>
		<path style="fill:#A1312F;" d="M137.055,401.957c0.604-0.72,1.388-1.351,2.321-1.471c0.714-0.092,1.442,0.149,2.051,0.544    c1.605,1.09,2.128,3.198,2.419,5.127c0.172,1.219,0.544,3.138,0.593,5.028c-3.641-0.437-6.923-1.017-9.604-1.578    c-0.074-0.897-0.034-1.781,0.086-2.577C135.2,405.195,135.858,403.38,137.055,401.957z"/>
		<path style="fill:#A1312F;" d="M72.797,266.513c3.299,2.866,6.167,6.289,7.788,10.306c1.09,2.718-0.154,5.292-3.26,5.218    c-2.812-0.069-5.336-2.115-7.262-4.069c-0.178-0.187-0.371-0.385-0.548-0.571c-1.118-1.208-2.262-2.288-3.429-3.337    C68.245,271.006,70.52,268.536,72.797,266.513z"/>
		<path style="fill:#A1312F;" d="M62.29,280.198c1.516,1.045,3.023,2.134,4.539,3.18c0.996,0.694,2.011,1.428,2.71,2.412    c0.702,1.011,1.028,2.35,0.544,3.458c-0.485,1.108-1.711,1.769-2.909,1.882c-2.346,0.191-5.775-1.194-8.543-2.761    C59.763,285.364,60.989,282.653,62.29,280.198z"/>
		<g>
			<path style="fill:#A1312F;" d="M113.995,337.277c0,0-0.654,4.803,0.923,5.471c1.577,0.668,2.588-6.584,1.773-8.227     c-0.815-1.644-7.878-0.301-8.079,1.187C108.411,337.196,113.995,337.277,113.995,337.277z"/>
			<path style="fill:#A1312F;" d="M128.193,316.127c-0.875,1.639-1.816,3.239-2.731,4.854l-2.862,4.776     c-0.954,1.593-1.963,3.151-2.965,4.717c-1.029,1.552-2.043,3.097-3.208,4.601l-0.649-0.783c3.153-1.704,6.273-3.495,9.375-5.302     c1.548-0.91,3.089-1.835,4.598-2.808c1.528-0.946,3.016-1.952,4.484-3c-1.322,1.229-2.761,2.324-4.2,3.416     c-1.458,1.067-2.959,2.068-4.464,3.065c-3.02,1.982-6.133,3.801-9.301,5.543l-2.215,1.218l1.565-2.001     c1.114-1.424,2.154-2.972,3.192-4.497l3.111-4.604l3.105-4.615C126.089,319.186,127.115,317.641,128.193,316.127z"/>
			<path style="opacity:0.48;fill:#A1312F;" d="M122.426,339.819c2.503,1.673,5.753,2.484,8.966,1.775     c4.658-1.028,8.73-4.208,9.31-9.033c0.36-2.994-0.588-5.843-1.907-8.364c-2.527-4.831-5.377-9.45-10.147-12.351     c-1.73-1.052-3.661-1.88-5.777-2.073c-3.241-0.298-6.797,0.998-9.321,3.397c-2.524,2.399-3.957,5.845-3.756,9.034     c0.246,3.922,2.762,7.768,5.327,10.44C117.405,335.025,119.674,337.979,122.426,339.819z"/>
		</g>
		<path style="fill:#A1312F;" d="M140.751,379.55c-0.619,0-1.228-0.281-1.627-0.812L125.71,360.85    c-0.674-0.898-0.492-2.172,0.407-2.844c0.895-0.677,2.171-0.492,2.843,0.406l13.414,17.887c0.674,0.898,0.492,2.172-0.407,2.844    C141.602,379.418,141.175,379.55,140.751,379.55z"/>
		<path style="fill:#A1312F;" d="M94.867,316.655c-0.619,0-1.228-0.281-1.627-0.812l-11.868-15.824    c-0.674-0.898-0.492-2.172,0.407-2.844c0.897-0.678,2.171-0.491,2.843,0.406l11.868,15.825c0.674,0.898,0.492,2.172-0.407,2.844    C95.718,316.524,95.291,316.655,94.867,316.655z"/>
		<path style="fill:#A1312F;" d="M415.141,199.399c1.893-1.58,3.786-2.799,5.416-4.255c0.816-0.708,1.599-1.448,2.214-2.3    c0.617-0.858,1.096-1.805,1.468-3.013c0.487,1.149,0.417,2.551-0.073,3.766c-0.464,1.249-1.352,2.23-2.276,3.079    c-0.963,0.818-2.026,1.476-3.168,1.928C417.588,199.066,416.394,199.389,415.141,199.399z"/>
		<path style="fill:#C75325;" d="M268.495,184.685c1.51-0.658,3.17-0.884,4.808-0.885c1.646-0.011,3.293,0.249,4.876,0.724    c3.15,0.964,6.074,2.827,8.001,5.466c-1.511-0.656-2.874-1.385-4.304-1.963c-1.407-0.612-2.836-1.126-4.285-1.56    c-1.44-0.473-2.925-0.792-4.43-1.094C271.648,185.087,270.117,184.861,268.495,184.685z"/>
		<path style="fill:#C75325;" d="M284.734,180.178c-0.974,0.805-1.775,1.732-2.639,2.565c-0.837,0.865-1.679,1.705-2.488,2.578    l-2.477,2.596c-0.847,0.869-1.656,1.776-2.644,2.637c0.51-2.546,1.903-4.794,3.657-6.639c0.898-0.908,1.871-1.749,2.974-2.411    C282.211,180.864,283.391,180.225,284.734,180.178z"/>
		<path style="fill:#A1312F;" d="M242.634,387.904c-5.209,2.308-10.705,3.891-16.177,4.968c-0.418-3.011-0.616-6.001-0.704-8.506    c-0.044-1.605-0.022-3.231,0.484-4.726c0.506-1.517,1.583-2.901,3.077-3.451c2.88-1.033,5.803,1.275,7.803,3.605    C239.249,382.277,241.139,385.003,242.634,387.904z"/>
		<path style="fill:#A1312F;" d="M269.845,359.22c-1.736,4.858-4,9.078-6.726,12.749c-2.923-1.253-5.341-3.561-7.275-6.133    c-1.297-1.714-2.44-4.088-1.297-5.891c0.967-1.538,3.055-1.802,4.857-1.802C261.778,358.143,266.108,358.253,269.845,359.22z"/>
		<path style="fill:#A1312F;" d="M310.267,322.535c-3.846,9.122-9.474,15.254-15.43,19.343c-0.11-0.176-0.198-0.352-0.264-0.527    c-0.637-1.495-0.813-3.143-1.055-4.748c-0.835-5.825-2.462-11.518-4.814-16.903c-1.539-3.517-3.341-7.759-1.121-10.902    c1.495-2.132,4.484-2.814,7.056-2.242C301.563,308.072,306.926,315.435,310.267,322.535z"/>
		<path style="fill:#A1312F;" d="M352.183,289.037c-5.253,5.275-10.814,9.232-16.002,12.221c-1.759-4.022-1.692-10.089-2.022-13.694    c-0.132-1.385-0.22-2.835,0.308-4.132c0.44-1.143,1.341-2.044,2.352-2.748c2.22-1.495,5.253-1.956,7.627-0.703    c1.363,0.703,2.396,1.912,3.385,3.077c1.451,1.714,2.879,3.451,4.022,5.363C351.986,288.62,352.095,288.817,352.183,289.037z"/>
		<path style="fill:#A1312F;" d="M372.823,252.066c-1.517,5.825-3.473,11.1-5.759,15.826c-5.011-2-9.803-6.748-11.452-10.551    c-0.484-1.077-0.791-2.264-0.571-3.407c0.571-3.275,4.308-4.33,7.165-4.022c1.121,0.11,2.704,0.308,4.462,0.615    C368.603,250.879,370.801,251.385,372.823,252.066z"/>
		<path style="fill:#5ED6B6;" d="M103.044,217.936c0,0-27.405,24.848-42.021,54.08L0,246.072c0,0,20.463-34.714,44.579-54.08    L103.044,217.936z"/>
		<path style="opacity:0.62;fill:#91E6DD;" d="M149.8,263.999l15.073,12.282l-11.723-5.769l9.863,7.444l-5.955-1.861    c0,0,5.397,7.629,15.073,4.838c0,0,0.931,8.188,5.396,11.165c0,0-3.163-5.583-2.977-9.862c0,0,2.605,11.909,12.096,16.189    c9.49,4.28-4.838-24.005-4.838-24.005l-10.607-1.116l-5.582,0.558L149.8,263.999z"/>
		<path style="fill:#FB5555;" d="M288.288,295.893l-78.848,56.175c0,0-28.483-64.322-28.625-67.165    c0.02-0.142,0.02-0.285,0.02-0.427c0.162-6.44-6.176-13.307-13.673-10.036c0,0-0.102-0.061-0.284-0.163    c-4.531-2.742-61.619-38.499-61.619-38.499s65.174-50.73,72.184-55.403c7.03-4.693,65.195,31.206,65.195,31.206    s0.487,0.244,1.28,0.102c0.041,0,0.081-0.02,0.122-0.02c6.359-1.382,13.886,2.351,14.048,12.103L288.288,295.893z"/>
		<path style="fill:#FD913E;" d="M165.738,166.386c-16.761,7.248-16.308,35.787-16.308,35.787s12.452-9.402,12.485-9.427    c-2.453,1.857,6.372,10.144,7.473,11.236c4.717,4.679,10.535,9.788,17.694,8.122c10.927-2.544,17.929-13.19,17.382-24.158    C203.554,169.694,181.433,159.6,165.738,166.386z"/>
		<path style="fill:#A1312F;" d="M179.385,210.761c0.237-2.063,0.721-3.981,0.918-5.931c0.213-1.942,0.296-3.875,0.16-5.794    c-0.092-1.92-0.383-3.833-0.855-5.723c-0.416-1.915-1.114-3.754-1.728-5.725c1.341,1.537,2.5,3.292,3.237,5.239    c0.821,1.918,1.237,4.003,1.372,6.093c0.106,2.093-0.081,4.204-0.637,6.209C181.339,207.147,180.401,209.015,179.385,210.761z"/>
		<path style="fill:#A1312F;" d="M196.238,206.548c-0.05-1.796-0.042-3.535-0.035-5.264c-0.019-1.727,0.017-3.439-0.088-5.135    c-0.139-3.415-0.502-6.687-1.683-10.065c1.305,1.249,2.193,2.915,2.779,4.637c0.598,1.732,0.823,3.546,0.933,5.344    c0.068,1.803-0.059,3.597-0.368,5.358C197.468,203.18,197.013,204.917,196.238,206.548z"/>
		<path style="fill:#FD913E;" d="M234.602,334.237c0,0-18.521-28.185-2.818-37.043c15.703-8.858,33.419,14.093,40.264,33.42    c6.845,19.327-16.911,24.964-16.911,24.964L234.602,334.237z"/>
		<path style="fill:#A1312F;" d="M226.618,306.585c1.451-0.442,3.041-0.21,4.475,0.264c1.456,0.478,2.76,1.306,3.931,2.255    c1.168,0.964,2.135,2.122,2.964,3.352c0.402,0.623,0.743,1.285,1.081,1.937c0.278,0.691,0.556,1.373,0.75,2.092    c-0.58-0.487-1.075-1.011-1.571-1.526c-0.517-0.498-1.012-1.002-1.493-1.506c-1.021-0.954-1.963-1.955-3.032-2.79    c-1.029-0.881-2.12-1.673-3.28-2.374C229.266,307.614,228.043,306.991,226.618,306.585z"/>
		<path style="fill:#A1312F;" d="M236.335,295.584c1.562,0.106,3.054,0.554,4.48,1.144c1.43,0.591,2.785,1.372,4.036,2.32    c1.221,0.982,2.362,2.106,3.224,3.449c0.846,1.347,1.419,2.894,1.459,4.454c-0.857-1.315-1.732-2.434-2.708-3.477    c-1.012-1.009-2.079-1.946-3.217-2.819c-1.121-0.898-2.333-1.696-3.541-2.535L236.335,295.584z"/>
		<path style="fill:#C75325;" d="M262.968,312.915c2.024,3.532,3.68,7.269,5.064,11.103c1.393,3.832,2.522,7.771,3.286,11.798    c0.704,4.03,1.262,8.127,1.028,12.254c-0.176,4.105-0.972,8.24-2.745,11.916c1.025-3.952,1.242-7.948,1.159-11.922l-0.153-2.982    l-0.34-2.972c-0.243-1.976-0.54-3.954-0.945-5.911c-0.706-3.936-1.728-7.82-2.796-11.697    C265.416,320.637,264.274,316.764,262.968,312.915z"/>
		<path style="fill:#C75325;" d="M233.589,334.081c1.642,5.116,2.146,10.574,1.559,15.986c-0.314,2.696-0.981,5.42-2.291,7.88    c-1.25,2.46-3.337,4.618-5.902,5.513c2.182-1.618,3.531-3.837,4.463-6.178c0.91-2.361,1.451-4.886,1.714-7.457    c0.317-2.564,0.436-5.171,0.487-7.795C233.635,339.405,233.647,336.761,233.589,334.081z"/>
		<path style="fill:#A1312F;" d="M258.44,223.413l-77.605,61.063c0.162-6.44-6.176-13.307-13.673-10.036    c0,0-0.102-0.061-0.284-0.163l77.039-62.594c0.041,0,0.081-0.02,0.122-0.02C250.398,210.281,258.277,213.661,258.44,223.413z"/>
		<path style="fill:#FD913E;" d="M189.53,278.355c-0.458,0-0.875-0.312-0.986-0.776c-2.463-10.119-10.652-11.078-11-11.114    c-0.557-0.057-0.964-0.554-0.909-1.112c0.058-0.559,0.577-0.963,1.107-0.91c0.099,0.009,9.962,1.095,12.773,12.655    c0.133,0.545-0.2,1.094-0.746,1.227C189.688,278.346,189.609,278.355,189.53,278.355z"/>
		<path style="fill:#FD913E;" d="M245.864,233.287c-0.458,0-0.875-0.311-0.988-0.776c-2.472-10.174-10.908-11.104-10.993-11.113    c-0.56-0.054-0.968-0.55-0.915-1.109c0.053-0.56,0.597-0.951,1.109-0.913c0.099,0.009,9.964,1.094,12.775,12.655    c0.131,0.545-0.203,1.094-0.748,1.227C246.023,233.278,245.943,233.287,245.864,233.287z"/>
		<path style="fill:#A1312F;" d="M209.441,353.084c-0.395,0-0.772-0.232-0.936-0.62l-28.606-67.592    c-0.034-0.083-0.058-0.171-0.07-0.259c-0.566-4.162-2.081-7.043-4.51-8.566c-3.581-2.248-8.077-0.819-8.124-0.804    c-0.288,0.091-0.601,0.055-0.855-0.103l-61.481-38.324c-0.476-0.297-0.621-0.924-0.323-1.4c0.299-0.476,0.931-0.618,1.399-0.324    l61.098,38.086c1.409-0.363,5.656-1.167,9.351,1.138c2.944,1.838,4.774,5.164,5.44,9.889l28.554,67.468    c0.218,0.517-0.024,1.113-0.54,1.331C209.707,353.058,209.574,353.084,209.441,353.084z"/>
		<path style="fill:#5ED6B6;" d="M109.799,188.74c-3.962-6.664-18.075-11.108-18.075-11.108l-0.569,0.142l-0.264,0.061    c0.142-0.081,0.284-0.163,0.447-0.244c5.567-2.905,20.763-6.501,24.237-7.294c0.467-0.102,0.711-0.162,0.711-0.162    c0.061,0.162,0.102,0.325,0.142,0.508C117.607,175.803,109.799,188.74,109.799,188.74z"/>
		<path style="fill:#C75325;" d="M54.943,301.188c0.663-5.103,1.909-10.136,3.707-15.001c1.771-4.864,4.222-9.539,7.344-13.726    c3.143-4.185,7.025-7.864,11.557-10.51c4.501-2.628,9.611-4.425,14.793-4.348c-2.544,0.364-4.993,1.101-7.322,2.089    c-2.339,0.958-4.565,2.162-6.637,3.58c-4.142,2.836-7.788,6.369-10.764,10.403c-3.051,4.011-5.452,8.467-7.53,13.099    c-1.048,2.311-1.95,4.692-2.78,7.105C56.423,296.275,55.701,298.73,54.943,301.188z"/>
		<path style="fill:#C75325;" d="M188.197,397.95c-1.363,2.364-3.186,4.464-5.232,6.323c-2.083,1.825-4.465,3.297-6.963,4.506    c-5.027,2.423-10.57,3.479-16.054,3.912c-2.754,0.176-5.508,0.193-8.256,0.055c-2.734-0.279-5.475-0.454-8.174-0.92l-8.041-1.608    c-2.655-0.621-5.26-1.461-7.856-2.246c2.71,0.338,5.35,0.983,8.052,1.269l8.043,1.034c2.684,0.233,5.377,0.392,8.054,0.548    c2.681,0.077,5.368,0.044,8.034-0.159c5.326-0.372,10.636-1.332,15.57-3.31C180.317,405.398,184.763,402.184,188.197,397.95z"/>
	</g>
	<path style="fill:#A1312F;" d="M275.9,100.34c0.012-1.1,0.299-2.128,0.694-3.103c0.389-0.983,0.935-1.895,1.59-2.742   c0.688-0.817,1.447-1.609,2.42-2.155c0.943-0.556,2.064-0.926,3.159-0.787c-1.687,1.339-2.782,2.685-3.989,4.205   C278.559,97.24,277.443,98.821,275.9,100.34z"/>
</g>















</svg>
