<?xml version="1.0" encoding="UTF-8"?>
<!-- Generator: Adobe Illustrator 26.5.1, SVG Export Plug-In . SVG Version: 6.00 Build 0)  -->
<svg xmlns="http://www.w3.org/2000/svg" xmlns:xlink="http://www.w3.org/1999/xlink" version="1.1" id="Capa_1" x="0px" y="0px" viewBox="0 0 512 512" style="enable-background:new 0 0 512 512;" xml:space="preserve" width="512" height="512">
<g>
	<path style="fill:#FFFFFF;" d="M22.96,512c-9.073,0-16.43-7.356-16.43-16.43V240.502c0-4.46,0.13-9.048,0.386-13.634l0.092-1.393   c0.241-3.913,0.536-7.492,0.901-10.922l0.261-2.29c0.349-3.003,0.77-5.952,1.226-8.893l0.092-0.612   c0.209-1.37,0.417-2.741,0.651-4.086c0.642-3.633,1.408-7.385,2.353-11.517c0,0,0.385-1.745,0.513-2.284   c0.123-0.521,0.574-2.284,0.574-2.284c0.394-1.595,0.804-3.224,1.242-4.84c0.021-0.083,0.115-0.413,0.139-0.495   c1.699-6.221,3.618-12.305,5.715-18.118C39.101,107.81,74.973,63.805,121.674,35.246c0.686-0.431,1.482-0.924,2.274-1.385   c15.72-9.429,32.763-17.099,50.475-22.692c0,0,3.149-0.993,3.266-1.028C200.126,3.412,223.447,0,247.004,0h19.551   c0,0,2.52,0.029,2.615,0.031c42.114,0.738,83.362,12.521,119.284,34.075c14.019,8.401,27.226,18.277,39.312,29.396   c28.117,6.384,52.504,19.991,72.548,40.49c3.805,3.892,5.436,9.415,4.355,14.749l-10.128,49.981   c7.253,23.204,10.928,47.33,10.928,71.78V495.57c0,9.073-7.356,16.43-16.43,16.43H22.96z"/>
	<g>
		<path style="fill:#A27CFF;" d="M489.979,241.547v255.069H223.371l-83.43-17.71l-91.819,17.71H23.899V241.547    c0-1.725,0.027-3.45,0.082-5.148c0-0.767,0.027-1.533,0.055-2.3c0.109-3.615,0.301-7.202,0.602-10.761    c0.137-1.999,0.329-3.998,0.548-5.997c0.082-0.712,0.164-1.451,0.247-2.163c0.246-2.136,0.52-4.272,0.849-6.408    c0.301-2.081,0.63-4.189,0.986-6.243c1.561-8.845,3.642-17.47,6.216-25.904c0.301-1.095,0.657-2.163,1.013-3.231    c0.027-0.192,0.082-0.356,0.164-0.52c0.219-0.685,0.411-1.369,0.657-2.026c0.548-1.725,1.15-3.423,1.752-5.093    c17.361-48.358,50.904-89.021,94.114-115.445c0.657-0.411,1.314-0.822,1.972-1.205c14.704-8.817,30.504-15.964,47.153-21.221    c1.013-0.329,2.026-0.63,3.039-0.958c20.455-6.134,42.142-9.447,64.596-9.447h19.551c0.767,0,1.533,0.027,2.328,0.027    c40.581,0.712,78.533,12.185,111.118,31.736C446.249,88.369,489.979,159.865,489.979,241.547z"/>
		<path style="opacity:0.25;fill:#2F2444;" d="M489.979,241.547v255.069H224.641l-6.748-5.233l-7.929,5.233l-77.305-36.723    l-84.537,36.723H23.899V241.547c0-8.187,0.438-16.238,1.287-24.206c0.082-0.712,0.164-1.451,0.247-2.163    c1.999-17.141,5.969-33.708,11.638-49.426c6.49-2.41,12.979-4.819,19.496-7.229c0.63-0.247,1.287-0.465,1.944-0.712    c7.612-2.82,15.252-5.613,22.892-8.352c0.63-0.274,1.287-0.493,1.944-0.712c3.039-1.123,6.106-2.245,9.173-3.341    c18.291-6.627,36.638-13.144,55.011-19.578c0.712-0.274,1.424-0.52,2.163-0.767c38.034-13.335,76.206-26.26,114.514-38.828    C303.01,73.5,341.921,61.178,380.941,49.239C446.249,88.369,489.979,159.865,489.979,241.547z"/>
		<g>
			<g>
				<g>
					<g>
						<path style="fill:#FBEEE5;" d="M165.11,287.811c0,0,13.283-157.304,48.939-223.722c0,0,77.604-16.08,126.543,20.275        c0,0,87.391-30.762,148.915,32.16L446.86,326.962L165.11,287.811z"/>
						<path style="opacity:0.05;fill:#2F2444;" d="M165.11,287.811c0,0,13.283-157.304,48.939-223.722        c0,0,77.604-16.08,126.543,20.275c0,0,87.391-30.762,148.915,32.16L446.86,326.962L165.11,287.811z"/>
					</g>
					<g>
						<path style="fill:#2F2444;" d="M446.859,327.646c-0.102,0-0.206-0.022-0.304-0.071        c-44.273-21.957-82.643-26.67-107.035-26.758c-26.435-0.049-42.602,5.07-42.762,5.122c-0.222,0.075-0.468,0.026-0.65-0.124        c-0.181-0.15-0.271-0.384-0.241-0.617c5.763-43.223,43.673-219.206,44.055-220.979c0.08-0.369,0.442-0.606,0.814-0.524        c0.369,0.08,0.604,0.444,0.524,0.813c-0.379,1.758-37.685,174.939-43.894,219.824c3.944-1.114,18.955-4.885,41.435-4.885        c0.218,0,0.437,0.001,0.656,0.001c24.551,0.08,63.167,4.812,107.706,26.9c0.339,0.168,0.477,0.579,0.309,0.917        C447.354,327.507,447.111,327.646,446.859,327.646z"/>
						<path style="fill:#2F2444;" d="M446.161,327.646c-0.083,0-0.168-0.015-0.25-0.048c-0.402-0.158-40.648-15.877-75.354-20.933        c-34.694-5.056-73.542-0.74-73.932-0.697c-0.199,0.021-0.399-0.044-0.546-0.181c-0.158-0.148-16.386-14.935-67.494-26.164        c-50.756-11.156-62.773,7.42-62.888,7.609c-0.197,0.32-0.618,0.424-0.94,0.229c-0.323-0.195-0.427-0.614-0.232-0.938        c0.486-0.807,12.504-19.631,64.354-8.238c48.807,10.725,65.683,24.344,67.9,26.289c3.749-0.398,40.744-4.107,73.976,0.735        c34.864,5.08,75.254,20.855,75.658,21.015c0.352,0.138,0.525,0.535,0.387,0.887        C446.692,327.482,446.434,327.646,446.161,327.646z"/>
						<path style="fill:#2F2444;" d="M445.229,327.646c-0.039,0-0.079-0.003-0.119-0.011c-0.503-0.088-50.61-8.899-74.565-12.815        c-23.932-3.912-73.323-7.878-73.819-7.917c-0.053-0.005-0.106-0.015-0.157-0.031c-0.343-0.112-34.583-11.199-63.036-15.121        c-35.868-4.943-68.063-3.273-68.384-3.257c-0.344,0.02-0.641-0.215-0.708-0.548s0.12-0.665,0.44-0.78        c0.215-0.077,22.022-7.693,59.732-3.531c36.413,4.021,69.824,19.986,72.325,21.201c2.955,0.001,45.221-0.067,69.396,3.739        c24.912,3.92,78.526,17.586,79.064,17.724c0.356,0.091,0.577,0.447,0.5,0.808        C445.829,327.426,445.546,327.646,445.229,327.646z M305.266,306.246c15.259,1.319,47.526,4.285,65.499,7.223        c14.461,2.364,38.443,6.511,55.301,9.447c-18-4.372-44.511-10.56-59.946-12.989        C347.921,307.062,319.379,306.396,305.266,306.246z M179.335,286.841c12.85,0,32.964,0.603,54.383,3.555        c21.848,3.011,47.071,10.222,57.892,13.501c-10.774-4.755-37.999-15.682-67.149-18.9c-26.311-2.908-44.779-0.042-53.475,1.934        C173.225,286.88,176.041,286.841,179.335,286.841z"/>
					</g>
				</g>
				<path style="fill:#FFBEFF;" d="M330.283,77.675c-3.177-1.725-6.654-3.439-9.367-4.704c-0.301-2.355-0.765-4.784-1.422-6.974      c-2.136-7.476-7.284-14.266-13.582-16.621c-6.106-2.437-13.856-0.192-18.702,4.737c-5.011,4.956-7.804,12.486-7.968,19.935      c-0.274,7.503,2.382,14.54,6.544,21.824c4.08,7.311,9.557,14.677,13.828,23.796c4.299,9.146,6.709,19.606,5.805,30.367      c-0.602,7.174-2.711,14.348-6.49,20.756l-3.313-12.322l-12.514,2.957c2.574-3.779,4.299-8.406,4.929-13.198      c0.986-7.119-0.246-14.869-3.231-22.07c-2.93-7.339-7.804-14.786-12.13-23.303c-2.163-4.272-4.135-8.927-5.449-13.938      c-1.342-5.011-1.889-10.405-1.479-15.608c0.821-10.378,5.038-20.783,13.171-28.122c4.08-3.669,9.201-6.325,14.595-7.448      c5.395-1.123,11.391-0.739,16.567,1.616c5.203,2.3,9.31,6.079,12.35,10.296c3.039,4.244,5.121,9.009,6.271,13.91      C329.817,68.188,330.228,73.157,330.283,77.675z"/>
			</g>
			<g>
				<g>
					<g>
						<path style="fill:#FBEEE5;" d="M437.075,395.931l-1.068,0.575l-0.082,0.027l-2.218,1.15l-1.698,0.876        c-0.821,0.274-1.725,0.603-2.738,0.931c-12.952,4.463-39.267,13.992-56.764,23.494c-19.852,10.789-50.603,31.189-60.57,37.898        c-0.082,0.055-0.137,0.082-0.192,0.137l-1.424,0.712l-1.972,1.013v0.027l-0.082,0.027l-0.247,0.137l-0.274,0.137        c0,0-0.027,0-0.082,0.027c-0.027-0.027-0.027,0-0.055,0c-0.11,0.027-0.274,0.082-0.52,0.137        c-0.493,0.164-1.26,0.383-2.273,0.685c-0.493,0.137-1.041,0.301-1.643,0.493c-0.027,0-0.027,0-0.055,0.027        c-10.652,3.204-37.596,11.692-58.079,21.003c-7.366,3.341-14.869,7.284-21.851,11.172h-13.226l-62.099-13.981l-60.794-80.817        l-5.559-8.844l-32.448-51.561c0,0,0.246-0.356,0.794-1.013c0-0.055,0.027-0.082,0.082-0.137        c0.027-0.055,0.082-0.109,0.137-0.137c0.602-0.739,1.451-1.835,2.629-3.176c0.274-0.301,0.575-0.657,0.904-1.013        c0.438-0.466,0.904-0.986,1.397-1.533c0.137-0.164,0.301-0.356,0.465-0.52c0.137-0.164,0.301-0.329,0.466-0.493        c0.904-0.986,1.917-2.054,3.012-3.149c0.301-0.329,0.602-0.63,0.931-0.931c0.794-0.821,1.616-1.616,2.492-2.437        c0.246-0.274,0.52-0.52,0.794-0.794c4.491-4.272,10.077-9.146,16.758-14.212c16.183-12.24,38.828-25.658,68.21-34.557        c0.301-0.11,0.63-0.192,0.931-0.274c0.246-0.082,0.493-0.164,0.739-0.219c1.67-0.52,3.341-0.986,5.066-1.424h0.027        c0.328-0.109,0.657-0.219,0.986-0.274c0.247-0.082,0.466-0.137,0.712-0.192c8.297-2.191,17.06-3.998,26.342-5.312        c0.301-0.055,0.603-0.082,0.904-0.11c0.164-0.055,0.356-0.055,0.548-0.082c3.971-0.548,8.051-1.013,12.213-1.369        c0.219-0.027,0.438-0.027,0.657-0.055c0,0,0.109-0.192,0.383-0.548c0.904-1.396,3.669-5.422,8.352-10.843        c1.506-1.725,3.204-3.587,5.12-5.586c0.602-0.657,1.26-1.314,1.917-1.999c4.682-4.71,10.405-9.94,17.278-15.197        c6.709-5.148,14.486-10.351,23.357-15.115c0.794-0.438,1.616-0.876,2.437-1.287c3.149-1.643,6.462-3.231,9.885-4.737        c2.601-1.15,5.285-2.245,8.05-3.313c7.174-2.738,14.869-5.148,23.138-7.065c2.437-0.575,4.929-1.095,7.475-1.561        c11.254-2.136,23.467-3.368,36.638-3.368l95.456,197.867L437.075,395.931z"/>
					</g>
					<g>
						<g>
							<g>
								<path style="fill:#2F2444;" d="M113.304,401.626l62.037,93.502h-1.643l-62.037-93.474l-29.382-44.524l-19.825-30.011          c-0.027-0.082-0.082-0.164-0.082-0.246c-0.055-0.274,0.055-0.548,0.301-0.712c0.137-0.109,0.328-0.137,0.493-0.082          c0.192,0.027,0.356,0.109,0.438,0.274l18.648,28.259L113.304,401.626z"/>
							</g>
							<g>
								<path style="fill:#2F2444;" d="M108.128,401.681l62.616,93.447h-1.643l-62.589-93.447l-24.261-36.446l-23.275-34.968          c0,0,0-0.027-0.027-0.027c-0.192-0.329-0.11-0.739,0.219-0.931c0.219-0.164,0.493-0.164,0.712,0          c0.082,0.027,0.164,0.109,0.219,0.192l22.153,33.297L108.128,401.681z"/>
							</g>
							<g>
								<path style="fill:#2F2444;" d="M101.502,401.708l62.541,93.419h-1.616l-62.568-93.392l-17.744-26.643l-27.109-40.69          l-0.219-0.301c-0.219-0.301-0.137-0.739,0.192-0.958c0.301-0.192,0.739-0.11,0.931,0.191l0.027,0.055L82.17,372.71          L101.502,401.708z"/>
							</g>
							<g>
								<path style="fill:#2F2444;" d="M96.354,401.736l60.412,93.392h-1.616l-60.44-93.365l-12.788-19.77l-29.217-45.044          l-0.027-0.055c-0.219-0.329-0.109-0.739,0.192-0.958c0.247-0.137,0.52-0.137,0.739,0c0.082,0.055,0.164,0.11,0.219,0.219          l28.177,43.456L96.354,401.736z"/>
							</g>
							<g>
								<path style="fill:#2F2444;" d="M90.795,401.79l60.848,93.784H150L89.179,401.79l-7.558-11.638l-31.736-49.07          c-0.137-0.219-0.137-0.465-0.027-0.685c0-0.055,0.027-0.082,0.082-0.137c0.027-0.055,0.082-0.109,0.137-0.137          c0.329-0.192,0.739-0.11,0.958,0.219l30.696,47.427L90.795,401.79z"/>
							</g>
						</g>
						<g>
							<path style="fill:#2F2444;" d="M308.432,463.073c0,0.11-0.027,0.192-0.082,0.301c0,0.055-0.027,0.082-0.055,0.109         c-0.027,0-0.027,0.027-0.027,0.055c-0.027,0-0.027,0.027-0.055,0v0.055c-0.027,0-0.027,0.027-0.055,0.027         c-0.055,0.027-0.082,0.055-0.137,0.055l-0.027,0.027c-0.027,0-0.027,0-0.027,0c-0.027,0.027-0.027,0.027-0.055,0.027         c-0.055,0.027-0.082,0.027-0.137,0.027h-0.027c-0.192,0-1.205,0.055-2.93,0.164c-0.876,0.055-1.944,0.137-3.176,0.246         c-3.039,0.246-7.065,0.602-11.775,1.205c-13.089,1.616-31.326,4.792-47.372,10.898         c-12.103,4.628-23.111,12.596-31.846,20.345h-0.684l-0.635-0.707c0.411-0.383,0.142-0.06,0.581-0.443         c8.817-7.804,19.88-15.8,32.092-20.455c26.26-9.995,58.27-12.213,64.596-12.569L196.656,268.328         c-0.055-0.082-0.082-0.192-0.055-0.274c-0.055-0.247,0.082-0.52,0.329-0.657c0.219-0.137,0.493-0.11,0.712,0.055         c0.082,0.027,0.164,0.11,0.219,0.219l109.996,194.197l0.383,0.685c-0.027,0-0.027,0-0.027,0c0,0.027,0.027,0.027,0.027,0.027         c0.027,0.055,0.082,0.11,0.109,0.164v0.027C308.405,462.854,308.432,462.963,308.432,463.073z"/>
						</g>
						<g>
							<path style="fill:#2F2444;" d="M308.186,463.538c-0.027,0.027-0.027,0.027-0.055,0.055s-0.055,0.055-0.11,0.082l-0.027,0.027         c-0.027,0-0.027,0-0.027,0c-0.027,0.027-0.027,0.027-0.055,0.027c-0.055,0.027-0.082,0.027-0.137,0.027h-0.027         c0,0,0,0.027-0.027,0.027c-4.217,1.232-38.035,11.2-62.405,22.289c-6.928,3.149-14.02,6.846-20.674,10.542h-2.793         c7.311-4.135,15.197-8.297,22.919-11.802c17.771-8.078,40.554-15.581,53.287-19.551c1.314-0.411,2.519-0.767,3.587-1.095         c2.903-0.876,4.929-1.479,5.723-1.698c0,0,0,0,0.027-0.027h0.055c0.027-0.027,0.082-0.027,0.137-0.027         c0.027,0,0.027-0.027,0.055,0c0.192,0,0.383,0.082,0.52,0.219c0.055,0.055,0.082,0.109,0.109,0.164         C308.405,463.045,308.377,463.347,308.186,463.538z"/>
						</g>
						<g>
							<path style="fill:#2F2444;" d="M308.432,463.073c0,0.11-0.027,0.192-0.082,0.301c0,0.055-0.027,0.082-0.055,0.109         c-0.027,0-0.027,0.027-0.027,0.055c-0.027,0.027-0.027,0.027-0.027,0.027l-0.027,0.027c-0.027,0-0.027,0.027-0.055,0.027         c-0.055,0.027-0.082,0.055-0.137,0.055l-0.027,0.027c-0.027,0-0.027,0-0.027,0c-0.027,0.027-0.027,0.027-0.055,0.027         c-0.055,0.027-0.082,0.027-0.137,0.027h-0.027c0,0,0,0.027-0.027,0.027h-0.109c-0.247,0.027-1.835,0.246-4.436,0.63         c-0.027,0-0.027,0-0.055,0.027c-1.397,0.192-3.122,0.466-5.066,0.822c-11.528,1.999-31.6,6.216-49.973,13.801         c-10.816,4.491-21.742,11.117-31.025,17.552h-2.327c9.693-6.846,21.304-14.02,32.832-18.812         c14.896-6.161,30.641-10.077,42.306-12.432c9.146-1.862,15.772-2.711,17.525-2.93v-0.027h0.192c0.027,0,0.027-0.027,0.055,0         c0.027-0.027,0.082-0.027,0.109-0.027c0.192,0,0.329,0.082,0.466,0.164c0,0.027,0.027,0.027,0.027,0.027         c0.027,0.055,0.082,0.11,0.109,0.164v0.027C308.405,462.854,308.432,462.963,308.432,463.073z"/>
						</g>
						<g>
							<path style="fill:#2F2444;" d="M437.76,395.903c0-0.356-0.301-0.657-0.712-0.657h-0.301         c-73.522,1.807-122.811,59.174-128.89,66.622c-0.219,0.246-0.356,0.411-0.466,0.548v0.027         c-0.027,0.027-0.027,0.027-0.027,0.027c-0.109,0.109-0.164,0.164-0.164,0.192c-0.137,0.164-0.192,0.383-0.109,0.575         c0.027,0.11,0.082,0.246,0.192,0.329c0.137,0.137,0.301,0.192,0.465,0.192h0.027c0.055,0,0.082,0,0.137-0.027         c0.027,0,0.027,0,0.055-0.027c0,0,0,0,0.027,0l0.027-0.027c0.055,0,0.082-0.027,0.137-0.055c0.027,0,0.027-0.027,0.055-0.027         l0.027-0.027c0,0,0,0,0.027-0.027c0.192-0.164,0.876-0.794,2.054-1.807c0.904-0.767,2.109-1.78,3.587-3.012         c0.027,0,0.055-0.027,0.082-0.055c11.282-9.42,36.994-29.957,58.106-39.705c15.964-7.393,34.913-13.308,48.084-16.977         c0.164-0.055,0.301-0.109,0.466-0.164c3.313-0.931,6.243-1.698,8.626-2.327c1.889-0.465,3.423-0.849,4.6-1.15l0.548-0.137         c1.068-0.246,1.835-0.438,2.3-0.493c0.356-0.055,0.63-0.411,0.575-0.794c-0.027-0.109-0.082-0.219-0.137-0.301         c0.164-0.027,0.301-0.11,0.411-0.219C437.678,396.259,437.76,396.095,437.76,395.903z M371.522,417.7         c-20.619,9.529-45.565,29.217-57.366,39.048c15.252-16.539,59.365-57.805,120.812-60.078         c-0.274,0.082-0.548,0.137-0.876,0.219l-0.548,0.137C424.918,399.134,394.988,406.829,371.522,417.7z"/>
						</g>
						<g>
							<path style="fill:#2F2444;" d="M308.677,463.755c-0.219,0-0.435-0.106-0.567-0.301c-0.213-0.314-0.13-0.739,0.183-0.951         c0,0,1.096-0.741,3.071-2.056c0.004-0.003,0.136-0.102,0.14-0.104c6.467-4.351,39.556-26.484,60.675-37.961         c18.705-10.17,47.917-20.501,59.608-24.472c1.734-0.586,3.069-1.027,3.934-1.313l0.924-0.294         c0.226-0.079,0.332-0.1,0.429-0.1c0.378,0,0.685,0.306,0.685,0.685c0,0.338-0.245,0.619-0.568,0.675         c-0.167,0.062-0.297,0.108-0.465,0.138l-0.574,0.198c-0.864,0.285-2.195,0.726-3.924,1.309         c-11.658,3.959-40.781,14.259-59.394,24.378c-21.065,11.446-54.106,33.549-60.516,37.864         c-0.032,0.032-0.156,0.112-0.194,0.138c-1.97,1.312-3.063,2.051-3.063,2.051         C308.943,463.718,308.809,463.755,308.677,463.755z"/>
						</g>
					</g>
				</g>
				<g>
					<g>
						<g>
							<g>
								
									<ellipse transform="matrix(0.9763 -0.2163 0.2163 0.9763 -30.2246 52.6061)" style="fill:#FFFFFF;" cx="225.22" cy="164.385" rx="73.492" ry="73.492"/>
							</g>
						</g>
						<g>
							<g>
								<path style="fill:#FFC15C;" d="M246.253,141.41c31.055,19.578,29.031,14.197,9.454,45.251          c-9.103,14.438,2.918,37.319-12.254,41.639c-17.529,5.022-37.033,2.815-53.673-7.676          c-31.079-19.593-40.361-60.634-20.783-91.689c10.491-16.641,27.136-27.042,45.118-30.069          C229.697,96.173,231.839,132.323,246.253,141.41z"/>
							</g>
						</g>
						<g>
							<g>
								<g>
									<path style="fill:#2F2444;" d="M260.686,108.152c11.942,7.529,20.659,18.222,25.751,30.324           c8.183,19.351,7.057,42.238-4.992,61.35c-9.102,14.438-22.82,24.154-37.991,28.474c-15.576,2.629-32.142-0.223-46.556-9.31           c-25.842-16.292-36.613-47.431-28.231-75.318c1.678-5.645,4.162-11.158,7.448-16.371c9.072-14.389,22.78-24.146,38-28.435           C229.697,96.173,246.272,99.065,260.686,108.152z"/>
								</g>
							</g>
							<g style="opacity:0.13;">
								<g>
									<path style="fill:#A27CFF;" d="M286.45,138.477c-0.426,0.104-0.858,0.294-1.244,0.445           c-5.518,2.335-9.345,7.554-11.692,13.061c-2.603,6.189-3.61,13.031-2.882,19.703c0.113,1.156,0.273,2.386,0.22,3.554           c-0.048,1.534-0.401,2.973-1.536,3.983c-1.468,1.261-3.493,1.163-5.498,1.146c-0.823-0.024-1.64-0.022-2.405,0.08           c-0.738,0.096-1.449,0.298-2.089,0.567c-3.082,1.345-5.171,4.561-6.047,8.13c-0.42,1.625-0.576,3.298-0.491,4.912           l0.007,0.027c0.007,0.027-0.014,0.06-0.001,0.113c0.127,2.252,0.626,4.526,0.362,6.79           c-0.167,1.394-0.639,2.693-1.309,3.872l-0.027,0.007c-2.627,4.475-8.452,7.054-13.673,5.99           c-1.393-0.28-2.726-0.772-3.97-1.482c-4.603-2.455-7.93-7.308-9.111-12.488c-1.499-6.596,0.019-13.535,2.683-19.71           c2.509-5.884,6.187-11.828,5.457-18.161c-0.823-7.522-8.781-13.443-16.226-12.075c-10.989,1.98-16.85,16.294-27.973,17.264           c-6.704,0.595-12.849-4.133-16.338-9.877c-2.035-3.252-3.35-6.905-3.987-10.668c-0.216,0.729-0.413,1.426-0.629,2.155           c-0.38,1.446-0.7,2.905-0.993,4.358c-0.198,1.035-0.37,2.063-0.515,3.085c-0.021,0.146-0.048,0.265-0.049,0.378           c-0.138,1.049-0.277,2.097-0.362,3.133c-0.121,1.467-0.215,2.928-0.256,4.375c-0.075,2.922,0.048,5.851,0.391,8.755           c0.069,0.744,0.158,1.455,0.281,2.186c0.16,1.117,0.347,2.227,0.566,3.357c0.194,1.024,0.421,2.068,0.668,3.079           l0.052,0.213c0.188,0.771,0.403,1.536,0.618,2.301c0.124,0.392,0.248,0.785,0.379,1.204l0.019,0.08           c0.111,0.452,0.248,0.898,0.438,1.331l0.02,0.08c0.02,0.08,0.066,0.153,0.085,0.233l0.026,0.106           c0.059,0.239,0.15,0.499,0.235,0.732c0.216,0.652,0.464,1.324,0.733,1.963c0.151,0.386,0.301,0.772,0.452,1.158           c0.263,0.613,0.498,1.232,0.794,1.864c0.262,0.612,0.551,1.218,0.84,1.824c0.578,1.212,1.209,2.411,1.86,3.576           c0.158,0.3,0.309,0.573,0.494,0.866c0.401,0.719,0.823,1.406,1.277,2.112c0.323,0.513,0.645,1.026,0.995,1.533           c0.329,0.54,0.685,1.073,1.067,1.6c0.56,0.793,1.141,1.554,1.728,2.34c0.039,0.047,0.079,0.093,0.119,0.14           c0.653,0.827,1.333,1.648,2.039,2.462c0.7,0.787,1.406,1.601,2.159,2.376c0.535,0.574,1.09,1.115,1.678,1.676           c0.112,0.113,0.231,0.254,0.37,0.361c0.185,0.18,0.376,0.387,0.595,0.588c0.661,0.628,1.348,1.249,2.056,1.837           c0.714,0.615,1.428,1.23,2.189,1.805c0.205,0.147,0.39,0.328,0.595,0.475c0.589,0.448,1.177,0.896,1.793,1.338           c0.304,0.208,0.576,0.395,0.88,0.603c0.82,0.589,1.661,1.145,2.528,1.694c1.8,1.139,3.635,2.185,5.496,3.111           c0.934,0.477,1.888,0.92,2.835,1.337c0.45,0.228,0.921,0.423,1.411,0.585c0.822,0.363,1.663,0.693,2.498,0.996           c0.935,0.364,1.889,0.694,2.811,1.005c0.948,0.304,1.89,0.581,2.858,0.852c0.875,0.237,1.777,0.468,2.673,0.672           c0.119,0.027,0.212,0.061,0.332,0.088l0.027-0.006c0.026-0.006,0.06,0.014,0.119,0.027c0.027-0.007,0.06,0.013,0.086,0.007           c0.982,0.211,1.957,0.396,2.959,0.574c0.796,0.144,1.586,0.261,2.402,0.372c0.352,0.055,0.703,0.11,1.049,0.138           c0.026-0.007,0.06,0.014,0.086,0.007c0.584,0.083,1.188,0.133,1.766,0.189c0.06,0.014,0.086,0.007,0.146,0.021           c1.732,0.169,3.472,0.251,5.192,0.254c0.598,0.023,1.189,0.02,1.8-0.017c0.538,0.01,1.096-0.014,1.627-0.031           c0.644-0.017,1.282-0.06,1.92-0.103c0.445-0.024,0.89-0.048,1.355-0.106c0.166-0.012,0.359-0.031,0.525-0.044           c0.578-0.057,1.183-0.12,1.754-0.203c0.957-0.121,1.881-0.262,2.831-0.41c15.179-4.329,28.899-14.051,38.002-28.48           c1.259-1.999,2.373-4.018,3.393-6.072c0.456-0.901,0.88-1.822,1.297-2.769c0.054-0.126,0.114-0.225,0.141-0.345           c0.43-1.007,0.854-2.041,1.225-3.062c0.013-0.06,0.054-0.126,0.067-0.186c0.33-0.842,0.62-1.73,0.89-2.585           c0.229-0.676,0.432-1.346,0.609-2.009c0.25-0.822,0.474-1.638,0.664-2.474c0.02-0.033,0.034-0.093,0.027-0.119           c0.142-0.458,0.251-0.935,0.333-1.406c0.136-0.597,0.265-1.221,0.395-1.844c0.014-0.06,0.021-0.146,0.034-0.206           c0.007-0.086,0.021-0.146,0.054-0.239c0.034-0.206,0.069-0.411,0.103-0.617c0.199-1.148,0.384-2.349,0.517-3.537           c0.091-0.783,0.181-1.566,0.239-2.37c0.121-1.58,0.216-3.153,0.225-4.734c0.004-0.79,0.009-1.581-0.014-2.365           c-0.022-0.897-0.051-1.707-0.092-2.571c-0.007-0.027,0.007-0.086,0.001-0.113c-0.006-0.139-0.018-0.305-0.024-0.445           c-0.013-0.053-0.006-0.139-0.019-0.193c-0.019-0.193-0.038-0.385-0.057-0.578c-0.036-0.611-0.087-1.163-0.17-1.734           c0.014-0.06,0.007-0.086-0.006-0.139l-0.007-0.027c-0.013-0.053-0.006-0.139-0.019-0.192           c-0.063-0.605-0.12-1.183-0.236-1.775c-0.141-1.037-0.301-2.04-0.488-3.038c-0.051-0.326-0.123-0.618-0.174-0.944           c-0.181-0.858-0.356-1.689-0.564-2.54C288.951,145.139,287.84,141.745,286.45,138.477z M211.835,160.511           c-0.085-2.657,1.297-5.306,3.516-6.722c2.506-1.627,5.352-0.941,7.554,0.804c2.268,1.785,4.154,4.426,4.039,7.3           c-0.12,2.51-1.812,4.812-4.102,5.823c-2.297,0.984-5.044,0.697-7.169-0.616           C213.435,165.674,211.941,163.135,211.835,160.511z M214.211,175.66c0.164-0.942,1.006-1.768,1.949-1.716l0.717-0.062           c1.121,0.205,2.201,0.815,2.853,1.755c0.652,0.94,0.852,2.216,0.368,3.236c-0.477,1.047-1.63,1.751-2.771,1.579           c-1.115-0.179-1.96-1.1-2.512-2.092C214.361,177.54,214.014,176.582,214.211,175.66z M195.597,202.73           c-1.115-0.066-2.163-0.43-3.136-0.953c-4.165-2.28-6.43-7.28-6.066-12.02c0.078-0.949,0.243-1.891,0.752-2.692           c1.654-2.575,7.784-1.366,10.016-0.192c2.292,1.188,4.08,3.316,4.85,5.777c0.712,2.222,0.572,4.765-0.594,6.798           C200.219,201.459,197.94,202.862,195.597,202.73z M209.738,213.538c-0.678,1.265-2.412,1.548-3.799,1.182           c-2.566-0.698-6.098-6.037-2.204-7.523C206.364,206.188,211.147,210.882,209.738,213.538z M200.538,170.459           c-0.804-1.213-1.207-2.749-0.828-4.195c0.969-3.648,5.529-3.211,7.428-0.631c0.976,1.34,1.252,3.161,0.699,4.706           c-0.196,0.583-0.491,1.106-0.925,1.523c-0.888,0.865-2.264,1.117-3.465,0.818           C202.268,172.348,201.243,171.499,200.538,170.459z M213.394,200.58c-0.977,0.041-1.977-0.363-2.671-1.011           c-1.117-0.996-1.639-2.672-1.167-4.084c1.561-5.033,7.543-2.125,6.828,2.335c-0.076,0.498-0.238,0.988-0.526,1.425           C215.323,200.053,214.344,200.546,213.394,200.58z"/>
								</g>
							</g>
						</g>
						<g>
							<g>
								<path style="fill:#FFFFFF;" d="M231.062,118.055c2.251,1.609,5.007,2.329,7.45,3.629c3.463,1.843,6.207,4.797,9.54,6.866          c3.332,2.069,7.831,3.132,11.079,0.932c3.191-2.163,3.899-6.837,2.434-10.402c-1.465-3.565-4.607-6.17-7.902-8.171          c-4.463-2.71-26.772-12.337-27.216-1.591C226.306,112.711,228.357,116.122,231.062,118.055z"/>
							</g>
							<g>
								<path style="fill:#FFFFFF;" d="M263.918,137.138c-0.145,2.811,1.399,5.567,3.683,7.212c1.453,1.046,3.265,1.695,5.037,1.441          c2.29-0.327,4.217-2.199,4.843-4.426c0.625-2.227,0.03-4.706-1.343-6.568c-1.432-1.943-4.673-4.311-7.245-3.953          C266.111,131.231,264.05,134.581,263.918,137.138z"/>
							</g>
						</g>
					</g>
					<g>
						<g>
							<path style="fill:#FFFFFF;" d="M190.774,223.871l-14.024,25.974c-2.922,5.412-8.851,8.078-13.316,5.989l0,0         c-4.514-2.112-5.836-8.285-2.953-13.79l14.674-28.02L190.774,223.871z"/>
						</g>
					</g>
				</g>
				<g>
					<g>
						<g>
							<path style="fill:#FF9393;" d="M82.252,362.797c0.027-1.917,0.027-3.806,0.027-5.668c0-0.849,0-1.698-0.027-2.519         c-0.137-19.058-1.123-33.544-2.328-42.744c-0.465-3.834-0.986-6.736-1.506-8.68c-2.793-10.707-6.517-40.088-6.517-40.088         l2.355-29.765l0.137-1.561l1.013-12.87c0-0.137,0.027-0.274,0.055-0.411c0.11-0.52,0.383-0.958,0.739-1.314         c0.685-0.685,1.725-1.013,2.738-0.685c4.189,1.287,10.871,6.052,11.117,23.166c0.027,0.356,0.027,0.712,0.027,1.068         l26.835-22.837v-0.027l1.232-1.013l10.761-9.173c1.15-0.986,2.902-0.849,3.888,0.329c2.738,3.341,6.599,10.542-1.205,19.113         c-0.164,0.192-0.329,0.383-0.52,0.575l1.068-0.082l16.293-1.205l1.287-0.109c0,0,0.192-0.11,0.575-0.329         c2.081-1.15,9.529-5.066,15.855-5.969c1.999-0.274,3.888-0.274,5.476,0.219l-2.273,5.723l-1.013,2.574l-11.227,28.204         l-8.05,20.318l-7.256,18.237c0,0,0.164,0.219,0.493,0.383c0.931,0.465,3.204,0.411,6.955-6.435         c0.137-0.246,0.274-0.52,0.438-0.822c0.027-0.055,0.027-0.082,0.055-0.137c1.424-2.82,3.505-7.612,6.134-13.144         c2.574-5.449,5.723-11.556,9.31-17.087h0.027c4.299-6.626,9.283-12.377,14.759-15.006c0.822-0.411,1.67-0.739,2.519-0.986         c2.026-0.602,4.107-0.739,6.243-0.329c0.055,0,0.082,0.027,0.137,0.055h0.027c0.602,0.137,1.095,0.493,1.424,0.958         c0.52,0.685,0.712,1.643,0.383,2.519c-0.247,0.739-0.575,1.67-0.904,2.711c-0.986,3.012-2.273,7.174-3.697,12.404v0.027         c-0.055,0.274-0.137,0.575-0.219,0.849c-0.657,2.519-1.369,5.285-2.054,8.27c-1.67,7.229-3.368,15.772-4.764,25.302         c-0.027,0.082-0.027,0.192-0.055,0.274c-0.657,4.408-1.232,9.036-1.698,13.856v0.027c-0.876,8.571-1.424,17.716-1.506,27.328         c-0.137,14.568,1.314,38.199,3.478,64.924v0.329c2.492,30.614,5.914,57.694,9.064,87.487l-59.379-41.288l-56.57,40.483         c3.615-26.205,6.117-47.963,7.87-73.648c0.301-4.354,0.575-8.598,0.794-12.733c0.164-3.012,0.301-5.969,0.438-8.872         c0.055-0.958,0.082-1.889,0.11-2.82c0.055-0.821,0.082-1.588,0.11-2.382c0.082-1.971,0.137-3.888,0.192-5.778         c0.027-0.794,0.055-1.588,0.082-2.382c0.027-1.533,0.082-3.039,0.109-4.518c0-0.794,0.027-1.588,0.055-2.382         c0.027-2.546,0.055-5.066,0.082-7.475C82.252,364.413,82.279,363.592,82.252,362.797z"/>
						</g>
						<g>
							<g>
								<path style="fill:#2F2444;" d="M85.409,278.708c-0.003,0-0.007,0-0.011,0c-0.377-0.005-0.679-0.317-0.674-0.695          c0.019-1.293,0.519-31.744,4.789-37.676c4.205-5.84,39.201-32.79,40.689-33.934c0.203-0.156,0.473-0.183,0.707-0.078          c0.074,0.035,7.447,3.569,6.211,10.986c-1.193,7.16-5.418,10.751-5.597,10.9c-0.296,0.241-0.723,0.202-0.963-0.087          c-0.243-0.289-0.204-0.721,0.086-0.964c0.04-0.033,4.019-3.44,5.124-10.073c0.92-5.515-3.729-8.569-5.081-9.331          c-3.736,2.884-36.192,28.003-40.064,33.381c-4.02,5.587-4.527,36.585-4.531,36.898          C86.089,278.408,85.783,278.708,85.409,278.708z"/>
							</g>
							<g>
								<path style="fill:#2F2444;" d="M93.973,279.872c-0.086,0-0.173-0.016-0.257-0.049c-0.35-0.142-0.52-0.542-0.378-0.892          c0.574-1.419,14.119-34.823,20.804-40.804c6.562-5.871,14.998-10.993,18.42-11.183c3.101-0.173,16.97-1.328,17.109-1.338          c0.364-0.029,0.707,0.247,0.739,0.626c0.032,0.376-0.249,0.707-0.626,0.738c-0.139,0.012-14.027,1.167-17.147,1.341          c-2.758,0.154-10.659,4.642-17.584,10.838c-6.449,5.769-20.307,39.951-20.446,40.296          C94.5,279.71,94.243,279.872,93.973,279.872z"/>
							</g>
							<g>
								<path style="fill:#2F2444;" d="M139.068,302.594c-0.084,0-0.17-0.016-0.254-0.048c-0.35-0.14-0.521-0.539-0.382-0.891          l32.245-80.87c-5.281-0.686-11.974-0.349-23.335,8.09c-11.993,8.909-40.269,53.892-40.553,54.345          c-0.199,0.324-0.622,0.417-0.944,0.217c-0.321-0.201-0.417-0.623-0.217-0.944c1.166-1.86,28.698-45.656,40.897-54.717          c12.402-9.215,19.52-9.074,25.211-8.225c0.206,0.031,0.388,0.154,0.492,0.336c0.104,0.182,0.12,0.4,0.043,0.595          l-32.568,81.681C139.597,302.431,139.339,302.594,139.068,302.594z"/>
							</g>
							<g>
								<path style="fill:#2F2444;" d="M178.585,401.591c0,0-1.399-17.483-1.924-24.825c-0.549-7.699-1.92-48.727-0.698-67.91          c1.218-19.133,10.194-53.018,12.448-59.264c1.618-4.479,1.674-6.459,1.618-7.12c-3.058-1.038-6.248-0.801-9.492,0.713          c-12.616,5.884-24.017,30.158-28.764,43.573c-4.042,11.421-9.271,15.526-9.492,15.694c-0.303,0.231-0.729,0.171-0.959-0.126          c-0.23-0.299-0.175-0.729,0.124-0.96c0.051-0.039,5.144-4.071,9.034-15.066c1.328-3.752,13.437-36.874,29.478-44.356          c3.713-1.734,7.384-1.945,10.908-0.627c0.172,0.065,0.312,0.195,0.386,0.364c0.135,0.305,0.697,2.141-1.554,8.376          c-2.242,6.208-11.16,39.876-12.37,58.887c-1.218,19.124,0.15,60.044,0.698,67.724c0.525,7.338,1.921,24.813,1.921,24.813          L178.585,401.591z"/>
							</g>
							<g>
								<path style="fill:#2F2444;" d="M185.514,261.376c-0.241,0-0.476-0.128-0.6-0.356c-1.436-2.615-1.897-5.875-1.3-9.176          c0.504-2.773,1.742-5.612,3.682-8.435c0.607-0.885,1.578-2.062,2.976-2.062c0.001,0,0.003,0,0.004,0          c0.377,0,0.683,0.308,0.683,0.686c0,0.377-0.308,0.683-0.685,0.683c0,0,0,0-0.001,0c0,0,0,0-0.001,0          c-0.574,0-1.161,0.467-1.848,1.468c-1.829,2.663-2.995,5.323-3.463,7.903c-0.543,2.995-0.132,5.932,1.153,8.275          c0.182,0.332,0.06,0.747-0.271,0.929C185.738,261.349,185.626,261.376,185.514,261.376z"/>
							</g>
							<g>
								<path style="fill:#2F2444;" d="M121.274,221.693c-0.33,0-0.652-0.029-0.968-0.088c-1.138-0.213-2.194-0.923-2.826-1.901          c-0.516-0.799-0.689-1.703-0.485-2.547c0.09-0.368,0.463-0.588,0.826-0.505c0.368,0.09,0.594,0.46,0.505,0.826          c-0.147,0.61,0.084,1.143,0.304,1.483c0.426,0.659,1.164,1.156,1.928,1.3c1.229,0.229,2.653-0.144,4.368-1.14          c3.716-2.158,6.533-5.557,7.728-9.325c0.114-0.36,0.493-0.556,0.86-0.445c0.36,0.114,0.56,0.499,0.445,0.86          c-1.297,4.087-4.339,7.767-8.346,10.095C124.009,221.235,122.579,221.693,121.274,221.693z"/>
							</g>
							<g>
								<path style="fill:#2F2444;" d="M74.303,233.343c-0.234,0-0.463-0.122-0.591-0.338c-0.191-0.326-0.082-0.746,0.245-0.937          c2.312-1.354,3.928-3.852,4.22-6.518c0.251-2.312-0.501-4.717-1.992-6.503c-0.286,0.044-0.568-0.152-0.678-0.439          l-0.225-0.586c-0.114-0.297-0.008-0.634,0.255-0.812c0.262-0.179,0.615-0.15,0.849,0.064          c2.28,2.111,3.487,5.339,3.151,8.423c-0.337,3.089-2.21,5.982-4.888,7.552C74.539,233.312,74.42,233.343,74.303,233.343z"/>
							</g>
						</g>
					</g>
					<g>
						<path style="fill:#6ADEEB;" d="M47.996,496.616c2.163-34.228,8.762-68.867,26.588-69.223l1.725-25.521l4.765-0.027        l5.997-0.028l2.108-0.027h1.616l3.916-0.027l1.643-0.027h3.505l1.643-0.027l5.011-0.027h1.616l3.533-0.027l1.643-0.027        l65.253-0.411h1.369l4.765-0.027l1.396,23.768c0,0,14.677,1.041,19.223,14.321c1.999,5.833,3.532,30.422,4.6,56.189        c0.027,0.383,0.027,0.767,0.055,1.15H47.996z"/>
					</g>
				</g>
			</g>
		</g>
		<g>
			<g>
				<path style="fill:#2F2444;" d="M489.979,352.611v-2.163c-13.856,4.107-25.192,10.433-33.735,18.812      c-10.104,9.913-15.991,22.81-16.156,35.406c-0.027,3.998,0.52,7.777,1.643,11.145c-6.654,6.681-10.57,13.637-11.665,20.701      c-0.52,3.368-0.383,6.791-0.246,10.104c0.082,2.273,0.192,4.628,0.055,6.9c-0.876,15.937-14.485,29.929-29.108,29.957      c-6.791-0.082-13.472-2.629-19.88-5.203c-0.986-0.383-1.972-0.767-2.957-1.15c-14.157-5.504-25.931-7.886-37.076-7.503      c-13.856,0.52-26.452,5.805-34.53,14.54c-3.368,3.642-5.887,7.941-7.475,12.459h2.163c1.506-4.025,3.806-7.804,6.818-11.062      c7.722-8.324,19.798-13.39,33.105-13.883c10.844-0.383,22.372,1.944,36.255,7.366c0.958,0.383,1.944,0.767,2.93,1.15      c6.572,2.629,13.363,5.34,20.564,5.34h0.082c15.663-0.027,30.203-14.951,31.161-31.901c0.137-2.383,0.027-4.765-0.055-7.092      c-0.137-3.231-0.247-6.544,0.219-9.721c0.986-6.38,4.491-12.733,10.433-18.867c1.041,2.41,2.382,4.573,3.998,6.435      c5.148,5.805,13.198,8.05,19.633,5.449c3.56-1.451,6.462-4.628,7.749-8.544c1.15-3.477,0.849-6.955-0.876-9.775      c-2.793-4.6-9.064-6.955-15.225-5.723c-6.051,1.205-11.008,5.285-14.212,8.242c-0.082,0.082-0.137,0.137-0.219,0.192      c-0.849-2.903-1.26-6.134-1.232-9.529c0.164-12.076,5.805-24.453,15.526-33.954      C465.827,362.716,476.726,356.609,489.979,352.611z M444.989,415.536c3.012-2.793,7.667-6.627,13.226-7.749      c4.354-0.876,10.323,0.274,13.061,4.792c1.397,2.3,1.643,5.148,0.685,8.078c-1.123,3.313-3.56,6.052-6.572,7.257      c-5.531,2.273-12.815,0.192-17.333-4.902c-1.643-1.862-2.957-4.107-3.943-6.654C444.387,416.084,444.688,415.81,444.989,415.536      z"/>
			</g>
			<g>
				<path style="fill:#2F2444;" d="M145.232,85.412c-1.315-3.587-2.875-7.119-4.354-10.57c-2.519-5.723-5.121-11.665-6.599-17.799      c-0.657-2.711-1.04-5.395-1.123-7.941c-0.657,0.383-1.314,0.794-1.972,1.205c0.137,2.328,0.52,4.737,1.095,7.202      c1.533,6.325,4.162,12.35,6.709,18.155c1.479,3.423,3.012,6.928,4.299,10.433c4.792,13.089,6.189,26.945,4.244,39.732      c-1.232,8.023-3.724,15.608-7.503,22.371c-10.789,19.332-32.448,31.298-52.766,29.08c-2.711-0.301-5.339-0.849-7.831-1.615      c3.779-7.202,7.448-17.607,3.916-26.917c-0.11-0.274-0.219-0.548-0.329-0.821c-2.163-4.984-7.448-9.009-13.144-9.967      c-4.546-0.767-8.571,0.465-11.336,3.478c-4.463,4.847-3.943,11.911-1.972,17.087c0.192,0.52,0.411,1.041,0.63,1.506      c3.532,7.53,10.515,13.5,19.25,16.786c-10.871,19.058-29.902,32.804-51.014,38.363c-0.082,0.712-0.164,1.451-0.247,2.163      c22.07-5.586,42.032-19.907,53.232-39.842c2.738,0.876,5.641,1.479,8.626,1.807c21.112,2.328,43.62-10.077,54.793-30.093      c4.053-7.284,6.709-15.498,7.859-24.151C151.475,112.247,149.996,98.473,145.232,85.412z M77.597,174.734      c-0.055,0.082-0.11,0.164-0.137,0.247c-8.379-3.067-15.06-8.68-18.401-15.827c-0.192-0.438-0.383-0.876-0.548-1.342      c-1.862-4.874-2.081-11.062,1.534-14.978c1.835-1.999,4.354-3.04,7.284-3.04c0.712,0,1.451,0.082,2.218,0.192      c5.038,0.849,9.693,4.381,11.583,8.762c0.11,0.247,0.192,0.465,0.274,0.712C84.716,158.058,81.184,167.888,77.597,174.734z       M267.495,17.476C262.046,27.361,251.558,35,238.99,37.793c-12.952,2.903-27.602,1.041-43.511-5.504      c-2.738-1.123-5.422-2.327-8.105-3.56c-1.342-0.602-2.683-1.205-4.025-1.807c-1.013,0.329-2.026,0.63-3.039,0.958      c2.108,0.876,4.162,1.807,6.216,2.738c2.711,1.205,5.422,2.437,8.16,3.56c16.32,6.709,31.38,8.598,44.771,5.614      c13.527-3.012,24.781-11.419,30.367-22.29C269.028,17.503,268.262,17.476,267.495,17.476z"/>
			</g>
		</g>
	</g>
</g>















</svg>
