<?xml version="1.0" encoding="UTF-8"?>
<!-- Generator: Adobe Illustrator 26.5.1, SVG Export Plug-In . SVG Version: 6.00 Build 0)  -->
<svg xmlns="http://www.w3.org/2000/svg" xmlns:xlink="http://www.w3.org/1999/xlink" version="1.1" id="Capa_1" x="0px" y="0px" viewBox="0 0 512 512" style="enable-background:new 0 0 512 512;" xml:space="preserve" width="512" height="512">
<g>
	<path style="fill:#FFFFFF;" d="M21.77,511.992c-8.862,0-16.048-7.185-16.048-16.048V279.463c0-11.071,0.722-22.112,2.146-32.82   c0.09-0.778,0.238-1.797,0.387-2.814c4.545-31.837,14.99-61.965,31.078-89.703L20.441,40.038c-3.213-6.832-1.23-15.196,5.1-19.796   c0.496-0.36,12.097-8.675,28.971-11.276c7.415-1.997,14.846-3.009,22.102-3.009c13.339,0,23.688,3.422,30.225,6.442   C133.198,4.17,159.092,0,183.882,0c41.266,0,69.639,11.59,82.611,18.303c9.137-3.38,20.818-6.41,33.342-6.41   c1.947,0,3.898,0.074,5.796,0.221c2.63,0.17,5.519,0.56,8.386,1.149c14.59,2.915,34.437,12.13,47.289,39.131   c6.576,3.045,12.956,6.338,19.036,9.823l0.787,0.456c0.609,0.35,1.217,0.703,1.826,1.075c14.123,8.302,27.54,18.112,39.879,29.16   c0.761,0.676,1.561,1.416,2.359,2.155c2.59,2.365,5.232,4.892,7.782,7.445c1.845,1.843,3.666,3.721,5.434,5.629   c0.707,0.738,1.39,1.476,2.07,2.212c16.635,18.135,30.467,38.513,41.144,60.603c0.046,0.095,1.268,2.731,1.591,3.453   c15.272,32.861,23.063,68.278,23.063,105.058v216.482c0,8.862-7.185,16.048-16.048,16.048c0,0-266.065,0.008-266.202,0.008   C223.899,512,21.77,511.992,21.77,511.992z"/>
	<g>
		<path style="fill:#FFBEFF;" d="M488.866,277.755v216.483H20.408V277.755c0-10.404,0.669-20.648,2.006-30.704    c0.107-0.91,0.241-1.819,0.374-2.728C38.996,130.785,136.593,43.539,254.623,43.539c42.366,0,82.084,11.233,116.372,30.892    c0.776,0.455,1.551,0.883,2.327,1.364c13.4,7.863,25.944,17.064,37.445,27.361c0.722,0.642,1.444,1.311,2.166,1.979    c2.487,2.273,4.948,4.627,7.328,7.007c1.739,1.738,3.45,3.504,5.109,5.296c0.669,0.695,1.311,1.391,1.952,2.086    c15.433,16.823,28.431,35.893,38.488,56.702c0.455,0.99,0.936,2.006,1.391,3.022C481.109,209.178,488.866,242.557,488.866,277.755    z"/>
		<g>
			<g>
				<g>
					<path style="fill:#2F2444;" d="M57.531,402.418c6.419-22.172,12.597-47.795,4.333-71.225c-0.187-0.535-0.374-1.043-0.588-1.551       c0.829-1.284,1.525-2.595,2.06-3.959c3.236-7.97,3.129-17.465-0.294-29.073c-5.323-17.973-16.208-34.449-30.705-46.351       c-2.889-2.38-6.178-4.467-9.548-5.938c-0.134,0.91-0.267,1.819-0.374,2.728c2.889,1.364,5.724,3.183,8.238,5.269       c14.068,11.581,24.66,27.575,29.822,45.041c3.21,10.859,3.343,20.06,0.401,27.308c-0.267,0.642-0.562,1.284-0.909,1.926       c-2.541-5.376-5.804-9.361-9.762-11.875c-5.563-3.53-14.389-4.333-19.819,1.177c-3.183,3.236-4.172,7.944-2.675,12.918       c1.712,5.777,6.232,10.27,11.528,11.447c7.783,1.712,15.299-2.22,20.14-8.024c7.917,22.627,1.872,47.688-4.413,69.433       l-1.284,4.413c-6.339,21.718-12.891,44.158-9.013,66.518c1.31,7.516,4.279,15.004,8.505,21.637h3.21       c-4.547-6.66-7.73-14.363-9.067-22.092c-3.798-21.745,2.675-43.89,8.933-65.314L57.531,402.418z M39.825,337.639       c-4.306-0.936-8.131-4.788-9.548-9.575c-1.204-4.039-0.455-7.783,2.006-10.297c2.193-2.22,5.189-3.156,8.238-3.156       c2.942,0,5.911,0.883,8.265,2.354c3.878,2.487,7.061,6.633,9.495,12.357C54.081,335.098,47.047,339.217,39.825,337.639z"/>
				</g>
				<g>
					<path style="fill:#2F2444;" d="M465.811,176.227c-6.606-1.364-12.892-3.504-18.669-6.392       c-15.459-7.703-27.094-21.29-32.363-36.295c5.322-3.397,9.709-8.345,12.544-14.015c-0.642-0.695-1.284-1.391-1.952-2.086       c-2.461,5.43-6.499,10.19-11.447,13.48c-2.166-7.195-2.835-14.657-1.792-21.905c0.214-1.418,0.481-2.728,0.802-3.878       c-0.722-0.669-1.444-1.337-2.166-1.979c-0.562,1.605-0.99,3.423-1.284,5.483c-1.123,7.837-0.348,15.914,2.086,23.67       c-1.926,1.043-3.985,1.872-6.098,2.434c-13.106,3.477-28.351-3.21-34.69-15.192c-5.429-10.244-4.279-21.932-2.38-29.956       c1.123-4.734,2.782-9.388,4.921-13.801c-0.776-0.481-1.551-0.909-2.327-1.364c-2.273,4.654-4.012,9.575-5.189,14.55       c-2.033,8.452-3.21,20.862,2.594,31.828c6.9,13.025,23.483,20.274,37.766,16.529c2.167-0.588,4.279-1.418,6.259-2.461       c5.59,15.486,17.599,29.421,33.513,37.364c6.526,3.263,13.694,5.59,21.263,7.007       C466.747,178.233,466.265,177.216,465.811,176.227z"/>
				</g>
				<g>
					<path style="fill:#2F2444;" d="M434.732,382.145c-25.73,8.612-45.602,32.47-49.4,59.35c-0.455,3.049-0.642,5.938-0.588,8.666       c-17.786,3.129-34.476,11.688-47.367,24.526c-5.831,5.831-10.805,12.437-14.764,19.551h3.156       c3.718-6.473,8.238-12.437,13.48-17.652c12.25-12.169,28.565-20.514,45.656-23.67c0.401,4.681,1.578,8.8,3.53,12.33       c3.798,6.82,12.196,12.678,20.969,10.699c4.413-1.016,8.265-4.467,10.083-9.014c1.605-3.958,1.31-8.024-0.776-11.18       c-2.996-4.493-8.639-6.767-17.278-6.9c-4.681-0.08-9.388,0.214-14.015,0.883c-0.027-2.461,0.16-5.082,0.562-7.863       c3.664-25.89,22.814-48.892,47.608-57.183c17.358-5.831,36.803-4.226,53.278,3.584v-2.942       C472.016,377.705,452.331,376.261,434.732,382.145z M401.406,451.524c7.676,0.107,12.624,1.979,15.085,5.697       c1.578,2.407,1.765,5.59,0.535,8.719c-1.498,3.691-4.707,6.58-8.211,7.382c-7.489,1.712-14.737-3.423-18.027-9.361       c-1.819-3.263-2.889-7.114-3.236-11.501C392.125,451.765,396.779,451.444,401.406,451.524z"/>
				</g>
			</g>
			<g>
				<g>
					<path style="fill:#2F2444;" d="M97.077,410.603l9.56,45.035c0.601,2.829,4.641,2.824,5.234-0.007l8.135-38.822L97.077,410.603z       "/>
					<path style="fill:#2F2444;" d="M209.256,447.452l10.754,44.765c0.676,2.812,4.714,2.7,5.232-0.146l7.1-39.024L209.256,447.452z       "/>
					<path style="fill:#2F2444;" d="M419.113,426.52l6.242,40.684c0.436,3.118,4.345,3.349,5.064,0.3l9.84-47.028L419.113,426.52z"/>
				</g>
				<g>
					<path style="fill:#F96756;" d="M453.988,444.38l-231.599,18.482l-2.27-0.813l-2.903-1.052L88.506,414.732       c0,0,1.11-51.001-3.701-90.378c-4.812-39.351-18.051-96.381-18.051-96.381l-0.712-4.338l-0.478-2.803l-31.17-188.23       c7.866-4.64,15.241-7.694,22.008-9.594c0.028-0.026,0.055-0.025,0.081-0.024c29.261-8.236,47.337,5.087,47.337,5.087       c0.543-0.193,1.085-0.359,1.627-0.524l0.027,0.001c100.571-33.303,158.484,6.866,158.484,6.866       c11.529-5.218,25.493-9.055,39.076-8.008c2.163,0.139,4.292,0.438,6.39,0.869c14.712,2.938,28.415,12.448,37.337,33.198       c18.359,42.644-27.824,127.38-27.824,127.38l128.576,16.549c0.879,0.115,1.7,0.335,2.491,0.634       c1.054,0.417,2.05,0.964,2.904,1.694c2.438,1.97,3.976,5.029,3.923,8.4l-1.668,129.968l-0.053,2.701L453.988,444.38z"/>
					<g>
						<g>
							<path style="fill:#2F2444;" d="M256.003,367.281L241.996,225.42c-0.396-4.012-3.305-7.31-7.234-8.207L129.84,193.287         c-53.792-3.487-62.197,29.24-62.528,30.633l-2.604-0.61c0.085-0.364,9.127-36.234,65.515-32.662l105.133,23.957         c5.054,1.153,8.792,5.395,9.301,10.552l13.744,139.2l176.37-17.433l21.274-1.894l0.237,2.665l-21.261,1.892L256.003,367.281z         "/>
						</g>
						<g>
							<path style="fill:#2F2444;" d="M217.783,464.114c-4.232-21.884-4.057-44.582-3.887-66.533         c0.177-22.849,0.36-46.478-4.467-69.037c-1.449-6.774-3.379-13.576-5.245-20.154c-2.182-7.693-4.439-15.649-5.962-23.664         c-3.399-17.9-2.175-33.084,3.639-45.126c6.252-12.946,21.12-24.923,37.5-22.767l-0.351,2.652         c-15.086-1.988-28.906,9.197-34.741,21.277c-5.56,11.515-6.71,26.139-3.419,43.464c1.5,7.899,3.74,15.797,5.907,23.433         c1.877,6.62,3.82,13.466,5.287,20.324c4.888,22.846,4.704,46.624,4.526,69.618c-0.169,21.819-0.344,44.381,3.838,66.005         L217.783,464.114z"/>
						</g>
						<g>
							<path style="fill:#2F2444;" d="M440.471,346.425c0.022-0.544,1.937-54.614-16.523-65.772         c-18.743-11.343-172.12,6.079-173.667,6.257l-0.305-2.657c6.356-0.727,155.837-17.684,175.356-5.889         c19.804,11.972,17.901,65.879,17.811,68.168L440.471,346.425z"/>
						</g>
						<g>
							<path style="fill:#2F2444;" d="M452.908,206.731c-11.604,4.412-19.443,16.468-23.381,23.994         c-7.963,15.21-11.658,30.775-10.748,44.971l-1.771,0.117l-0.886,0.072c0.003-0.08-0.021-0.135-0.018-0.215         c-0.919-14.651,2.899-30.614,11.064-46.19c3.882-7.448,11.493-19.165,22.837-24.444         C451.058,205.453,452.053,206.001,452.908,206.731z"/>
						</g>
						<g>
							<path style="fill:#2F2444;" d="M297.475,281.548c-12.247-42.662-24.91-86.777-30.451-131.667         c-4.722-38.258-4.298-77.367-3.888-115.191l2.676,0.03c-0.41,37.733-0.833,76.753,3.869,114.832         c5.514,44.682,18.148,88.695,30.365,131.258L297.475,281.548z"/>
						</g>
						<g>
							<path style="fill:#2F2444;" d="M290.25,252.501l-0.764-0.711c0.15,0.073,0.317,0.105,0.506,0.102l-0.039-0.757l-1.069-0.165         c0.007,0.122,0.046,0.247,0.111,0.364l-0.215-0.201c-1.955-24.451,9.33-49.935,28.752-64.92l1.634,2.117         c-18.519,14.289-29.364,38.48-27.777,61.816c0.093,0.198,0.151,0.422,0.165,0.661         C291.617,251.855,290.946,252.453,290.25,252.501z"/>
						</g>
						<g>
							<path style="fill:#2F2444;" d="M330.827,90.41c-1.174,33.707-7.018,67.041-17.311,99.156c-0.4,1.323-0.854,2.643-1.281,3.964         l-2.114-0.699l-0.422-0.151c11.026-33.076,17.236-67.52,18.456-102.376c0.506-14.809,0.058-31.877-7.334-45.955         c-3.755-7.242-10.153-13.973-17.785-17.942c2.163,0.139,4.292,0.438,6.39,0.869c5.83,4.193,10.664,9.871,13.774,15.83         C330.862,57.756,331.348,75.227,330.827,90.41z"/>
						</g>
						<g>
							<path style="fill:#2F2444;" d="M128.802,192.047c-0.064-1.316-6.693-131.835-35.681-155.597         c-28.656-23.491-57.649-2.979-57.941-2.767l-1.569-2.166c0.305-0.22,30.972-21.917,61.205,2.865         c29.903,24.51,36.396,152.116,36.658,157.536L128.802,192.047z"/>
						</g>
						<g>
							<path style="fill:#2F2444;" d="M141.711,193.831c0.018-0.777,1.635-78.111-5.043-113.369         c-6.584-34.76-33.26-51.094-33.528-51.255l1.372-2.296c0.278,0.167,27.968,17.071,34.784,53.053         c6.73,35.532,5.105,113.145,5.089,113.925L141.711,193.831z"/>
						</g>
					</g>
				</g>
			</g>
			<g>
				<ellipse style="opacity:0.29;fill:#2F2444;" cx="341.701" cy="289.367" rx="87.067" ry="9.56"/>
				<g>
					<path style="fill:#FFC15C;" d="M421.76,251.303v33.807h5.644v2.22H279.604c-7.382,0-13.373-5.991-13.373-13.373v-11.501       c0-7.382,5.991-13.373,13.373-13.373h147.799v2.22H421.76z"/>
					<g>
						<g>
							<path style="fill:#FBEEE5;" d="M423.659,251.463v33.459H288.537c-3.611,0-6.847-1.498-9.067-3.878         c-0.027-0.027-0.027-0.027-0.053-0.053c-0.187-0.187-0.375-0.401-0.535-0.615c-0.776-0.936-1.417-2.033-1.846-3.183         c-0.08-0.214-0.16-0.428-0.241-0.669c-0.294-1.016-0.481-2.086-0.481-3.21v-10.137c0-0.508,0.027-0.99,0.107-1.471         c0.027-0.214,0.054-0.455,0.107-0.669c0.214-1.123,0.615-2.22,1.177-3.21c0.08-0.241,0.214-0.455,0.375-0.669         c0.562-0.936,1.284-1.792,2.113-2.514c0.027-0.027,0.027-0.027,0.053-0.053c0.241-0.214,0.481-0.428,0.749-0.615         c2.086-1.578,4.68-2.514,7.542-2.514H423.659z"/>
						</g>
						<g>
							<path style="fill:#2F2444;" d="M285.462,264.917c0,0.241,0.027,0.455,0,0.669c0.054,1.07,0,2.113-0.16,3.183         c-0.027,0.214-0.054,0.428-0.107,0.669c-0.187,1.07-0.455,2.166-0.776,3.21c-0.08,0.241-0.134,0.455-0.214,0.669         c-0.348,1.043-0.776,2.086-1.257,3.076c-0.027,0.054-0.054,0.08-0.054,0.134c-0.134,0.214-0.241,0.455-0.348,0.669         c-0.642,1.177-1.417,2.327-2.38,3.183c-0.241,0.241-0.481,0.428-0.749,0.615c-0.187-0.187-0.375-0.401-0.535-0.615         c-0.776-0.936-1.417-2.033-1.846-3.183c-0.08-0.214-0.16-0.428-0.241-0.669c-0.294-1.016-0.481-2.086-0.481-3.21v-10.137         c0-0.508,0.027-0.99,0.107-1.471c0.027-0.214,0.054-0.455,0.107-0.669c0.214-1.123,0.615-2.22,1.177-3.21         c0.08-0.241,0.214-0.455,0.375-0.669c0.562-0.936,1.284-1.792,2.113-2.514c0.027-0.027,0.027-0.027,0.053-0.053         c0.027,0,0.054,0.027,0.08,0.053c0.053,0.027,0.107,0.08,0.187,0.134c0.856,0.695,1.578,1.498,2.22,2.38         c0.16,0.214,0.321,0.428,0.455,0.669c0.642,0.99,1.177,2.086,1.525,3.21c0.08,0.241,0.16,0.455,0.214,0.669         c0.107,0.428,0.214,0.856,0.294,1.284C285.328,263.633,285.408,264.275,285.462,264.917z"/>
						</g>
						<g>
							<path style="fill:#2F2444;" d="M423.659,257.16v0.669H277.705c0.08-0.241,0.214-0.455,0.375-0.669H423.659z"/>
						</g>
						<g>
							<path style="fill:#2F2444;" d="M423.659,253.977v0.669H280.193c0.027-0.027,0.027-0.027,0.053-0.053         c0.241-0.214,0.481-0.428,0.749-0.615H423.659z"/>
						</g>
						<g>
							<path style="fill:#2F2444;" d="M423.659,261.038v0.669H276.422c0.027-0.214,0.054-0.455,0.107-0.669H423.659z"/>
						</g>
						<g>
							<rect x="276.315" y="264.917" style="fill:#2F2444;" width="147.344" height="0.669"/>
						</g>
						<g>
							<rect x="276.315" y="268.768" style="fill:#2F2444;" width="147.344" height="0.669"/>
						</g>
						<g>
							<rect x="276.315" y="272.646" style="fill:#2F2444;" width="147.344" height="0.669"/>
						</g>
						<g>
							<path style="fill:#2F2444;" d="M423.659,276.525v0.669H277.037c-0.08-0.214-0.16-0.428-0.241-0.669H423.659z"/>
						</g>
						<g>
							<path style="fill:#2F2444;" d="M423.659,280.376v0.669H279.471c-0.027-0.027-0.027-0.027-0.053-0.053         c-0.187-0.187-0.375-0.401-0.535-0.615H423.659z"/>
						</g>
					</g>
				</g>
				<g>
					<path style="fill:#FFBEFF;" d="M403.68,221.588v25.783h9.842v1.926H276.609c-6.232,0-11.287-5.055-11.287-11.26v-7.034       c0-6.232,5.055-11.287,11.287-11.287h136.913v1.872H403.68z"/>
					<g>
						<g>
							<path style="fill:#FBEEE5;" d="M410.075,221.56v25.891H285.832c-3.32,0-6.296-1.159-8.337-3.001         c-0.025-0.021-0.025-0.021-0.049-0.041c-0.172-0.145-0.344-0.311-0.492-0.476c-0.713-0.724-1.303-1.573-1.697-2.463         c-0.074-0.166-0.148-0.331-0.221-0.517c-0.271-0.786-0.443-1.614-0.443-2.484v-7.844c0-0.393,0.024-0.766,0.098-1.138         c0.025-0.166,0.049-0.352,0.098-0.517c0.197-0.869,0.566-1.718,1.082-2.484c0.074-0.186,0.197-0.352,0.344-0.517         c0.516-0.724,1.18-1.387,1.943-1.945c0.025-0.021,0.025-0.021,0.049-0.041c0.221-0.166,0.443-0.331,0.689-0.476         c1.918-1.221,4.304-1.945,6.935-1.945H410.075z"/>
						</g>
						<g>
							<path style="fill:#2F2444;" d="M283.004,231.97c0,0.186,0.025,0.352,0,0.517c0.049,0.828,0,1.635-0.148,2.463         c-0.025,0.166-0.049,0.331-0.099,0.517c-0.172,0.828-0.418,1.676-0.713,2.484c-0.074,0.186-0.123,0.352-0.197,0.517         c-0.32,0.807-0.713,1.614-1.156,2.38c-0.025,0.041-0.049,0.062-0.049,0.104c-0.123,0.165-0.221,0.352-0.32,0.517         c-0.59,0.911-1.303,1.801-2.189,2.463c-0.221,0.186-0.443,0.331-0.689,0.476c-0.172-0.145-0.344-0.311-0.492-0.476         c-0.713-0.724-1.303-1.573-1.697-2.463c-0.074-0.166-0.148-0.331-0.221-0.517c-0.271-0.786-0.443-1.614-0.443-2.484v-7.844         c0-0.393,0.024-0.766,0.098-1.138c0.025-0.166,0.049-0.352,0.098-0.517c0.197-0.869,0.566-1.718,1.082-2.484         c0.074-0.186,0.197-0.352,0.344-0.517c0.516-0.724,1.18-1.387,1.943-1.945c0.025-0.021,0.025-0.021,0.049-0.041         c0.025,0,0.049,0.021,0.074,0.041c0.049,0.021,0.098,0.062,0.172,0.104c0.787,0.538,1.451,1.159,2.041,1.842         c0.148,0.166,0.295,0.331,0.418,0.517c0.59,0.766,1.082,1.614,1.402,2.484c0.074,0.186,0.147,0.352,0.197,0.517         c0.098,0.331,0.197,0.662,0.271,0.993C282.881,230.977,282.955,231.473,283.004,231.97z"/>
						</g>
						<g>
							<path style="fill:#2F2444;" d="M410.075,225.968v0.517H275.872c0.074-0.186,0.197-0.352,0.344-0.517H410.075z"/>
						</g>
						<g>
							<path style="fill:#2F2444;" d="M410.075,223.505v0.517H278.159c0.025-0.021,0.025-0.021,0.049-0.041         c0.221-0.166,0.443-0.331,0.689-0.476H410.075z"/>
						</g>
						<g>
							<path style="fill:#2F2444;" d="M410.075,228.969v0.517H274.692c0.025-0.166,0.049-0.352,0.098-0.517H410.075z"/>
						</g>
						<g>
							<rect x="274.593" y="231.97" style="fill:#2F2444;" width="135.482" height="0.517"/>
						</g>
						<g>
							<rect x="274.593" y="234.95" style="fill:#2F2444;" width="135.482" height="0.517"/>
						</g>
						<g>
							<rect x="274.593" y="237.951" style="fill:#2F2444;" width="135.482" height="0.517"/>
						</g>
						<g>
							<path style="fill:#2F2444;" d="M410.075,240.952v0.517H275.257c-0.074-0.166-0.148-0.331-0.221-0.517H410.075z"/>
						</g>
						<g>
							<path style="fill:#2F2444;" d="M410.075,243.932v0.517h-132.58c-0.025-0.021-0.025-0.021-0.049-0.041         c-0.172-0.145-0.344-0.311-0.492-0.476H410.075z"/>
						</g>
					</g>
				</g>
				<g>
					<path style="fill:#A27CFF;" d="M417.16,192.06v26.291h8.532v1.712H288.778c-6.205,0-11.26-5.055-11.26-11.287v-7.034       c0-6.232,5.055-11.287,11.26-11.287h136.913v1.605H417.16z"/>
					<g>
						<g>
							<path style="fill:#FBEEE5;" d="M422.253,192.31v25.891H298.01c-3.32,0-6.296-1.159-8.337-3.001         c-0.025-0.021-0.025-0.021-0.049-0.041c-0.172-0.145-0.344-0.31-0.492-0.476c-0.713-0.724-1.303-1.573-1.697-2.463         c-0.074-0.166-0.148-0.331-0.221-0.517c-0.271-0.786-0.443-1.614-0.443-2.484v-7.844c0-0.393,0.024-0.766,0.098-1.138         c0.025-0.166,0.049-0.352,0.098-0.517c0.197-0.869,0.566-1.718,1.082-2.484c0.074-0.186,0.197-0.352,0.344-0.517         c0.517-0.724,1.18-1.387,1.943-1.945c0.025-0.021,0.025-0.021,0.049-0.041c0.221-0.166,0.443-0.331,0.689-0.476         c1.918-1.221,4.304-1.945,6.935-1.945H422.253z"/>
						</g>
						<g>
							<path style="fill:#2F2444;" d="M295.182,202.72c0,0.186,0.025,0.352,0,0.517c0.049,0.828,0,1.635-0.148,2.463         c-0.025,0.166-0.049,0.331-0.098,0.517c-0.172,0.828-0.418,1.676-0.713,2.484c-0.074,0.186-0.123,0.352-0.197,0.517         c-0.32,0.807-0.713,1.614-1.156,2.38c-0.025,0.041-0.049,0.062-0.049,0.104c-0.123,0.165-0.221,0.352-0.32,0.517         c-0.59,0.911-1.303,1.801-2.189,2.463c-0.221,0.186-0.443,0.331-0.689,0.476c-0.172-0.145-0.344-0.31-0.492-0.476         c-0.713-0.724-1.303-1.573-1.697-2.463c-0.074-0.166-0.148-0.331-0.221-0.517c-0.271-0.786-0.443-1.614-0.443-2.484v-7.844         c0-0.393,0.024-0.766,0.098-1.138c0.025-0.166,0.049-0.352,0.098-0.517c0.197-0.869,0.566-1.718,1.082-2.484         c0.074-0.186,0.197-0.352,0.344-0.517c0.517-0.724,1.18-1.387,1.943-1.945c0.025-0.021,0.025-0.021,0.049-0.041         c0.025,0,0.049,0.021,0.074,0.041c0.049,0.021,0.098,0.062,0.172,0.104c0.787,0.538,1.451,1.159,2.041,1.842         c0.148,0.166,0.295,0.331,0.418,0.517c0.59,0.766,1.082,1.614,1.402,2.484c0.074,0.186,0.148,0.352,0.197,0.517         c0.098,0.331,0.197,0.662,0.271,0.993C295.059,201.727,295.133,202.223,295.182,202.72z"/>
						</g>
						<g>
							<path style="fill:#2F2444;" d="M422.253,196.718v0.517H288.05c0.074-0.186,0.197-0.352,0.344-0.517H422.253z"/>
						</g>
						<g>
							<path style="fill:#2F2444;" d="M422.253,194.255v0.517H290.337c0.025-0.021,0.025-0.021,0.049-0.041         c0.221-0.166,0.443-0.331,0.689-0.476H422.253z"/>
						</g>
						<g>
							<path style="fill:#2F2444;" d="M422.253,199.719v0.517H286.87c0.025-0.166,0.049-0.352,0.098-0.517H422.253z"/>
						</g>
						<g>
							<rect x="286.771" y="202.72" style="fill:#2F2444;" width="135.482" height="0.517"/>
						</g>
						<g>
							<rect x="286.771" y="205.7" style="fill:#2F2444;" width="135.482" height="0.517"/>
						</g>
						<g>
							<rect x="286.771" y="208.701" style="fill:#2F2444;" width="135.482" height="0.517"/>
						</g>
						<g>
							<path style="fill:#2F2444;" d="M422.253,211.702v0.517H287.435c-0.074-0.166-0.148-0.331-0.221-0.517H422.253z"/>
						</g>
						<g>
							<path style="fill:#2F2444;" d="M422.253,214.682v0.518h-132.58c-0.025-0.021-0.025-0.021-0.049-0.041         c-0.172-0.145-0.344-0.31-0.492-0.476H422.253z"/>
						</g>
					</g>
				</g>
				<g>
					<path style="fill:#FFC15C;" d="M300.408,189.095v-26.291h-7.412v-1.712h118.934c5.39,0,9.781,5.055,9.781,11.287v7.034       c0,6.232-4.391,11.287-9.781,11.287H292.997v-1.605H300.408z"/>
					<g>
						<g>
							<path style="fill:#FBEEE5;" d="M295.984,188.845v-25.891h107.927c2.884,0,5.469,1.159,7.242,3.001         c0.021,0.021,0.021,0.021,0.043,0.041c0.15,0.145,0.299,0.311,0.427,0.476c0.62,0.724,1.132,1.573,1.474,2.463         c0.064,0.166,0.128,0.331,0.192,0.517c0.235,0.786,0.385,1.614,0.385,2.484v7.844c0,0.393-0.021,0.766-0.085,1.138         c-0.021,0.166-0.043,0.352-0.085,0.517c-0.171,0.869-0.492,1.718-0.94,2.484c-0.064,0.186-0.171,0.352-0.299,0.517         c-0.449,0.724-1.025,1.387-1.688,1.945c-0.021,0.021-0.021,0.021-0.043,0.041c-0.192,0.166-0.384,0.331-0.598,0.476         c-1.666,1.221-3.739,1.945-6.024,1.945H295.984z"/>
						</g>
						<g>
							<path style="fill:#2F2444;" d="M406.368,178.435c0-0.186-0.021-0.352,0-0.517c-0.043-0.828,0-1.635,0.128-2.463         c0.021-0.166,0.043-0.331,0.086-0.517c0.149-0.828,0.363-1.676,0.619-2.484c0.064-0.186,0.107-0.352,0.171-0.517         c0.278-0.807,0.62-1.614,1.004-2.38c0.021-0.042,0.043-0.062,0.043-0.104c0.107-0.165,0.192-0.352,0.278-0.517         c0.513-0.911,1.132-1.801,1.901-2.463c0.192-0.186,0.385-0.331,0.598-0.476c0.15,0.145,0.299,0.311,0.427,0.476         c0.62,0.724,1.132,1.573,1.474,2.463c0.064,0.166,0.128,0.331,0.192,0.517c0.235,0.786,0.385,1.614,0.385,2.484v7.844         c0,0.393-0.021,0.766-0.085,1.138c-0.021,0.166-0.043,0.352-0.085,0.517c-0.171,0.869-0.492,1.718-0.94,2.484         c-0.064,0.186-0.171,0.352-0.299,0.517c-0.449,0.724-1.025,1.387-1.688,1.945c-0.021,0.021-0.021,0.021-0.043,0.041         c-0.021,0-0.043-0.021-0.064-0.041c-0.043-0.021-0.085-0.062-0.149-0.104c-0.684-0.538-1.26-1.159-1.773-1.842         c-0.128-0.166-0.256-0.331-0.363-0.517c-0.513-0.766-0.94-1.614-1.218-2.484c-0.064-0.186-0.128-0.352-0.171-0.517         c-0.085-0.331-0.171-0.662-0.235-0.993C406.475,179.428,406.41,178.932,406.368,178.435z"/>
						</g>
						<g>
							<path style="fill:#2F2444;" d="M295.984,184.437v-0.517h116.58c-0.064,0.186-0.171,0.352-0.299,0.517H295.984z"/>
						</g>
						<g>
							<path style="fill:#2F2444;" d="M295.984,186.9v-0.518h114.593c-0.021,0.021-0.021,0.021-0.043,0.041         c-0.192,0.166-0.384,0.331-0.598,0.476H295.984z"/>
						</g>
						<g>
							<path style="fill:#2F2444;" d="M295.984,181.436v-0.517h117.605c-0.021,0.166-0.043,0.352-0.085,0.517H295.984z"/>
						</g>
						<g>
							<rect x="295.984" y="177.918" style="fill:#2F2444;" width="117.69" height="0.517"/>
						</g>
						<g>
							<rect x="295.984" y="174.937" style="fill:#2F2444;" width="117.69" height="0.517"/>
						</g>
						<g>
							<rect x="295.984" y="171.936" style="fill:#2F2444;" width="117.69" height="0.517"/>
						</g>
						<g>
							<path style="fill:#2F2444;" d="M295.984,169.453v-0.517h117.114c0.064,0.166,0.128,0.331,0.192,0.517H295.984z"/>
						</g>
						<g>
							<path style="fill:#2F2444;" d="M295.984,166.473v-0.517h115.169c0.021,0.021,0.021,0.021,0.043,0.041         c0.15,0.145,0.299,0.311,0.427,0.476H295.984z"/>
						</g>
					</g>
				</g>
			</g>
		</g>
	</g>
</g>















</svg>
