<?xml version="1.0" encoding="UTF-8" standalone="no"?>
<!-- Created with Inkscape (http://www.inkscape.org/) -->

<svg
   version="1.1"
   id="svg2"
   width="2560"
   height="1440"
   viewBox="0 0 2560 1440"
   sodipodi:docname="reshot-illustration-tea-and-reading-time-5ZAVPJERN2.eps"
   xmlns:inkscape="http://www.inkscape.org/namespaces/inkscape"
   xmlns:sodipodi="http://sodipodi.sourceforge.net/DTD/sodipodi-0.dtd"
   xmlns="http://www.w3.org/2000/svg"
   xmlns:svg="http://www.w3.org/2000/svg">
  <defs
     id="defs6" />
  <sodipodi:namedview
     id="namedview4"
     pagecolor="#ffffff"
     bordercolor="#000000"
     borderopacity="0.25"
     inkscape:showpageshadow="2"
     inkscape:pageopacity="0.0"
     inkscape:pagecheckerboard="0"
     inkscape:deskcolor="#d1d1d1" />
  <g
     id="g8"
     inkscape:groupmode="layer"
     inkscape:label="ink_ext_XXXXXX"
     transform="matrix(1.3333333,0,0,-1.3333333,0,1440)">
    <g
       id="g10"
       transform="scale(0.1)">
      <path
         d="M 19200,0 H 0 V 10800 H 19200 V 0"
         style="fill:#ffffff;fill-opacity:1;fill-rule:nonzero;stroke:none"
         id="path12" />
      <path
         d="M 11302.5,-1249.5 H 915.066 v 9545.51 c 0,351.52 284.964,636.49 636.494,636.49 H 10666 c 351.5,0 636.5,-284.97 636.5,-636.49 V -1249.5"
         style="fill:#fde2a3;fill-opacity:1;fill-rule:nonzero;stroke:none"
         id="path14" />
      <path
         d="M 11302.5,-3.59766 H 915.066 V 1169.83 H 11302.5 V -3.59766"
         style="fill:#fbc255;fill-opacity:1;fill-rule:nonzero;stroke:none"
         id="path16" />
      <path
         d="m 915.066,5924.6 c 741.954,0 741.954,-680 1483.904,-680 741.95,0 741.95,680 1483.9,680 741.94,0 741.94,-680 1483.89,-680 741.94,0 741.94,680 1483.9,680 741.97,0 741.97,-680 1483.93,-680 741.97,0 741.97,680 1483.93,680 741.98,0 741.98,-680 1483.98,-680"
         style="fill:none;stroke:#ffffff;stroke-width:20;stroke-linecap:butt;stroke-linejoin:miter;stroke-miterlimit:10;stroke-dasharray:none;stroke-opacity:1"
         id="path18" />
      <path
         d="m 6464,4955.7 c -24.6,-390.5 23.6,-788.5 -63.6,-1169.9 -25.3,-110.6 -62.6,-218 -110.4,-320.6 -195.7,-420.5 -567.5,-759.8 -1009.8,-902.9 13.3,-15.4 26.7,-30.8 40,-46.2 -217.1,22.7 -382.1,187.3 -474.3,385.1 -92.2,197.9 -113.1,420.3 -130.9,637.9 -6,72.9 -11.7,147.5 6.5,218.5 18.3,70.9 100.9,167.1 173.3,178 155.9,23.5 295.1,97.3 413,200.8 139.3,122.5 249,286.3 321.7,457.7 134.1,316.5 169.9,664.3 244.6,999.8 74.6,335.6 200.5,679.3 464.5,899.5 190,158.6 499,91.9 741.9,139.1 C 6719,6148.8 6501.9,5558.4 6464,4955.7"
         style="fill:#fafafa;fill-opacity:1;fill-rule:nonzero;stroke:none"
         id="path20" />
      <path
         d="m 5280.2,2562.3 c 13.3,-15.4 26.7,-30.8 40,-46.2 -217.1,22.7 -382.1,187.3 -474.3,385.1 -92.2,197.9 -113.1,420.3 -130.9,637.9 -6,72.9 -11.7,147.5 6.5,218.5 18.3,70.9 100.9,167.1 173.3,178 155.9,23.5 295.1,97.3 413,200.8 3.8,-10.4 254.2,-672.5 982.2,-671.2 -195.7,-420.5 -567.5,-759.8 -1009.8,-902.9"
         style="fill:#f7f3e6;fill-opacity:1;fill-rule:nonzero;stroke:none"
         id="path22" />
      <path
         d="m 1908.67,2772.04 c 94.19,69.83 94.22,217.13 37.59,319.81 -56.63,102.67 -154.13,174.9 -239.32,255.47 -322.31,304.82 -479.84,744.74 -763.069,1086.17 -112.422,135.52 -244.816,255.72 -337.805,405.24 -92.269,148.39 -142.433,329.72 -104.578,500.31 37.852,170.58 176.153,323.31 349.242,347.21 210.05,29.01 404.78,-129.71 510.11,-313.74 105.34,-184.03 149.77,-396.45 239.94,-588.37 90.16,-191.92 249.39,-375.15 460.27,-397.32 -6.78,208.62 22.33,418 84.8,617.11 26.15,83.35 60.78,131.1 -8.03,194.67 -57.4,53.01 -131.28,91.75 -190.26,145.16 -229.64,207.94 -414.38,489.1 -712.46,606.81 -204.22,80.65 -443.924,65.75 -636.58,-39.56 -241.028,-131.75 -395.309,-393.91 -433.274,-665.96 -37.961,-272.04 30.598,-551.29 153.621,-796.89 82.352,-164.4 188.996,-316.61 315.41,-450.15 197.325,-208.46 439.033,-368.47 664.703,-545.86 225.66,-177.39 442.15,-380.84 561.26,-642 12.86,-28.2 18.15,-31.5 48.43,-38.11"
         style="fill:#ffffff;fill-opacity:1;fill-rule:nonzero;stroke:none"
         id="path24" />
      <path
         d="m 5582.7,1516.3 c 0,0 -449.7,-678.198 -2037.3,-678.198 -1587.7,0 -2037.3,678.198 -2037.3,678.198 l 228.1,1504.5 39.9,263.6 84.4,557 c 0.1,0.1 0.1,0.1 0.1,0.1 l 87,574 126.4,833.9 23.4,154.6 1.6,10.7 6.8,44.6 8.1,53.4 83.9,553.7 26.7,176.2 h 2641.8 l 26.7,-176.2 43.4,-286.4 9.6,-63.1 1.8,-12.2 4.2,-28 24.9,-164 8.1,-53.4 6.8,-44.6 1.6,-10.7 204.8,-1350.7 v -0.1 l 218.2,-1439.7 62.9,-414.9 103.4,-682.3"
         style="fill:#fafafa;fill-opacity:1;fill-rule:nonzero;stroke:none"
         id="path26" />
      <path
         d="m 5059.1,6332.9 c 0,-24.9 -10.1,-47.5 -26.5,-63.8 -16.3,-16.4 -38.9,-26.5 -63.8,-26.5 H 2122 c -49.8,0 -90.3,40.5 -90.3,90.3 0,24.9 10.1,47.5 26.5,63.9 16.3,16.3 38.9,26.4 63.8,26.4 h 2846.8 c 49.8,0 90.3,-40.4 90.3,-90.3"
         style="fill:#ffffff;fill-opacity:1;fill-rule:nonzero;stroke:none"
         id="path28" />
      <path
         d="m 3545.39,7088.57 c -998.35,0 -1240.06,-665.35 -1240.06,-665.35 h 1240.06 1240.07 c 0,0 -241.72,665.35 -1240.07,665.35"
         style="fill:#fafafa;fill-opacity:1;fill-rule:nonzero;stroke:none"
         id="path30" />
      <path
         d="m 3814.51,6980.45 h -538.22 l -45.45,493.64 c -4.32,46.89 32.59,87.35 79.68,87.35 h 469.75 c 47.09,0 84,-40.46 79.68,-87.35 l -45.44,-493.64"
         style="fill:#fafafa;fill-opacity:1;fill-rule:nonzero;stroke:none"
         id="path32" />
      <path
         d="m 5582.7,1516.3 c 0,0 -449.7,-678.198 -2037.3,-678.198 -1587.7,0 -2037.3,678.198 -2037.3,678.198 l 228.1,1504.5 39.9,263.6 84.4,557 c 0.1,0.1 0.1,0.1 0.1,0.1 0,0 481.4,-2033.2 3618.7,-1642.9 l 103.4,-682.3"
         style="fill:#f7f3e6;fill-opacity:1;fill-rule:nonzero;stroke:none"
         id="path34" />
      <path
         d="M 4930.06,774.402 6007.02,785 5973.36,4222.89 4896.4,4212.35 4930.06,774.402"
         style="fill:#fbc255;fill-opacity:1;fill-rule:nonzero;stroke:none"
         id="path36" />
      <path
         d="m 4904.53,3381.03 1076.97,10.54 -1.49,151.9 -1076.96,-10.54 1.48,-151.9"
         style="fill:#ffffff;fill-opacity:1;fill-rule:nonzero;stroke:none"
         id="path38" />
      <path
         d="m 4909.23,2902.2 1076.96,10.54 -1.49,151.9 -1076.96,-10.55 1.49,-151.89"
         style="fill:#ffffff;fill-opacity:1;fill-rule:nonzero;stroke:none"
         id="path40" />
      <path
         d="M 6813.2,883.492 V 5430.02 h 205.93 V 883.492 H 6813.2"
         style="fill:#f47155;fill-opacity:1;fill-rule:nonzero;stroke:none"
         id="path42" />
      <path
         d="M 5970.67,883.492 V 5430.02 H 6176.6 V 883.492 h -205.93"
         style="fill:#f47155;fill-opacity:1;fill-rule:nonzero;stroke:none"
         id="path44" />
      <path
         d="m 6813.2,5312.18 c 0,0 -317.98,-227.82 -636.6,0 V 1070.06 c 0,0 311.34,133.56 636.6,0 v 4242.12"
         style="fill:#fef5f3;fill-opacity:1;fill-rule:nonzero;stroke:none"
         id="path46" />
      <path
         d="m 7914.58,762 v 4546.54 h 205.94 V 762 h -205.94"
         style="fill:#f47155;fill-opacity:1;fill-rule:nonzero;stroke:none"
         id="path48" />
      <path
         d="m 7072.05,762 v 4546.54 h 205.93 V 762 h -205.93"
         style="fill:#f47155;fill-opacity:1;fill-rule:nonzero;stroke:none"
         id="path50" />
      <path
         d="m 7914.58,5190.7 c 0,0 -317.97,-227.82 -636.6,0 V 948.59 c 0,0 311.34,133.54 636.6,0 V 5190.7"
         style="fill:#fef5f3;fill-opacity:1;fill-rule:nonzero;stroke:none"
         id="path52" />
      <path
         d="m 1639.04,1773.73 12.89,-1076.929 5428.5,65 -12.89,1076.899 -5428.5,-64.97"
         style="fill:#f78d47;fill-opacity:1;fill-rule:nonzero;stroke:none"
         id="path54" />
      <path
         d="M 5754.88,1822.99 5767.77,746 l 239.85,2.902 -12.89,1076.958 -239.85,-2.87"
         style="fill:#ffffff;fill-opacity:1;fill-rule:nonzero;stroke:none"
         id="path56" />
      <path
         d="M 4998.8,1813.94 5011.69,737 l 239.85,2.902 -12.89,1076.908 -239.85,-2.87"
         style="fill:#ffffff;fill-opacity:1;fill-rule:nonzero;stroke:none"
         id="path58" />
      <path
         d="M 8118.98,763.699 9195.94,774.301 9142.8,6202.9 8065.83,6192.36 8118.98,763.699"
         style="fill:#f78d47;fill-opacity:1;fill-rule:nonzero;stroke:none"
         id="path60" />
      <path
         d="m 8078.69,4879.67 1076.96,10.54 -2.35,239.86 -1076.96,-10.55 2.35,-239.85"
         style="fill:#ffffff;fill-opacity:1;fill-rule:nonzero;stroke:none"
         id="path62" />
      <path
         d="m 8086.09,4123.57 1076.96,10.55 -2.35,239.85 -1076.96,-10.54 2.35,-239.86"
         style="fill:#ffffff;fill-opacity:1;fill-rule:nonzero;stroke:none"
         id="path64" />
      <path
         d="M 9195.94,774.402 10272.9,785 10227,5470.48 9150.07,5459.93 9195.94,774.402"
         style="fill:#fbc255;fill-opacity:1;fill-rule:nonzero;stroke:none"
         id="path66" />
      <path
         d="m 9161.16,4326.94 1076.94,10.54 -2,207.02 -1076.97,-10.54 2.03,-207.02"
         style="fill:#ffffff;fill-opacity:1;fill-rule:nonzero;stroke:none"
         id="path68" />
      <path
         d="m 9167.55,3674.35 1076.95,10.54 -2,207.02 -1076.98,-10.55 2.03,-207.01"
         style="fill:#ffffff;fill-opacity:1;fill-rule:nonzero;stroke:none"
         id="path70" />
      <path
         d="M 9150.07,5459.93 9757.98,785 9195.94,774.402 Z"
         style="fill:#251914;fill-opacity:1;fill-rule:nonzero;stroke:none"
         id="path72" />
      <path
         d="M 8065.83,6192.36 8713.27,785 8118.88,774.402 Z"
         style="fill:#251914;fill-opacity:1;fill-rule:nonzero;stroke:none"
         id="path74" />
      <path
         d="m 6130.93,3567.15 c -1.4,-76.1 -7.3,-188.7 -26.9,-320.1 -2.7,-17.5 -5.5,-35.3 -8.6,-53.4 -6.1,-35.3 -13.1,-71.6 -21.4,-108.8 -3.8,-17.6 -8,-35.4 -12.4,-53.4 -3.6,-14.8 -7.4,-29.6 -11.5,-44.6 -0.9,-3.5 -1.9,-7.1 -2.9,-10.7 -53,-193.1 -138.7,-399.1 -276.9,-579.2 -219.8,-286.5 -572.5,-507.7 -1137.6,-507.7 -743.6,0 -1119.5,383 -1308.7,793.8 -45.1,97.7 -79.6,197 -105.9,293.1 -1,3.6 -2,7.2 -2.9,10.7 -4.1,15 -7.9,29.8 -11.5,44.6 -4.5,18 -8.6,35.8 -12.5,53.4 -8.2,37.2 -15.2,73.5 -21.3,108.8 -3,18.1 -5.9,35.9 -8.5,53.4 -19.6,131.4 -25.6,244 -26.9,320.1 -1,57.3 45.2,104.2 102.5,104.2 h 2791.3 c 57.4,0 103.6,-46.9 102.6,-104.2"
         style="fill:#ffffff;fill-opacity:1;fill-rule:nonzero;stroke:none"
         id="path76" />
      <path
         d="m 5942.2,3290.31 c 98.39,62.28 198.02,125.15 308.48,162.01 110.46,36.86 234.61,45.65 341.65,-0.2 149.61,-64.1 241.51,-230.87 238.41,-393.61 -3.1,-162.73 -91.01,-316.74 -214.95,-422.24 -123.94,-105.5 -280.86,-166.34 -440.46,-198.24 -159.61,-31.9 -323.24,-36.56 -485.94,-41.12 46.15,76.79 92.29,153.59 138.43,230.38 239.09,-33.14 491.33,64.43 646.29,249.5 43.5,51.96 81.06,116.14 73.43,183.47 -10.05,88.64 -102.68,153.48 -191.8,149.28 -89.12,-4.2 -168.61,-65.37 -213.48,-142.48 -19.52,-33.54 -33.71,-70.37 -57.3,-101.18 -23.59,-30.82 -60.12,-55.69 -98.71,-51.49 -49.08,5.33 -82.53,56.41 -86.46,105.62 -3.93,49.22 13.96,97.18 29.27,144.11 15.31,46.94 26.67,78.71 13.14,126.19"
         style="fill:#ffffff;fill-opacity:1;fill-rule:nonzero;stroke:none"
         id="path78" />
      <path
         d="m 4402.7,3192.33 c -11.24,-1.28 -22.06,-5.08 -33.27,-6.6 -25.34,-3.43 -52.08,5.65 -70.08,23.81 11.17,4 22.34,8 33.51,12 -30.13,2.42 -58.34,21.68 -71.58,48.85 9.03,2.97 18.05,5.94 27.08,8.9 -22.33,35.03 -35.06,76.11 -36.46,117.63 26.99,-30.09 53.97,-60.18 80.96,-90.27 1.72,9.46 3.45,18.91 5.17,28.37 15.38,-21.83 30.75,-43.67 46.12,-65.5 4.02,5.44 8.05,10.88 12.06,16.33 13.16,-24.49 26.31,-48.97 39.46,-73.45 8.26,-15.37 20.6,-38.35 12.76,-55.64 -18.89,15.13 -10.11,39.6 -45.73,35.57"
         style="fill:#fab88a;fill-opacity:1;fill-rule:nonzero;stroke:none"
         id="path80" />
      <path
         d="m 4609.68,3192.33 c 11.24,-1.28 22.06,-5.08 33.27,-6.6 25.34,-3.43 52.07,5.65 70.08,23.81 -11.18,4 -22.34,8 -33.51,12 30.13,2.42 58.34,21.68 71.58,48.85 -9.03,2.97 -18.06,5.94 -27.09,8.9 22.33,35.03 35.07,76.11 36.47,117.63 -26.99,-30.09 -53.97,-60.18 -80.96,-90.27 -1.72,9.46 -3.45,18.91 -5.18,28.37 -15.37,-21.83 -30.74,-43.67 -46.11,-65.5 -4.03,5.44 -8.05,10.88 -12.07,16.33 -13.15,-24.49 -26.3,-48.97 -39.46,-73.45 -8.25,-15.37 -20.59,-38.35 -12.75,-55.64 18.88,15.13 10.1,39.6 45.73,35.57"
         style="fill:#fab88a;fill-opacity:1;fill-rule:nonzero;stroke:none"
         id="path82" />
      <path
         d="m 4525.18,3256.56 c 0,-11.48 -9.31,-20.79 -20.79,-20.79 -11.49,0 -20.79,9.31 -20.79,20.79 0,11.48 9.3,20.79 20.79,20.79 11.48,0 20.79,-9.31 20.79,-20.79"
         style="fill:#fab88a;fill-opacity:1;fill-rule:nonzero;stroke:none"
         id="path84" />
      <path
         d="m 3750.42,3192.33 c -11.24,-1.28 -22.06,-5.08 -33.27,-6.6 -25.34,-3.43 -52.07,5.65 -70.08,23.81 11.17,4 22.34,8 33.51,12 -30.13,2.42 -58.34,21.68 -71.58,48.85 9.03,2.97 18.06,5.94 27.09,8.9 -22.33,35.03 -35.07,76.11 -36.47,117.63 26.99,-30.09 53.97,-60.18 80.95,-90.27 1.73,9.46 3.46,18.91 5.19,28.37 15.37,-21.83 30.74,-43.67 46.11,-65.5 4.03,5.44 8.05,10.88 12.07,16.33 13.15,-24.49 26.3,-48.97 39.46,-73.45 8.25,-15.37 20.59,-38.35 12.75,-55.64 -18.88,15.13 -10.1,39.6 -45.73,35.57"
         style="fill:#fab88a;fill-opacity:1;fill-rule:nonzero;stroke:none"
         id="path86" />
      <path
         d="m 3957.4,3192.33 c 11.24,-1.28 22.06,-5.08 33.27,-6.6 25.34,-3.43 52.08,5.65 70.08,23.81 -11.17,4 -22.34,8 -33.51,12 30.13,2.42 58.34,21.68 71.58,48.85 -9.03,2.97 -18.05,5.94 -27.08,8.9 22.33,35.03 35.06,76.11 36.46,117.63 -26.99,-30.09 -53.97,-60.18 -80.96,-90.27 -1.72,9.46 -3.45,18.91 -5.17,28.37 -15.38,-21.83 -30.75,-43.67 -46.12,-65.5 -4.02,5.44 -8.05,10.88 -12.06,16.33 -13.16,-24.49 -26.31,-48.97 -39.46,-73.45 -8.26,-15.37 -20.6,-38.35 -12.76,-55.64 18.89,15.13 10.11,39.6 45.73,35.57"
         style="fill:#fab88a;fill-opacity:1;fill-rule:nonzero;stroke:none"
         id="path88" />
      <path
         d="m 3872.9,3256.56 c 0,-11.48 -9.31,-20.79 -20.79,-20.79 -11.48,0 -20.79,9.31 -20.79,20.79 0,11.48 9.31,20.79 20.79,20.79 11.48,0 20.79,-9.31 20.79,-20.79"
         style="fill:#fab88a;fill-opacity:1;fill-rule:nonzero;stroke:none"
         id="path90" />
      <path
         d="m 3322.94,3192.33 c 11.24,-1.28 22.07,-5.08 33.27,-6.6 25.35,-3.43 52.08,5.65 70.08,23.81 -11.16,4 -22.34,8 -33.51,12 30.13,2.42 58.35,21.68 71.59,48.85 -9.03,2.97 -18.06,5.94 -27.09,8.9 22.33,35.03 35.06,76.11 36.46,117.63 -26.98,-30.09 -53.97,-60.18 -80.95,-90.27 -1.73,9.46 -3.45,18.91 -5.18,28.37 -15.37,-21.83 -30.75,-43.67 -46.12,-65.5 -4.02,5.44 -8.04,10.88 -12.06,16.33 -13.16,-24.49 -26.31,-48.97 -39.46,-73.45 -8.26,-15.37 -20.59,-38.35 -12.75,-55.64 18.88,15.13 10.1,39.6 45.72,35.57"
         style="fill:#fab88a;fill-opacity:1;fill-rule:nonzero;stroke:none"
         id="path92" />
      <path
         d="m 3238.45,3256.56 c 0,-11.48 -9.31,-20.79 -20.79,-20.79 -11.49,0 -20.8,9.31 -20.8,20.79 0,11.48 9.31,20.79 20.8,20.79 11.48,0 20.79,-9.31 20.79,-20.79"
         style="fill:#fab88a;fill-opacity:1;fill-rule:nonzero;stroke:none"
         id="path94" />
      <path
         d="m 5087.83,3192.33 c -11.24,-1.28 -22.06,-5.08 -33.28,-6.6 -25.33,-3.43 -52.07,5.65 -70.07,23.81 11.17,4 22.34,8 33.51,12 -30.13,2.42 -58.35,21.68 -71.58,48.85 9.02,2.97 18.05,5.94 27.08,8.9 -22.33,35.03 -35.06,76.11 -36.46,117.63 26.98,-30.09 53.97,-60.18 80.95,-90.27 1.73,9.46 3.45,18.91 5.18,28.37 15.37,-21.83 30.75,-43.67 46.12,-65.5 4.02,5.44 8.04,10.88 12.06,16.33 13.16,-24.49 26.31,-48.97 39.46,-73.45 8.26,-15.37 20.6,-38.35 12.76,-55.64 -18.89,15.13 -10.11,39.6 -45.73,35.57"
         style="fill:#fab88a;fill-opacity:1;fill-rule:nonzero;stroke:none"
         id="path96" />
      <path
         d="m 5294.8,3192.33 c 11.24,-1.28 22.07,-5.08 33.27,-6.6 25.35,-3.43 52.08,5.65 70.08,23.81 -11.16,4 -22.34,8 -33.51,12 30.13,2.42 58.35,21.68 71.59,48.85 -9.03,2.97 -18.06,5.94 -27.09,8.9 22.33,35.03 35.06,76.11 36.46,117.63 -26.98,-30.09 -53.97,-60.18 -80.95,-90.27 -1.73,9.46 -3.45,18.91 -5.18,28.37 -15.37,-21.83 -30.75,-43.67 -46.12,-65.5 -4.02,5.44 -8.04,10.88 -12.06,16.33 -13.16,-24.49 -26.31,-48.97 -39.46,-73.45 -8.26,-15.37 -20.59,-38.35 -12.75,-55.64 18.88,15.13 10.1,39.6 45.72,35.57"
         style="fill:#fab88a;fill-opacity:1;fill-rule:nonzero;stroke:none"
         id="path98" />
      <path
         d="m 5210.31,3256.56 c 0,-11.48 -9.31,-20.79 -20.79,-20.79 -11.49,0 -20.8,9.31 -20.8,20.79 0,11.48 9.31,20.79 20.8,20.79 11.48,0 20.79,-9.31 20.79,-20.79"
         style="fill:#fab88a;fill-opacity:1;fill-rule:nonzero;stroke:none"
         id="path100" />
      <path
         d="m 5722.28,3192.33 c -11.24,-1.28 -22.06,-5.08 -33.27,-6.6 -25.34,-3.43 -52.07,5.65 -70.08,23.81 11.17,4 22.34,8 33.52,12 -30.14,2.42 -58.35,21.68 -71.59,48.85 9.03,2.97 18.05,5.94 27.09,8.9 -22.34,35.03 -35.07,76.11 -36.47,117.63 26.99,-30.09 53.97,-60.18 80.96,-90.27 1.72,9.46 3.45,18.91 5.18,28.37 15.37,-21.83 30.74,-43.67 46.11,-65.5 4.03,5.44 8.05,10.88 12.07,16.33 13.15,-24.49 26.3,-48.97 39.46,-73.45 8.25,-15.37 20.59,-38.35 12.75,-55.64 -18.88,15.13 -10.1,39.6 -45.73,35.57"
         style="fill:#fab88a;fill-opacity:1;fill-rule:nonzero;stroke:none"
         id="path102" />
      <path
         d="m 5929.26,3192.33 c 11.24,-1.28 22.06,-5.08 33.27,-6.6 25.34,-3.43 52.08,5.65 70.08,23.81 -11.17,4 -22.34,8 -33.51,12 30.13,2.42 58.35,21.68 71.58,48.85 -9.03,2.97 -18.05,5.94 -27.08,8.9 22.33,35.03 35.06,76.11 36.46,117.63 -26.99,-30.09 -53.97,-60.18 -80.95,-90.27 -1.73,9.46 -3.46,18.91 -5.18,28.37 -15.38,-21.83 -30.75,-43.67 -46.12,-65.5 -4.02,5.44 -8.05,10.88 -12.07,16.33 -13.15,-24.49 -26.3,-48.97 -39.45,-73.45 -8.26,-15.37 -20.6,-38.35 -12.76,-55.64 18.89,15.13 10.11,39.6 45.73,35.57"
         style="fill:#fab88a;fill-opacity:1;fill-rule:nonzero;stroke:none"
         id="path104" />
      <path
         d="m 5844.76,3256.56 c 0,-11.48 -9.31,-20.79 -20.79,-20.79 -11.48,0 -20.79,9.31 -20.79,20.79 0,11.48 9.31,20.79 20.79,20.79 11.48,0 20.79,-9.31 20.79,-20.79"
         style="fill:#fab88a;fill-opacity:1;fill-rule:nonzero;stroke:none"
         id="path106" />
      <path
         d="m 6074.03,3084.85 c -3.8,-17.6 -8,-35.4 -12.4,-53.4 h -2857.9 c -4.5,18 -8.6,35.8 -12.5,53.4 h 2882.8"
         style="fill:#fab88a;fill-opacity:1;fill-rule:nonzero;stroke:none"
         id="path108" />
      <path
         d="m 6050.13,2986.85 c -0.9,-3.5 -1.9,-7.1 -2.9,-10.7 h -2829.1 c -1,3.6 -2,7.2 -2.9,10.7 h 2834.9"
         style="fill:#fab88a;fill-opacity:1;fill-rule:nonzero;stroke:none"
         id="path110" />
      <path
         d="m 5770.33,2396.95 c -219.8,-286.5 -572.5,-507.7 -1137.6,-507.7 -743.6,0 -1119.5,383 -1308.7,793.8 371.2,-238.4 1262.4,-668.2 2446.3,-286.1"
         style="fill:#fffbf2;fill-opacity:1;fill-rule:nonzero;stroke:none"
         id="path112" />
      <path
         d="M 6381.96,1913.28 H 2883.44 c -30.32,0 -54.89,24.57 -54.89,54.89 v 9.63 c 0,30.31 24.57,54.89 54.89,54.89 h 3498.52 c 30.31,0 54.89,-24.58 54.89,-54.89 v -9.63 c 0,-30.32 -24.58,-54.89 -54.89,-54.89"
         style="fill:#ffffff;fill-opacity:1;fill-rule:nonzero;stroke:none"
         id="path114" />
      <path
         d="M 5516.66,1793.86 H 3748.74 l -206.15,119.42 h 2180.22 l -206.15,-119.42"
         style="fill:#fffbf2;fill-opacity:1;fill-rule:nonzero;stroke:none"
         id="path116" />
      <path
         d="m 12548.2,840.16 c 87.8,-6.058 177.9,-43.859 225.5,-117.859 47.6,-74 37.6,-186.403 -35.4,-235.602 -41.3,-27.797 -93.6,-31.898 -143.3,-35.199 -173.5,-11.5 -347.1,-23.102 -520.6,-34.602 -42.2,-2.796 -94.4,0 -112.7,38.102 -19.4,40.699 16.9,85 50.2,115.5 76.4,70.301 164.5,186.699 257.9,232.07 74,35.922 198.3,42.93 278.4,37.59"
         style="fill:#f9aa7e;fill-opacity:1;fill-rule:nonzero;stroke:none"
         id="path118" />
      <path
         d="M 11267,417.102 H 6654.1 c -381.7,0 -712.4,264.699 -796,637.118 -3.8,17 -7.4,34.01 -10.6,51.1 -56.7,293.3 -38.3,601.3 61.6,883 184.5,520.1 641,934.9 1176.3,1068.9 416.6,104.3 855.2,45.7 1278.2,-28.4 845.1,-148 1676.9,-364.9 2495.5,-622 336,-105.5 397.2,-1611.718 406.4,-1930.621 1.1,-38 1.5,-59.097 1.5,-59.097"
         style="fill:#fab88a;fill-opacity:1;fill-rule:nonzero;stroke:none"
         id="path120" />
      <path
         d="M 11267,417.102 H 6654.1 c -381.7,0 -712.4,264.699 -796,637.118 -3.8,17 -7.4,34.01 -10.6,51.1 40.8,17.01 88.8,21.4 131.8,12.01 90.4,-19.71 164.7,-81.51 239.6,-135.799 319.3,-231.332 708.5,-350.832 1099.4,-401.629 391,-50.703 787.1,-36.3 1181.1,-21.8 449.3,16.597 898.6,33.199 1348,49.699 83.5,3.101 196.2,38 185.2,120.898 -12.4,93.121 -174.8,104.821 -184.6,198.321 -5.4,51.3 45.7,94.51 97,100.1 51.3,5.6 101.3,-15.5 148.6,-36.198 372.9,-163.402 745.8,-326.723 1118.8,-490.121 17.5,-7.699 35.4,-15.801 53.1,-24.602 1.1,-38 1.5,-59.097 1.5,-59.097"
         style="fill:#f9aa7e;fill-opacity:1;fill-rule:nonzero;stroke:none"
         id="path122" />
      <path
         d="m 11958.4,433.699 c -225.2,-70 -537.7,-82.097 -968.4,-0.199 -531.5,101.102 -844.3,270.602 -1016.5,465.719 -484.1,548.301 140.8,1298.201 140.8,1298.201 0,0 16.5,151 994.6,182.3 24,0.8 47.5,1.1 70.7,1.1 68,-0.2 132.7,-3.8 194.3,-10.3 19.7,-2.1 39,-4.5 58.1,-7.2 60.9,-8.5 118.5,-19.9 173,-33.7 27.4,-6.9 54.1,-14.4 80,-22.5 59.4,-18.4 114.8,-39.7 166.2,-63 416.7,-187.9 577.5,-503.1 577.5,-503.1 0,0 363.1,-1048.918 -470.3,-1307.321"
         style="fill:#fab88a;fill-opacity:1;fill-rule:nonzero;stroke:none"
         id="path124" />
      <path
         d="m 11958.4,433.699 c -225.2,-70 -537.7,-82.097 -968.4,-0.199 -531.5,101.102 -844.3,270.602 -1016.5,465.719 116.1,23.203 230.6,50.211 343.5,87.101 251.8,82.2 491.7,200.9 709.6,351.5 61.9,42.8 121.9,88.1 180,135.9 4.6,3.83 13.5,10.45 24.9,18.85 59.9,44.47 145.5,10.45 158.8,-62.99 69.4,-383.03 273.8,-741.08 568.1,-995.881"
         style="fill:#fcd6bf;fill-opacity:1;fill-rule:nonzero;stroke:none"
         id="path126" />
      <path
         d="m 11108.9,2347.42 c -42.4,-13.5 -84.1,-26.5 -125.3,-38.8 -290.8,-87 -556.9,-141.6 -869.3,-111.2 39.6,361.3 79.2,722.7 118.9,1084 1.9,17.5 3.8,34.9 5.7,52.4 4.6,42 13.8,91 51.8,109.5 54.2,26.4 110.2,-30.8 143.6,-81 224.9,-338.3 449.8,-676.6 674.6,-1014.9"
         style="fill:#f47155;fill-opacity:1;fill-rule:nonzero;stroke:none"
         id="path128" />
      <path
         d="m 12997.9,2645.72 c -9.1,-15.7 -18.2,-31.3 -27.3,-47 -139.6,-240.8 -279.3,-481.7 -418.9,-722.5 -37.2,-64.1 -84.2,-135.1 -157.7,-145 -77.4,-10.4 -143.4,52.1 -196.3,109.6 -55.8,60.7 -111.6,121.4 -167.4,182 -5.4,5.9 -11.9,12.4 -19.1,19.2 -49.2,46.6 -131.6,111.9 -149,163.2 -19.7,58.3 66.8,85.9 121.9,118.3 62.6,36.7 126.8,70.6 192.4,101.5 131.3,61.8 268.2,111.8 408.4,149 70.1,18.6 141.1,34.1 212.6,46.3 25.7,4.4 189.5,8.9 200.4,25.4"
         style="fill:#f47155;fill-opacity:1;fill-rule:nonzero;stroke:none"
         id="path130" />
      <path
         d="m 11350.7,960.422 c -127.8,2.609 -241.5,39.728 -362.7,84.888 -15.6,5.81 -32.6,-4.43 -34.9,-20.9 -9.7,-69.191 9.3,-140.23 60.8,-188.269 59.5,-55.442 150.3,-74.641 227,-47.942 62.6,21.672 114.5,69.203 138.3,129.473 8,20.148 -6.9,42.297 -28.5,42.75"
         style="fill:#f47155;fill-opacity:1;fill-rule:nonzero;stroke:none"
         id="path132" />
      <path
         d="m 11899,1192.24 c -49.1,-33.74 -109.8,-50.24 -169.3,-45.99 -59.4,4.24 -117.2,29.19 -161,69.55 -11.7,10.77 -34.2,1.06 -40.6,-13.49 -6.4,-14.56 -1.2,-32.17 9,-44.36 10.2,-12.19 24.6,-20 38.8,-27.09 56.5,-28.16 117.7,-49.74 180.8,-50.46 63.2,-0.72 128.6,21.73 169.7,69.61 7.3,8.5 35.4,46.37 13.2,58.26 -9.8,5.29 -24,-5.6 -40.6,-16.03"
         style="fill:#251914;fill-opacity:1;fill-rule:nonzero;stroke:none"
         id="path134" />
      <path
         d="m 10648.2,1515.07 c 29.7,-51.66 77.3,-92.8 132.8,-114.69 55.4,-21.88 118.3,-24.37 175.2,-6.94 15.2,4.65 31.4,-13.87 30.8,-29.76 -0.5,-15.88 -12.8,-29.5 -27.3,-36.07 -14.5,-6.57 -30.8,-7.39 -46.7,-7.64 -63.1,-0.95 -127.7,6.07 -184.9,32.72 -57.2,26.65 -106.5,75.19 -122.8,136.15 -2.9,10.81 -11.9,57.14 13.2,58.26 11.2,0.5 19.3,-15.47 29.7,-32.03"
         style="fill:#251914;fill-opacity:1;fill-rule:nonzero;stroke:none"
         id="path136" />
      <path
         d="m 11373.9,2370.52 c 1.8,-104.8 -20.6,-210.1 -65.7,-304.8 -10.8,-22.9 -23.5,-45.8 -43.5,-61.4 -19.9,-15.7 -48.7,-22.4 -70.9,-10.3 -33.7,18.2 -35.6,64.9 -33,103.1 6.2,94.5 12.5,189.1 18.8,283.7 68,-0.2 132.7,-3.8 194.3,-10.3"
         style="fill:#f47155;fill-opacity:1;fill-rule:nonzero;stroke:none"
         id="path138" />
      <path
         d="m 11572.8,2057.52 c -9.3,-26.3 -21,-52.8 -42.1,-71 -21,-18.2 -53.7,-25.7 -77.1,-10.6 -17.5,11.2 -26.3,32.4 -28.1,53.1 -1.8,20.7 2.5,41.3 6.1,61.8 10.8,63 14.4,127.2 10.7,191 -1.3,23.8 -8.6,53.3 -10.3,81.5 60.9,-8.5 118.5,-19.9 173,-33.7 2,-13.8 3,-27.5 3.4,-40.6 2.8,-78.5 -9.3,-157.5 -35.6,-231.5"
         style="fill:#f47155;fill-opacity:1;fill-rule:nonzero;stroke:none"
         id="path140" />
      <path
         d="m 11810,2013.62 c -12.2,-27.1 -27.7,-53.9 -52.2,-70.6 -24.5,-16.8 -59.9,-20.5 -83,-1.9 -33.8,27.4 -23.5,80.3 -13.2,122.6 19.4,79.5 27.2,161.7 23.4,243.4 59.4,-18.4 114.8,-39.7 166.2,-63 5,-78.7 -8.8,-158.6 -41.2,-230.5"
         style="fill:#f47155;fill-opacity:1;fill-rule:nonzero;stroke:none"
         id="path142" />
      <path
         d="m 9875.9,1043.91 c -192.17,-27.8 -385.64,-46.418 -579.58,-55.789 -193.02,-9.34 -386.48,-9.551 -579.52,-0.66 -193.94,8.93 -387.5,26.989 -579.72,54.369 -178.3,25.39 -356.94,56.27 -530.79,103.88 -164.72,45.1 -326.09,107.44 -469.51,201.33 -18.07,11.83 -35.78,24.16 -53.2,36.91 -10.4,7.61 -20.39,-9.74 -10.1,-17.27 139.04,-101.75 298.34,-171.44 462.55,-221.49 171.49,-52.28 348.77,-84.96 525.74,-112.27 191.86,-29.6 385.12,-50.139 578.93,-61.479 195.63,-11.449 391.81,-13.531 587.63,-6.23 194.93,7.258 389.5,23.82 582.84,49.659 23.36,3.12 46.71,6.37 70.05,9.75 12.69,1.84 7.29,21.11 -5.32,19.29"
         style="fill:#f9aa7e;fill-opacity:1;fill-rule:nonzero;stroke:none"
         id="path144" />
      <path
         d="m 12597.1,638.5 c -1.5,12.699 -21.5,12.801 -20,0 7.9,-70.5 -26.7,-142.301 -87.7,-178.898 -11.1,-6.602 -1,-23.903 10.1,-17.301 66.5,40 106.3,118.898 97.6,196.199"
         style="fill:#f47155;fill-opacity:1;fill-rule:nonzero;stroke:none"
         id="path146" />
      <path
         d="m 12722.8,650 c -3.7,12.301 -23,7.102 -19.3,-5.301 17.3,-58.5 4,-124.297 -35.6,-170.898 -8.3,-9.801 5.8,-24 14.1,-14.102 44.3,52 60.2,124.602 40.8,190.301"
         style="fill:#f47155;fill-opacity:1;fill-rule:nonzero;stroke:none"
         id="path148" />
      <path
         d="m 11108.9,2347.42 c -42.4,-13.5 -84.1,-26.5 -125.3,-38.8 -7.9,6.3 -15.5,13.1 -22.6,20.2 -35.6,35.8 -61.3,80 -86.7,123.6 -128.4,220.9 -256.8,441.9 -385.2,662.8 -26.3,45.2 -53.2,91.3 -92.2,126.2 -38.9,34.9 -92.7,57.5 -143.8,46.5 -7.5,-1.6 -14,-3.8 -19.9,-6.5 1.9,17.5 3.8,34.9 5.7,52.4 4.6,42 13.8,91 51.8,109.5 54.2,26.4 110.2,-30.8 143.6,-81 224.9,-338.3 449.8,-676.6 674.6,-1014.9"
         style="fill:#fab88a;fill-opacity:1;fill-rule:nonzero;stroke:none"
         id="path150" />
      <path
         d="m 12997.9,2645.72 c -9.1,-15.7 -18.2,-31.3 -27.3,-47 -57,-33 -118.5,-59.7 -179.4,-84 -129.7,-51.6 -264.9,-97.3 -374.4,-183.9 -82.1,-64.8 -146.3,-150.3 -229.8,-213.4 -46.7,-35.2 -111.8,-68.3 -175.8,-75.4 -49.2,46.6 -131.6,111.9 -149,163.2 -19.7,58.3 66.8,85.9 121.9,118.3 62.6,36.7 126.8,70.6 192.4,101.5 131.3,61.8 268.2,111.8 408.4,149 70.1,18.6 141.1,34.1 212.6,46.3 25.7,4.4 189.5,8.9 200.4,25.4"
         style="fill:#fab88a;fill-opacity:1;fill-rule:nonzero;stroke:none"
         id="path152" />
      <path
         d="m 10102,1406.51 c -147.67,93.73 -318.02,148.83 -492.51,159.83 -12.86,0.81 -12.81,-19.19 0,-20 171.01,-10.78 337.75,-65.28 482.41,-157.1 10.9,-6.92 20.9,10.38 10.1,17.27"
         style="fill:#251914;fill-opacity:1;fill-rule:nonzero;stroke:none"
         id="path154" />
      <path
         d="m 12581.9,887.43 c -109.9,64.16 -240.2,87.531 -365.6,66.351 -12.6,-2.14 -7.3,-21.41 5.3,-19.289 120,20.27 245.3,-3.023 350.2,-64.32 11.2,-6.512 21.3,10.769 10.1,17.258"
         style="fill:#251914;fill-opacity:1;fill-rule:nonzero;stroke:none"
         id="path156" />
      <path
         d="m 12380.8,620.398 c -38.1,49.504 -88,87.801 -145.8,111.801 -5,2 -10.9,-2.297 -12.3,-7 -1.6,-5.797 2.1,-10.297 7,-12.301 52.4,-21.796 99.2,-57.699 133.8,-102.597 3.3,-4.301 8.6,-6.5 13.7,-3.602 4.2,2.403 6.9,9.403 3.6,13.699"
         style="fill:#251914;fill-opacity:1;fill-rule:nonzero;stroke:none"
         id="path158" />
      <path
         d="m 10564.1,1174.99 c -19.2,-38.36 -82.3,-45.73 -141,-16.45 -58.7,29.28 -90.8,84.12 -71.7,122.48 19.1,38.37 82.2,45.73 141,16.45 58.7,-29.27 90.8,-84.11 71.7,-122.48"
         style="fill:#f47155;fill-opacity:1;fill-rule:nonzero;stroke:none"
         id="path160" />
      <path
         d="m 11989.2,858.512 c 2.6,-42.789 -48.3,-80.711 -113.8,-84.813 -65.5,-4 -120.7,27.422 -123.4,70.211 -2.6,42.781 48.3,80.742 113.8,84.762 65.5,4.039 120.8,-27.383 123.4,-70.16"
         style="fill:#f47155;fill-opacity:1;fill-rule:nonzero;stroke:none"
         id="path162" />
      <path
         d="m 9744.11,1012.08 c 436.89,35.54 -588.42,654.54 -958.14,889.92 -218.34,139.01 -457.19,256.23 -714.01,288.48 -256.81,32.25 -534.87,-30.6 -720.28,-211.21 -185.4,-180.6 -251.66,-489.07 -115.53,-709.21 0,0 714.98,-403.861 2507.96,-257.98"
         style="fill:#f9aa7e;fill-opacity:1;fill-rule:nonzero;stroke:none"
         id="path164" />
      <path
         d="m 9971.62,1265.88 c -96.51,-19.61 -193.02,-39.23 -289.53,-58.85 -12.6,-2.55 -7.27,-21.83 5.32,-19.27 96.51,19.61 193.02,39.22 289.53,58.84 12.6,2.56 7.27,21.84 -5.32,19.28"
         style="fill:#251914;fill-opacity:1;fill-rule:nonzero;stroke:none"
         id="path166" />
      <path
         d="m 8521.8,417.102 h -205.1 c -21,81.699 -32.7,160.097 -13,244.8 4.7,20.297 11.3,41.098 25.7,56.2 14.5,15 38.8,22.398 56.8,11.898 13.9,-8.098 20.7,-24.098 26.6,-39 35.6,-89.5 71.2,-179 106.9,-268.5 0.7,-1.801 1.4,-3.598 2.1,-5.398"
         style="fill:#f47155;fill-opacity:1;fill-rule:nonzero;stroke:none"
         id="path168" />
      <path
         d="m 8824.5,417.102 h -206.4 c -13.1,50.199 -18,109.597 -15.4,155 0.9,16.8 3.1,33.8 10.4,48.898 7.3,15.102 20.5,28.199 36.9,31.699 30.3,6.301 56.9,-20.199 74.2,-45.898 21.7,-32.199 39.1,-67.102 56.4,-101.899 14.6,-29.3 29.2,-58.601 43.9,-87.8"
         style="fill:#f47155;fill-opacity:1;fill-rule:nonzero;stroke:none"
         id="path170" />
      <path
         d="M 9139.4,417.102 H 8945 c -6.7,43.3 -1.7,97.199 5.2,128.097 4.8,21.703 17,46.602 39.2,48.301 19.7,1.5 34.9,-16.398 46.5,-32.5 34.5,-47.898 69,-95.898 103.5,-143.898"
         style="fill:#f47155;fill-opacity:1;fill-rule:nonzero;stroke:none"
         id="path172" />
      <path
         d="m 8908.67,2606.85 c -166.82,80.9 -351.33,123.54 -536.77,123.81 -52.74,0.08 -105.42,-3.37 -157.72,-10.14 -12.59,-1.62 -12.75,-21.65 0,-20 180.57,23.35 365.45,5.64 538.31,-51.58 49.97,-16.54 98.73,-36.4 146.09,-59.36 11.53,-5.6 21.68,11.64 10.09,17.27"
         style="fill:#f9aa7e;fill-opacity:1;fill-rule:nonzero;stroke:none"
         id="path174" />
      <path
         d="m 9756.25,1806.74 c -153.35,227.44 -336.61,434.5 -544.14,613.92 -58.34,50.44 -118.6,98.62 -180.5,144.63 -10.33,7.68 -20.31,-9.67 -10.09,-17.27 217.61,-161.73 413.63,-352.36 581.63,-565.15 47.63,-60.32 92.87,-122.5 135.83,-186.23 7.16,-10.61 24.49,-0.61 17.27,10.1"
         style="fill:#f9aa7e;fill-opacity:1;fill-rule:nonzero;stroke:none"
         id="path176" />
      <path
         d="m 8998.73,2063.7 c -8.68,-25.27 -14.22,-57.59 6.01,-75.04 15.68,-13.53 40.52,-10.54 57.86,0.78 17.35,11.32 29.18,29.1 41.51,45.74 45.94,62.02 105.1,114.21 172.37,152.06 18.06,10.16 36.94,19.47 52.19,33.52 15.24,14.04 26.64,34.04 24.66,54.68 -2.47,25.74 -24.04,44.88 -44.07,61.24 -17.26,14.11 -37.8,38.36 -58.11,47.31 -21.88,9.63 -29.75,1.05 -47.37,-14.34 -31.54,-27.56 -60.48,-58.23 -86.61,-90.95 -51.28,-64.2 -91.82,-137.23 -118.44,-215"
         style="fill:#f47155;fill-opacity:1;fill-rule:nonzero;stroke:none"
         id="path178" />
      <path
         d="m 8642.35,2183.13 c -5.99,-19.56 -11.46,-39.85 -9.52,-60.22 1.94,-20.37 12.78,-41.07 31.5,-49.33 22.57,-9.96 49.81,0.99 66.83,18.86 17,17.88 26.41,41.42 37.03,63.69 47.56,99.74 127.14,183.9 224.05,236.96 21.71,11.88 44.49,22.41 63.28,38.51 18.79,16.11 33.45,39.23 32.45,63.96 -1.55,38 -37.64,64.74 -72.15,80.75 -29.46,13.66 -76.85,37.43 -110.46,31.75 -31.98,-5.4 -57.03,-48.05 -75.85,-71.51 -53.48,-66.7 -98.89,-139.87 -134.95,-217.38 -20.5,-44.07 -37.99,-89.56 -52.21,-136.04"
         style="fill:#f47155;fill-opacity:1;fill-rule:nonzero;stroke:none"
         id="path180" />
      <path
         d="m 3299.15,5620.2 c -11.24,-1.28 -22.06,-5.08 -33.27,-6.59 -25.34,-3.44 -52.07,5.65 -70.08,23.8 11.18,4 22.34,8 33.52,12 -30.13,2.42 -58.35,21.68 -71.59,48.85 9.03,2.97 18.06,5.94 27.09,8.9 -22.33,35.03 -35.07,76.11 -36.46,117.63 26.98,-30.09 53.96,-60.18 80.95,-90.27 1.72,9.46 3.45,18.92 5.18,28.37 15.37,-21.83 30.74,-43.66 46.12,-65.5 4.02,5.44 8.04,10.88 12.06,16.33 13.15,-24.48 26.31,-48.97 39.46,-73.45 8.25,-15.37 20.59,-38.35 12.76,-55.64 -18.89,15.13 -10.11,39.61 -45.74,35.57"
         style="fill:#fab88a;fill-opacity:1;fill-rule:nonzero;stroke:none"
         id="path182" />
      <path
         d="m 3506.13,5620.2 c 11.24,-1.28 22.07,-5.08 33.27,-6.59 25.34,-3.44 52.08,5.65 70.08,23.8 -11.17,4 -22.34,8 -33.51,12 30.13,2.42 58.35,21.68 71.59,48.85 -9.03,2.97 -18.06,5.94 -27.09,8.9 22.33,35.03 35.06,76.11 36.46,117.63 -26.98,-30.09 -53.97,-60.18 -80.95,-90.27 -1.73,9.46 -3.45,18.92 -5.18,28.37 -15.37,-21.83 -30.75,-43.66 -46.12,-65.5 -4.02,5.44 -8.04,10.88 -12.06,16.33 -13.16,-24.48 -26.31,-48.97 -39.46,-73.45 -8.26,-15.37 -20.59,-38.35 -12.76,-55.64 18.89,15.13 10.11,39.61 45.73,35.57"
         style="fill:#fab88a;fill-opacity:1;fill-rule:nonzero;stroke:none"
         id="path184" />
      <path
         d="m 3421.63,5684.43 c 0,-11.48 -9.3,-20.79 -20.79,-20.79 -11.48,0 -20.79,9.31 -20.79,20.79 0,11.49 9.31,20.79 20.79,20.79 11.49,0 20.79,-9.3 20.79,-20.79"
         style="fill:#fab88a;fill-opacity:1;fill-rule:nonzero;stroke:none"
         id="path186" />
      <path
         d="m 2646.88,5620.2 c -11.24,-1.28 -22.07,-5.08 -33.27,-6.59 -25.34,-3.44 -52.08,5.65 -70.08,23.8 11.17,4 22.34,8 33.51,12 -30.13,2.42 -58.35,21.68 -71.59,48.85 9.03,2.97 18.06,5.94 27.09,8.9 -22.33,35.03 -35.06,76.11 -36.46,117.63 26.99,-30.09 53.97,-60.18 80.95,-90.27 1.73,9.46 3.45,18.92 5.18,28.37 15.37,-21.83 30.75,-43.66 46.12,-65.5 4.02,5.44 8.04,10.88 12.06,16.33 13.16,-24.48 26.31,-48.97 39.46,-73.45 8.26,-15.37 20.59,-38.35 12.76,-55.64 -18.89,15.13 -10.11,39.61 -45.73,35.57"
         style="fill:#fab88a;fill-opacity:1;fill-rule:nonzero;stroke:none"
         id="path188" />
      <path
         d="m 2853.86,5620.2 c 11.24,-1.28 22.06,-5.08 33.27,-6.59 25.33,-3.44 52.07,5.65 70.08,23.8 -11.18,4 -22.35,8 -33.51,12 30.12,2.42 58.34,21.68 71.58,48.85 -9.03,2.97 -18.06,5.94 -27.09,8.9 22.33,35.03 35.07,76.11 36.46,117.63 -26.98,-30.09 -53.97,-60.18 -80.95,-90.27 -1.72,9.46 -3.45,18.92 -5.18,28.37 -15.37,-21.83 -30.74,-43.66 -46.12,-65.5 -4.02,5.44 -8.04,10.88 -12.06,16.33 -13.15,-24.48 -26.31,-48.97 -39.46,-73.45 -8.26,-15.37 -20.59,-38.35 -12.76,-55.64 18.89,15.13 10.11,39.61 45.74,35.57"
         style="fill:#fab88a;fill-opacity:1;fill-rule:nonzero;stroke:none"
         id="path190" />
      <path
         d="m 2769.36,5684.43 c 0,-11.48 -9.31,-20.79 -20.79,-20.79 -11.49,0 -20.8,9.31 -20.8,20.79 0,11.49 9.31,20.79 20.8,20.79 11.48,0 20.79,-9.3 20.79,-20.79"
         style="fill:#fab88a;fill-opacity:1;fill-rule:nonzero;stroke:none"
         id="path192" />
      <path
         d="m 2219.4,5620.2 c 11.24,-1.28 22.06,-5.08 33.27,-6.59 25.34,-3.44 52.07,5.65 70.08,23.8 -11.17,4 -22.34,8 -33.51,12 30.13,2.42 58.35,21.68 71.58,48.85 -9.02,2.97 -18.05,5.94 -27.09,8.9 22.33,35.03 35.07,76.11 36.47,117.63 -26.99,-30.09 -53.97,-60.18 -80.95,-90.27 -1.73,9.46 -3.46,18.92 -5.18,28.37 -15.37,-21.83 -30.75,-43.66 -46.12,-65.5 -4.03,5.44 -8.04,10.88 -12.07,16.33 -13.15,-24.48 -26.3,-48.97 -39.46,-73.45 -8.25,-15.37 -20.59,-38.35 -12.75,-55.64 18.88,15.13 10.1,39.61 45.73,35.57"
         style="fill:#fab88a;fill-opacity:1;fill-rule:nonzero;stroke:none"
         id="path194" />
      <path
         d="m 3984.28,5620.2 c -11.24,-1.28 -22.06,-5.08 -33.27,-6.59 -25.34,-3.44 -52.08,5.65 -70.08,23.8 11.17,4 22.35,8 33.51,12 -30.12,2.42 -58.34,21.68 -71.58,48.85 9.03,2.97 18.06,5.94 27.09,8.9 -22.33,35.03 -35.07,76.11 -36.46,117.63 26.98,-30.09 53.96,-60.18 80.95,-90.27 1.72,9.46 3.45,18.92 5.17,28.37 15.38,-21.83 30.75,-43.66 46.13,-65.5 4.01,5.44 8.04,10.88 12.06,16.33 13.15,-24.48 26.31,-48.97 39.45,-73.45 8.26,-15.37 20.6,-38.35 12.76,-55.64 -18.88,15.13 -10.1,39.61 -45.73,35.57"
         style="fill:#fab88a;fill-opacity:1;fill-rule:nonzero;stroke:none"
         id="path196" />
      <path
         d="m 4191.26,5620.2 c 11.24,-1.28 22.06,-5.08 33.27,-6.59 25.34,-3.44 52.08,5.65 70.08,23.8 -11.17,4 -22.34,8 -33.51,12 30.13,2.42 58.35,21.68 71.58,48.85 -9.02,2.97 -18.06,5.94 -27.09,8.9 22.33,35.03 35.07,76.11 36.47,117.63 -26.99,-30.09 -53.97,-60.18 -80.95,-90.27 -1.73,9.46 -3.45,18.92 -5.18,28.37 -15.37,-21.83 -30.75,-43.66 -46.12,-65.5 -4.03,5.44 -8.04,10.88 -12.07,16.33 -13.15,-24.48 -26.3,-48.97 -39.46,-73.45 -8.25,-15.37 -20.59,-38.35 -12.75,-55.64 18.88,15.13 10.1,39.61 45.73,35.57"
         style="fill:#fab88a;fill-opacity:1;fill-rule:nonzero;stroke:none"
         id="path198" />
      <path
         d="m 4106.76,5684.43 c 0,-11.48 -9.31,-20.79 -20.79,-20.79 -11.48,0 -20.79,9.31 -20.79,20.79 0,11.49 9.31,20.79 20.79,20.79 11.48,0 20.79,-9.3 20.79,-20.79"
         style="fill:#fab88a;fill-opacity:1;fill-rule:nonzero;stroke:none"
         id="path200" />
      <path
         d="m 4618.74,5620.2 c -11.24,-1.28 -22.07,-5.08 -33.27,-6.59 -25.34,-3.44 -52.08,5.65 -70.08,23.8 11.17,4 22.34,8 33.51,12 -30.13,2.42 -58.35,21.68 -71.59,48.85 9.03,2.97 18.06,5.94 27.09,8.9 -22.33,35.03 -35.06,76.11 -36.46,117.63 26.99,-30.09 53.97,-60.18 80.95,-90.27 1.73,9.46 3.45,18.92 5.18,28.37 15.37,-21.83 30.75,-43.66 46.12,-65.5 4.02,5.44 8.04,10.88 12.06,16.33 13.15,-24.48 26.31,-48.97 39.46,-73.45 8.26,-15.37 20.59,-38.35 12.76,-55.64 -18.89,15.13 -10.11,39.61 -45.73,35.57"
         style="fill:#fab88a;fill-opacity:1;fill-rule:nonzero;stroke:none"
         id="path202" />
      <path
         d="m 4952,5676.7 c -14.8,-15.4 -35.1,-25.6 -56.4,-27.3 11.1,-4 22.3,-8 33.5,-12 -18,-18.1 -44.8,-27.2 -70.1,-23.8 -11.2,1.5 -22,5.3 -33.3,6.6 -35.6,4 -26.8,-20.4 -45.7,-35.6 -7.9,17.3 4.5,40.3 12.7,55.7 13.2,24.5 26.3,48.9 39.5,73.4 4,-5.4 8,-10.9 12.1,-16.3 15.3,21.8 30.7,43.7 46.1,65.5 1.7,-9.5 3.4,-18.9 5.2,-28.4 13.6,15.2 27.1,30.3 40.8,45.5 l 9.6,-63.1 c -1.9,-3.3 -3.9,-6.5 -5.9,-9.7 2.6,-0.9 5.1,-1.7 7.7,-2.5 6.4,-2.2 12.9,-4.3 19.3,-6.4 -3.9,-8 -9,-15.2 -15.1,-21.6"
         style="fill:#fab88a;fill-opacity:1;fill-rule:nonzero;stroke:none"
         id="path204" />
      <path
         d="m 4741.22,5684.43 c 0,-11.48 -9.31,-20.79 -20.8,-20.79 -11.48,0 -20.79,9.31 -20.79,20.79 0,11.49 9.31,20.79 20.79,20.79 11.49,0 20.8,-9.3 20.8,-20.79"
         style="fill:#fab88a;fill-opacity:1;fill-rule:nonzero;stroke:none"
         id="path206" />
      <path
         d="M 4985,5459.3 H 2105.8 l 8.1,53.4 h 2863 l 8.1,-53.4"
         style="fill:#fab88a;fill-opacity:1;fill-rule:nonzero;stroke:none"
         id="path208" />
      <path
         d="m 4993.4,5404 h -2896 l 1.6,10.7 h 2892.8 l 1.6,-10.7"
         style="fill:#fab88a;fill-opacity:1;fill-rule:nonzero;stroke:none"
         id="path210" />
      <path
         d="M 4893,6066.4 H 2197.8 l 26.7,176.2 h 2641.8 l 26.7,-176.2"
         style="fill:#f7f3e6;fill-opacity:1;fill-rule:nonzero;stroke:none"
         id="path212" />
      <path
         d="m 6706.85,6789.59 c -0.63,101.72 60.8,194.63 136.05,263.07 75.25,68.44 165.07,118.63 245.54,180.84 83.12,64.27 157.49,143.43 199.51,239.73 42.02,96.3 48.36,211.47 0.5,305 -47.86,93.54 -155.32,158.14 -258.88,140.41 -87.51,-14.99 -159.32,-84.86 -192.44,-167.23 -30.37,-75.53 -30.5,-165.89 12.59,-234.95 43.09,-69.06 133.47,-109.45 210.44,-82.95 76.96,26.5 123.19,126.25 83.46,197.29 -39.73,71.05 -162.16,76.42 -199.61,4.14"
         style="fill:none;stroke:#ffffff;stroke-width:20;stroke-linecap:butt;stroke-linejoin:miter;stroke-miterlimit:10;stroke-dasharray:none;stroke-opacity:1"
         id="path214" />
      <path
         d="m 4315.42,3881.06 c 20.23,76.61 -5.13,163.47 -63.39,217.17 -91.42,84.25 -235.8,77.9 -340.58,144.81 -88.45,56.49 -138.95,163.39 -137.27,268.32 1.61,101.14 50.79,202 133.77,259.85 82.98,57.85 198.63,68.22 287.52,19.94 88.88,-48.28 143.7,-155.63 124.25,-254.89 -12.87,-65.68 -58.21,-125.72 -120.64,-149.83 -62.44,-24.11 -140.1,-7.91 -182.99,43.47 -42.88,51.38 -42.91,135.49 4.32,182.91 47.23,47.42 136.68,44.83 176.86,-8.68"
         style="fill:none;stroke:#fab88a;stroke-width:20;stroke-linecap:butt;stroke-linejoin:miter;stroke-miterlimit:10;stroke-dasharray:none;stroke-opacity:1"
         id="path216" />
      <path
         d="m 4558.94,4385.45 c -46.49,90.69 -46.08,203.91 1.07,294.25 44.2,84.71 123.17,144.79 185.84,216.9 62.66,72.12 111.09,172.44 76.42,261.47 -26.75,68.71 -104.3,113.64 -177.21,102.69 -72.92,-10.95 -133.84,-76.69 -139.23,-150.22 -3.5,-47.82 17.03,-98.89 58.01,-123.79 40.97,-24.9 101.64,-16.21 127.79,23.98 26.16,40.18 2.9,105.08 -44.39,113"
         style="fill:none;stroke:#fab88a;stroke-width:20;stroke-linecap:butt;stroke-linejoin:miter;stroke-miterlimit:10;stroke-dasharray:none;stroke-opacity:1"
         id="path218" />
      <path
         d="m 23303.3,3395.01 c 0,1511.84 -1225.6,2737.43 -2737.4,2737.43 -1511.8,0 -2737.4,-1225.59 -2737.4,-2737.43 0,-1511.83 1225.6,-2737.408 2737.4,-2737.408 1511.8,0 2737.4,1225.578 2737.4,2737.408"
         style="fill:#fde2a3;fill-opacity:1;fill-rule:nonzero;stroke:none"
         id="path220" />
      <path
         d="m 14038.3,10299.9 c 0,713.9 -578.7,1292.7 -1292.6,1292.7 -714,0 -1292.7,-578.8 -1292.7,-1292.7 0,-713.89 578.7,-1292.64 1292.7,-1292.64 713.9,0 1292.6,578.75 1292.6,1292.64"
         style="fill:#fde2a3;fill-opacity:1;fill-rule:nonzero;stroke:none"
         id="path222" />
    </g>
  </g>
</svg>
