<?xml version="1.0" standalone="no"?>
<svg xmlns="http://www.w3.org/2000/svg" version="1.1" xmlns:xlink="http://www.w3.org/1999/xlink" width="512" height="512" x="0" y="0" viewBox="0 0 512 512" style="enable-background:new 0 0 512 512" xml:space="preserve" class=""><g><path d="M33.47 512c-8.544 0-15.471-6.927-15.471-15.471V224.13c0-31.128 6.493-62.236 19.104-90.703.048-.11.281-.6.358-.75 10.749-21.271 22.894-41.824 39.002-59.52 20.245-22.241 46.147-41.069 73.602-53.435C175.095 8.434 201.753 1.924 229.306.369l.63-.042C233.966.111 238.073 0 242.128 0c62.266 0 119.629 9.86 169.362 50.412 51.679 42.14 82.512 107.069 82.512 173.717v272.399c0 8.544-6.927 15.471-15.471 15.471H33.47z" style="" fill="#ffffff" data-original="#ffffff" class=""/><path d="M481.163 358.046v60.24c0 37.852-20.743 62.215-20.743 62.215l-92.828 17.342H36.102v-272.4c0-2.707.052-5.389.155-8.071.928-24.342 6.008-47.6 14.569-69.106a164.64 164.64 0 0 1 2.94-6.962 233.097 233.097 0 0 1 5.002-10.572 209.246 209.246 0 0 1 16.219-26.611 212.012 212.012 0 0 1 6.446-8.535 208.802 208.802 0 0 1 8.741-10.288 4.95 4.95 0 0 1 .361-.412c38.163-41.85 93.138-68.1 154.224-68.1h27.745c36.152 0 70.137 9.18 99.765 25.347a202.768 202.768 0 0 1 16.4 9.953c3.687 2.475 7.22 5.054 10.753 7.736a209.304 209.304 0 0 1 23.001 20.5 225.786 225.786 0 0 1 4.771 5.105c.593.645 1.16 1.289 1.728 1.934a198.739 198.739 0 0 1 7.039 8.406 200.854 200.854 0 0 1 12.274 17.148 205.76 205.76 0 0 1 13.924 25.45 203.246 203.246 0 0 1 6.421 15.652c2.579 7.014-18.852 13.025-17.047 20.348 3.644 14.783-13.643 17.048-13.167 32.259.139 4.443 26.227 20.497 21.923 22.255-5.838 2.385-11.488 5.523-16.065 9.917-7.671 7.364-11.14 17.236-11.053 27.753.189 22.814 13.573 45.007 26.076 63.231 4.767 6.948 9.857 13.676 15.183 20.204 1.102 1.351 6.733 6.232 6.733 8.062z" style="" fill="#a27cff" data-original="#a27cff" class=""/><path d="m297.644 78.615 19.331-49.029.911 50.963 49.504 11.668-36.588 17.188 7.626 41.198-43.726-26.46-29.784 20.655 18.72-44.654-38.957-21.195zM379.28 320.89l19.331-49.028 11.28 46.898 39.135 15.732-36.587 17.188 7.625 41.198-40.075-32.351-33.435 26.547 18.721-44.654-38.958-21.196z" style="" fill="#ffbeff" data-original="#ffbeff" class=""/><path d="M208.686 480.514c-6.652-.464-13.357.387-19.855 1.238-3.068.387-6.24.799-9.36 1.057-11.862 1.006-20.732-.799-27.127-5.441-5.982-4.384-10.134-11.784-11.346-20.319-1.005-7.117-.155-14.981 2.604-24.058.722-2.295 1.496-4.59 2.295-6.885 2.243-6.472 4.564-13.177 4.822-20.216.464-12.712-5.467-25.502-18.669-40.251-7.581-8.458-19.391-20.035-34.604-22.975-2.991-.567-6.137-.696-9.283-.387a38.005 38.005 0 0 0-.696-5.879c-2.063-10.288-8.406-20.242-17.457-27.255-8.999-7.014-19.984-10.546-30.143-9.798-1.264.103-2.527.258-3.765.516v2.63a29.366 29.366 0 0 1 3.971-.567c9.515-.748 19.855 2.63 28.364 9.257 8.561 6.653 14.569 16.013 16.503 25.734a35.42 35.42 0 0 1 .645 5.699c-10.366 1.779-20.139 8.251-22.82 18.695-.593 2.295-1.186 6.601 1.573 9.515 1.367 1.444 3.197 2.166 5.338 2.166 3.378-.077 7.323-2.166 10.056-5.338 5.26-6.059 8.226-14.337 8.458-22.82 2.965-.284 5.956-.18 8.767.361 14.44 2.811 25.837 14.002 33.16 22.176 12.738 14.208 18.462 26.43 18.024 38.446-.232 6.627-2.501 13.151-4.667 19.468-.825 2.321-1.624 4.616-2.321 6.962-2.888 9.438-3.791 17.663-2.708 25.167 1.315 9.231 5.827 17.251 12.377 22.047 6.911 5.028 16.348 6.962 28.854 5.931 3.172-.258 6.395-.696 9.489-1.083 6.369-.825 12.919-1.676 19.365-1.238 11.939.825 23.336 6.214 31.639 14.775h3.507c-8.818-10.033-21.582-16.402-34.99-17.33zM77.798 365.974c-2.218 2.553-5.596 4.384-8.174 4.435-1.392.026-2.527-.438-3.404-1.367-1.985-2.089-1.315-5.673-.954-7.091 2.372-9.257 11.01-15.033 20.319-16.735-.284 7.736-3.017 15.214-7.787 20.758zM427.193 85.426c-2.785 1.702-5.492 3.533-8.174 5.312-7.065 4.719-14.337 9.566-22.33 12.429-11.758 4.229-24.445 3.791-34.785-1.212-9.102-4.384-16.142-12.532-19.056-21.66 7.272-1.779 13.512-5.234 18.05-10.237 2.991-3.301 4.667-6.704 5.002-10.108.438-4.332-1.65-8.561-5.054-10.34-2.862-1.47-6.575-1.341-10.211.412-9.489 4.564-12.661 16.116-11.578 24.935.129 1.135.335 2.269.593 3.378-6.395 1.135-13.563.98-21.067-.619-29.731-6.292-54.382-31.33-60.828-60.932h-2.63c6.472 30.788 32.026 56.909 62.943 63.458 7.89 1.676 15.471 1.831 22.253.593 3.068 9.876 10.649 18.72 20.474 23.439 5.982 2.914 12.686 4.358 19.571 4.358 5.725 0 11.552-1.006 17.199-3.043 8.277-2.965 15.704-7.916 22.872-12.712 2.785-1.857 5.595-3.739 8.483-5.518-.567-.644-1.134-1.288-1.727-1.933zm-85.582-10.778c-.954-7.916 1.805-18.308 10.134-22.304 1.599-.774 3.223-1.16 4.745-1.16 1.16 0 2.243.232 3.172.722 2.501 1.289 3.997 4.487 3.687 7.787-.284 2.836-1.753 5.75-4.358 8.638-4.203 4.642-10.005 7.839-16.812 9.489a27.11 27.11 0 0 1-.568-3.172zM288.827 486.29l13.254 11.552h-3.945l-11.01-9.592c-1.676-1.47-3.61-3.146-5.776-3.739-4.229-1.16-8.716 2.011-10.624 5.75-1.186 2.321-1.702 4.951-1.831 7.581h-2.604c.181-2.965.748-5.982 2.14-8.741 2.346-4.59 7.865-8.638 13.589-7.091 2.759.747 4.899 2.63 6.807 4.28zM481.163 397.046v2.579a79.618 79.618 0 0 1-33.16-8.174c-9.283-4.538-15.188-11.81-21.428-19.52-1.186-1.47-2.372-2.94-3.61-4.409-7.504-8.948-14.388-13.718-21.66-15.033-6.524-1.16-13.873.516-20.757 4.77-29.112 18.05-29.241 47.987-29.396 79.703-.077 21.093-.18 42.882-9.592 60.88h-2.94c.232-.387.464-.799.67-1.186 9.102-17.457 9.206-38.936 9.283-59.694.155-31.02.284-63.097 30.633-81.895 7.4-4.59 15.42-6.395 22.537-5.131 10.392 1.882 18.23 10.005 23.207 15.936 1.238 1.47 2.45 2.965 3.636 4.435 6.06 7.478 11.784 14.543 20.551 18.849 10.056 4.95 20.989 7.632 32.026 7.89z" style="" fill="#2f2444" data-original="#2f2444" class=""/><path d="m333.683 361.126.223.431-180.62-116.75-99.171 10.984 13.151-102.265 12.299 3.068 2.192-7.039 20.846 8.131 5.481-9.885 13.177 5.725 4.409-7.633 178.617 107.242 5.26 64.542 35.121 23.259z" style="" fill="#ffffff" data-original="#ffffff" class=""/><path d="m342.025 367.482-85.158 25.231L54.115 255.791l99.171-10.984z" style="" fill="#e697b4" data-original="#f96756" class="" opacity="1"/><path d="M54.544 255.986a.644.644 0 0 1-.341-1.193c.464-.287 46.931-28.486 99.291-10.598a.643.643 0 1 1-.416 1.22c-51.775-17.686-97.737 10.189-98.196 10.473a.63.63 0 0 1-.338.098z" style="" fill="#2f2444" data-original="#2f2444" class=""/><path d="M338.074 353.424a.636.636 0 0 1-.347-.102L137.739 225.26a57.966 57.966 0 0 0-1.254-.014c-34.789 0-81.007 30.432-81.477 30.743a.645.645 0 0 1-.713-1.075c.479-.318 48.299-31.824 83.654-30.94a.644.644 0 0 1 .332.102l200.141 128.16a.645.645 0 0 1-.348 1.188z" style="" fill="#2f2444" data-original="#2f2444" class=""/><path d="M344.667 341.58a.642.642 0 0 1-.354-.106L140.435 206.868c-45.678 9.17-84.821 48.637-85.212 49.035a.645.645 0 0 1-1.001-.802l70.907-109.56a.644.644 0 1 1 1.082.702L58.256 251.241c11.146-10.218 44.456-38.214 82.188-45.689a.66.66 0 0 1 .48.095l204.1 134.751a.646.646 0 0 1-.357 1.182z" style="" fill="#2f2444" data-original="#2f2444" class=""/><path d="M54.652 256.206a.646.646 0 0 1-.625-.805l27.104-106.007a.645.645 0 0 1 1.25.32l-25.59 100.08 50.715-102.28a.644.644 0 1 1 1.154.572L55.229 255.848a.643.643 0 0 1-.577.358z" style="" fill="#2f2444" data-original="#2f2444" class=""/><path d="m415.332 446.039-14.801 51.803h-19.52c-3.481-1.599-7.323-3.378-11.397-5.26-15.91-7.297-35.352-15.936-49.74-21.505-28.983-11.217-63.227-19.107-68.487-25.682-4.874-6.111-77.744-97.753-88.264-111.007a1.869 1.869 0 0 1-.387-.696c-.387-1.006-.129-2.166.773-2.862a6.33 6.33 0 0 1 .877-.567c2.398-1.366 7.272-2.424 13.383 1.882l-4.693-5.802c-.438-.928-.309-2.011.361-2.785.026-.052.052-.077.103-.129 2.501-2.579 9.205-6.859 22.33 1.857.284.181.567.387.877.619.335.206.645.438.98.696.129.077.258.155.387.284a50.085 50.085 0 0 1 2.579 1.986c18.772 15.265 62.762 49.921 72.019 57.218.49.387.954.774 1.393 1.109.232.155.335.258.335.258l33.573-10.546.851.387c6.859 3.172 53.17 24.754 61.679 34.527 9.231 10.521 13.176 21.067 13.176 21.067l7.065 2.94 24.548 10.208z" style="" fill="#ff9393" data-original="#ff9393" class=""/><path d="M244.479 407.841a.966.966 0 0 1-.705-.305c-.501-.534-50.219-53.562-62.941-70.526l-7.835-10.562a3.555 3.555 0 0 1-.616-2.721 3.467 3.467 0 0 1 1.479-2.271c5.757-3.888 12.82-3.224 20.993 1.978 14.367 9.143 88.249 69.906 91.387 72.488a.968.968 0 0 1-1.228 1.494c-.768-.632-76.929-63.271-91.197-72.352-7.461-4.746-13.812-5.423-18.872-2.005a1.542 1.542 0 0 0-.658 1.013c-.079.436.02.875.277 1.239l7.82 10.541c12.656 16.875 62.302 69.826 62.802 70.358a.968.968 0 0 1-.706 1.631zM176.839 351.897a.967.967 0 0 1-.858-1.41c1.149-2.229 1.164-5.128.038-7.755-.987-2.304-2.844-4.458-5.367-6.23-1.606-1.127-4.731-2.871-7.606-1.891a.968.968 0 0 1-.625-1.831c2.733-.932 6.05-.174 9.343 2.139 2.817 1.978 4.904 4.416 6.033 7.051 1.351 3.151 1.314 6.667-.097 9.403a.968.968 0 0 1-.861.524z" style="" fill="#2f2444" data-original="#2f2444" class=""/><path d="M188.228 345.042a.966.966 0 0 1-.86-1.406c2.046-4.015 1.597-9.129-1.117-12.726-2.715-3.595-7.502-5.434-11.932-4.562a.973.973 0 0 1-1.135-.764.968.968 0 0 1 .764-1.135c5.127-1.004 10.695 1.123 13.846 5.296 3.15 4.174 3.671 10.109 1.297 14.77a.969.969 0 0 1-.863.527z" style="" fill="#2f2444" data-original="#2f2444" class=""/><path d="M481.163 417.442v80.4H367.654l1.96-5.26 21.17-56.754 2.811-7.555 23.697 7.89s6.601-23.697 43.449-21.067c5.646.412 12.634 1.212 20.422 2.346z" style="" fill="#ffc15c" data-original="#ffc15c" class=""/><path d="M323.048 189.15s-27.629-11.713-46.694-19.777c-19.065-8.064-28.05-3.321-46.533-7.863-18.482-4.542-25.516-12.063-51.697-8.456-24.073 3.316-55.953 16.13-55.953 16.13s-8.013-22.195 19.936-32.608 40.696-18.673 40.696-18.673l-15.953-8.941-7.787.323s-41.001 59.854-57.411 40.857l5.912-11.291s-9.665 8.293-19.103-.64l17.812-23.572s-22.666 9.539-28.988-4.613l44.867-21.896s5.408-6.684 14.332-9.608c8.925-2.924 51.556-20.831 59.771-19.295 8.215 1.536 54.604 30.41 81.873 48.697 27.269 18.286 70.091 36.533 70.091 36.533l-25.171 44.693z" style="" fill="#ff9393" data-original="#ff9393" class=""/><path d="M122.171 169.76a.578.578 0 0 1-.561-.447c-3.43-14.962 1.624-20.582 10.354-28.061 5.092-4.359 18.529-9.62 30.386-14.262 7.123-2.789 13.852-5.423 17.997-7.548 10.761-5.515 13.415-11.566 13.44-11.627a.575.575 0 0 1 1.063.444c-.108.262-2.799 6.479-13.978 12.208-4.197 2.15-10.951 4.795-18.103 7.595-11.771 4.607-25.113 9.831-30.057 14.064-8.401 7.196-13.266 12.6-9.98 26.928a.576.576 0 0 1-.561.706z" style="" fill="#2f2444" data-original="#2f2444" class=""/><path d="M109.646 154.367c-.702 0-1.385-.054-2.05-.16-4.471-.717-6.353-3.634-6.431-3.758a.577.577 0 0 1-.055-.5c.067-.19 1.811-4.917 14.395-27.071l1.236-2.177c12.048-21.217 18.095-31.866 24.596-34.622C147.826 83.331 171.76 75.767 172 75.69a.576.576 0 1 1 .348 1.098c-.241.076-24.122 7.624-30.561 10.352-6.142 2.603-12.124 13.139-24.043 34.13l-1.236 2.177c-10.896 19.181-13.662 25.33-14.201 26.614.514.648 2.243 2.504 5.51 3.016 3.627.566 9.986-.433 19.652-8.432 19.006-15.729 30.394-36.061 30.506-36.265a.576.576 0 0 1 .517-.296l19.367.415a.575.575 0 0 1-.013 1.151l-.013-.001-19.023-.407c-1.506 2.614-12.712 21.48-30.606 36.289-7.097 5.872-13.326 8.836-18.558 8.836z" style="" fill="#2f2444" data-original="#2f2444" class=""/><path d="M97.441 143.395c-4.803 0-9.19-4.568-9.397-4.787a.575.575 0 0 1-.05-.731l33.835-47.028a.576.576 0 0 1 .936.672l-33.547 46.628c1.238 1.175 5.674 4.996 9.771 3.895 5.02-1.354 7.436-2.975 7.46-2.991a.576.576 0 0 1 .65.95c-.103.071-2.578 1.741-7.809 3.152a7.15 7.15 0 0 1-1.849.24zM122.398 169.74a.573.573 0 0 1-.563-.698c.605-2.812 2.659-5.346 6.276-7.748 3.207-2.129 6.178-3.364 9.082-3.778 3.606-.513 7.101.329 9.576 2.314a.577.577 0 0 1-.721.899c-2.229-1.788-5.399-2.543-8.693-2.072-2.731.389-5.547 1.565-8.607 3.597-3.354 2.228-5.248 4.528-5.788 7.031a.575.575 0 0 1-.562.455z" style="" fill="#2f2444" data-original="#2f2444" class=""/><path d="M103.445 150.84c-.549 0-1.088-.02-1.611-.046a.576.576 0 0 1-.546-.604c.016-.318.326-.547.604-.546 2.361.122 5.073.071 7.254-1.224 1.39-.825 2.476-2.112 3.442-3.38.82-1.074 1.741-2.367 2.358-3.813 1.624-3.809.875-8.454-1.864-11.56a.576.576 0 0 1 .863-.761c3.027 3.432 3.854 8.564 2.06 12.772-.666 1.563-1.639 2.93-2.501 4.061-1.037 1.359-2.212 2.746-3.771 3.672-1.937 1.151-4.178 1.429-6.288 1.429zM89.122 138.304a.576.576 0 0 1-.071-1.148c1.777-.226 3.614-.458 5.168-1.322 1.207-.672 2.183-1.687 3.243-2.847.683-.745 1.342-1.481 1.911-2.282 2.094-2.95 2.853-6.814 2.028-10.337a.575.575 0 1 1 1.121-.261c.898 3.839.072 8.05-2.21 11.265-.607.855-1.293 1.62-2.001 2.394-1.129 1.235-2.175 2.32-3.532 3.075-1.749.973-3.786 1.23-5.584 1.459a.893.893 0 0 1-.073.004z" style="" fill="#2f2444" data-original="#2f2444" class=""/><path d="M481.163 225.442v133.157c-59.513-25.476-120.961-54.33-128.258-67.636-14.517-26.559-27.952-77.151-27.952-77.151l-41.515-23.542 7.839-14.569 24.909-46.208 4.899-9.128 38.343 17.534s7.787-18.643 40.535-13.228c11.939 1.985 38.936 14.337 68.616 29.344a203.572 203.572 0 0 1 6.575 21.531 206.974 206.974 0 0 1 4.332 23.465 204.262 204.262 0 0 1 1.599 21.531c.052.928.052 1.857.052 2.785.026.697.026 1.419.026 2.115z" style="" fill="#ffc15c" data-original="#ffc15c" class=""/><path d="M81.107 111.289c-1.275 0-2.551-.165-3.783-.5a.576.576 0 0 1 .303-1.111c3.22.876 6.769.49 9.728-1.06a13.528 13.528 0 0 0 6.409-7.395.575.575 0 1 1 1.086.384 14.688 14.688 0 0 1-6.96 8.029 14.654 14.654 0 0 1-6.783 1.653z" style="" fill="#2f2444" data-original="#2f2444" class=""/><path d="m100.137 390.676 19.331-49.028.911 50.962 49.504 11.668-36.588 17.188 7.626 41.198-40.076-32.351-33.434 26.547 18.72-44.654-38.957-21.196z" style="" fill="#ffbeff" data-original="#ffbeff" class=""/></g></svg>