<?xml version="1.0" encoding="iso-8859-1"?>
<!-- Generator: Adobe Illustrator 27.0.0, SVG Export Plug-In . SVG Version: 6.00 Build 0)  -->
<svg xmlns="http://www.w3.org/2000/svg" xmlns:xlink="http://www.w3.org/1999/xlink" version="1.1" id="Capa_1" x="0px" y="0px" viewBox="0 0 512 512" style="enable-background:new 0 0 512 512;" xml:space="preserve">
<g>
	<g>
		<path style="fill:#FFFFFF;" d="M256,512c-68.38,0-132.667-26.629-181.019-74.981C26.629,388.667,0,324.38,0,256    S26.629,123.333,74.981,74.981C123.333,26.629,187.62,0,256,0c68.38,0,132.667,26.629,181.019,74.981    C485.371,123.333,512,187.62,512,256s-26.629,132.667-74.981,181.019C388.667,485.371,324.38,512,256,512z"/>
	</g>
	<g>
		<g>
			<circle style="fill:#BB91FF;" cx="256" cy="256" r="246.129"/>
		</g>
		<g>
			<g>
				<g>
					<g>
						<path style="fill:#F7EDE5;" d="M101.271,99.924c0,0,118.376-51.331,168.66,56.569c0,0,70.188-69.14,178.088,5.238        l27.237,20.952l-59.712,246.18l-190.659-28.284L58.32,372.294L101.271,99.924z"/>
					</g>
					<g>
						<g>
							<path style="fill:#412945;" d="M429.947,189.139c-0.3,0-0.603-0.091-0.866-0.281c-36.152-26.11-74.344-28.593-100.014-26.08         c-27.84,2.726-47.315,11.726-47.509,11.816c-0.742,0.346-1.623,0.027-1.969-0.713c-0.347-0.741-0.027-1.622,0.713-1.969         c0.198-0.093,20.135-9.306,48.476-12.081c26.18-2.565,65.135-0.025,102.037,26.626c0.663,0.479,0.812,1.404,0.333,2.067         C430.859,188.926,430.406,189.139,429.947,189.139z"/>
						</g>
						<g>
							<path style="fill:#412945;" d="M426.256,207.401c-0.293,0-0.589-0.087-0.848-0.268         c-36.526-25.568-74.602-27.955-100.109-25.453c-27.659,2.712-46.861,11.564-47.052,11.653         c-0.741,0.348-1.622,0.026-1.968-0.715c-0.346-0.741-0.026-1.622,0.715-1.968c0.195-0.092,19.858-9.157,48.016-11.918         c26.005-2.549,64.83-0.113,102.097,25.974c0.67,0.469,0.833,1.392,0.364,2.062         C427.183,207.18,426.723,207.401,426.256,207.401z"/>
						</g>
						<g>
							<path style="fill:#412945;" d="M422.566,225.661c-0.286,0-0.575-0.082-0.83-0.255         c-36.86-24.999-74.778-27.303-100.095-24.836c-27.5,2.681-46.516,11.413-46.705,11.501c-0.741,0.345-1.622,0.024-1.967-0.717         c-0.345-0.741-0.025-1.622,0.716-1.967c0.193-0.09,19.582-9.007,47.557-11.753c25.833-2.536,64.526-0.201,102.156,25.322         c0.677,0.459,0.853,1.379,0.394,2.056C423.506,225.434,423.04,225.661,422.566,225.661z"/>
						</g>
						<g>
							<path style="fill:#412945;" d="M418.876,243.923c-0.279,0-0.561-0.079-0.812-0.243         c-37.232-24.457-75.032-26.665-100.189-24.208c-27.319,2.666-46.063,11.251-46.249,11.338         c-0.741,0.344-1.621,0.023-1.966-0.719c-0.344-0.741-0.023-1.621,0.719-1.966c0.19-0.088,19.305-8.858,47.096-11.589         c25.657-2.524,64.219-0.289,102.215,24.669c0.683,0.449,0.873,1.367,0.425,2.051         C419.83,243.688,419.357,243.923,418.876,243.923z"/>
						</g>
						<g>
							<path style="fill:#412945;" d="M415.186,262.184c-0.272,0-0.547-0.075-0.793-0.231         c-37.647-23.94-75.378-26.032-100.396-23.569c-27.114,2.668-45.499,11.079-45.681,11.164         c-0.74,0.344-1.622,0.022-1.966-0.721c-0.344-0.742-0.022-1.622,0.721-1.966c0.187-0.087,19.029-8.708,46.637-11.425         c25.487-2.505,63.916-0.375,102.275,24.018c0.69,0.439,0.894,1.354,0.455,2.044         C416.154,261.942,415.675,262.184,415.186,262.184z"/>
						</g>
						<g>
							<path style="fill:#412945;" d="M411.495,280.445c-0.265,0-0.533-0.071-0.775-0.22c-37.98-23.372-75.551-25.38-100.377-22.953         c-26.958,2.637-45.158,10.929-45.339,11.013c-0.742,0.343-1.622,0.018-1.965-0.723c-0.343-0.742-0.02-1.622,0.722-1.965         c0.185-0.085,18.752-8.559,46.177-11.26c25.31-2.493,63.611-0.463,102.334,23.367c0.697,0.428,0.913,1.34,0.485,2.037         C412.478,280.195,411.993,280.445,411.495,280.445z"/>
						</g>
						<g>
							<path style="fill:#412945;" d="M407.805,298.706c-0.257,0-0.519-0.067-0.756-0.208         c-38.352-22.828-75.804-24.737-100.471-22.324c-26.777,2.623-44.706,10.768-44.884,10.85         c-0.744,0.342-1.622,0.016-1.964-0.725c-0.343-0.743-0.018-1.622,0.724-1.964c0.182-0.084,18.476-8.409,45.717-11.096         c25.137-2.48,63.306-0.551,102.392,22.715c0.703,0.418,0.934,1.327,0.515,2.03         C408.801,298.448,408.309,298.706,407.805,298.706z"/>
						</g>
						<g>
							<path style="fill:#412945;" d="M404.114,316.968c-0.251,0-0.504-0.064-0.737-0.198         c-38.724-22.285-76.06-24.098-100.566-21.696c-26.596,2.608-44.253,10.606-44.429,10.687         c-0.743,0.341-1.622,0.015-1.964-0.727c-0.341-0.743-0.016-1.622,0.726-1.964c0.73-0.336,18.197-8.259,45.257-10.931         c24.964-2.463,63.001-0.638,102.451,22.064c0.709,0.408,0.953,1.313,0.545,2.022         C405.125,316.702,404.627,316.967,404.114,316.968z"/>
						</g>
						<g>
							<path style="fill:#412945;" d="M400.424,335.229c-0.243,0-0.49-0.06-0.718-0.187c-39.098-21.742-76.32-23.456-100.66-21.067         c-26.416,2.593-43.801,10.445-43.974,10.524c-0.743,0.338-1.622,0.013-1.963-0.729c-0.341-0.743-0.015-1.622,0.728-1.962         c0.719-0.33,17.92-8.11,44.797-10.767c24.789-2.452,62.696-0.725,102.51,21.414c0.715,0.398,0.972,1.299,0.575,2.014         C401.449,334.955,400.944,335.229,400.424,335.229z"/>
						</g>
						<g>
							<path style="fill:#412945;" d="M396.734,353.49c-0.236,0-0.476-0.057-0.699-0.177         c-39.472-21.198-76.578-22.814-100.755-20.437c-26.235,2.579-43.349,10.283-43.519,10.361         c-0.745,0.342-1.622,0.013-1.962-0.731c-0.34-0.744-0.013-1.622,0.731-1.962c0.708-0.323,17.644-7.96,44.337-10.602         c24.617-2.438,62.392-0.813,102.569,20.763c0.721,0.387,0.991,1.284,0.604,2.005         C397.773,353.207,397.262,353.49,396.734,353.49z"/>
						</g>
						<g>
							<path style="fill:#412945;" d="M393.043,371.751c-0.229,0-0.462-0.053-0.68-0.167         c-39.844-20.653-76.834-22.173-100.849-19.807c-26.055,2.564-42.898,10.122-43.064,10.199         c-0.746,0.337-1.622,0.009-1.961-0.734c-0.339-0.744-0.011-1.621,0.733-1.961c0.697-0.318,17.367-7.811,43.877-10.439         c24.444-2.423,62.087-0.9,102.627,20.113c0.726,0.376,1.009,1.27,0.633,1.996         C394.096,371.46,393.579,371.751,393.043,371.751z"/>
						</g>
						<g>
							<path style="fill:#412945;" d="M389.354,390.013c-0.223,0-0.449-0.051-0.661-0.157         c-40.218-20.109-77.09-21.526-100.943-19.178c-25.874,2.55-42.445,9.961-42.61,10.036c-0.746,0.338-1.622,0.008-1.96-0.736         c-0.338-0.744-0.009-1.622,0.735-1.96c0.685-0.311,17.09-7.66,43.417-10.274c24.271-2.408,61.783-0.988,102.685,19.464         c0.731,0.366,1.027,1.255,0.662,1.987C390.419,389.712,389.896,390.013,389.354,390.013z"/>
						</g>
					</g>
					<g>
						<g>
							<path style="fill:#412945;" d="M399.568,414.106c-0.178,0-0.357-0.032-0.527-0.097         c-81.107-30.898-168.755-11.145-169.631-10.941c-0.482,0.111-0.988-0.025-1.348-0.363c-0.361-0.338-0.528-0.835-0.447-1.323         L268.47,156.25c0.134-0.807,0.897-1.354,1.704-1.217c0.807,0.134,1.351,0.897,1.217,1.704L230.892,399.73         c13.957-2.812,93.214-16.804,167.609,10.912l55.407-243.477c0.181-0.797,0.973-1.298,1.772-1.115         c0.797,0.181,1.297,0.975,1.115,1.772l-55.784,245.133c-0.095,0.418-0.367,0.774-0.745,0.976         C400.05,414.048,399.809,414.106,399.568,414.106z"/>
						</g>
						<g>
							<path style="fill:#412945;" d="M409.26,428.773c-0.089,0-0.18-0.008-0.27-0.025c-0.482-0.089-48.581-8.976-82.754-15.19         c-34.087-6.197-95.76-10.066-96.378-10.105c-0.778-0.048-1.386-0.692-1.389-1.472c-0.003-0.78,0.6-1.429,1.379-1.482         c0.507-0.036,51.105-3.432,93.204,2.806c37.38,5.538,71.909,14.018,79.348,15.894l57.797-247.329         c0.186-0.796,0.986-1.289,1.779-1.105c0.796,0.186,1.291,0.982,1.105,1.778l-58.14,248.799         c-0.091,0.388-0.334,0.724-0.676,0.931c-0.341,0.206-0.752,0.265-1.138,0.165c-0.382-0.099-38.651-10.005-80.507-16.205         c-22.253-3.297-46.925-3.883-65.194-3.701c21.035,1.746,49.715,4.544,69.342,8.112c30.921,5.622,73.241,13.432,81.381,14.936         l59.908-249.529c0.191-0.796,0.991-1.286,1.785-1.094c0.795,0.191,1.285,0.99,1.094,1.785l-60.236,250.895         C410.536,428.313,409.932,428.773,409.26,428.773z"/>
						</g>
						<path style="fill:#412945;" d="M231.422,402.023c0.005-0.155-0.013-0.306-0.054-0.45c-0.007-0.023-0.015-0.044-0.023-0.066        c-0.05-0.148-0.118-0.287-0.21-0.411c-0.011-0.015-0.025-0.028-0.036-0.042c-0.103-0.129-0.224-0.243-0.367-0.332        c-0.002-0.001-0.003-0.004-0.006-0.005c-0.372-0.23-37.864-23.135-91.46-33.542c-52.998-10.29-79.663,2.789-81.549,3.765        c-0.008,0.004-0.015,0.008-0.022,0.012c-0.02,0.011-0.055,0.028-0.068,0.035c-0.007,0.004-0.012,0.011-0.019,0.015        c-0.139,0.077-0.267,0.172-0.375,0.29c-0.004,0.005-0.007,0.01-0.012,0.015c-0.098,0.11-0.179,0.236-0.242,0.373        c-0.007,0.014-0.015,0.027-0.021,0.041c-0.043,0.102-0.077,0.209-0.097,0.322c-0.006,0.033-0.004,0.065-0.007,0.098        c-0.003,0.029-0.005,0.057-0.006,0.087c-0.007,0.151,0.005,0.299,0.042,0.439c0.001,0.006,0,0.011,0.002,0.017        c0.003,0.012,0.012,0.021,0.015,0.032c0.044,0.146,0.106,0.286,0.191,0.411c0.004,0.006,0.006,0.012,0.01,0.018        c0.083,0.118,0.187,0.219,0.3,0.309c0.024,0.019,0.046,0.039,0.071,0.056c0.11,0.076,0.23,0.136,0.361,0.181        c0.037,0.013,0.073,0.021,0.111,0.031c0.039,0.01,0.076,0.025,0.116,0.033l171.628,29.681c0.085,0.015,0.17,0.022,0.254,0.022        c0.008,0,0.014-0.004,0.022-0.004c0.152-0.003,0.3-0.032,0.442-0.079c0.051-0.017,0.095-0.043,0.144-0.065        c0.095-0.043,0.185-0.093,0.269-0.156c0.047-0.035,0.089-0.073,0.132-0.114c0.072-0.068,0.135-0.144,0.193-0.228        c0.035-0.05,0.07-0.098,0.098-0.154c0.014-0.026,0.035-0.046,0.047-0.073c0.025-0.056,0.025-0.115,0.043-0.173        c0.02-0.063,0.056-0.117,0.067-0.184c0.007-0.042,0.005-0.082,0.009-0.123C231.418,402.077,231.421,402.051,231.422,402.023z         M138.701,370.081c34.757,6.749,62.654,18.793,77.86,26.358c-19.391-5.707-54.843-15.859-77.619-20.705        c-20.627-4.389-47.227-5.203-64.127-5.203c-2.81,0-5.353,0.022-7.554,0.054C78.881,367.22,102.746,363.1,138.701,370.081z         M205.056,396.168L73.931,373.491c16.704-0.03,43.642,0.724,64.395,5.14C157.298,382.668,185.133,390.41,205.056,396.168z"/>
					</g>
				</g>
				<g>
					<g>
						<polygon style="fill:#6E72FF;" points="56.603,196.355 163.508,445.802 358.671,359.069 358.671,336.514 246.705,84.388         61.437,167.356       "/>
					</g>
					<g>
						<g>
							<polygon style="fill:#F7EDE5;" points="166.564,440.739 173.897,417.343 355.127,337.029 354.778,357.282        "/>
						</g>
						<g>
							<g>
								<path style="fill:#412945;" d="M172.501,423.363c-0.57,0-1.113-0.331-1.357-0.886c-0.329-0.749,0.012-1.622,0.761-1.951          l182.976-80.314c0.751-0.329,1.622,0.012,1.951,0.76c0.329,0.749-0.012,1.622-0.761,1.951l-182.977,80.314          C172.901,423.323,172.699,423.363,172.501,423.363z"/>
							</g>
							<g>
								<path style="fill:#412945;" d="M171.104,430.347c-0.568,0-1.11-0.329-1.355-0.882c-0.331-0.748,0.007-1.622,0.755-1.953          l184.723-81.711c0.747-0.332,1.622,0.007,1.953,0.755c0.331,0.748-0.007,1.622-0.755,1.953L171.702,430.22          C171.508,430.306,171.304,430.347,171.104,430.347z"/>
							</g>
							<g>
								<path style="fill:#412945;" d="M167.961,437.332c-0.569,0-1.112-0.33-1.356-0.885c-0.33-0.748,0.01-1.622,0.758-1.951          l187.866-82.759c0.749-0.332,1.623,0.01,1.951,0.758c0.33,0.748-0.01,1.622-0.758,1.952l-187.866,82.759          C168.363,437.291,168.16,437.332,167.961,437.332z"/>
							</g>
						</g>
					</g>
					<g>
						<path style="fill:#412945;" d="M173.898,418.824c-0.565,0-1.105-0.325-1.351-0.874L60.086,167.964        c-0.335-0.746-0.003-1.622,0.743-1.958c0.746-0.336,1.623-0.002,1.958,0.743l112.46,249.987        c0.336,0.746,0.003,1.622-0.743,1.958C174.307,418.782,174.101,418.824,173.898,418.824z"/>
					</g>
					<g>
						<g>
							<g>
								<g>
									<polygon style="fill:#8BAFF7;" points="97.728,184.328 185.038,378.103 324.021,317.075 236.265,119.291          "/>
								</g>
								<g>
									<g>
										<polygon style="fill:#F7EDE5;" points="121.236,192.356 229.047,141.896 235.715,156.004 126.907,206.441           "/>
									</g>
									<g>
										<polygon style="fill:#F7EDE5;" points="136.606,228.012 192.432,357.108 305.578,308.261 245.267,178.167           "/>
									</g>
								</g>
							</g>
							<g>
								<path style="fill:#FFC569;" d="M185.837,397.52c-0.177,0-0.355-0.032-0.524-0.096c-0.369-0.14-0.667-0.421-0.828-0.781          c-0.479-1.072-1.347-1.892-2.445-2.308c-1.097-0.416-2.291-0.378-3.361,0.108c-0.36,0.163-0.768,0.176-1.137,0.037          c-0.369-0.14-0.667-0.421-0.827-0.781L81.808,181.111c-0.333-0.745,0-1.618,0.744-1.953c2.194-0.988,3.18-3.578,2.199-5.774          c-0.333-0.745,0-1.618,0.744-1.953l149.788-67.451c0.36-0.161,0.771-0.173,1.138-0.032c0.369,0.142,0.666,0.425,0.825,0.787          c0.473,1.077,1.339,1.902,2.437,2.324c1.098,0.421,2.294,0.388,3.366-0.095c0.359-0.162,0.77-0.173,1.138-0.032          c0.369,0.142,0.666,0.425,0.825,0.786l93.486,212.598c0.326,0.742-0.005,1.609-0.743,1.944          c-2.169,0.986-3.154,3.564-2.195,5.745c0.326,0.742-0.005,1.609-0.743,1.944l-148.369,67.44          C186.255,397.476,186.046,397.52,185.837,397.52z M180.486,391.085c0.878,0,1.757,0.16,2.603,0.48          c1.368,0.519,2.523,1.41,3.356,2.571l145.953-66.341c-0.609-2.827,0.524-5.791,2.862-7.492l-92.417-210.166          c-1.396,0.314-2.853,0.21-4.221-0.316c-1.367-0.525-2.519-1.423-3.347-2.59L87.921,173.585          c0.627,2.844-0.507,5.824-2.868,7.53l93.818,210.152C179.403,391.146,179.944,391.085,180.486,391.085z"/>
							</g>
						</g>
						<g>
							<path style="fill:#FFC569;" d="M79.964,173.956c0,2.604-2.111,4.714-4.714,4.714c-2.604,0-4.714-2.111-4.714-4.714         c0-2.604,2.11-4.714,4.714-4.714C77.853,169.242,79.964,171.353,79.964,173.956z"/>
						</g>
						<g>
							<path style="fill:#FFC569;" d="M247.925,98.531c0,2.604-2.111,4.714-4.714,4.714c-2.604,0-4.714-2.111-4.714-4.714         c0-2.604,2.111-4.714,4.714-4.714C245.815,93.817,247.925,95.927,247.925,98.531z"/>
						</g>
						<g>
							<circle style="fill:#FFC569;" cx="179.309" cy="403.201" r="4.714"/>
						</g>
						<g>
							<path style="fill:#FFC569;" d="M349.54,328.474c0,2.604-2.111,4.714-4.714,4.714c-2.603,0-4.714-2.111-4.714-4.714         c0-2.603,2.111-4.714,4.714-4.714C347.43,323.76,349.54,325.87,349.54,328.474z"/>
						</g>
					</g>
				</g>
			</g>
			<g>
				<g>
					<path style="fill:#B7BA6A;" d="M322.449,104.24c-4.461-2.553-9.651-3.424-14.583-4.871       c-14.803-4.343-27.859-14.374-35.869-27.558c-8.011-13.184-10.898-29.393-7.933-44.532       C295.825,38.536,318.16,70.816,322.449,104.24z"/>
				</g>
				<g>
					<path style="fill:#B7BA6A;" d="M83.536,336.097c-4.461-2.553-9.651-3.424-14.584-4.871       c-14.803-4.343-27.859-14.374-35.869-27.558c-8.011-13.184-10.898-29.393-7.933-44.532       C56.912,270.393,79.247,302.673,83.536,336.097z"/>
				</g>
				<g>
					<path style="fill:#B7BA6A;" d="M303.65,439.693c-4.464,2.548-7.849,6.577-11.6,10.092       c-11.256,10.549-26.525,16.707-41.951,16.916c-15.425,0.21-30.857-5.53-42.395-15.77       C233.526,429.28,272.675,426.422,303.65,439.693z"/>
				</g>
			</g>
			<g>
				<path style="fill:#412945;" d="M250.998,342.338c-1.556-2.354-3.189-4.669-4.858-6.962c-1.563-28.316-1.594-57.027-0.091-85.338      c0.043-0.816-0.584-1.514-1.4-1.557c-0.819-0.035-1.514,0.583-1.557,1.4c-1.43,26.955-1.459,54.267-0.121,81.264      c-1.896-2.457-3.835-4.88-5.841-7.229c-1.667-1.953-3.391-3.872-5.129-5.774c0.008-0.147,0-0.296-0.038-0.446      c-10.957-42.356-15.287-85.982-12.872-129.663c0.045-0.816-0.58-1.515-1.396-1.56c-0.818-0.034-1.515,0.58-1.56,1.396      c-2.343,42.381,1.638,84.705,11.799,125.887c-1.637-1.738-3.275-3.462-4.896-5.159c-2.865-3-5.827-6.103-8.671-9.208      c-14.448-15.777-27.257-33.135-38.069-51.593c-0.414-0.705-1.321-0.944-2.026-0.529c-0.706,0.413-0.942,1.321-0.529,2.026      c10.918,18.638,23.851,36.166,38.44,52.096c2.864,3.128,5.838,6.242,8.713,9.253c4.681,4.903,9.521,9.972,13.983,15.198      c4.9,5.739,9.493,11.84,13.651,18.132c0.285,0.431,0.756,0.664,1.237,0.664c0.28,0,0.563-0.079,0.815-0.245      C251.261,343.94,251.449,343.021,250.998,342.338z"/>
				<g>
					<g>
						<path style="fill:#FFC569;" d="M190.147,247.317l-2.89,1.6l0.06,3.325c0.182,10.082-10.802,16.424-19.443,11.228l-2.852-1.715        l-2.852,1.715c-8.641,5.197-19.625-1.146-19.443-11.228l0.06-3.325l-2.89-1.6c-8.823-4.884-8.823-17.569,0-22.453l2.89-1.6        l-0.06-3.325c-0.182-10.082,10.802-16.424,19.443-11.228l2.852,1.715l2.852-1.715c8.641-5.197,19.625,1.146,19.443,11.228        l-0.06,3.325l2.89,1.6C198.97,229.748,198.97,242.433,190.147,247.317z"/>
					</g>
					<g>
						<circle style="fill:#FFFFFF;" cx="166.407" cy="236.469" r="11.467"/>
					</g>
				</g>
				<g>
					<g>
						<path style="fill:#FFC569;" d="M245.591,191.873l-2.89,1.6l0.06,3.325c0.182,10.082-10.802,16.424-19.443,11.228l-2.853-1.715        l-2.852,1.715c-8.641,5.197-19.625-1.146-19.443-11.228l0.06-3.325l-2.89-1.6c-8.823-4.884-8.823-17.569,0-22.453l2.89-1.6        l-0.06-3.325c-0.182-10.082,10.802-16.424,19.443-11.228l2.852,1.715l2.852-1.715c8.641-5.197,19.625,1.146,19.443,11.228        l-0.06,3.325l2.89,1.6C254.414,174.304,254.414,186.989,245.591,191.873z"/>
					</g>
					<g>
						<circle style="fill:#FFFFFF;" cx="221.851" cy="181.025" r="11.467"/>
					</g>
				</g>
				<g>
					<g>
						<path style="fill:#FFC569;" d="M267.769,257.902l-2.89,1.6l0.06,3.325c0.182,10.082-10.802,16.424-19.443,11.228l-2.852-1.715        l-2.852,1.715c-8.641,5.197-19.625-1.146-19.443-11.228l0.06-3.325l-2.89-1.6c-8.823-4.884-8.823-17.569,0-22.453l2.89-1.6        l-0.06-3.325c-0.182-10.082,10.802-16.424,19.443-11.228l2.853,1.715l2.852-1.715c8.641-5.197,19.625,1.146,19.443,11.228        l-0.06,3.325l2.89,1.6C276.592,240.333,276.592,253.018,267.769,257.902z"/>
					</g>
					<g>
						<circle style="fill:#FFFFFF;" cx="244.029" cy="247.053" r="11.467"/>
					</g>
				</g>
			</g>
			<g>
				<g>
					<circle style="fill:#FFC569;" cx="411.243" cy="101.765" r="13.609"/>
				</g>
				<g>
					<circle style="fill:#FFC569;" cx="67.994" cy="133.519" r="14.113"/>
				</g>
				<g>
					<circle style="fill:#FFC569;" cx="340.678" cy="442.493" r="13.609"/>
				</g>
			</g>
		</g>
	</g>
</g>
<g>
</g>
<g>
</g>
<g>
</g>
<g>
</g>
<g>
</g>
<g>
</g>
<g>
</g>
<g>
</g>
<g>
</g>
<g>
</g>
<g>
</g>
<g>
</g>
<g>
</g>
<g>
</g>
<g>
</g>
</svg>
